<svg xmlns="http://www.w3.org/2000/svg" width="1481" height="416" fill="none" viewBox="0 0 1481 416"><path fill="#2F80ED" d="M450.221 289.357C450.221 216.271 450.221 149.85 450.221 76.7634H452.009C484.2 76.7634 516.39 76.7634 548.581 76.7634V78.6021C548.581 142.495 548.581 206.388 548.581 270.281C562.664 270.281 588.595 266.833 602.902 266.833H604.691C604.691 228.452 604.691 190.3 604.691 151.918V150.079C620.562 150.079 636.434 150.079 652.082 150.079C652.082 132.612 652.082 115.145 652.082 97.9078V96.0692C677.566 96.0692 702.827 96.0692 728.311 96.0692C728.311 137.209 728.311 178.578 728.311 219.718C741.948 219.718 755.36 219.718 768.996 219.718C768.996 248.217 768.996 276.716 768.996 304.985C788.668 304.985 808.564 304.985 828.236 304.985L830.024 303.147C830.024 254.882 830.024 206.848 830.024 158.583V156.744C847.014 156.744 864.003 156.744 880.769 156.744H882.557C882.557 132.382 882.557 108.02 882.557 83.6583H884.346C893.958 83.6583 903.571 83.6583 913.183 83.6583L914.972 81.8197C914.972 54.4699 914.972 27.12 914.972 0C947.609 0 980.47 0 1013.33 0C1013.33 63.2034 1013.33 133.532 1013.33 196.735L1015.12 198.574C1029.2 198.574 1043.29 198.574 1057.37 198.574H1059.16C1059.16 219.948 1059.16 241.552 1059.16 262.926C1089.34 262.926 1123.76 262.926 1153.94 262.926C1153.94 179.957 1153.94 92.1621 1153.94 9.19322V8.96339C1176.07 8.96339 1197.98 8.96339 1220.11 8.96339V10.1125C1220.11 88.4848 1220.11 169.155 1220.11 247.528L1221.23 249.366C1242.69 249.366 1266.38 249.366 1287.85 249.366C1287.85 260.168 1287.85 273.269 1287.85 284.3H1288.96C1301.26 284.3 1317.8 284.3 1330.1 284.3C1330.1 242.701 1330.1 198.803 1330.1 157.204H1331.88C1347.08 157.204 1362.29 157.204 1377.71 157.204L1379.5 155.365C1379.5 126.407 1379.5 95.3797 1379.5 66.4211C1395.37 66.4211 1417.5 66.4211 1433.15 66.4211H1433.82C1433.82 116.294 1433.82 172.833 1433.82 222.476V223.166C1450.14 223.166 1466.46 223.166 1483 223.166V223.625C1483 243.85 1483 395.079 1483 415.304C992.095 415.304 492.471 415.304 1.56543 415.304V413.235C1.56543 318.545 1.56543 225.924 1.56543 131.233L2.01252 130.774C24.5906 130.774 47.1687 130.774 69.7467 130.774V132.612C69.7467 160.422 69.7467 188.461 69.7467 216.271V218.109C82.4888 218.109 97.4664 218.109 110.432 218.109C110.432 155.595 110.432 90.7831 110.432 28.2692V26.4305C143.293 26.4305 175.931 26.4305 208.792 26.4305V28.2692C208.792 107.791 208.792 187.312 208.792 266.833V268.672C218.404 268.672 228.017 268.672 237.629 268.672C237.629 232.129 237.629 195.586 237.629 158.813C270.938 158.813 304.246 158.813 337.554 158.813C337.554 201.791 337.554 244.77 337.554 287.748V289.587C374.886 289.587 412.218 289.587 449.327 289.587H450.221V289.357Z"/></svg>