<svg width="59" height="47" viewBox="0 0 59 47" fill="none" xmlns="http://www.w3.org/2000/svg">
<path d="M40.3712 31.7968C36.3445 35.7114 32.1789 39.7611 28.1522 43.6757C28.9853 43.6757 29.6796 43.6757 30.5127 43.6757C22.5982 35.7114 14.5447 27.8822 6.49133 20.0529C5.38051 18.973 4.13084 17.7581 3.02003 16.6782C3.02003 17.4881 3.02003 18.1631 3.02003 18.973C8.2964 13.8435 13.5728 8.71396 18.8491 3.58444C18.016 3.58444 17.3218 3.58444 16.4887 3.58444C18.988 6.01421 21.4873 8.44398 23.9867 10.8738C25.514 12.3586 27.8745 10.0638 26.3472 8.57897C23.8478 6.1492 21.3485 3.71942 18.8491 1.28965C18.1549 0.614713 17.1829 0.614713 16.4887 1.28965C11.2123 6.41917 5.93592 11.5487 0.520695 16.6782C-0.173565 17.3531 -0.173565 18.2981 0.520695 18.973C8.71296 26.8023 16.7664 34.6315 24.8198 42.4608C25.9306 43.5407 27.1803 44.7556 28.2911 45.8355C28.9853 46.5104 29.9573 46.5104 30.6516 45.8355C34.6783 41.9209 38.8438 37.8712 42.8705 33.9566C44.3979 32.6067 41.8986 30.3119 40.3712 31.7968Z" fill="white"/>
<path d="M50.369 26.6673C53.0072 24.1025 55.6454 21.5378 58.2836 18.973C58.9778 18.2981 58.9778 17.2182 58.2836 16.6782C54.2569 12.8986 50.369 8.98393 46.3423 5.20429C44.9538 3.85441 43.5653 2.23457 42.0379 1.15467C41.3436 0.479731 40.3717 0.614718 39.3997 0.614718C37.8723 0.614718 36.2061 0.614718 34.6787 0.614718C31.7628 0.614718 28.7081 0.614718 25.7922 0.614718C23.5706 0.614718 23.5706 3.85441 25.7922 3.85441C30.9297 3.85441 35.9284 3.85441 41.0659 3.85441C40.6494 3.71943 40.2328 3.58444 39.8162 3.31447C45.2315 8.57897 50.6467 13.7085 55.9231 18.973C55.9231 18.1631 55.9231 17.4881 55.9231 16.6782C53.2849 19.243 50.6467 21.8077 48.0085 24.3725C46.4811 25.8574 48.8416 28.1521 50.369 26.6673Z" fill="white"/>
<path d="M32.3175 18.7031C38.0104 24.2375 43.7033 29.772 49.3962 35.3065C50.9236 36.7914 53.2841 34.4966 51.7567 33.0117C46.0638 27.4772 40.3709 21.9428 34.6779 16.4083C33.2894 14.9234 30.7901 17.2182 32.3175 18.7031Z" fill="white"/>
<path d="M39.8158 1.15467C33.0121 7.76905 26.0695 14.5184 19.2657 21.1328C18.2938 22.0777 17.3218 23.0226 16.3498 23.9675C14.8225 25.4524 17.1829 27.7472 18.7103 26.2623C25.5141 19.6479 32.4567 12.8986 39.2604 6.28419C40.2324 5.33928 41.2043 4.39437 42.1763 3.44945C43.7037 2.09958 41.3432 -0.330191 39.8158 1.15467Z" fill="white"/>
</svg>
