<svg width="1481" height="473" viewBox="0 0 1481 473" fill="none" xmlns="http://www.w3.org/2000/svg">
<path d="M450.221 289.857C450.221 216.771 450.221 150.35 450.221 77.2634H452.009C484.2 77.2634 516.39 77.2634 548.581 77.2634V79.1021C548.581 142.995 548.581 206.888 548.581 270.781C562.664 270.781 588.595 267.333 602.902 267.333H604.691C604.691 228.952 604.691 190.8 604.691 152.418V150.579C620.562 150.579 636.434 150.579 652.082 150.579C652.082 133.112 652.082 115.645 652.082 98.4078V96.5692C677.566 96.5692 702.827 96.5692 728.311 96.5692C728.311 137.709 728.311 179.078 728.311 220.218C741.947 220.218 755.36 220.218 768.996 220.218C768.996 248.717 768.996 277.216 768.996 305.485C788.668 305.485 808.564 305.485 828.236 305.485L830.024 303.647C830.024 255.382 830.024 207.348 830.024 159.083V157.244C847.014 157.244 864.003 157.244 880.769 157.244H882.557C882.557 132.882 882.557 108.52 882.557 84.1583H884.346C893.958 84.1583 903.571 84.1583 913.183 84.1583L914.972 82.3197C914.972 54.9699 914.972 27.62 914.972 0.5C947.609 0.5 980.47 0.5 1013.33 0.5C1013.33 63.7034 1013.33 134.032 1013.33 197.235L1015.12 199.074C1029.2 199.074 1043.29 199.074 1057.37 199.074H1059.16C1059.16 220.448 1059.16 242.052 1059.16 263.426C1089.34 263.426 1123.76 263.426 1153.94 263.426C1153.94 180.457 1153.94 92.6621 1153.94 9.69322V9.46339C1176.07 9.46339 1197.98 9.46339 1220.11 9.46339V10.6125C1220.11 88.9848 1220.11 169.655 1220.11 248.028L1221.23 249.866C1242.69 249.866 1266.38 249.866 1287.85 249.866C1287.85 260.668 1287.85 273.769 1287.85 284.8H1288.96C1301.26 284.8 1317.8 284.8 1330.1 284.8C1330.1 243.201 1330.1 199.303 1330.1 157.704H1331.88C1347.08 157.704 1362.29 157.704 1377.71 157.704L1379.5 155.865C1379.5 126.907 1379.5 95.8797 1379.5 66.9211C1395.37 66.9211 1417.5 66.9211 1433.15 66.9211H1433.82C1433.82 116.794 1433.82 173.333 1433.82 222.976V223.666C1450.14 223.666 1466.46 223.666 1483 223.666V224.125C1483 244.35 1483 395.579 1483 415.804C992.095 415.804 491.906 416 1 416V131.5C23.5781 131.5 47.1687 131.274 69.7468 131.274V133.112C69.7468 160.922 69.7468 188.961 69.7468 216.771V218.609C82.4888 218.609 97.4664 218.609 110.432 218.609C110.432 156.095 110.432 91.2831 110.432 28.7692V26.9305C143.293 26.9305 175.931 26.9305 208.792 26.9305V28.7692C208.792 108.291 208.792 187.812 208.792 267.333V269.172C218.404 269.172 228.017 269.172 237.629 269.172C237.629 232.629 237.629 196.086 237.629 159.313C270.938 159.313 304.246 159.313 337.554 159.313C337.554 202.291 337.554 245.27 337.554 288.248V290.087C374.886 290.087 412.218 290.087 449.327 290.087H450.221V289.857Z" fill="#2F80ED"/>
<path d="M298.857 77.758C298.857 86.2365 298.857 94.715 298.857 103.423C298.857 108.693 307.091 108.693 307.091 103.423C307.091 94.9442 307.091 86.4656 307.091 77.758C307.091 72.4876 298.857 72.4876 298.857 77.758Z" fill="#56CCF2"/>
<path d="M298.857 110.297C298.857 118.776 298.386 127.254 298.386 135.732C298.386 141.003 306.62 141.003 306.62 135.732C306.62 127.254 307.091 118.776 307.091 110.297C307.091 105.256 298.857 105.256 298.857 110.297Z" fill="#56CCF2"/>
<path d="M311.796 149.71C313.443 144.898 312.502 139.399 307.797 136.649C303.798 134.357 298.857 135.045 295.328 137.795C291.094 141.232 290.388 147.648 293.682 152.002C295.799 154.981 299.092 156.814 302.857 156.814C307.797 157.043 310.385 153.606 311.796 149.71C312.502 147.648 310.855 145.357 308.973 144.669C306.621 143.982 304.739 145.357 303.798 147.419C303.327 148.565 303.092 149.023 301.916 148.565C300.739 148.106 300.033 146.732 300.033 145.586C300.033 144.898 300.034 145.357 300.269 144.669C300.269 144.898 300.504 144.211 300.504 144.211C300.269 144.44 301.445 143.523 300.975 143.753C300.504 143.982 302.386 143.294 301.445 143.523C301.68 143.523 302.857 143.294 301.916 143.294C302.386 143.294 302.857 143.294 303.327 143.294C302.386 143.294 303.562 143.523 303.798 143.523C302.857 143.065 304.739 143.982 303.798 143.523C304.033 143.523 304.268 143.753 304.268 143.982C304.033 143.753 304.033 143.523 304.268 143.982C304.268 144.211 304.503 144.211 304.503 144.44C304.503 145.127 304.503 146.273 304.033 147.419C302.151 152.46 310.149 154.752 311.796 149.71Z" fill="#56CCF2"/>
<path d="M298.151 157.043C298.151 161.397 298.151 165.751 298.151 170.104C298.151 175.375 306.385 175.375 306.385 170.104C306.385 165.751 306.385 161.397 306.385 157.043C306.385 152.002 298.151 152.002 298.151 157.043Z" fill="#56CCF2"/>
<path d="M320.5 191.874C321.676 182.249 315.795 172.625 305.679 170.792C297.21 169.188 288.27 173.542 285.212 181.562C281.448 191.645 286.153 201.956 296.504 205.394C307.09 208.831 318.147 204.477 320.265 193.019C321.206 187.978 313.207 185.687 312.266 190.957C309.443 206.539 284.741 195.54 293.916 182.479C296.269 179.041 300.739 177.896 304.503 178.812C310.619 180.416 312.737 186.374 312.031 191.874C311.56 196.915 319.794 196.915 320.5 191.874Z" fill="#56CCF2"/>
<path d="M291.799 202.185C291.799 231.058 291.799 259.931 291.799 288.804C291.799 294.074 300.033 294.074 300.033 288.804C300.033 259.931 300.033 231.058 300.033 202.185C300.033 197.144 291.799 197.144 291.799 202.185Z" fill="#56CCF2"/>
<path d="M304.503 202.873C304.503 231.058 304.503 259.014 304.503 287.199C304.503 292.47 312.737 292.47 312.737 287.199C312.737 259.014 312.737 231.058 312.737 202.873C312.737 197.831 304.503 197.831 304.503 202.873Z" fill="#56CCF2"/>
<path d="M296.975 220.746C300.739 220.517 304.503 220.059 308.267 219.601C310.384 219.371 311.796 216.622 311.09 214.559C310.384 212.268 308.267 211.351 305.914 211.809C302.856 212.268 299.798 212.497 296.739 212.726C291.799 212.955 291.799 220.976 296.975 220.746Z" fill="#56CCF2"/>
<path d="M296.739 234.037C300.503 233.808 304.267 233.35 308.031 232.891C310.149 232.662 311.56 229.912 310.854 227.85C310.149 225.559 308.031 224.642 305.679 225.1C302.621 225.558 299.562 225.788 296.504 226.017C291.564 226.246 291.564 234.266 296.739 234.037Z" fill="#56CCF2"/>
<path d="M296.739 247.557C300.503 247.328 304.267 246.869 308.031 246.411C310.149 246.182 311.56 243.432 310.854 241.37C310.149 239.078 308.031 238.162 305.679 238.62C302.621 239.078 299.562 239.308 296.504 239.537C291.564 239.766 291.564 247.786 296.739 247.557Z" fill="#56CCF2"/>
<path d="M296.739 261.077C300.503 260.847 304.267 260.389 308.031 259.931C310.149 259.702 311.56 256.952 310.854 254.889C310.149 252.598 308.031 251.681 305.679 252.139C302.621 252.598 299.562 252.827 296.504 253.056C291.564 253.514 291.564 261.535 296.739 261.077Z" fill="#56CCF2"/>
<path d="M296.739 276.888C300.503 276.658 304.267 276.2 308.031 275.742C310.149 275.513 311.56 272.763 310.854 270.701C310.149 268.409 308.031 267.492 305.679 267.951C302.621 268.409 299.562 268.638 296.504 268.867C291.564 269.096 291.564 277.117 296.739 276.888Z" fill="#56CCF2"/>
<path d="M316.266 300.261C318.618 305.99 318.618 313.781 313.443 318.134C306.855 323.634 293.916 320.197 290.623 312.406C283.565 295.449 308.502 284.679 316.736 301.177C319.089 305.76 326.146 301.865 323.794 297.053C318.383 286.054 305.209 281.471 293.681 286.741C283.095 291.553 278.39 305.073 282.86 315.614C287.565 326.842 303.562 331.883 314.619 326.842C325.205 322.03 328.499 308.052 324.264 298.199C322.147 293.616 314.148 295.678 316.266 300.261Z" fill="#56CCF2"/>
<path d="M297.916 329.821C297.916 347.007 297.916 363.964 297.916 381.15C297.916 388.941 310.384 388.941 310.384 381.15C310.384 363.964 310.384 347.007 310.384 329.821C310.384 322.03 297.916 322.03 297.916 329.821Z" fill="#56CCF2"/>
<path d="M286.153 321.342C286.153 322.946 284.741 324.779 284.271 326.154C283.33 328.217 282.389 330.279 281.448 332.341C280.271 334.862 280.742 337.841 283.33 339.216C285.447 340.591 289.211 339.903 290.387 337.383C291.564 334.633 292.975 332.112 294.151 329.362C295.328 326.613 296.504 324.321 296.739 321.342C296.739 314.926 286.388 314.926 286.153 321.342Z" fill="#56CCF2"/>
<path d="M285.447 331.654C281.919 331.654 278.86 334.404 278.86 337.841C278.86 341.508 281.919 344.257 285.683 344.257C289.212 344.257 292.035 341.508 292.035 338.07C292.035 334.633 289.212 332.113 285.918 331.425C283.801 330.967 281.448 331.883 280.742 334.175C280.272 336.237 281.448 338.758 283.565 339.216C283.801 339.216 284.036 339.216 284.271 339.445C283.801 339.216 283.801 339.216 284.036 339.445C284.506 339.904 283.565 338.758 283.801 339.216C284.036 339.445 283.801 339.445 283.565 338.987C283.565 338.758 283.565 338.3 283.565 338.07C283.801 337.383 284.271 336.925 284.977 336.696C285.683 336.466 286.624 337.154 286.859 337.841C287.094 338.3 286.859 338.758 286.624 339.216C286.388 339.674 285.918 340.133 285.447 340.133C284.742 340.133 284.742 340.133 285.212 340.133C287.33 340.133 289.447 338.3 289.447 336.008C289.447 333.487 287.8 331.654 285.447 331.654Z" fill="#56CCF2"/>
<path d="M278.86 337.383C272.744 348.611 264.51 358.923 258.628 370.151C255.57 375.88 264.51 380.921 267.568 375.192C273.449 363.735 281.683 353.653 287.8 342.424C290.858 336.696 281.918 331.654 278.86 337.383Z" fill="#56CCF2"/>
<path d="M280.272 342.882C286.389 355.256 291.799 367.859 298.622 379.775C301.21 384.358 308.267 380.233 305.679 375.651C298.857 363.735 293.446 350.903 287.33 338.758C285.212 334.175 278.155 338.3 280.272 342.882Z" fill="#56CCF2"/>
<path d="M310.854 327.759C312.031 329.821 313.207 331.654 314.383 333.488C315.324 334.863 316.736 336.237 317.206 338.071C318.853 344.258 328.734 341.737 327.087 335.321C325.911 330.738 321.911 326.842 319.559 322.718C316.5 316.989 307.796 322.03 310.854 327.759Z" fill="#56CCF2"/>
<path d="M324.5 331.883C320.735 331.425 317.442 334.862 317.442 338.299C317.442 341.966 320.735 345.174 324.5 344.715C328.028 344.486 330.851 341.737 331.792 338.299C332.263 336.237 331.792 333.945 330.146 332.341C328.734 330.966 326.382 330.279 324.5 330.966C322.617 331.654 320.971 333.716 321.676 336.008C322.382 337.841 324.5 339.674 326.852 338.758C325.911 338.758 325.205 338.528 324.5 338.07C324.029 337.612 323.794 336.924 323.794 336.237C323.559 336.695 323.559 336.695 323.794 336.466C324.029 336.237 323.794 336.237 323.794 336.695C323.559 337.154 323.559 337.154 323.794 336.695C323.559 336.924 323.559 336.924 323.794 336.924C324.029 336.695 324.029 336.695 323.558 336.924C323.794 336.695 324.029 336.695 324.264 336.695C324.735 336.695 325.205 336.924 325.441 337.154C325.676 337.383 325.676 337.612 325.911 337.841C325.676 337.383 325.676 337.383 325.911 338.07C325.911 338.528 325.676 338.758 325.676 339.216C325.441 339.674 325.205 339.674 325.676 339.216C325.441 339.445 325.205 339.674 324.97 339.674C324.5 339.674 324.264 339.674 324.735 339.674C326.852 339.903 328.969 337.612 328.969 335.549C328.499 333.716 326.852 332.112 324.5 331.883Z" fill="#56CCF2"/>
<path d="M319.794 338.758C312.736 347.924 308.972 359.152 301.915 368.318C298.856 372.443 305.914 376.568 308.972 372.443C315.795 363.277 319.794 352.049 326.852 342.883C330.145 338.758 323.088 334.862 319.794 338.758Z" fill="#56CCF2"/>
<path d="M320.971 343.112C327.558 353.194 334.38 363.276 341.673 372.901C345.672 377.942 354.612 373.13 350.613 367.859C343.32 358.235 336.497 348.153 329.91 338.07C326.146 332.571 317.207 337.612 320.971 343.112Z" fill="#56CCF2"/>
<path d="M299.563 110.297C301.915 110.297 304.032 110.297 306.385 110.297C311.09 110.297 311.09 103.193 306.385 103.193C304.032 103.193 301.915 103.193 299.563 103.193C294.622 103.193 294.622 110.297 299.563 110.297Z" fill="#56CCF2"/>
<path d="M299.563 78.6748C301.68 78.6748 303.562 78.6748 305.679 78.6748C307.561 78.6748 309.208 77.0707 309.208 75.2374C309.208 73.4042 307.561 71.8 305.679 71.8C303.562 71.8 301.68 71.8 299.563 71.8C297.68 71.8 296.034 73.4042 296.034 75.2374C296.034 77.0707 297.68 78.6748 299.563 78.6748Z" fill="#56CCF2"/>
<path d="M298.857 49.5727C298.857 58.0511 298.857 66.5296 298.857 75.2372C298.857 80.5075 307.091 80.5075 307.091 75.2372C307.091 66.7587 307.091 58.2803 307.091 49.5727C307.091 44.5314 298.857 44.5314 298.857 49.5727Z" fill="#56CCF2"/>
<path d="M299.327 169.417C301.68 169.417 303.797 169.417 306.15 169.417C310.855 169.417 310.855 162.314 306.15 162.314C303.797 162.314 301.68 162.314 299.327 162.314C294.622 162.314 294.622 169.417 299.327 169.417Z" fill="#56CCF2"/>
<path d="M418.181 19.8844C421.474 14.6139 427.356 13.239 433.237 13.4682C436.06 13.4682 447.352 14.6139 449.234 17.3637C453.469 23.5508 463.585 17.822 459.35 11.635C454.175 4.07304 441.941 2.23984 433.237 2.01069C422.886 1.78154 413.476 5.21879 407.83 14.1556C404.301 20.5718 414.417 26.3006 418.181 19.8844Z" fill="#56CCF2"/>
<path d="M408.065 17.5928C406.888 52.1942 414.652 86.3372 422.415 119.793C429.943 152.103 449.234 181.434 451.587 214.66C452.057 221.993 463.82 221.993 463.349 214.66C460.997 182.579 443.588 155.311 435.589 124.605C426.414 90.0036 418.416 53.569 419.827 17.5928C420.063 10.0309 408.3 10.0309 408.065 17.5928Z" fill="#56CCF2"/>
<path d="M448.764 16.6761C446.882 81.525 451.117 146.374 451.352 211.223C451.352 218.556 463.114 218.556 463.114 211.223C463.114 146.374 458.88 81.525 460.527 16.6761C460.527 9.34333 448.764 9.34333 448.764 16.6761Z" fill="#56CCF2"/>
<path d="M408.3 40.5076C403.124 106.273 394.42 171.58 391.126 237.575C387.833 303.799 390.421 370.252 398.89 436.017C399.831 443.35 411.594 443.35 410.653 436.017C402.183 370.252 399.831 303.799 402.889 237.575C406.183 171.58 414.887 106.273 420.063 40.5076C420.533 33.1749 408.77 33.1749 408.3 40.5076Z" fill="#56CCF2"/>
<path d="M452.293 208.931C453.704 247.199 464.996 284.092 466.173 322.589C467.584 360.856 464.29 399.353 464.055 437.621C464.055 444.954 475.818 444.954 475.818 437.621C476.053 399.353 479.347 360.856 477.935 322.589C476.524 284.321 465.467 247.199 464.055 208.931C463.82 201.599 452.057 201.599 452.293 208.931Z" fill="#56CCF2"/>
<path d="M402.654 443.579C424.768 449.766 447.587 449.766 469.936 443.808C477.229 441.975 474.171 430.747 466.878 432.809C446.411 438.309 426.179 438.08 405.947 432.58C398.419 430.518 395.361 441.517 402.654 443.579Z" fill="#56CCF2"/>
<path d="M446.176 164.706C436.295 165.622 426.885 164.018 419.122 171.58C415.122 175.476 419.122 182.809 424.768 181.205C433.002 178.913 441 181.205 448.999 183.038C456.292 184.871 459.585 173.872 452.057 172.039C441.706 169.518 432.061 167.226 421.474 170.205C423.356 173.414 425.238 176.622 427.12 179.83C431.825 175.247 439.589 176.851 445.705 176.392C453.704 175.476 453.939 164.018 446.176 164.706Z" fill="#56CCF2"/>
<path d="M456.997 212.598C440.294 212.369 425.238 217.868 412.299 227.951C407.829 231.388 412.77 239.408 417.945 237.575C430.178 233.221 442.647 231.846 455.821 233.68C463.349 234.596 463.349 223.139 455.821 222.222C441.941 220.389 428.061 221.993 414.887 226.576C416.769 229.784 418.651 232.992 420.533 236.2C430.884 228.18 443.588 224.055 456.997 224.285C464.526 224.285 464.526 212.827 456.997 212.598Z" fill="#56CCF2"/>
<path d="M461.232 264.615C450.175 265.532 440.059 268.281 429.708 271.719C421.474 274.468 414.181 276.301 408.535 282.947C405.006 287.071 408.3 294.175 414.181 292.571C430.179 288.217 446.411 284.78 463.114 286.384C470.642 287.071 470.642 275.614 463.114 274.927C445.235 273.323 428.061 277.218 410.888 281.572C412.77 284.78 414.652 287.988 416.534 291.196C421.239 285.467 428.297 284.322 435.119 282.03C443.588 279.28 451.822 276.989 460.997 276.301C468.76 275.385 468.76 263.927 461.232 264.615Z" fill="#56CCF2"/>
<path d="M466.878 319.839C449.705 319.61 433.002 322.589 416.769 328.547C409.712 331.067 412.299 340.921 419.828 339.546C436.766 336.338 453.704 336.567 470.642 340.233C477.935 341.837 481.229 330.838 473.701 329.234C454.645 325.339 435.825 325.11 416.534 328.547C417.475 332.213 418.651 335.88 419.592 339.546C434.884 333.817 450.175 331.067 466.643 331.297C474.406 331.297 474.406 319.839 466.878 319.839Z" fill="#56CCF2"/>
<path d="M435.589 55.8607C440.53 55.4024 446.411 56.319 450.175 60.6728C455.116 66.4014 463.349 58.1522 458.409 52.6527C452.998 46.4657 443.588 43.716 435.354 44.4034C428.061 44.8617 428.061 56.319 435.589 55.8607Z" fill="#56CCF2"/>
<path d="M539.593 412.744C547.827 340.562 556.061 268.38 564.295 196.199C565.471 185.887 566.647 175.575 567.824 165.264C568.529 159.077 558.413 159.077 557.708 165.264C549.474 237.445 541.24 309.627 533.006 381.809C531.83 392.12 530.653 402.432 529.477 412.744C528.771 418.931 538.887 418.931 539.593 412.744Z" fill="#56CCF2"/>
<path d="M593.466 412.973C585.938 340.791 578.41 268.38 571.117 196.199C569.941 185.887 569 175.575 567.824 165.264C567.118 159.077 557.002 159.077 557.708 165.264C565.236 237.445 572.764 309.856 580.057 382.038C581.233 392.349 582.174 402.661 583.35 412.973C584.056 419.16 593.937 419.16 593.466 412.973Z" fill="#56CCF2"/>
<path d="M570.646 215.676C573.234 217.738 575.822 219.801 578.41 221.634C579.586 222.321 581.233 221.863 581.939 220.717C582.644 219.572 582.174 218.197 580.998 217.28C578.645 215.676 576.528 213.843 574.175 212.01C571.823 210.176 568.294 213.614 570.646 215.676Z" fill="#56CCF2"/>
<path d="M576.998 219.114C576.998 250.965 576.998 282.817 576.998 314.897C576.998 318.105 581.938 318.105 581.938 314.897C581.938 283.046 581.938 251.194 581.938 219.114C581.938 215.906 576.998 215.906 576.998 219.114Z" fill="#56CCF2"/>
<path d="M551.355 212.01C548.767 213.614 545.944 215.218 543.357 216.822C540.534 218.426 543.121 222.78 545.944 220.946C548.532 219.342 551.355 217.738 553.943 216.134C556.531 214.53 553.943 210.177 551.355 212.01Z" fill="#56CCF2"/>
<path d="M542.416 219.342C542.416 247.298 542.416 275.255 542.416 303.211C542.416 306.419 547.356 306.419 547.356 303.211C547.356 275.255 547.356 247.298 547.356 219.342C547.356 216.363 542.416 216.363 542.416 219.342Z" fill="#56CCF2"/>
<path d="M529.477 414.118C527.83 418.014 526.418 421.91 525.242 425.805C523.36 431.763 533.006 434.513 534.888 428.326C536.064 424.43 537.475 420.306 539.122 416.639C540.063 414.118 537.946 411.369 535.593 410.681C532.77 409.994 530.418 411.598 529.477 414.118Z" fill="#56CCF2"/>
<path d="M580.527 416.639C580.527 420.306 580.997 424.201 582.174 427.868C584.056 433.825 593.701 431.305 591.819 425.347C590.878 422.597 590.643 419.847 590.643 416.868C590.643 410.223 580.527 410.223 580.527 416.639Z" fill="#56CCF2"/>
<path d="M593.937 431.762C595.819 430.158 597.936 428.554 599.818 426.721C601.465 425.346 601.7 422.367 600.524 420.763C597.936 417.097 595.583 413.202 592.996 409.306C589.702 403.807 580.998 408.848 584.291 414.347C586.644 418.243 589.231 421.909 591.819 425.805C592.055 423.742 592.29 421.909 592.525 419.847C590.643 421.451 588.526 423.055 586.644 424.888C581.939 429.013 588.996 435.887 593.937 431.762Z" fill="#56CCF2"/>
<path d="M531.124 434.513C549.709 434.513 568.529 434.513 587.114 434.513C593.701 434.513 593.701 424.659 587.114 424.659C568.529 424.659 549.709 424.659 531.124 424.659C524.772 424.659 524.772 434.513 531.124 434.513Z" fill="#56CCF2"/>
<path d="M552.532 266.089C556.766 266.089 561.001 266.089 565 266.089C568.294 266.089 568.294 261.277 565 261.277C560.766 261.277 556.531 261.277 552.532 261.277C549.238 261.047 549.238 266.089 552.532 266.089Z" fill="#56CCF2"/>
<path d="M552.061 277.546C557.942 277.546 564.059 277.546 569.94 277.546C573.234 277.546 573.234 272.734 569.94 272.734C564.059 272.734 557.942 272.734 552.061 272.734C549.003 272.734 549.003 277.546 552.061 277.546Z" fill="#56CCF2"/>
<path d="M557.472 287.629C562.883 287.629 568.059 287.629 573.47 287.629C576.763 287.629 576.763 282.817 573.47 282.817C568.059 282.817 562.883 282.817 557.472 282.817C554.414 282.588 554.414 287.629 557.472 287.629Z" fill="#56CCF2"/>
<path d="M548.297 300.461C554.649 300.461 561 300.461 567.352 300.461C570.646 300.461 570.646 295.649 567.352 295.649C561 295.649 554.649 295.649 548.297 295.649C545.238 295.42 545.238 300.461 548.297 300.461Z" fill="#56CCF2"/>
<path d="M554.179 310.315C561.236 310.315 568.294 310.315 575.116 310.315C578.41 310.315 578.41 305.502 575.116 305.502C568.059 305.502 561.001 305.502 554.179 305.502C550.885 305.502 550.885 310.315 554.179 310.315Z" fill="#56CCF2"/>
<path d="M547.356 322.459C554.649 322.459 561.707 322.459 569 322.459C572.293 322.459 572.293 317.647 569 317.647C561.707 317.647 554.649 317.647 547.356 317.647C544.063 317.647 544.063 322.459 547.356 322.459Z" fill="#56CCF2"/>
<path d="M554.179 332.771C562.648 332.771 570.882 332.771 579.351 332.771C582.644 332.771 582.644 327.958 579.351 327.958C570.882 327.958 562.648 327.958 554.179 327.958C550.885 327.958 550.885 332.771 554.179 332.771Z" fill="#56CCF2"/>
<path d="M545.709 342.395C553.238 342.395 560.766 342.395 568.529 342.395C571.823 342.395 571.823 337.583 568.529 337.583C561.001 337.583 553.473 337.583 545.709 337.583C542.416 337.354 542.416 342.395 545.709 342.395Z" fill="#56CCF2"/>
<path d="M553.473 350.186C562.177 350.186 570.881 350.186 579.586 350.186C582.879 350.186 582.879 345.374 579.586 345.374C570.881 345.374 562.177 345.374 553.473 345.374C550.179 345.374 550.179 350.186 553.473 350.186Z" fill="#56CCF2"/>
<path d="M543.357 358.436C553.002 358.436 562.648 358.436 572.293 358.436C575.587 358.436 575.587 353.624 572.293 353.624C562.648 353.624 553.002 353.624 543.357 353.624C540.063 353.624 540.063 358.436 543.357 358.436Z" fill="#56CCF2"/>
<path d="M548.768 368.518C559.824 368.518 570.881 368.518 581.938 368.518C585.232 368.518 585.232 363.706 581.938 363.706C570.881 363.706 559.824 363.706 548.768 363.706C545.474 363.477 545.474 368.518 548.768 368.518Z" fill="#56CCF2"/>
<path d="M539.828 377.913C550.65 377.913 561.471 377.913 572.293 377.913C575.587 377.913 575.587 373.101 572.293 373.101C561.471 373.101 550.65 373.101 539.828 373.101C536.77 373.101 536.77 377.913 539.828 377.913Z" fill="#56CCF2"/>
<path d="M547.356 387.995C559.354 387.995 571.352 387.995 583.35 387.995C586.644 387.995 586.644 383.183 583.35 383.183C571.352 383.183 559.354 383.183 547.356 383.183C544.063 382.954 544.063 387.995 547.356 387.995Z" fill="#56CCF2"/>
<path d="M539.828 396.932C551.355 396.932 562.648 396.932 574.175 396.932C577.469 396.932 577.469 392.12 574.175 392.12C562.648 392.12 551.355 392.12 539.828 392.12C536.77 391.891 536.77 396.932 539.828 396.932Z" fill="#56CCF2"/>
<path d="M545.004 408.389C558.413 408.389 571.588 408.389 584.997 408.389C588.291 408.389 588.291 403.578 584.997 403.578C571.588 403.578 558.413 403.578 545.004 403.578C541.71 403.578 541.71 408.389 545.004 408.389Z" fill="#56CCF2"/>
<path d="M541.709 417.555C556.06 417.555 570.41 417.555 584.761 417.555C588.054 417.555 588.054 412.744 584.761 412.744C570.41 412.744 556.06 412.744 541.709 412.744C538.416 412.744 538.416 417.555 541.709 417.555Z" fill="#56CCF2"/>
<path d="M543.357 415.493C541.475 418.243 539.828 421.222 538.652 424.43C537.711 427.409 542.416 428.784 543.592 425.805C544.533 423.055 545.945 420.535 547.592 418.014C549.474 415.493 545.004 412.973 543.357 415.493Z" fill="#56CCF2"/>
<path d="M544.298 417.097C544.533 419.847 545.239 422.139 546.415 424.659C546.886 425.805 548.768 426.034 549.944 425.576C551.355 424.889 551.355 423.514 550.885 422.139C550.179 420.535 549.709 418.701 549.473 417.097C549.238 415.722 548.532 414.577 546.886 414.577C545.709 414.806 544.298 415.722 544.298 417.097Z" fill="#56CCF2"/>
<path d="M552.296 425.805C553.708 423.055 555.355 420.764 557.472 418.472C556.06 418.243 554.884 418.243 553.473 418.014C555.355 420.764 557.001 423.514 558.413 426.492C559.824 429.242 564.294 426.722 562.647 423.972C561.001 420.993 559.354 418.243 557.707 415.494C557.001 414.348 554.884 413.66 553.708 415.035C551.355 417.556 549.473 420.306 547.826 423.284C546.415 426.034 550.649 428.555 552.296 425.805Z" fill="#56CCF2"/>
<path d="M563.354 415.722C561.472 418.701 560.295 422.139 559.119 425.347C558.178 428.326 563.118 429.7 564.059 426.721C565 423.743 566.177 420.993 567.823 418.243C569.235 415.493 564.765 412.973 563.354 415.722Z" fill="#56CCF2"/>
<path d="M564.53 418.014C565.235 420.535 566.412 422.826 567.353 425.347C567.823 426.493 569.705 426.951 570.882 426.263C572.058 425.576 572.293 424.201 571.823 422.826C570.882 420.764 570.176 418.701 569.47 416.639C568.529 413.66 563.589 415.035 564.53 418.014Z" fill="#56CCF2"/>
<path d="M572.057 415.264C571.587 416.869 570.646 418.243 569.94 419.847C569.234 421.451 568.529 423.056 568.058 424.66C567.117 427.639 572.057 429.013 572.998 426.034C573.939 422.826 576.292 419.847 576.998 416.639C577.703 413.431 572.763 412.286 572.057 415.264Z" fill="#56CCF2"/>
<path d="M573.94 417.785C575.351 419.618 576.763 421.68 578.175 423.743C579.821 426.493 584.291 423.972 582.409 421.222C580.998 418.701 579.351 416.639 577.469 414.348C576.528 413.202 574.881 413.431 573.94 414.348C572.764 415.264 572.999 416.868 573.94 417.785Z" fill="#56CCF2"/>
<path d="M872.032 437.011C868.268 382.473 865.915 327.707 867.797 272.94C869.679 218.861 867.562 164.095 879.09 110.932C880.266 105.891 872.267 103.829 871.326 108.87C859.799 161.345 861.681 215.195 859.799 268.587C857.681 324.728 860.034 381.098 863.798 437.011C864.504 442.052 872.503 442.052 872.032 437.011Z" fill="#56CCF2"/>
<path d="M879.325 110.245C879.325 106.808 887.088 106.579 889.676 106.349C896.499 105.891 903.086 106.808 909.438 109.099C914.378 110.932 916.495 103.37 911.555 101.537C902.145 98.0999 871.797 93.746 871.326 110.474C871.091 115.516 879.09 115.516 879.325 110.245Z" fill="#56CCF2"/>
<path d="M933.198 439.531C932.257 328.165 939.315 216.341 915.083 106.349C913.907 101.308 906.144 103.6 907.32 108.412C931.551 217.486 924.258 328.623 925.199 439.531C925.199 444.572 933.198 444.572 933.198 439.531Z" fill="#56CCF2"/>
<path d="M866.386 443.197C884.971 453.738 912.496 456.717 930.845 444.114C935.08 441.135 931.081 434.49 926.846 437.24C911.084 448.009 886.382 445.26 870.385 436.323C865.915 434.032 861.681 440.677 866.386 443.197Z" fill="#56CCF2"/>
<path d="M872.738 141.868C887.089 134.993 902.615 134.305 917.436 139.805C919.789 140.722 920.965 136.826 918.613 135.91C902.615 129.952 886.148 131.097 870.856 138.43C868.268 139.576 870.385 143.013 872.738 141.868Z" fill="#56CCF2"/>
<path d="M877.443 172.115C878.384 172.115 879.56 172.115 880.501 172.115C883.089 172.115 883.089 168.22 880.501 168.22C879.56 168.22 878.384 168.22 877.443 168.22C874.855 168.22 874.855 172.115 877.443 172.115Z" fill="#56CCF2"/>
<path d="M882.383 187.468C884.736 187.468 886.853 187.468 889.206 187.468C891.793 187.468 891.793 183.573 889.206 183.573C886.853 183.573 884.736 183.573 882.383 183.573C879.795 183.573 879.795 187.468 882.383 187.468Z" fill="#56CCF2"/>
<path d="M892.97 210.612C894.617 210.612 896.264 210.612 897.91 210.612C900.498 210.612 900.498 206.717 897.91 206.717C896.264 206.717 894.617 206.717 892.97 206.717C890.382 206.717 890.382 210.612 892.97 210.612Z" fill="#56CCF2"/>
<path d="M884.265 236.506C885.206 236.506 886.382 236.506 887.323 236.506C889.911 236.506 889.911 232.61 887.323 232.61C886.382 232.61 885.206 232.61 884.265 232.61C881.677 232.61 881.677 236.506 884.265 236.506Z" fill="#56CCF2"/>
<path d="M899.792 255.067C900.498 255.067 900.969 255.067 901.674 255.067C904.262 255.067 904.262 251.171 901.674 251.171C900.969 251.171 900.498 251.171 899.792 251.171C897.205 251.171 897.205 255.067 899.792 255.067Z" fill="#56CCF2"/>
<path d="M907.79 284.398C908.731 284.398 909.437 284.398 910.378 284.398C912.966 284.398 912.966 280.502 910.378 280.502C909.437 280.502 908.731 280.502 907.79 280.502C905.203 280.502 905.203 284.398 907.79 284.398Z" fill="#56CCF2"/>
<path d="M892.97 308.229C894.382 308.229 895.793 308.229 897.205 308.229C899.792 308.229 899.792 304.333 897.205 304.333C895.793 304.333 894.382 304.333 892.97 304.333C890.382 304.333 890.382 308.229 892.97 308.229Z" fill="#56CCF2"/>
<path d="M875.09 329.54C876.737 329.54 878.384 329.54 880.031 329.54C882.618 329.54 882.618 325.644 880.031 325.644C878.384 325.644 876.737 325.644 875.09 325.644C872.502 325.644 872.502 329.54 875.09 329.54Z" fill="#56CCF2"/>
<path d="M888.03 352.684C889.206 352.684 890.618 352.684 891.794 352.684C894.382 352.684 894.382 348.788 891.794 348.788C890.618 348.788 889.206 348.788 888.03 348.788C885.442 348.788 885.442 352.684 888.03 352.684Z" fill="#56CCF2"/>
<path d="M896.733 371.932C898.145 371.932 899.556 371.932 900.968 371.932C903.556 371.932 903.556 368.037 900.968 368.037C899.556 368.037 898.145 368.037 896.733 368.037C894.146 368.037 894.146 371.932 896.733 371.932Z" fill="#56CCF2"/>
<path d="M908.496 405.159C909.672 405.159 911.084 405.159 912.26 405.159C914.848 405.159 914.848 401.263 912.26 401.263C911.084 401.263 909.672 401.263 908.496 401.263C905.908 401.263 905.908 405.159 908.496 405.159Z" fill="#56CCF2"/>
<path d="M903.556 437.01C904.497 437.01 905.673 437.01 906.614 437.01C909.202 437.01 909.202 433.115 906.614 433.115C905.673 433.115 904.497 433.115 903.556 433.115C900.968 433.115 900.968 437.01 903.556 437.01Z" fill="#56CCF2"/>
<path d="M900.028 126.285C902.616 126.285 904.968 126.285 907.556 126.285C910.144 126.285 910.144 122.39 907.556 122.39C904.968 122.39 902.616 122.39 900.028 122.39C897.44 122.161 897.44 126.285 900.028 126.285Z" fill="#56CCF2"/>
<path d="M890.382 118.036C891.088 118.036 891.794 118.036 892.5 118.036C895.087 118.036 895.087 114.14 892.5 114.14C891.794 114.14 891.088 114.14 890.382 114.14C887.794 114.14 887.794 118.036 890.382 118.036Z" fill="#56CCF2"/>
<path d="M1026.93 82.693C1026.93 95.5253 1026.93 108.358 1026.93 121.19C1026.93 127.835 1037.52 127.835 1037.52 121.19C1037.52 108.358 1037.52 95.5253 1037.52 82.693C1037.52 76.0477 1026.93 76.0477 1026.93 82.693Z" fill="#56CCF2"/>
<path d="M1030.93 87.5047C1030.93 178.706 1030.93 269.907 1030.93 361.337C1030.93 376.232 1030.93 391.126 1030.93 406.021C1030.93 412.666 1041.52 412.666 1041.52 406.021C1041.52 314.82 1041.52 223.619 1041.52 132.189C1041.52 117.294 1041.52 102.399 1041.52 87.5047C1041.52 80.8594 1030.93 80.8594 1030.93 87.5047Z" fill="#56CCF2"/>
<path d="M1024.81 125.314C1024.81 218.807 1024.81 312.299 1024.81 405.792C1024.81 412.437 1035.4 412.437 1035.4 405.792C1035.4 312.299 1035.4 218.807 1035.4 125.314C1035.4 118.669 1024.81 118.669 1024.81 125.314Z" fill="#56CCF2"/>
<path d="M1015.4 205.745C1015.4 226.598 1015.4 247.45 1015.4 268.303C1015.4 274.948 1025.99 274.948 1025.99 268.303C1025.99 247.45 1025.99 226.598 1025.99 205.745C1026.23 199.1 1015.4 199.1 1015.4 205.745Z" fill="#56CCF2"/>
<path d="M1008.35 273.802C1008.35 293.738 1008.35 313.674 1008.35 333.839C1008.35 340.485 1018.93 340.485 1018.93 333.839C1018.93 313.903 1018.93 293.967 1018.93 273.802C1018.93 267.157 1008.35 267.157 1008.35 273.802Z" fill="#56CCF2"/>
<path d="M1041.75 153.27C1041.75 176.873 1041.75 200.704 1041.75 224.306C1041.75 230.951 1052.34 230.951 1052.34 224.306C1052.34 200.704 1052.34 176.873 1052.34 153.27C1052.34 146.396 1041.75 146.396 1041.75 153.27Z" fill="#56CCF2"/>
<path d="M1047.16 230.493C1047.16 250.429 1047.16 270.136 1047.16 290.072C1047.16 296.717 1057.75 296.717 1057.75 290.072C1057.75 270.136 1057.75 250.429 1057.75 230.493C1057.99 223.848 1047.16 223.848 1047.16 230.493Z" fill="#56CCF2"/>
<path d="M1054.46 295.342C1054.46 313.903 1054.46 332.464 1054.46 351.025C1054.46 357.67 1065.04 357.67 1065.04 351.025C1065.04 332.464 1065.04 313.903 1065.04 295.342C1065.04 288.697 1054.46 288.697 1054.46 295.342Z" fill="#56CCF2"/>
<path d="M1000.35 340.255C1000.35 361.108 1000.35 381.96 1000.35 402.813C1000.35 409.458 1010.94 409.458 1010.94 402.813C1010.94 381.96 1010.94 361.108 1010.94 340.255C1011.17 333.61 1000.35 333.61 1000.35 340.255Z" fill="#56CCF2"/>
<path d="M1059.87 353.316C1059.87 371.648 1059.87 389.98 1059.87 408.083C1059.87 414.728 1070.45 414.728 1070.45 408.083C1070.45 389.751 1070.45 371.419 1070.45 353.316C1070.69 346.671 1059.87 346.671 1059.87 353.316Z" fill="#56CCF2"/>
<path d="M1029.28 425.956C1029.28 420.915 1029.28 415.645 1029.28 410.604C1027.4 412.437 1025.76 414.041 1023.87 415.874C1029.52 415.645 1036.81 414.728 1042.22 416.332C1041.05 415.645 1040.11 414.728 1038.93 414.041C1038.22 412.895 1038.69 412.666 1038.69 414.27C1038.69 415.416 1038.69 416.791 1038.69 417.936C1038.69 420.228 1038.69 422.29 1038.69 424.582C1038.69 431.227 1049.28 431.227 1049.28 424.582C1049.28 419.54 1051.4 409.229 1045.52 406.479C1042.46 405.104 1038.69 405.333 1035.4 405.333C1031.4 405.104 1027.64 405.333 1023.64 405.333C1020.82 405.333 1018.23 407.625 1018.23 410.604C1018.23 415.645 1018.23 420.915 1018.23 425.956C1018.7 432.602 1029.28 432.602 1029.28 425.956Z" fill="#56CCF2"/>
<path d="M1024.11 433.289C1030.93 433.289 1037.52 433.289 1044.34 433.289C1051.16 433.289 1051.16 422.978 1044.34 422.978C1037.52 422.978 1030.93 422.978 1024.11 422.978C1017.05 422.978 1017.05 433.289 1024.11 433.289Z" fill="#56CCF2"/>
<path d="M1005.29 400.292C1000.82 400.292 996.349 400.292 991.879 400.292C989.056 400.292 986.468 402.584 986.468 405.563C986.468 407.854 987.174 411.291 986.704 413.583C987.88 412.437 989.291 411.062 990.468 409.916C987.174 410.833 982.94 410.375 979.411 410.375C976.588 410.375 974 412.666 974 415.645C974 419.999 974 424.353 974 428.707C974 431.686 976.353 433.748 979.411 433.977C993.526 434.435 1007.41 435.123 1021.52 435.581C1028.34 435.81 1028.34 425.499 1021.52 425.269C1007.41 424.811 993.526 424.124 979.411 423.665C981.293 425.499 982.94 427.103 984.822 428.936C984.822 424.582 984.822 420.228 984.822 415.874C982.94 417.708 981.293 419.312 979.411 421.145C983.881 420.916 988.821 421.374 993.291 420.228C995.173 419.77 996.584 418.395 997.055 416.562C997.996 413.125 997.29 409.458 997.29 405.792C995.408 407.625 993.761 409.229 991.879 411.062C996.349 411.062 1000.82 411.062 1005.29 411.062C1012.11 410.604 1012.11 400.292 1005.29 400.292Z" fill="#56CCF2"/>
<path d="M1063.87 412.895C1066.69 412.895 1071.16 412.208 1073.98 412.895C1072.81 411.75 1071.4 410.375 1070.22 409.229C1070.45 411.52 1070.45 413.812 1070.45 416.103C1070.45 418.853 1072.81 421.374 1075.87 421.374C1078.45 421.145 1081.04 421.374 1083.63 421.832C1082.45 420.686 1081.04 419.311 1079.86 418.166C1080.81 420.457 1082.22 425.957 1081.98 428.477C1083.16 427.332 1084.57 425.957 1085.75 424.811C1079.63 426.644 1069.98 425.269 1063.87 425.269C1056.34 425.498 1048.58 425.498 1041.05 425.728C1034.23 425.957 1034.23 436.268 1041.05 436.039C1049.75 435.81 1058.69 435.581 1067.4 435.352C1073.98 435.123 1082.45 436.497 1088.8 434.664C1090.45 434.206 1092.33 432.831 1092.57 430.998C1093.27 426.644 1092.57 419.311 1090.45 415.187C1087.86 409.916 1081.51 410.604 1076.34 410.604C1078.22 412.437 1079.86 414.041 1081.75 415.874C1081.75 412.666 1082.22 409.458 1081.28 406.25C1080.81 404.417 1079.39 403.042 1077.51 402.584C1073.51 401.667 1068.81 402.125 1064.57 402.125C1057.04 402.584 1057.04 412.895 1063.87 412.895Z" fill="#56CCF2"/>
<path d="M1040.34 87.7338C1040.34 71.9226 1040.34 55.8823 1040.34 40.0711C1040.34 33.4258 1029.75 33.4258 1029.75 40.0711C1029.75 55.8823 1029.75 71.9226 1029.75 87.7338C1029.52 94.3791 1040.34 94.3791 1040.34 87.7338Z" fill="#56CCF2"/>
<path d="M1134.43 222.472C1157.96 274.03 1167.37 330.172 1162.43 386.313C1162.19 389.292 1167.13 389.292 1167.37 386.313C1172.31 329.255 1162.43 272.426 1138.67 220.181C1137.26 217.431 1133.26 219.722 1134.43 222.472Z" fill="#56CCF2"/>
<path d="M1136.55 221.556C1160.31 238.283 1177.25 261.657 1185.72 288.925C1194.19 316.194 1197.72 347.816 1189.72 375.543C1188.78 378.522 1193.48 379.668 1194.42 376.918C1202.89 347.358 1199.13 312.986 1189.25 284.113C1180.07 257.074 1162.66 234.388 1139.14 217.66C1136.55 215.598 1134.2 219.722 1136.55 221.556Z" fill="#56CCF2"/>
<path d="M1141.96 222.014C1141.96 211.702 1141.96 201.391 1141.96 191.079C1141.96 188.1 1137.02 188.1 1137.02 191.079C1137.02 201.391 1137.02 211.702 1137.02 222.014C1137.02 224.993 1141.96 224.993 1141.96 222.014Z" fill="#56CCF2"/>
<path d="M1136.08 225.909C1136.08 276.322 1136.08 326.734 1136.08 377.147C1136.08 380.126 1141.02 380.126 1141.02 377.147C1141.02 326.734 1141.02 276.322 1141.02 225.909C1141.02 222.93 1136.08 222.93 1136.08 225.909Z" fill="#56CCF2"/>
<path d="M1140.32 265.552C1144.31 265.552 1148.31 265.323 1152.08 264.864C1155.14 264.406 1155.14 259.823 1152.08 260.052C1148.08 260.511 1144.31 260.74 1140.32 260.74C1137.26 260.74 1137.26 265.552 1140.32 265.552Z" fill="#56CCF2"/>
<path d="M1152.31 264.406C1160.31 264.406 1168.31 264.635 1176.31 264.635C1179.37 264.635 1179.37 259.823 1176.31 259.823C1168.31 259.823 1160.31 259.594 1152.31 259.594C1149.02 259.594 1149.02 264.406 1152.31 264.406Z" fill="#56CCF2"/>
<path d="M1163.84 263.948C1178.9 303.132 1182.43 344.15 1178.19 385.397C1177.96 388.376 1182.66 388.376 1183.13 385.397C1187.37 343.692 1183.84 301.987 1168.55 262.573C1167.37 259.823 1162.66 261.198 1163.84 263.948Z" fill="#56CCF2"/>
<path d="M1138.9 275.176C1144.08 275.864 1149.26 276.78 1154.2 277.468C1157.25 277.926 1158.67 273.343 1155.61 272.885C1150.43 272.197 1145.26 271.281 1140.32 270.593C1137.02 269.906 1135.85 274.489 1138.9 275.176Z" fill="#56CCF2"/>
<path d="M1153.02 277.009C1147.84 286.175 1142.2 295.112 1136.08 303.591C1134.2 306.111 1138.43 308.403 1140.32 305.882C1146.43 297.404 1152.08 288.467 1157.25 279.301C1158.9 276.78 1154.67 274.26 1153.02 277.009Z" fill="#56CCF2"/>
<path d="M1137.96 309.548C1145.73 310.923 1153.25 312.986 1160.55 315.277C1163.6 316.194 1164.78 311.611 1161.96 310.694C1154.43 308.403 1146.9 306.34 1139.37 304.966C1136.32 304.507 1134.9 309.09 1137.96 309.548Z" fill="#56CCF2"/>
<path d="M1161.49 315.048C1153.02 324.214 1145.02 333.609 1137.02 343.004C1135.14 345.296 1138.43 348.733 1140.55 346.441C1148.31 336.817 1156.55 327.422 1165.02 318.485C1167.13 315.965 1163.61 312.757 1161.49 315.048Z" fill="#56CCF2"/>
<path d="M1137.73 348.504C1147.37 348.045 1156.08 353.316 1165.49 354.232C1168.55 354.462 1168.55 349.879 1165.49 349.42C1155.84 348.274 1147.61 343.004 1137.73 343.691C1134.43 343.921 1134.43 348.733 1137.73 348.504Z" fill="#56CCF2"/>
<path d="M1163.61 352.628C1154.9 359.274 1146.43 366.377 1138.43 373.481C1136.08 375.543 1139.61 378.98 1141.96 376.918C1150.2 369.585 1158.43 362.711 1167.13 356.066C1169.49 354.232 1165.96 350.795 1163.61 352.628Z" fill="#56CCF2"/>
<path d="M1124.79 272.656C1129.49 273.343 1134.43 274.031 1139.14 272.426C1141.96 271.281 1140.79 266.697 1137.73 267.843C1133.96 269.218 1129.96 268.76 1125.96 268.072C1122.91 267.614 1121.73 272.197 1124.79 272.656Z" fill="#56CCF2"/>
<path d="M1127.14 271.739C1131.38 270.822 1135.14 269.218 1138.9 267.156C1141.73 265.781 1139.14 261.657 1136.55 263.031C1133.26 264.864 1129.73 266.239 1125.96 267.156C1122.67 267.843 1124.08 272.655 1127.14 271.739Z" fill="#56CCF2"/>
<path d="M1179.37 264.177C1180.31 264.177 1181.25 264.177 1182.19 264.177C1185.25 264.177 1185.25 259.365 1182.19 259.365C1181.25 259.365 1180.31 259.365 1179.37 259.365C1176.31 259.365 1176.31 264.177 1179.37 264.177Z" fill="#56CCF2"/>
<path d="M1137.73 381.042C1146.43 382.646 1153.96 387.459 1162.43 389.75C1165.49 390.667 1166.66 386.084 1163.84 385.167C1155.37 382.876 1147.84 378.063 1139.14 376.459C1135.85 376.001 1134.67 380.584 1137.73 381.042Z" fill="#56CCF2"/>
<path d="M1164.55 389.75C1175.6 390.438 1186.19 386.313 1193.72 378.064C1195.84 375.772 1192.31 372.335 1190.19 374.626C1183.6 381.959 1174.43 385.625 1164.55 384.938C1161.49 384.709 1161.49 389.521 1164.55 389.75Z" fill="#56CCF2"/>
<path d="M1161.25 272.426C1162.9 272.426 1164.78 272.426 1166.43 272.426C1169.49 272.426 1169.49 267.614 1166.43 267.614C1164.78 267.614 1162.9 267.614 1161.25 267.614C1157.96 267.843 1157.96 272.426 1161.25 272.426Z" fill="#56CCF2"/>
<path d="M1162.43 280.446C1164.55 280.446 1166.9 280.446 1169.02 280.446C1172.07 280.446 1172.07 275.635 1169.02 275.635C1166.9 275.635 1164.55 275.635 1162.43 275.635C1159.14 275.635 1159.14 280.446 1162.43 280.446Z" fill="#56CCF2"/>
<path d="M1164.31 288.925C1166.9 288.925 1169.25 288.925 1171.84 288.925C1174.9 288.925 1174.9 284.113 1171.84 284.113C1169.25 284.113 1166.9 284.113 1164.31 284.113C1161.25 284.342 1161.25 288.925 1164.31 288.925Z" fill="#56CCF2"/>
<path d="M1165.96 299.007C1168.08 299.237 1169.96 299.237 1172.07 299.237C1173.49 299.237 1174.43 298.091 1174.43 296.945C1174.43 295.8 1173.25 294.425 1172.07 294.654C1169.96 294.883 1168.08 294.654 1165.96 294.425C1164.55 294.196 1163.61 295.57 1163.61 296.716C1163.61 297.862 1164.78 298.778 1165.96 299.007Z" fill="#56CCF2"/>
<path d="M1167.37 306.799C1169.49 306.799 1171.84 306.799 1173.96 306.799C1177.01 306.799 1177.01 301.986 1173.96 301.986C1171.84 301.986 1169.49 301.986 1167.37 301.986C1164.31 302.215 1164.31 306.799 1167.37 306.799Z" fill="#56CCF2"/>
<path d="M1168.55 317.568C1170.9 317.568 1173.25 317.568 1175.6 317.568C1178.66 317.568 1178.66 312.757 1175.6 312.757C1173.25 312.757 1170.9 312.757 1168.55 312.757C1165.49 312.757 1165.49 317.568 1168.55 317.568Z" fill="#56CCF2"/>
<path d="M1171.13 326.735C1173.72 326.735 1176.31 326.735 1178.9 326.735C1181.96 326.735 1181.96 321.923 1178.9 321.923C1176.31 321.923 1173.72 321.923 1171.13 321.923C1168.08 321.923 1168.08 326.735 1171.13 326.735Z" fill="#56CCF2"/>
<path d="M1172.31 335.9C1175.6 335.9 1178.9 335.9 1181.96 335.9C1185.01 335.9 1185.01 331.088 1181.96 331.088C1178.66 331.088 1175.37 331.088 1172.31 331.088C1169.25 331.088 1169.25 335.9 1172.31 335.9Z" fill="#56CCF2"/>
<path d="M1172.31 343.233C1175.6 343.233 1178.9 343.233 1181.96 343.233C1185.01 343.233 1185.01 338.421 1181.96 338.421C1178.66 338.421 1175.37 338.421 1172.31 338.421C1169.25 338.421 1169.25 343.233 1172.31 343.233Z" fill="#56CCF2"/>
<path d="M1171.6 354.003C1174.66 354.003 1177.72 354.003 1180.78 354.003C1183.84 354.003 1183.84 349.191 1180.78 349.191C1177.72 349.191 1174.66 349.191 1171.6 349.191C1168.31 349.421 1168.31 354.003 1171.6 354.003Z" fill="#56CCF2"/>
<path d="M1170.66 364.086C1173.72 364.086 1176.54 364.086 1179.6 364.086C1182.66 364.086 1182.66 359.273 1179.6 359.273C1176.54 359.273 1173.72 359.273 1170.66 359.273C1167.37 359.273 1167.37 364.086 1170.66 364.086Z" fill="#56CCF2"/>
<path d="M1171.13 373.939C1174.19 373.939 1177.25 373.939 1180.31 373.939C1183.37 373.939 1183.37 369.127 1180.31 369.127C1177.25 369.127 1174.19 369.127 1171.13 369.127C1168.08 369.127 1168.08 373.939 1171.13 373.939Z" fill="#56CCF2"/>
<path d="M1169.72 385.167C1172.54 385.167 1175.37 385.167 1178.43 385.167C1181.48 385.167 1181.48 380.355 1178.43 380.355C1175.6 380.355 1172.78 380.355 1169.72 380.355C1166.66 380.355 1166.66 385.167 1169.72 385.167Z" fill="#56CCF2"/>
<path d="M1160.08 301.987C1155.37 301.528 1150.67 300.841 1145.96 299.466C1142.9 298.549 1141.73 303.132 1144.55 304.049C1149.73 305.424 1154.67 306.34 1160.08 306.569C1163.37 307.028 1163.37 302.216 1160.08 301.987Z" fill="#56CCF2"/>
<path d="M1139.37 318.027C1142.2 318.027 1145.02 318.256 1147.84 319.172C1150.9 320.089 1152.08 315.506 1149.26 314.589C1146.2 313.673 1142.9 313.215 1139.61 313.215C1136.32 313.444 1136.32 318.256 1139.37 318.027Z" fill="#56CCF2"/>
<path d="M1143.84 327.193C1146.67 327.193 1149.49 327.651 1152.08 328.797C1154.9 330.172 1157.49 326.047 1154.43 324.672C1151.14 323.068 1147.61 322.38 1143.84 322.38C1140.79 322.61 1140.79 327.193 1143.84 327.193Z" fill="#56CCF2"/>
<path d="M1151.61 340.483C1155.61 341.171 1159.37 342.317 1163.13 343.691C1165.96 344.837 1167.37 340.254 1164.55 339.109C1160.78 337.505 1157.02 336.588 1153.02 335.901C1149.73 335.442 1148.55 340.025 1151.61 340.483Z" fill="#56CCF2"/>
<path d="M1158.43 332.005C1160.31 332.234 1161.96 332.693 1163.6 333.609C1166.43 334.984 1168.78 331.088 1165.96 329.484C1163.6 328.109 1161.02 327.422 1158.43 327.193C1157.02 326.964 1156.08 328.339 1156.08 329.484C1156.08 331.088 1157.25 332.005 1158.43 332.005Z" fill="#56CCF2"/>
<path d="M1152.55 296.716C1154.43 296.487 1156.08 296.716 1157.72 297.174C1160.78 298.091 1161.96 293.508 1159.14 292.591C1157.02 292.133 1154.9 291.904 1152.78 291.904C1151.37 291.904 1150.43 292.821 1150.43 294.196C1149.96 295.57 1151.14 296.716 1152.55 296.716Z" fill="#56CCF2"/>
<path d="M1140.32 283.426C1141.49 283.196 1142.9 283.426 1144.08 283.884C1147.14 284.8 1148.31 280.218 1145.49 279.301C1143.37 278.613 1141.26 278.613 1139.14 278.843C1137.73 279.072 1137.02 280.676 1137.49 281.822C1137.73 283.196 1139.14 283.655 1140.32 283.426Z" fill="#56CCF2"/>
<path d="M1151.37 377.834C1154.9 379.209 1158.43 380.584 1161.72 381.959C1164.55 383.105 1165.96 378.522 1163.13 377.376C1159.61 376.001 1156.08 374.627 1152.78 373.252C1149.73 372.106 1148.55 376.689 1151.37 377.834Z" fill="#56CCF2"/>
<path d="M1158.43 371.648C1161.02 371.648 1163.37 372.335 1165.96 373.252C1169.02 374.397 1170.19 369.815 1167.37 368.669C1164.55 367.752 1161.72 367.065 1158.67 367.065C1155.37 366.836 1155.37 371.419 1158.43 371.648Z" fill="#56CCF2"/>
<path d="M1139.84 356.982C1142.9 356.753 1145.49 357.898 1148.31 359.044C1149.49 359.502 1150.9 359.502 1151.61 358.127C1152.31 357.211 1151.84 355.378 1150.67 354.919C1147.14 353.545 1143.61 352.17 1139.84 352.17C1136.55 352.399 1136.55 357.211 1139.84 356.982Z" fill="#56CCF2"/>
<path d="M1139.37 365.002C1140.32 365.231 1141.26 365.231 1142.2 365.461C1143.61 365.69 1144.79 365.231 1145.26 363.857C1145.49 362.711 1144.79 361.107 1143.61 360.878C1142.67 360.648 1141.73 360.648 1140.79 360.419C1139.37 360.19 1138.2 360.648 1137.73 362.023C1137.49 363.169 1138.2 364.773 1139.37 365.002Z" fill="#56CCF2"/>
<path d="M665.705 359.637C665.705 379.801 665.705 399.737 665.705 419.902C665.705 423.11 670.881 423.11 670.881 419.902C670.881 399.737 670.881 379.801 670.881 359.637C670.881 356.199 665.705 356.199 665.705 359.637Z" fill="#56CCF2"/>
<path d="M664.293 360.553C713.697 360.553 763.335 360.553 812.739 360.553C816.032 360.553 816.032 355.512 812.739 355.512C763.335 355.512 713.697 355.512 664.293 355.512C661 355.283 661 360.553 664.293 360.553Z" fill="#56CCF2"/>
<path d="M661.47 347.491C711.579 347.491 761.453 347.491 811.562 347.491C814.856 347.491 814.856 342.45 811.562 342.45C761.453 342.45 711.579 342.45 661.47 342.45C658.177 342.45 658.177 347.491 661.47 347.491Z" fill="#56CCF2"/>
<path d="M670.174 344.971C670.174 327.097 670.174 308.994 670.174 291.121C670.174 287.913 664.999 287.913 664.999 291.121C664.999 308.994 664.999 327.097 664.999 344.971C664.999 348.179 670.174 348.179 670.174 344.971Z" fill="#56CCF2"/>
<path d="M664.293 293.184C681.702 293.184 698.876 293.184 716.285 293.184C719.578 293.184 719.578 288.142 716.285 288.142C698.876 288.142 681.702 288.142 664.293 288.142C661 287.913 661 293.184 664.293 293.184Z" fill="#56CCF2"/>
<path d="M760.277 294.1C776.509 294.1 792.742 294.1 808.739 294.1C812.033 294.1 812.033 289.059 808.739 289.059C792.507 289.059 776.274 289.059 760.277 289.059C756.983 289.059 756.983 294.1 760.277 294.1Z" fill="#56CCF2"/>
<path d="M669.233 289.517C669.233 275.539 669.233 261.561 669.233 247.583C669.233 244.375 664.058 244.375 664.058 247.583C664.058 261.561 664.058 275.539 664.058 289.517C664.058 292.725 669.233 292.725 669.233 289.517Z" fill="#56CCF2"/>
<path d="M663.822 248.041C680.29 248.041 696.523 248.041 712.99 248.041C716.284 248.041 716.284 243 712.99 243C696.523 243 680.29 243 663.822 243C660.294 243 660.294 248.041 663.822 248.041Z" fill="#56CCF2"/>
<path d="M709.697 247.125C709.697 261.103 709.697 275.081 709.697 289.059C709.697 292.267 714.872 292.267 714.872 289.059C714.872 275.081 714.872 261.103 714.872 247.125C714.872 243.917 709.697 243.688 709.697 247.125Z" fill="#56CCF2"/>
<path d="M767.335 291.579C767.335 278.289 767.335 264.769 767.335 251.478C767.335 248.27 762.159 248.27 762.159 251.478C762.159 264.769 762.159 278.289 762.159 291.579C762.159 295.017 767.335 295.017 767.335 291.579Z" fill="#56CCF2"/>
<path d="M761.924 251.708C778.156 251.708 794.389 251.708 810.386 251.708C813.68 251.708 813.68 246.667 810.386 246.667C794.154 246.667 777.921 246.667 761.924 246.667C758.63 246.667 758.63 251.708 761.924 251.708Z" fill="#56CCF2"/>
<path d="M804.975 250.791C804.975 264.082 804.975 277.601 804.975 290.892C804.975 294.1 810.15 294.1 810.15 290.892C810.15 277.601 810.15 264.082 810.15 250.791C810.386 247.583 804.975 247.583 804.975 250.791Z" fill="#56CCF2"/>
<path d="M804.505 293.871C804.505 310.37 804.505 326.868 804.505 343.367C804.505 346.575 809.681 346.575 809.681 343.367C809.681 326.868 809.681 310.37 809.681 293.871C809.681 290.434 804.505 290.434 804.505 293.871Z" fill="#56CCF2"/>
<path d="M805.681 361.24C805.681 379.343 805.681 397.446 805.681 415.549C805.681 418.757 810.857 418.757 810.857 415.549C810.857 397.446 810.857 379.343 810.857 361.24C810.857 358.032 805.681 358.032 805.681 361.24Z" fill="#56CCF2"/>
<path d="M667.116 284.705C681.702 284.705 696.288 284.705 710.874 284.705C714.167 284.705 714.167 279.664 710.874 279.664C696.288 279.664 681.702 279.664 667.116 279.664C663.588 279.435 663.588 284.705 667.116 284.705Z" fill="#56CCF2"/>
<path d="M764.982 285.622C779.332 285.622 793.918 285.622 808.269 285.622C811.562 285.622 811.562 280.58 808.269 280.58C793.918 280.58 779.332 280.58 764.982 280.58C761.688 280.58 761.688 285.622 764.982 285.622Z" fill="#56CCF2"/>
<path d="M709.697 291.58C709.697 308.766 709.697 326.181 709.697 343.367C709.697 346.575 714.872 346.575 714.872 343.367C714.872 326.181 714.872 308.766 714.872 291.58C715.108 288.142 709.697 288.142 709.697 291.58Z" fill="#56CCF2"/>
<path d="M762.159 292.725C762.159 309.453 762.159 325.952 762.159 342.679C762.159 345.887 767.335 345.887 767.335 342.679C767.335 325.952 767.335 309.453 767.335 292.725C767.335 289.517 762.159 289.517 762.159 292.725Z" fill="#56CCF2"/>
<path d="M664.058 346.804C664.058 349.096 664.058 351.616 664.058 353.908C664.058 357.116 669.233 357.116 669.233 353.908C669.233 351.616 669.233 349.096 669.233 346.804C669.468 343.596 664.058 343.596 664.058 346.804Z" fill="#56CCF2"/>
<path d="M672.056 346.575C672.056 350.471 672.056 354.366 672.056 358.262C672.056 361.47 677.232 361.47 677.232 358.262C677.232 354.366 677.232 350.471 677.232 346.575C677.232 343.367 672.056 343.367 672.056 346.575Z" fill="#56CCF2"/>
<path d="M680.525 345.887C680.525 349.324 680.525 352.762 680.525 355.97C680.525 359.178 685.701 359.178 685.701 355.97C685.701 352.532 685.701 349.095 685.701 345.887C685.701 342.45 680.525 342.45 680.525 345.887Z" fill="#56CCF2"/>
<path d="M688.054 346.804C688.054 350.012 688.054 353.22 688.054 356.428C688.054 359.636 693.23 359.636 693.23 356.428C693.23 353.22 693.23 350.012 693.23 346.804C693.465 343.596 688.054 343.596 688.054 346.804Z" fill="#56CCF2"/>
<path d="M695.582 347.492C695.582 351.158 695.582 354.824 695.582 358.491C695.582 361.699 700.757 361.699 700.757 358.491C700.757 354.824 700.757 351.158 700.757 347.492C700.992 344.283 695.582 344.283 695.582 347.492Z" fill="#56CCF2"/>
<path d="M703.581 347.033C703.581 350.929 703.581 354.595 703.581 358.491C703.581 361.699 708.757 361.699 708.757 358.491C708.757 354.595 708.757 350.929 708.757 347.033C708.757 343.825 703.581 343.825 703.581 347.033Z" fill="#56CCF2"/>
<path d="M710.168 347.492C710.168 350.241 710.168 352.991 710.168 355.512C710.168 358.72 715.343 358.72 715.343 355.512C715.343 352.762 715.343 350.012 715.343 347.492C715.579 344.283 710.168 344.283 710.168 347.492Z" fill="#56CCF2"/>
<path d="M717.696 347.033C717.696 350.7 717.696 354.366 717.696 358.262C717.696 361.47 722.872 361.47 722.872 358.262C722.872 354.595 722.872 350.929 722.872 347.033C722.872 343.825 717.696 343.825 717.696 347.033Z" fill="#56CCF2"/>
<path d="M725.93 347.034C725.93 350.7 725.93 354.366 725.93 358.033C725.93 361.241 731.106 361.241 731.106 358.033C731.106 354.366 731.106 350.7 731.106 347.034C731.106 343.825 725.93 343.825 725.93 347.034Z" fill="#56CCF2"/>
<path d="M734.634 347.492C734.634 350.929 734.634 354.366 734.634 357.803C734.634 361.012 739.809 361.012 739.809 357.803C739.809 354.366 739.809 350.929 739.809 347.492C739.809 344.283 734.634 344.283 734.634 347.492Z" fill="#56CCF2"/>
<path d="M742.868 346.575C742.868 350.471 742.868 354.595 742.868 358.491C742.868 361.699 748.044 361.699 748.044 358.491C748.044 354.595 748.044 350.471 748.044 346.575C748.044 343.367 742.868 343.367 742.868 346.575Z" fill="#56CCF2"/>
<path d="M752.278 346.575C752.278 349.783 752.278 352.762 752.278 355.97C752.278 359.178 757.454 359.178 757.454 355.97C757.454 352.762 757.454 349.783 757.454 346.575C757.454 343.367 752.278 343.367 752.278 346.575Z" fill="#56CCF2"/>
<path d="M760.748 347.033C760.748 350.7 760.748 354.366 760.748 358.262C760.748 361.47 765.923 361.47 765.923 358.262C765.923 354.595 765.923 350.929 765.923 347.033C766.158 343.825 760.748 343.825 760.748 347.033Z" fill="#56CCF2"/>
<path d="M768.981 346.804C768.981 350.241 768.981 353.679 768.981 356.887C768.981 360.095 774.157 360.095 774.157 356.887C774.157 353.449 774.157 350.012 774.157 346.804C774.157 343.596 768.981 343.596 768.981 346.804Z" fill="#56CCF2"/>
<path d="M775.333 346.804C775.333 350.471 775.333 354.137 775.333 358.033C775.333 361.241 780.509 361.241 780.509 358.033C780.509 354.366 780.509 350.7 780.509 346.804C780.744 343.596 775.333 343.596 775.333 346.804Z" fill="#56CCF2"/>
<path d="M781.92 346.575C781.92 350.471 781.92 354.595 781.92 358.491C781.92 361.699 787.096 361.699 787.096 358.491C787.096 354.595 787.096 350.471 787.096 346.575C787.096 343.367 781.92 343.367 781.92 346.575Z" fill="#56CCF2"/>
<path d="M789.213 347.262C789.213 350.241 789.213 353.22 789.213 356.199C789.213 359.407 794.389 359.407 794.389 356.199C794.389 353.22 794.389 350.241 794.389 347.262C794.389 344.054 789.213 344.054 789.213 347.262Z" fill="#56CCF2"/>
<path d="M795.8 347.262C795.8 350.012 795.8 352.762 795.8 355.282C795.8 358.49 800.976 358.49 800.976 355.282C800.976 352.533 800.976 349.783 800.976 347.262C800.976 344.054 795.8 344.054 795.8 347.262Z" fill="#56CCF2"/>
<path d="M803.093 346.575C803.093 350.471 803.093 354.366 803.093 358.262C803.093 361.47 808.269 361.47 808.269 358.262C808.269 354.366 808.269 350.471 808.269 346.575C808.269 343.367 803.093 343.367 803.093 346.575Z" fill="#56CCF2"/>
<path d="M676.761 292.038C676.761 308.766 676.761 325.723 676.761 342.45C676.761 345.658 681.937 345.658 681.937 342.45C681.937 325.723 681.937 308.766 681.937 292.038C682.172 288.83 676.761 288.83 676.761 292.038Z" fill="#56CCF2"/>
<path d="M700.287 292.038C700.287 309.224 700.287 326.181 700.287 343.367C700.287 346.575 705.462 346.575 705.462 343.367C705.462 326.181 705.462 309.224 705.462 292.038C705.462 288.83 700.287 288.83 700.287 292.038Z" fill="#56CCF2"/>
<path d="M668.057 310.828C671.586 310.828 675.115 310.828 678.879 310.828C682.172 310.828 682.172 305.786 678.879 305.786C675.35 305.786 671.821 305.786 668.057 305.786C664.764 305.786 664.764 310.828 668.057 310.828Z" fill="#56CCF2"/>
<path d="M668.292 331.451C672.056 331.451 675.585 331.451 679.349 331.451C682.643 331.451 682.643 326.41 679.349 326.41C675.585 326.41 672.056 326.41 668.292 326.41C664.999 326.41 664.999 331.451 668.292 331.451Z" fill="#56CCF2"/>
<path d="M703.11 310.828C706.404 310.828 709.462 310.828 712.756 310.828C716.049 310.828 716.049 305.786 712.756 305.786C709.462 305.786 706.404 305.786 703.11 305.786C699.817 305.786 699.817 310.828 703.11 310.828Z" fill="#56CCF2"/>
<path d="M702.404 331.451C706.169 331.451 709.933 331.451 713.697 331.451C716.99 331.451 716.99 326.41 713.697 326.41C709.933 326.41 706.169 326.41 702.404 326.41C698.876 326.41 698.876 331.451 702.404 331.451Z" fill="#56CCF2"/>
<path d="M680.526 308.536C687.819 308.536 695.112 308.536 702.169 308.536C705.463 308.536 705.463 303.495 702.169 303.495C694.876 303.495 687.583 303.495 680.526 303.495C677.232 303.495 677.232 308.536 680.526 308.536Z" fill="#56CCF2"/>
<path d="M682.408 327.327C682.408 324.577 684.996 321.827 686.878 319.765C687.348 319.077 688.054 318.39 688.524 317.931C689.701 316.786 689.701 316.556 691.112 317.244C694.641 319.077 697.229 323.889 698.405 327.556C699.346 330.764 704.522 329.389 703.346 326.181C702.169 322.744 700.522 319.765 698.17 317.015C696.288 314.952 692.994 311.515 690.171 311.286C686.878 311.057 684.29 314.494 682.408 316.786C679.82 319.994 676.997 323.202 676.997 327.327C677.232 330.535 682.408 330.535 682.408 327.327Z" fill="#56CCF2"/>
<path d="M691.347 343.367C691.583 339.013 690.171 333.055 692.288 329.16C691.818 329.618 691.347 329.847 690.642 330.305C689.701 330.764 690.406 335.347 690.406 336.492C690.406 339.013 690.406 341.304 690.406 343.825C690.406 347.033 695.582 347.033 695.582 343.825C695.582 339.471 695.817 335.117 695.347 330.764C695.111 328.243 693.935 325.264 690.877 325.264C683.584 324.806 686.172 339.7 685.937 343.596C685.937 346.804 691.112 346.804 691.347 343.367Z" fill="#56CCF2"/>
<path d="M771.569 293.412C771.569 309.453 771.569 325.264 771.569 341.305C771.569 344.513 776.745 344.513 776.745 341.305C776.745 325.264 776.745 309.453 776.745 293.412C776.98 290.204 771.569 290.204 771.569 293.412Z" fill="#56CCF2"/>
<path d="M792.742 293.183C792.742 309.911 792.742 326.639 792.742 343.596C792.742 346.804 797.918 346.804 797.918 343.596C797.918 326.868 797.918 310.14 797.918 293.183C797.918 289.975 792.742 289.975 792.742 293.183Z" fill="#56CCF2"/>
<path d="M764.982 311.973C768.275 311.973 771.569 311.973 774.862 311.973C778.156 311.973 778.156 306.932 774.862 306.932C771.569 306.932 768.275 306.932 764.982 306.932C761.453 306.932 761.453 311.973 764.982 311.973Z" fill="#56CCF2"/>
<path d="M765.453 332.368C768.276 332.368 771.099 332.368 774.157 332.368C777.45 332.368 777.45 327.326 774.157 327.326C771.334 327.326 768.511 327.326 765.453 327.326C762.159 327.326 762.159 332.368 765.453 332.368Z" fill="#56CCF2"/>
<path d="M795.565 312.432C799.564 312.432 803.564 312.432 807.563 312.432C810.856 312.432 810.856 307.391 807.563 307.391C803.564 307.391 799.564 307.391 795.565 307.391C792.271 307.391 792.271 312.432 795.565 312.432Z" fill="#56CCF2"/>
<path d="M796.27 332.597C799.564 332.597 802.622 332.597 805.916 332.597C809.209 332.597 809.209 327.555 805.916 327.555C802.622 327.555 799.564 327.555 796.27 327.555C792.977 327.555 792.977 332.597 796.27 332.597Z" fill="#56CCF2"/>
<path d="M776.275 309.224C782.391 309.224 788.272 309.224 794.389 309.224C797.683 309.224 797.683 304.183 794.389 304.183C788.272 304.183 782.391 304.183 776.275 304.183C772.746 303.953 772.746 309.224 776.275 309.224Z" fill="#56CCF2"/>
<path d="M776.509 329.16C777.686 325.952 781.45 317.015 785.684 318.848C789.448 320.452 792.271 325.722 792.977 329.389C793.683 332.597 798.623 331.222 797.917 328.014C797.212 324.577 795.565 321.598 793.212 318.848C791.33 316.786 788.037 313.348 785.214 312.89C778.391 311.744 772.981 323.202 771.334 328.014C770.393 330.993 775.333 332.368 776.509 329.16Z" fill="#56CCF2"/>
<path d="M785.684 343.596C785.684 341.534 785.684 339.242 785.684 337.18C785.684 336.263 785.684 335.347 785.684 334.201C785.684 333.972 786.154 330.305 784.508 332.139C784.037 332.597 784.743 336.721 784.743 337.409C784.743 339.7 784.743 341.763 784.743 344.054C784.743 347.262 789.918 347.262 789.918 344.054C789.918 340.159 790.154 336.263 789.683 332.368C789.448 329.847 788.036 327.097 784.978 326.639C782.155 326.181 780.508 328.701 780.273 331.222C779.803 335.347 780.273 339.471 780.273 343.596C780.508 346.804 785.684 346.804 785.684 343.596Z" fill="#56CCF2"/>
<path d="M683.349 280.81C683.349 277.372 683.349 274.164 683.113 270.727C683.113 269.352 683.113 267.977 683.113 266.602C683.113 264.769 683.819 262.707 682.172 262.249C680.055 261.561 681.467 264.311 681.467 265.686C681.467 267.29 681.467 268.894 681.467 270.498C681.467 273.706 681.467 277.143 681.467 280.351C681.467 283.559 686.642 283.559 686.642 280.351C686.642 275.081 686.878 269.581 686.642 264.311C686.407 261.332 685.937 256.978 681.937 256.749C677.938 256.52 677.703 260.644 677.938 263.394C677.938 269.352 678.173 275.081 678.173 281.039C678.173 284.247 683.349 284.247 683.349 280.81Z" fill="#56CCF2"/>
<path d="M698.405 281.039C697.7 277.143 697.229 273.477 696.994 269.581C696.994 268.894 697.229 259.499 695.818 259.728C696.288 259.728 696.053 279.435 695.818 281.039C695.582 284.247 700.758 284.247 700.993 281.039C701.699 274.164 701.934 266.832 700.993 259.957C700.523 257.436 699.347 254.228 696.053 254.687C692.054 255.145 691.818 259.957 691.583 262.936C691.348 269.352 692.054 275.997 693.23 282.414C693.936 285.622 698.876 284.247 698.405 281.039Z" fill="#56CCF2"/>
<path d="M672.292 246.208C672.292 259.269 672.292 272.331 672.292 285.163C672.292 288.371 677.468 288.371 677.468 285.163C677.468 272.102 677.468 259.04 677.468 246.208C677.468 242.771 672.292 242.771 672.292 246.208Z" fill="#56CCF2"/>
<path d="M701.229 247.125C701.229 258.353 701.229 269.81 701.229 281.038C701.229 284.246 706.404 284.246 706.404 281.038C706.404 269.81 706.404 258.353 706.404 247.125C706.404 243.917 701.229 243.917 701.229 247.125Z" fill="#56CCF2"/>
<path d="M781.214 282.872C781.214 279.435 781.214 275.768 781.214 272.331C781.214 270.956 781.92 264.082 780.744 263.623C779.803 263.165 780.508 265.915 780.508 266.602C780.508 268.206 780.273 269.81 780.273 271.644C780.038 275.31 779.803 279.206 779.567 282.872C779.332 286.08 784.743 286.08 784.743 282.872C784.978 276.456 785.919 270.04 785.449 263.623C785.213 260.644 784.272 256.978 780.508 256.978C776.744 256.978 776.039 260.874 775.803 263.853C775.333 270.269 775.803 276.685 775.803 282.872C775.803 286.08 781.214 286.08 781.214 282.872Z" fill="#56CCF2"/>
<path d="M792.272 282.185C792.272 278.747 792.272 275.081 792.272 271.644C792.272 270.269 792.977 263.394 791.801 262.936C790.86 262.478 791.566 265.228 791.566 265.915C791.566 267.519 791.331 269.123 791.331 270.956C791.096 274.623 790.86 278.518 790.625 282.185C790.39 285.393 795.801 285.393 795.801 282.185C796.036 275.768 796.977 269.352 796.506 262.936C796.271 259.957 795.33 256.291 791.566 256.291C787.802 256.291 787.096 260.186 786.861 263.165C786.39 269.581 786.861 275.998 786.861 282.185C786.861 285.622 792.272 285.622 792.272 282.185Z" fill="#56CCF2"/>
<path d="M769.922 250.562C769.922 261.103 769.922 271.643 769.922 281.955C769.922 285.163 775.098 285.163 775.098 281.955C775.098 271.414 775.098 260.873 775.098 250.562C775.333 247.354 769.922 247.354 769.922 250.562Z" fill="#56CCF2"/>
<path d="M796.271 251.707C796.271 261.561 796.271 271.414 796.271 281.268C796.271 284.476 801.447 284.476 801.447 281.268C801.447 271.414 801.447 261.561 801.447 251.707C801.447 248.499 796.271 248.499 796.271 251.707Z" fill="#56CCF2"/>
<path d="M715.343 294.1C730.164 294.1 745.22 294.1 760.041 294.1C763.335 294.1 763.335 289.059 760.041 289.059C745.22 289.059 730.164 289.059 715.343 289.059C712.05 288.83 712.05 294.1 715.343 294.1Z" fill="#56CCF2"/>
<path d="M715.579 308.995C730.87 308.995 746.397 308.995 761.688 308.995C764.982 308.995 764.982 303.954 761.688 303.954C746.397 303.954 730.87 303.954 715.579 303.954C712.285 303.954 712.285 308.995 715.579 308.995Z" fill="#56CCF2"/>
<path d="M738.869 329.618C737.222 330.535 735.105 331.222 735.81 328.701C736.281 326.868 734.634 324.806 732.517 325.493C731.576 324.348 731.576 322.973 732.752 321.827C734.634 322.744 736.516 321.598 736.751 319.535C737.692 319.077 738.633 318.39 739.574 317.931C740.516 319.306 742.397 319.765 743.574 318.39C746.162 317.931 746.867 318.619 745.926 320.223C745.456 321.369 746.162 322.514 747.103 323.202C747.808 323.431 748.514 323.889 748.749 324.577C746.632 325.035 746.397 327.556 747.573 328.931C747.338 328.931 747.338 328.931 747.103 328.931C745.691 328.472 744.28 329.389 743.809 330.764C743.574 330.764 743.103 330.535 742.868 330.535C742.162 327.327 737.222 328.701 737.928 331.909C739.104 338.096 747.103 337.867 748.985 332.139C747.808 332.826 746.867 333.284 745.691 333.972C751.572 335.805 754.866 329.618 751.102 325.264C750.631 326.639 750.396 328.014 749.926 329.618C752.278 329.16 753.925 327.327 753.925 324.806C753.925 322.056 751.572 320.223 749.455 318.848C749.926 319.765 750.161 320.681 750.631 321.827C753.454 314.953 744.75 310.14 739.574 315.182C740.986 315.411 742.397 315.64 743.574 315.64C739.104 309.682 731.576 313.348 730.87 319.765C732.282 319.077 733.458 318.39 734.869 317.473C724.048 312.661 723.342 333.972 733.458 330.535C732.282 329.389 731.341 328.472 730.164 327.327C728.518 334.888 734.634 337.638 740.986 333.972C744.28 332.368 741.692 328.014 738.869 329.618Z" fill="#56CCF2"/>
<path d="M744.044 309.224C753.925 311.515 758.395 318.848 756.278 328.472C754.396 336.722 747.808 341.992 739.104 341.076C730.635 340.388 724.048 333.285 723.577 325.264C722.636 313.12 732.987 307.62 744.044 309.224C747.338 309.682 748.749 304.641 745.456 304.412C732.752 302.808 720.519 307.162 718.402 320.681C716.52 332.368 724.989 344.284 736.987 346.117C748.279 347.95 758.16 341.534 760.983 330.993C764.276 318.39 758.63 307.62 745.456 304.641C742.162 303.495 740.751 308.307 744.044 309.224Z" fill="#56CCF2"/>
<path d="M733.929 306.015C735.105 304.87 736.281 303.724 737.458 302.578C738.399 301.662 739.575 300.058 740.751 299.599C739.81 299.599 739.104 299.599 738.163 299.599C740.751 300.745 743.104 303.953 744.986 305.786C747.338 308.307 750.867 304.64 748.75 302.12C747.338 300.516 745.691 298.912 743.809 297.308C742.633 296.391 741.457 294.787 739.81 294.787C738.163 294.558 736.987 295.933 735.811 297.079C733.929 298.912 732.047 300.516 730.165 302.349C727.812 304.64 731.576 308.078 733.929 306.015Z" fill="#56CCF2"/>
<path d="M722.871 291.35C722.871 296.162 722.871 300.974 722.871 306.016C722.871 309.224 728.047 309.224 728.047 306.016C728.047 301.203 728.047 296.391 728.047 291.35C728.047 288.142 722.871 288.142 722.871 291.35Z" fill="#56CCF2"/>
<path d="M750.161 292.725C750.161 297.537 750.161 302.578 750.161 307.39C750.161 310.598 755.337 310.598 755.337 307.39C755.337 302.578 755.337 297.537 755.337 292.725C755.337 289.517 750.161 289.517 750.161 292.725Z" fill="#56CCF2"/>
<path d="M675.35 418.298C674.644 409.361 674.174 399.279 677.232 390.571C678.644 386.447 681.937 380.26 685.701 377.739C688.524 375.906 687.348 376.135 690.406 378.197C702.404 387.134 699.817 406.382 700.287 419.444C700.287 422.652 705.698 422.652 705.463 419.444C705.227 408.903 706.639 396.3 702.404 386.217C700.522 381.405 694.876 372.698 689.23 370.864C683.349 368.802 678.408 377.51 675.821 381.634C668.763 392.175 669.233 406.382 670.175 418.298C670.41 421.506 675.585 421.506 675.35 418.298Z" fill="#56CCF2"/>
<path d="M755.572 419.902C756.278 408.216 757.454 395.154 753.219 383.926C750.632 376.823 743.339 366.053 734.634 364.907C726.871 363.99 719.343 374.989 716.284 380.489C709.697 392.175 712.52 405.008 712.05 417.84C711.815 421.048 717.225 421.048 717.225 417.84C717.696 408.674 715.579 398.592 718.166 389.426C720.519 381.406 728.988 367.886 738.398 372.698C754.16 380.489 751.337 405.924 750.396 419.902C750.161 423.11 755.337 423.11 755.572 419.902Z" fill="#56CCF2"/>
<path d="M768.511 415.778C767.805 406.841 767.334 396.758 770.393 388.051C771.804 383.926 775.098 377.739 778.862 375.218C781.685 373.385 780.509 373.614 783.567 375.677C795.565 384.613 792.977 403.862 793.448 416.923C793.448 420.131 798.859 420.131 798.623 416.923C798.388 406.382 799.8 393.779 795.565 383.697C793.683 378.885 788.037 370.177 782.391 368.344C776.509 366.282 771.569 374.989 768.981 379.114C761.924 389.655 762.394 403.862 763.335 415.778C763.57 418.986 768.746 418.986 768.511 415.778Z" fill="#56CCF2"/>
<path d="M670.645 422.424C716.99 422.424 763.335 422.424 809.68 422.424C812.974 422.424 812.974 417.382 809.68 417.382C763.335 417.382 716.99 417.382 670.645 417.382C667.351 417.153 667.351 422.424 670.645 422.424Z" fill="#56CCF2"/>
<path d="M676.761 402.716C676.761 407.528 676.761 412.569 676.761 417.381C676.761 420.589 681.937 420.589 681.937 417.381C681.937 412.569 681.937 407.528 681.937 402.716C682.172 399.508 676.761 399.508 676.761 402.716Z" fill="#56CCF2"/>
<path d="M679.114 404.55C680.055 404.55 680.996 404.55 681.937 404.55C680.996 403.633 680.291 402.946 679.349 402.029C679.349 407.529 679.349 412.799 679.349 418.299C679.349 421.507 684.525 421.507 684.525 418.299C684.525 412.799 684.525 407.529 684.525 402.029C684.525 400.654 683.349 399.508 681.937 399.508C680.996 399.508 680.055 399.508 679.114 399.508C675.821 399.279 675.821 404.55 679.114 404.55Z" fill="#56CCF2"/>
<path d="M687.113 402.716C687.113 407.528 687.113 412.569 687.113 417.381C687.113 420.589 692.289 420.589 692.289 417.381C692.289 412.569 692.289 407.528 692.289 402.716C692.289 399.279 687.113 399.279 687.113 402.716Z" fill="#56CCF2"/>
<path d="M689.465 404.321C690.406 404.321 691.347 404.321 692.288 404.321C691.347 403.404 690.642 402.717 689.701 401.8C689.701 407.3 689.701 412.57 689.701 418.069C689.701 421.277 694.876 421.277 694.876 418.069C694.876 412.57 694.876 407.3 694.876 401.8C694.876 400.425 693.7 399.28 692.288 399.28C691.347 399.28 690.406 399.28 689.465 399.28C686.172 399.28 686.172 404.321 689.465 404.321Z" fill="#56CCF2"/>
<path d="M724.754 402.716C724.754 407.528 724.754 412.569 724.754 417.381C724.754 420.589 729.93 420.589 729.93 417.381C729.93 412.569 729.93 407.528 729.93 402.716C729.93 399.279 724.754 399.279 724.754 402.716Z" fill="#56CCF2"/>
<path d="M727.106 404.321C728.047 404.321 728.988 404.321 729.929 404.321C728.988 403.404 728.282 402.717 727.341 401.8C727.341 407.3 727.341 412.57 727.341 418.069C727.341 421.277 732.517 421.277 732.517 418.069C732.517 412.57 732.517 407.3 732.517 401.8C732.517 400.425 731.341 399.28 729.929 399.28C728.988 399.28 728.047 399.28 727.106 399.28C723.812 399.28 723.812 404.321 727.106 404.321Z" fill="#56CCF2"/>
<path d="M734.634 402.029C734.634 406.841 734.634 411.883 734.634 416.695C734.634 419.903 739.809 419.903 739.809 416.695C739.809 411.883 739.809 406.841 739.809 402.029C740.045 398.592 734.634 398.592 734.634 402.029Z" fill="#56CCF2"/>
<path d="M736.987 403.633C737.928 403.633 738.869 403.633 739.81 403.633C738.869 402.716 738.163 402.029 737.222 401.112C737.222 406.612 737.222 411.882 737.222 417.381C737.222 420.589 742.398 420.589 742.398 417.381C742.398 411.882 742.398 406.612 742.398 401.112C742.398 399.737 741.221 398.592 739.81 398.592C738.869 398.592 737.928 398.592 736.987 398.592C733.693 398.592 733.693 403.633 736.987 403.633Z" fill="#56CCF2"/>
<path d="M771.805 402.716C771.805 407.528 771.805 412.569 771.805 417.381C771.805 420.589 776.98 420.589 776.98 417.381C776.98 412.569 776.98 407.528 776.98 402.716C776.98 399.279 771.805 399.279 771.805 402.716Z" fill="#56CCF2"/>
<path d="M774.157 404.321C775.098 404.321 776.039 404.321 776.98 404.321C776.039 403.404 775.333 402.717 774.392 401.8C774.392 407.3 774.392 412.57 774.392 418.069C774.392 421.277 779.568 421.277 779.568 418.069C779.568 412.57 779.568 407.3 779.568 401.8C779.568 400.425 778.391 399.28 776.98 399.28C776.039 399.28 775.098 399.28 774.157 399.28C770.863 399.28 770.863 404.321 774.157 404.321Z" fill="#56CCF2"/>
<path d="M782.861 402.945C782.861 407.758 782.861 412.799 782.861 417.611C782.861 420.819 788.037 420.819 788.037 417.611C788.037 412.799 788.037 407.758 788.037 402.945C788.037 399.737 782.861 399.737 782.861 402.945Z" fill="#56CCF2"/>
<path d="M785.214 404.778C786.155 404.778 787.096 404.778 788.037 404.778C787.096 403.862 786.39 403.174 785.449 402.258C785.449 407.757 785.449 413.028 785.449 418.527C785.449 421.735 790.625 421.735 790.625 418.527C790.625 413.028 790.625 407.757 790.625 402.258C790.625 400.883 789.448 399.737 788.037 399.737C787.096 399.737 786.155 399.737 785.214 399.737C781.92 399.508 781.92 404.778 785.214 404.778Z" fill="#56CCF2"/>
<path d="M669.469 369.032C714.402 369.032 759.1 369.032 804.034 369.032C807.328 369.032 807.328 363.99 804.034 363.99C759.1 363.99 714.402 363.99 669.469 363.99C666.175 363.99 666.175 369.032 669.469 369.032Z" fill="#56CCF2"/>
<path d="M707.58 388.28C706.874 388.051 706.404 387.822 705.698 387.593C705.698 386.905 705.933 386.218 705.933 385.53C706.639 385.301 707.11 385.301 707.815 385.072C708.051 386.218 708.521 387.363 708.756 388.509C708.756 388.509 708.756 388.28 708.992 388.28C708.286 388.738 707.58 389.197 706.639 389.655H706.874C706.169 389.197 705.463 388.738 704.522 388.28C704.757 388.738 703.581 391.717 703.581 392.176C703.346 393.55 703.346 395.384 703.816 396.759C704.051 397.446 704.757 398.363 705.698 398.592C707.11 398.821 708.521 398.592 710.168 398.363C711.344 398.134 712.05 396.988 712.05 395.842C712.05 393.78 711.815 391.717 711.109 389.655C710.168 386.447 705.228 387.822 706.169 391.03C706.639 392.634 706.874 394.238 706.874 396.071C707.58 395.155 708.051 394.467 708.756 393.55C708.521 393.55 706.169 393.78 707.11 393.78C707.815 394.467 708.286 394.925 708.992 395.613C708.051 392.863 710.638 390.113 709.933 387.363C709.227 384.613 706.169 383.926 704.287 386.218C703.581 387.363 704.051 389.197 705.228 389.655C707.345 390.801 710.168 389.884 710.638 387.593C711.344 384.614 708.521 383.009 705.933 383.468C702.875 383.697 704.287 388.738 707.58 388.28Z" fill="#56CCF2"/>
<path d="M762.159 388.28C761.924 388.738 761.688 388.968 761.453 389.426C760.747 389.426 760.042 389.655 759.336 389.655C759.806 388.509 760.277 387.593 760.747 386.447C760.277 388.051 759.806 389.655 759.336 391.259C759.571 391.259 759.571 391.259 759.806 391.259C759.101 391.03 758.63 390.801 757.924 390.572C757.924 390.801 758.16 390.801 758.16 391.03C757.924 390.343 757.689 389.884 757.454 389.197C757.689 388.509 757.689 388.509 757.454 388.739C757.219 388.968 756.983 389.197 756.748 389.426C756.513 389.655 756.278 390.113 756.042 390.572C755.336 391.717 755.101 392.863 755.101 394.238C754.866 396.3 754.866 399.737 757.454 400.425C759.336 400.883 762.394 400.195 763.1 398.133C763.806 395.842 763.335 392.863 762.865 390.342C762.159 387.135 757.219 388.509 757.924 391.717C758.16 393.092 758.63 395.154 758.16 396.758C758.63 396.3 758.865 395.842 759.336 395.154C758.865 395.154 758.63 395.154 758.16 395.154C758.865 395.384 759.336 395.613 760.042 395.842C760.512 396.3 760.277 394.467 760.277 394.238C760.277 393.78 760.277 393.321 760.747 392.863C761.218 391.946 762.394 391.488 762.865 390.572C763.806 388.28 762.159 386.218 759.806 386.218C757.219 386.218 756.042 389.884 758.395 391.03C761.453 392.405 765.217 389.884 763.335 386.447C761.688 383.468 756.513 384.614 756.983 388.28C757.454 391.488 762.629 391.488 762.159 388.28Z" fill="#56CCF2"/>
<path d="M801.917 389.426C801.917 388.968 801.917 388.509 801.917 388.051C801.211 388.739 800.741 389.197 800.035 389.884C800.27 389.884 800.27 389.884 800.505 389.884C799.8 389.884 799.094 389.655 798.388 389.655C798.623 388.968 798.623 388.28 798.859 387.593C799.564 387.364 800.035 387.135 800.741 386.905C799.094 387.135 797.447 387.364 796.741 389.197C796.271 390.114 796.506 391.03 796.741 391.947C796.741 393.092 796.271 394.009 796.036 395.155C795.8 396.759 796.036 398.592 797.447 399.738C799.094 401.113 801.446 400.883 803.564 401.113C804.975 401.113 806.151 399.967 806.151 398.592C806.151 394.926 804.975 390.801 802.152 388.28C799.8 385.989 796.036 389.655 798.388 391.947C800.27 393.551 800.741 396.3 800.976 398.592C801.917 397.675 802.623 396.988 803.564 396.071C803.093 396.071 800.976 395.842 801.211 396.071C800.976 395.842 801.917 393.551 801.917 393.092C801.917 392.634 801.917 392.176 801.917 391.718C801.682 390.801 801.917 390.572 800.976 391.488C800.035 392.634 800.27 392.176 800.976 392.176C801.682 392.176 801.917 391.947 802.387 391.488C805.446 388.739 801.682 384.614 798.388 385.301C797.447 385.531 796.741 386.218 796.506 387.135C796.271 388.051 796.271 388.968 796.271 389.884C796.741 392.634 801.917 392.634 801.917 389.426Z" fill="#56CCF2"/>
<path d="M1266.82 331.589C1265.88 321.277 1272.23 313.486 1282.58 311.424C1296.22 308.674 1306.34 318.069 1306.81 331.36C1306.81 333.88 1311.05 333.88 1311.05 331.36C1310.57 316.465 1299.99 305.466 1284.23 307.299C1270.82 308.674 1261.64 318.757 1262.58 331.818C1262.82 334.11 1267.05 334.11 1266.82 331.589Z" fill="#56CCF2"/>
<path d="M1248.94 332.506C1254.82 323.11 1260.94 313.715 1267.29 304.549C1268.7 302.258 1265.17 300.425 1263.76 302.487C1257.41 311.653 1251.29 321.048 1245.41 330.443C1243.76 332.506 1247.53 334.568 1248.94 332.506Z" fill="#56CCF2"/>
<path d="M1304.93 304.32C1311.04 312.799 1316.93 321.506 1322.81 330.214C1324.22 332.505 1327.98 330.443 1326.34 328.152C1320.46 319.444 1314.57 310.736 1308.46 302.258C1307.05 299.966 1303.52 302.029 1304.93 304.32Z" fill="#56CCF2"/>
<path d="M1263.29 304.32C1278.11 304.32 1292.93 304.32 1307.75 304.32C1310.34 304.32 1310.34 300.196 1307.75 300.196C1292.93 300.196 1278.11 300.196 1263.29 300.196C1260.47 300.196 1260.47 304.32 1263.29 304.32Z" fill="#56CCF2"/>
<path d="M1262.35 297.675C1277.4 297.675 1292.22 297.675 1307.28 297.675C1309.87 297.675 1309.87 293.551 1307.28 293.551C1292.22 293.551 1277.4 293.551 1262.35 293.551C1259.76 293.78 1259.76 297.675 1262.35 297.675Z" fill="#56CCF2"/>
<path d="M1261.88 296.529C1261.88 298.821 1261.88 301.112 1261.88 303.404C1261.88 305.924 1266.11 305.924 1266.11 303.404C1266.11 301.112 1266.11 298.821 1266.11 296.529C1266.11 293.779 1261.88 293.779 1261.88 296.529Z" fill="#56CCF2"/>
<path d="M1304.69 296.529C1304.69 298.362 1304.69 300.425 1304.69 302.258C1304.69 304.779 1308.93 304.779 1308.93 302.258C1308.93 300.425 1308.93 298.362 1308.93 296.529C1308.93 293.779 1304.69 293.779 1304.69 296.529Z" fill="#56CCF2"/>
<path d="M1269.17 295.842C1270.58 291.488 1272.7 287.134 1273.88 282.78C1275.29 278.197 1276.23 273.614 1277.17 269.031C1277.64 266.511 1273.64 265.365 1273.17 267.886C1272.23 272.469 1271.29 277.052 1269.88 281.635C1268.46 285.988 1266.35 290.342 1265.17 294.696C1264.46 297.217 1268.46 298.362 1269.17 295.842Z" fill="#56CCF2"/>
<path d="M1280.7 268.344C1281.17 276.823 1278.34 285.989 1276.93 294.467C1276.46 296.988 1280.46 298.133 1280.93 295.613C1282.58 286.905 1285.4 277.281 1284.93 268.344C1284.7 265.824 1280.46 265.824 1280.7 268.344Z" fill="#56CCF2"/>
<path d="M1285.87 269.031C1287.52 277.968 1287.99 287.822 1292.46 295.842C1293.64 298.133 1297.4 296.071 1295.99 293.779C1291.75 286.218 1291.28 276.135 1289.87 267.886C1289.4 265.594 1285.4 266.511 1285.87 269.031Z" fill="#56CCF2"/>
<path d="M1292.93 267.886C1295.28 277.739 1298.81 287.134 1303.52 296.071C1304.69 298.362 1308.46 296.3 1307.05 294.008C1302.58 285.301 1299.05 276.364 1296.93 266.969C1296.46 264.219 1292.46 265.365 1292.93 267.886Z" fill="#56CCF2"/>
<path d="M1273.88 268.573C1281.87 268.573 1289.87 268.573 1297.87 268.573C1300.46 268.573 1300.46 264.449 1297.87 264.449C1289.87 264.449 1281.87 264.449 1273.88 264.449C1271.05 264.449 1271.05 268.573 1273.88 268.573Z" fill="#56CCF2"/>
<path d="M1273.17 276.823C1281.64 276.823 1290.11 276.823 1298.81 276.823C1301.4 276.823 1301.4 272.698 1298.81 272.698C1290.34 272.698 1281.87 272.698 1273.17 272.698C1270.58 272.927 1270.58 276.823 1273.17 276.823Z" fill="#56CCF2"/>
<path d="M1277.64 264.219C1280.93 237.18 1282.11 210.14 1284.93 183.101C1285.17 180.58 1280.93 180.58 1280.7 183.101C1277.87 210.14 1276.7 237.18 1273.4 264.219C1273.17 266.74 1277.4 266.74 1277.64 264.219Z" fill="#56CCF2"/>
<path d="M1268.93 317.611C1269.4 315.32 1271.52 313.028 1272.7 310.966C1274.11 308.904 1275.29 306.612 1276.7 304.55C1278.11 302.258 1274.58 300.196 1273.17 302.487C1271.76 305.008 1270.11 307.299 1268.7 309.82C1267.29 311.882 1265.64 314.174 1265.17 316.465C1264.23 319.215 1268.46 320.361 1268.93 317.611Z" fill="#56CCF2"/>
<path d="M1295.05 305.008C1297.64 309.132 1300.22 313.257 1302.81 317.153C1304.22 319.444 1307.75 317.382 1306.34 315.09C1303.75 310.966 1301.16 306.841 1298.58 302.946C1297.16 300.883 1293.64 302.716 1295.05 305.008Z" fill="#56CCF2"/>
<path d="M1285.4 266.74C1285.87 259.636 1286.34 252.304 1287.05 245.2C1285.64 245.2 1284.23 245.2 1282.81 245.2C1283.76 252.762 1283.99 260.324 1284.23 267.886C1284.23 270.407 1288.46 270.407 1288.46 267.886C1288.46 260.324 1287.99 252.762 1287.05 245.2C1286.81 242.679 1283.05 242.679 1282.81 245.2C1282.11 252.304 1281.64 259.636 1281.17 266.74C1281.17 269.261 1285.4 269.261 1285.4 266.74Z" fill="#56CCF2"/>
<path d="M1284.7 183.101C1287.52 210.14 1289.4 237.18 1291.75 264.448C1291.99 266.969 1296.22 266.969 1295.99 264.448C1293.64 237.409 1291.75 210.14 1288.93 183.101C1288.7 180.58 1284.46 180.58 1284.7 183.101Z" fill="#56CCF2"/>
<path d="M1280.46 184.247C1283.28 184.247 1286.11 184.247 1288.93 184.247C1291.52 184.247 1291.52 180.122 1288.93 180.122C1286.11 180.122 1283.28 180.122 1280.46 180.122C1277.64 180.351 1277.64 184.247 1280.46 184.247Z" fill="#56CCF2"/>
<path d="M1279.99 178.747C1282.58 178.747 1285.17 178.747 1287.99 178.747C1287.99 177.372 1287.99 175.997 1287.99 174.622C1287.75 174.622 1287.75 174.622 1287.52 174.622C1284.93 174.622 1284.93 178.747 1287.52 178.747C1287.75 178.747 1287.75 178.747 1287.99 178.747C1290.58 178.747 1290.58 174.622 1287.99 174.622C1285.4 174.622 1282.81 174.622 1279.99 174.622C1277.4 174.622 1277.4 178.747 1279.99 178.747Z" fill="#56CCF2"/>
<path d="M1279.29 177.143C1279.29 178.976 1279.29 180.58 1279.29 182.414C1279.29 184.934 1283.52 184.934 1283.52 182.414C1283.52 180.58 1283.52 178.976 1283.52 177.143C1283.52 174.623 1279.29 174.623 1279.29 177.143Z" fill="#56CCF2"/>
<path d="M1285.4 176.914C1285.4 178.289 1285.4 179.664 1285.4 181.038C1285.4 183.559 1289.64 183.559 1289.64 181.038C1289.64 179.664 1289.64 178.289 1289.64 176.914C1289.64 174.393 1285.4 174.393 1285.4 176.914Z" fill="#56CCF2"/>
<path d="M1282.11 160.874C1282.11 165.686 1282.11 170.498 1282.11 175.31C1282.11 177.831 1286.34 177.831 1286.34 175.31C1286.34 170.498 1286.34 165.686 1286.34 160.874C1286.34 158.124 1282.11 158.124 1282.11 160.874Z" fill="#56CCF2"/>
<path d="M1281.64 175.997C1283.29 175.997 1284.93 175.997 1286.58 175.997C1289.17 175.997 1289.17 171.873 1286.58 171.873C1284.93 171.873 1283.29 171.873 1281.64 171.873C1279.05 172.102 1279.05 175.997 1281.64 175.997Z" fill="#56CCF2"/>
<path d="M1247.29 334.11C1252.94 334.11 1258.35 334.11 1263.99 334.11C1266.58 334.11 1266.58 329.985 1263.99 329.985C1258.35 329.985 1252.94 329.985 1247.29 329.985C1244.7 329.985 1244.7 334.11 1247.29 334.11Z" fill="#56CCF2"/>
<path d="M1310.81 333.422C1315.51 333.422 1320.46 333.422 1325.16 333.422C1327.75 333.422 1327.75 329.297 1325.16 329.297C1320.46 329.297 1315.51 329.297 1310.81 329.297C1308.22 329.297 1308.22 333.422 1310.81 333.422Z" fill="#56CCF2"/>
<path d="M187.697 31.6543C187.697 38.0705 187.697 44.4866 187.697 50.9028C187.697 54.34 193.108 54.34 193.108 50.9028C193.108 44.4866 193.108 38.0705 193.108 31.6543C193.108 28.4463 187.697 28.4463 187.697 31.6543Z" fill="#56CCF2"/>
<path d="M184.404 53.8816C184.404 61.6727 184.404 69.4637 184.404 77.4839C184.404 80.9211 189.815 80.9211 189.815 77.4839C189.815 69.6928 189.815 61.9018 189.815 53.8816C189.815 50.4444 184.404 50.4444 184.404 53.8816Z" fill="#56CCF2"/>
<path d="M192.638 52.9654C192.638 61.2146 192.638 69.4639 192.638 77.9424C192.638 81.3796 198.049 81.3796 198.049 77.9424C198.049 69.6931 198.049 61.4438 198.049 52.9654C198.049 49.5282 192.638 49.5282 192.638 52.9654Z" fill="#56CCF2"/>
<path d="M193.579 76.5672C192.873 79.7753 194.755 82.296 196.637 85.0458C198.519 87.7956 200.872 90.3162 203.224 92.6078C205.577 94.8993 209.576 91.2329 206.988 88.9413C205.342 87.3373 203.695 85.5041 202.048 83.4417C201.107 82.296 198.284 79.317 198.755 77.9421C199.46 74.5048 194.285 73.1299 193.579 76.5672Z" fill="#56CCF2"/>
<path d="M183.698 76.7964C182.051 81.6084 178.993 85.9622 174.758 88.9411C171.935 91.0034 174.758 95.5864 177.581 93.5241C182.992 89.6286 186.756 84.3582 188.873 78.1712C189.814 74.9632 184.639 73.5883 183.698 76.7964Z" fill="#56CCF2"/>
<path d="M169.818 94.4409C183.463 94.4409 196.872 94.4409 210.517 94.4409C214.046 94.4409 214.046 89.1702 210.517 89.1702C196.872 89.1702 183.463 89.1702 169.818 89.1702C166.289 89.3993 166.289 94.4409 169.818 94.4409Z" fill="#56CCF2"/>
<path d="M166.289 92.6075C166.289 96.7322 166.289 100.628 166.289 104.752C166.289 108.19 171.7 108.19 171.7 104.752C171.7 100.628 171.7 96.7322 171.7 92.6075C171.7 89.1702 166.289 89.1702 166.289 92.6075Z" fill="#56CCF2"/>
<path d="M209.105 92.6075C209.105 97.1905 209.105 101.774 209.105 106.357C209.105 109.794 214.516 109.794 214.516 106.357C214.516 101.774 214.516 97.1905 214.516 92.6075C214.516 89.1702 209.105 89.1702 209.105 92.6075Z" fill="#56CCF2"/>
<path d="M160.878 107.044C160.878 115.293 160.878 123.313 160.878 131.563C160.878 135 166.289 135 166.289 131.563C166.289 123.313 166.289 115.293 166.289 107.044C166.289 103.607 160.878 103.607 160.878 107.044Z" fill="#56CCF2"/>
<path d="M163.937 109.335C169.347 109.335 174.758 109.335 180.169 109.335C183.698 109.335 183.698 104.065 180.169 104.065C179.934 104.065 179.463 104.065 179.228 104.065C175.699 104.065 175.699 109.335 179.228 109.335C179.463 109.335 179.934 109.335 180.169 109.335C183.698 109.335 183.698 104.065 180.169 104.065C174.758 104.065 169.347 104.065 163.937 104.065C160.408 104.065 160.408 109.335 163.937 109.335Z" fill="#56CCF2"/>
<path d="M176.405 107.961C176.405 115.523 176.405 123.314 176.405 130.875C176.405 134.313 181.816 134.313 181.816 130.875C181.816 123.314 181.816 115.523 181.816 107.961C181.816 104.753 176.405 104.753 176.405 107.961Z" fill="#56CCF2"/>
<path d="M199.46 108.419C199.46 115.293 199.46 122.397 199.46 129.271C199.46 132.709 204.871 132.709 204.871 129.271C204.871 122.397 204.871 115.293 204.871 108.419C204.871 104.982 199.46 104.982 199.46 108.419Z" fill="#56CCF2"/>
<path d="M202.989 110.023C207.459 110.023 211.929 110.023 216.398 110.023C219.927 110.023 219.927 104.753 216.398 104.753C211.929 104.753 207.459 104.753 202.989 104.753C199.46 104.753 199.46 110.023 202.989 110.023Z" fill="#56CCF2"/>
<path d="M215.457 107.502C215.457 114.606 215.457 121.939 215.457 129.042C215.457 132.479 220.868 132.479 220.868 129.042C220.868 121.939 220.868 114.606 220.868 107.502C220.868 104.065 215.457 104.065 215.457 107.502Z" fill="#56CCF2"/>
<path d="M162.055 135.917C168.877 135.917 175.464 135.917 182.287 135.917C185.815 135.917 185.815 130.646 182.287 130.646C175.464 130.646 168.877 130.646 162.055 130.646C158.526 130.646 158.526 135.917 162.055 135.917Z" fill="#56CCF2"/>
<path d="M158.291 134.313C158.291 185.184 158.291 235.825 158.291 286.696C158.291 290.133 163.701 290.133 163.701 286.696C163.701 235.825 163.701 185.184 163.701 134.313C163.701 130.876 158.291 130.876 158.291 134.313Z" fill="#56CCF2"/>
<path d="M200.872 135.458C206.988 135.458 213.34 135.458 219.457 135.458C222.986 135.458 222.986 130.188 219.457 130.188C213.34 130.188 206.988 130.188 200.872 130.188C197.343 130.188 197.343 135.458 200.872 135.458Z" fill="#56CCF2"/>
<path d="M197.107 134.771C197.107 176.705 197.107 218.639 197.107 260.573C197.107 264.01 202.518 264.01 202.518 260.573C202.518 218.639 202.518 176.705 202.518 134.771C202.518 131.334 197.107 131.334 197.107 134.771Z" fill="#56CCF2"/>
<path d="M179.463 134.313C179.463 177.164 179.463 219.785 179.463 262.636C179.463 266.073 184.874 266.073 184.874 262.636C184.874 219.785 184.874 177.164 184.874 134.313C184.874 130.876 179.463 130.876 179.463 134.313Z" fill="#56CCF2"/>
<path d="M182.051 265.615C187.933 265.615 193.814 265.615 199.695 265.615C203.224 265.615 203.224 260.344 199.695 260.344C193.814 260.344 187.933 260.344 182.051 260.344C178.758 260.344 178.758 265.615 182.051 265.615Z" fill="#56CCF2"/>
<path d="M217.81 132.938C217.81 183.58 217.81 234.221 217.81 284.863C217.81 288.3 223.22 288.3 223.22 284.863C223.22 234.221 223.22 183.58 223.22 132.938C223.22 129.501 217.81 129.501 217.81 132.938Z" fill="#56CCF2"/>
<path d="M161.114 289.446C166.289 289.446 171.23 289.446 176.405 289.446C179.934 289.446 179.934 284.176 176.405 284.176C171.23 284.176 166.289 284.176 161.114 284.176C157.82 284.176 157.82 289.446 161.114 289.446Z" fill="#56CCF2"/>
<path d="M180.404 286.925C180.404 282.113 180.404 277.301 180.404 272.26C180.404 268.823 174.994 268.823 174.994 272.26C174.994 277.072 174.994 281.884 174.994 286.925C174.994 290.133 180.404 290.133 180.404 286.925Z" fill="#56CCF2"/>
<path d="M177.346 275.01C186.521 275.01 195.696 275.01 204.636 275.01C208.165 275.01 208.165 269.739 204.636 269.739C195.461 269.739 186.286 269.739 177.346 269.739C173.818 269.739 173.818 275.01 177.346 275.01Z" fill="#56CCF2"/>
<path d="M202.048 272.26C202.048 277.072 202.048 281.884 202.048 286.926C202.048 290.363 207.459 290.363 207.459 286.926C207.459 282.113 207.459 277.301 207.459 272.26C207.223 268.823 202.048 268.823 202.048 272.26Z" fill="#56CCF2"/>
<path d="M205.106 289.446C210.046 289.446 214.987 289.446 219.927 289.446C223.456 289.446 223.456 284.176 219.927 284.176C214.987 284.176 210.046 284.176 205.106 284.176C201.577 284.176 201.577 289.446 205.106 289.446Z" fill="#56CCF2"/>
<path d="M151.939 276.155C154.527 276.155 156.879 276.155 159.467 276.155C162.996 276.155 162.996 270.885 159.467 270.885C156.879 270.885 154.527 270.885 151.939 270.885C148.645 270.885 148.645 276.155 151.939 276.155Z" fill="#56CCF2"/>
<path d="M148.41 273.406C148.41 282.113 148.41 290.821 148.41 299.529C148.41 302.966 153.82 302.966 153.82 299.529C153.82 290.821 153.82 282.113 153.82 273.406C153.82 270.197 148.41 270.197 148.41 273.406Z" fill="#56CCF2"/>
<path d="M142.764 304.341C145.587 304.341 148.41 304.341 151.233 304.341C154.762 304.341 154.762 299.07 151.233 299.07C148.41 299.07 145.587 299.07 142.764 299.07C139.235 299.07 139.235 304.341 142.764 304.341Z" fill="#56CCF2"/>
<path d="M138.765 302.278C138.765 315.34 138.765 328.63 138.765 341.692C138.765 345.129 144.176 345.129 144.176 341.692C144.176 328.63 144.176 315.34 144.176 302.278C144.176 298.841 138.765 298.841 138.765 302.278Z" fill="#56CCF2"/>
<path d="M223.221 276.155C225.103 276.155 226.985 276.155 228.867 276.155C232.396 276.155 232.396 270.885 228.867 270.885C226.985 270.885 225.103 270.885 223.221 270.885C219.927 270.885 219.927 276.155 223.221 276.155Z" fill="#56CCF2"/>
<path d="M226.279 273.406C226.279 283.488 226.279 293.342 226.279 303.424C226.279 306.862 231.69 306.862 231.69 303.424C231.69 293.342 231.69 283.488 231.69 273.406C231.69 270.197 226.279 270.197 226.279 273.406Z" fill="#56CCF2"/>
<path d="M229.337 306.403C232.866 306.403 236.395 306.403 239.924 306.403C243.453 306.403 243.453 301.133 239.924 301.133C236.395 301.133 232.866 301.133 229.337 301.133C226.044 301.362 226.044 306.403 229.337 306.403Z" fill="#56CCF2"/>
<path d="M237.336 303.424C237.336 316.944 237.336 330.234 237.336 343.754C237.336 347.191 242.747 347.191 242.747 343.754C242.747 330.234 242.747 316.944 242.747 303.424C242.747 299.987 237.336 299.987 237.336 303.424Z" fill="#56CCF2"/>
<path d="M175.935 294.717C175.935 308.695 174.994 322.673 174.994 336.651C174.994 340.088 180.404 340.088 180.404 336.651C180.404 322.673 181.345 308.695 181.345 294.717C181.345 291.28 175.935 291.28 175.935 294.717Z" fill="#56CCF2"/>
<path d="M202.283 294.945C202.283 308.923 202.283 322.902 202.283 336.88C202.283 340.317 207.694 340.317 207.694 336.88C207.694 322.902 207.694 308.923 207.694 294.945C207.694 291.737 202.283 291.737 202.283 294.945Z" fill="#56CCF2"/>
<path d="M184.168 283.259C184.168 301.133 184.168 318.777 184.168 336.651C184.168 340.088 189.579 340.088 189.579 336.651C189.579 318.777 189.579 301.133 189.579 283.259C189.579 279.822 184.168 279.822 184.168 283.259Z" fill="#56CCF2"/>
<path d="M193.579 283.259C193.579 301.133 192.638 318.777 192.402 336.651C192.402 340.088 197.813 340.088 197.813 336.651C197.813 318.777 198.754 301.133 198.989 283.259C198.989 279.822 193.579 279.822 193.579 283.259Z" fill="#56CCF2"/>
<path d="M140.647 347.191C173.347 347.191 206.047 347.191 238.983 347.191C242.512 347.191 242.512 341.921 238.983 341.921C206.282 341.921 173.582 341.921 140.647 341.921C137.118 341.921 137.118 347.191 140.647 347.191Z" fill="#56CCF2"/>
<path d="M164.643 298.612C164.643 311.444 164.643 324.277 164.643 336.88C164.643 340.317 170.053 340.317 170.053 336.88C170.053 324.047 170.053 311.215 170.053 298.612C170.053 295.404 164.643 295.404 164.643 298.612Z" fill="#56CCF2"/>
<path d="M154.056 310.299C154.056 319.235 154.056 328.172 154.056 337.109C154.056 340.546 159.467 340.546 159.467 337.109C159.467 328.172 159.467 319.235 159.467 310.299C159.232 306.861 154.056 306.861 154.056 310.299Z" fill="#56CCF2"/>
<path d="M214.281 299.987C214.281 312.361 214.281 324.735 214.281 336.88C214.281 340.317 219.692 340.317 219.692 336.88C219.692 324.506 219.692 312.132 219.692 299.987C219.692 296.779 214.281 296.55 214.281 299.987Z" fill="#56CCF2"/>
<path d="M223.926 312.819C223.926 320.839 223.926 328.859 223.926 336.88C223.926 340.317 229.337 340.317 229.337 336.88C229.337 328.859 229.337 320.839 229.337 312.819C229.337 309.611 223.926 309.611 223.926 312.819Z" fill="#56CCF2"/>
<path d="M156.897 311.902C90.2308 289.129 51.7692 279.392 1 279V473H1481V264C1407.67 265.178 1362.54 284.025 1283.56 311.902C1204.59 339.779 944.59 419.485 726.641 416.344C508.692 413.202 207.69 329.252 156.897 311.902Z" fill="#0065ED"/>
<path d="M426.873 390.549C292.722 433.727 101.074 452.073 1 452.571V473H1481V452.571C1357.41 442.11 1190.56 437.252 1058.22 390.549C925.871 343.845 838.843 336 750.269 336C661.696 336 583.422 340.163 426.873 390.549Z" fill="#004CB3" fill-opacity="0.6"/>
</svg>
