<svg width="1481" height="717" viewBox="0 0 1481 717" fill="none" xmlns="http://www.w3.org/2000/svg">
<path d="M450.221 292.357C450.221 219.271 450.221 152.85 450.221 79.7634H452.009C484.2 79.7634 516.39 79.7634 548.581 79.7634V81.6021C548.581 145.495 548.581 209.388 548.581 273.281C562.664 273.281 588.595 269.833 602.902 269.833H604.691C604.691 231.452 604.691 193.3 604.691 154.918V153.079C620.562 153.079 636.434 153.079 652.082 153.079C652.082 135.612 652.082 118.145 652.082 100.908V99.0692C677.566 99.0692 702.827 99.0692 728.311 99.0692C728.311 140.209 728.311 181.578 728.311 222.718C741.948 222.718 755.36 222.718 768.996 222.718C768.996 251.217 768.996 279.716 768.996 307.985C788.668 307.985 808.564 307.985 828.236 307.985L830.024 306.147C830.024 257.882 830.024 209.848 830.024 161.583V159.744C847.014 159.744 864.003 159.744 880.769 159.744H882.557C882.557 135.382 882.557 111.02 882.557 86.6583H884.346C893.958 86.6583 903.571 86.6583 913.183 86.6583L914.972 84.8197C914.972 57.4699 914.972 30.12 914.972 3C947.609 3 980.47 3 1013.33 3C1013.33 66.2034 1013.33 136.532 1013.33 199.735L1015.12 201.574C1029.2 201.574 1043.29 201.574 1057.37 201.574H1059.16C1059.16 222.948 1059.16 244.552 1059.16 265.926C1089.34 265.926 1123.76 265.926 1153.94 265.926C1153.94 182.957 1153.94 95.1621 1153.94 12.1932V11.9634C1176.07 11.9634 1197.98 11.9634 1220.11 11.9634V13.1125C1220.11 91.4848 1220.11 172.155 1220.11 250.528L1221.23 252.366C1242.69 252.366 1266.38 252.366 1287.85 252.366C1287.85 263.168 1287.85 276.269 1287.85 287.3H1288.96C1301.26 287.3 1317.8 287.3 1330.1 287.3C1330.1 245.701 1330.1 201.803 1330.1 160.204H1331.88C1347.08 160.204 1362.29 160.204 1377.71 160.204L1379.5 158.365C1379.5 129.407 1379.5 98.3797 1379.5 69.4211C1395.37 69.4211 1417.5 69.4211 1433.15 69.4211H1433.82C1433.82 119.294 1433.82 175.833 1433.82 225.476V226.166C1450.14 226.166 1466.46 226.166 1483 226.166V226.625C1483 246.85 1483 398.079 1483 418.304C992.095 418.304 492.471 418.304 1.56543 418.304V416.235C1.56543 321.545 1.56543 228.924 1.56543 134.233L2.01252 133.774C24.5906 133.774 47.1687 133.774 69.7467 133.774V135.612C69.7467 163.422 69.7467 191.461 69.7467 219.271V221.109C82.4888 221.109 97.4664 221.109 110.432 221.109C110.432 158.595 110.432 93.7831 110.432 31.2692V29.4305C143.293 29.4305 175.931 29.4305 208.792 29.4305V31.2692C208.792 110.791 208.792 190.312 208.792 269.833V271.672C218.404 271.672 228.017 271.672 237.629 271.672C237.629 235.129 237.629 198.586 237.629 161.813C270.938 161.813 304.246 161.813 337.554 161.813C337.554 204.791 337.554 247.77 337.554 290.748V292.587C374.886 292.587 412.218 292.587 449.327 292.587H450.221V292.357Z" fill="#2F80ED"/>
<path d="M298.857 75.758C298.857 84.2365 298.857 92.715 298.857 101.423C298.857 106.693 307.091 106.693 307.091 101.423C307.091 92.9442 307.091 84.4656 307.091 75.758C307.091 70.4876 298.857 70.4876 298.857 75.758Z" fill="#56CCF2"/>
<path d="M298.857 108.297C298.857 116.776 298.386 125.254 298.386 133.732C298.386 139.003 306.62 139.003 306.62 133.732C306.62 125.254 307.091 116.776 307.091 108.297C307.091 103.256 298.857 103.256 298.857 108.297Z" fill="#56CCF2"/>
<path d="M311.796 147.71C313.443 142.898 312.502 137.399 307.797 134.649C303.798 132.357 298.857 133.045 295.328 135.795C291.094 139.232 290.388 145.648 293.682 150.002C295.799 152.981 299.092 154.814 302.857 154.814C307.797 155.043 310.385 151.606 311.796 147.71C312.502 145.648 310.855 143.357 308.973 142.669C306.621 141.982 304.739 143.357 303.798 145.419C303.327 146.565 303.092 147.023 301.916 146.565C300.739 146.106 300.033 144.732 300.033 143.586C300.033 142.898 300.034 143.357 300.269 142.669C300.269 142.898 300.504 142.211 300.504 142.211C300.269 142.44 301.445 141.523 300.975 141.753C300.504 141.982 302.386 141.294 301.445 141.523C301.68 141.523 302.857 141.294 301.916 141.294C302.386 141.294 302.857 141.294 303.327 141.294C302.386 141.294 303.562 141.523 303.798 141.523C302.857 141.065 304.739 141.982 303.798 141.523C304.033 141.523 304.268 141.753 304.268 141.982C304.033 141.753 304.033 141.523 304.268 141.982C304.268 142.211 304.503 142.211 304.503 142.44C304.503 143.127 304.503 144.273 304.033 145.419C302.151 150.46 310.149 152.752 311.796 147.71Z" fill="#56CCF2"/>
<path d="M298.151 155.043C298.151 159.397 298.151 163.751 298.151 168.104C298.151 173.375 306.385 173.375 306.385 168.104C306.385 163.751 306.385 159.397 306.385 155.043C306.385 150.002 298.151 150.002 298.151 155.043Z" fill="#56CCF2"/>
<path d="M320.5 189.874C321.676 180.249 315.795 170.625 305.679 168.792C297.21 167.188 288.27 171.542 285.212 179.562C281.448 189.645 286.153 199.956 296.504 203.394C307.09 206.831 318.147 202.477 320.265 191.019C321.206 185.978 313.207 183.687 312.266 188.957C309.443 204.539 284.741 193.54 293.916 180.479C296.269 177.041 300.739 175.896 304.503 176.812C310.619 178.416 312.737 184.374 312.031 189.874C311.56 194.915 319.794 194.915 320.5 189.874Z" fill="#56CCF2"/>
<path d="M291.799 200.185C291.799 229.058 291.799 257.931 291.799 286.804C291.799 292.074 300.033 292.074 300.033 286.804C300.033 257.931 300.033 229.058 300.033 200.185C300.033 195.144 291.799 195.144 291.799 200.185Z" fill="#56CCF2"/>
<path d="M304.503 200.873C304.503 229.058 304.503 257.014 304.503 285.199C304.503 290.47 312.737 290.47 312.737 285.199C312.737 257.014 312.737 229.058 312.737 200.873C312.737 195.831 304.503 195.831 304.503 200.873Z" fill="#56CCF2"/>
<path d="M296.975 218.746C300.739 218.517 304.503 218.059 308.267 217.601C310.384 217.371 311.796 214.622 311.09 212.559C310.384 210.268 308.267 209.351 305.914 209.809C302.856 210.268 299.798 210.497 296.739 210.726C291.799 210.955 291.799 218.976 296.975 218.746Z" fill="#56CCF2"/>
<path d="M296.739 232.037C300.503 231.808 304.267 231.35 308.031 230.891C310.149 230.662 311.56 227.912 310.854 225.85C310.149 223.559 308.031 222.642 305.679 223.1C302.621 223.558 299.562 223.788 296.504 224.017C291.564 224.246 291.564 232.266 296.739 232.037Z" fill="#56CCF2"/>
<path d="M296.739 245.557C300.503 245.328 304.267 244.869 308.031 244.411C310.149 244.182 311.56 241.432 310.854 239.37C310.149 237.078 308.031 236.162 305.679 236.62C302.621 237.078 299.562 237.308 296.504 237.537C291.564 237.766 291.564 245.786 296.739 245.557Z" fill="#56CCF2"/>
<path d="M296.739 259.077C300.503 258.847 304.267 258.389 308.031 257.931C310.149 257.702 311.56 254.952 310.854 252.889C310.149 250.598 308.031 249.681 305.679 250.139C302.621 250.598 299.562 250.827 296.504 251.056C291.564 251.514 291.564 259.535 296.739 259.077Z" fill="#56CCF2"/>
<path d="M296.739 274.888C300.503 274.658 304.267 274.2 308.031 273.742C310.149 273.513 311.56 270.763 310.854 268.701C310.149 266.409 308.031 265.492 305.679 265.951C302.621 266.409 299.562 266.638 296.504 266.867C291.564 267.096 291.564 275.117 296.739 274.888Z" fill="#56CCF2"/>
<path d="M316.266 298.261C318.618 303.99 318.618 311.781 313.443 316.134C306.855 321.634 293.916 318.197 290.623 310.406C283.565 293.449 308.502 282.679 316.736 299.177C319.089 303.76 326.146 299.865 323.794 295.053C318.383 284.054 305.209 279.471 293.681 284.741C283.095 289.553 278.39 303.073 282.86 313.614C287.565 324.842 303.562 329.883 314.619 324.842C325.205 320.03 328.499 306.052 324.264 296.199C322.147 291.616 314.148 293.678 316.266 298.261Z" fill="#56CCF2"/>
<path d="M297.916 327.821C297.916 345.007 297.916 361.964 297.916 379.15C297.916 386.941 310.384 386.941 310.384 379.15C310.384 361.964 310.384 345.007 310.384 327.821C310.384 320.03 297.916 320.03 297.916 327.821Z" fill="#56CCF2"/>
<path d="M286.153 319.342C286.153 320.946 284.741 322.779 284.271 324.154C283.33 326.217 282.389 328.279 281.448 330.341C280.271 332.862 280.742 335.841 283.33 337.216C285.447 338.591 289.211 337.903 290.387 335.383C291.564 332.633 292.975 330.112 294.151 327.362C295.328 324.613 296.504 322.321 296.739 319.342C296.739 312.926 286.388 312.926 286.153 319.342Z" fill="#56CCF2"/>
<path d="M285.447 329.654C281.919 329.654 278.86 332.404 278.86 335.841C278.86 339.508 281.919 342.257 285.683 342.257C289.212 342.257 292.035 339.508 292.035 336.07C292.035 332.633 289.212 330.113 285.918 329.425C283.801 328.967 281.448 329.883 280.742 332.175C280.272 334.237 281.448 336.758 283.565 337.216C283.801 337.216 284.036 337.216 284.271 337.445C283.801 337.216 283.801 337.216 284.036 337.445C284.506 337.904 283.565 336.758 283.801 337.216C284.036 337.445 283.801 337.445 283.565 336.987C283.565 336.758 283.565 336.3 283.565 336.07C283.801 335.383 284.271 334.925 284.977 334.696C285.683 334.466 286.624 335.154 286.859 335.841C287.094 336.3 286.859 336.758 286.624 337.216C286.388 337.674 285.918 338.133 285.447 338.133C284.742 338.133 284.742 338.133 285.212 338.133C287.33 338.133 289.447 336.3 289.447 334.008C289.447 331.487 287.8 329.654 285.447 329.654Z" fill="#56CCF2"/>
<path d="M278.86 335.383C272.744 346.611 264.51 356.923 258.628 368.151C255.57 373.88 264.51 378.921 267.568 373.192C273.449 361.735 281.683 351.653 287.8 340.424C290.858 334.696 281.918 329.654 278.86 335.383Z" fill="#56CCF2"/>
<path d="M280.272 340.882C286.389 353.256 291.799 365.859 298.622 377.775C301.21 382.358 308.267 378.233 305.679 373.651C298.857 361.735 293.446 348.903 287.33 336.758C285.212 332.175 278.155 336.3 280.272 340.882Z" fill="#56CCF2"/>
<path d="M310.854 325.759C312.031 327.821 313.207 329.654 314.383 331.488C315.324 332.863 316.736 334.237 317.206 336.071C318.853 342.258 328.734 339.737 327.087 333.321C325.911 328.738 321.911 324.842 319.559 320.718C316.5 314.989 307.796 320.03 310.854 325.759Z" fill="#56CCF2"/>
<path d="M324.5 329.883C320.735 329.425 317.442 332.862 317.442 336.299C317.442 339.966 320.735 343.174 324.5 342.715C328.028 342.486 330.851 339.737 331.792 336.299C332.263 334.237 331.792 331.945 330.146 330.341C328.734 328.966 326.382 328.279 324.5 328.966C322.617 329.654 320.971 331.716 321.676 334.008C322.382 335.841 324.5 337.674 326.852 336.758C325.911 336.758 325.205 336.528 324.5 336.07C324.029 335.612 323.794 334.924 323.794 334.237C323.559 334.695 323.559 334.695 323.794 334.466C324.029 334.237 323.794 334.237 323.794 334.695C323.559 335.154 323.559 335.154 323.794 334.695C323.559 334.924 323.559 334.924 323.794 334.924C324.029 334.695 324.029 334.695 323.558 334.924C323.794 334.695 324.029 334.695 324.264 334.695C324.735 334.695 325.205 334.924 325.441 335.154C325.676 335.383 325.676 335.612 325.911 335.841C325.676 335.383 325.676 335.383 325.911 336.07C325.911 336.528 325.676 336.758 325.676 337.216C325.441 337.674 325.205 337.674 325.676 337.216C325.441 337.445 325.205 337.674 324.97 337.674C324.5 337.674 324.264 337.674 324.735 337.674C326.852 337.903 328.969 335.612 328.969 333.549C328.499 331.716 326.852 330.112 324.5 329.883Z" fill="#56CCF2"/>
<path d="M319.794 336.758C312.736 345.924 308.972 357.152 301.915 366.318C298.856 370.443 305.914 374.568 308.972 370.443C315.795 361.277 319.794 350.049 326.852 340.883C330.145 336.758 323.088 332.862 319.794 336.758Z" fill="#56CCF2"/>
<path d="M320.971 341.112C327.558 351.194 334.38 361.276 341.673 370.901C345.672 375.942 354.612 371.13 350.613 365.859C343.32 356.235 336.497 346.153 329.91 336.07C326.146 330.571 317.207 335.612 320.971 341.112Z" fill="#56CCF2"/>
<path d="M299.563 108.297C301.915 108.297 304.032 108.297 306.385 108.297C311.09 108.297 311.09 101.193 306.385 101.193C304.032 101.193 301.915 101.193 299.563 101.193C294.622 101.193 294.622 108.297 299.563 108.297Z" fill="#56CCF2"/>
<path d="M299.563 76.6748C301.68 76.6748 303.562 76.6748 305.679 76.6748C307.561 76.6748 309.208 75.0707 309.208 73.2374C309.208 71.4042 307.561 69.8 305.679 69.8C303.562 69.8 301.68 69.8 299.563 69.8C297.68 69.8 296.034 71.4042 296.034 73.2374C296.034 75.0707 297.68 76.6748 299.563 76.6748Z" fill="#56CCF2"/>
<path d="M298.857 47.5727C298.857 56.0511 298.857 64.5296 298.857 73.2372C298.857 78.5075 307.091 78.5075 307.091 73.2372C307.091 64.7587 307.091 56.2803 307.091 47.5727C307.091 42.5314 298.857 42.5314 298.857 47.5727Z" fill="#56CCF2"/>
<path d="M299.327 167.417C301.68 167.417 303.797 167.417 306.15 167.417C310.855 167.417 310.855 160.314 306.15 160.314C303.797 160.314 301.68 160.314 299.327 160.314C294.622 160.314 294.622 167.417 299.327 167.417Z" fill="#56CCF2"/>
<path d="M418.181 17.8844C421.474 12.6139 427.356 11.239 433.237 11.4682C436.06 11.4682 447.352 12.6139 449.234 15.3637C453.469 21.5508 463.585 15.822 459.35 9.63498C454.175 2.07304 441.941 0.239836 433.237 0.0106861C422.886 -0.218464 413.476 3.21879 407.83 12.1556C404.301 18.5718 414.417 24.3006 418.181 17.8844Z" fill="#56CCF2"/>
<path d="M408.065 15.5928C406.888 50.1942 414.652 84.3372 422.415 117.793C429.943 150.103 449.234 179.434 451.587 212.66C452.057 219.993 463.82 219.993 463.349 212.66C460.997 180.579 443.588 153.311 435.589 122.605C426.414 88.0036 418.416 51.569 419.827 15.5928C420.063 8.03092 408.3 8.03092 408.065 15.5928Z" fill="#56CCF2"/>
<path d="M448.764 14.6761C446.882 79.525 451.117 144.374 451.352 209.223C451.352 216.556 463.114 216.556 463.114 209.223C463.114 144.374 458.88 79.525 460.527 14.6761C460.527 7.34333 448.764 7.34333 448.764 14.6761Z" fill="#56CCF2"/>
<path d="M408.3 38.5076C403.124 104.273 394.42 169.58 391.126 235.575C387.833 301.799 390.421 368.252 398.89 434.017C399.831 441.35 411.594 441.35 410.653 434.017C402.183 368.252 399.831 301.799 402.889 235.575C406.183 169.58 414.887 104.273 420.063 38.5076C420.533 31.1749 408.77 31.1749 408.3 38.5076Z" fill="#56CCF2"/>
<path d="M452.293 206.931C453.704 245.199 464.996 282.092 466.173 320.589C467.584 358.856 464.29 397.353 464.055 435.621C464.055 442.954 475.818 442.954 475.818 435.621C476.053 397.353 479.347 358.856 477.935 320.589C476.524 282.321 465.467 245.199 464.055 206.931C463.82 199.599 452.057 199.599 452.293 206.931Z" fill="#56CCF2"/>
<path d="M402.654 441.579C424.768 447.766 447.587 447.766 469.936 441.808C477.229 439.975 474.171 428.747 466.878 430.809C446.411 436.309 426.179 436.08 405.947 430.58C398.419 428.518 395.361 439.517 402.654 441.579Z" fill="#56CCF2"/>
<path d="M446.176 162.706C436.295 163.622 426.885 162.018 419.122 169.58C415.122 173.476 419.122 180.809 424.768 179.205C433.002 176.913 441 179.205 448.999 181.038C456.292 182.871 459.585 171.872 452.057 170.039C441.706 167.518 432.061 165.226 421.474 168.205C423.356 171.414 425.238 174.622 427.12 177.83C431.825 173.247 439.589 174.851 445.705 174.392C453.704 173.476 453.939 162.018 446.176 162.706Z" fill="#56CCF2"/>
<path d="M456.997 210.598C440.294 210.369 425.238 215.868 412.299 225.951C407.829 229.388 412.77 237.408 417.945 235.575C430.178 231.221 442.647 229.846 455.821 231.68C463.349 232.596 463.349 221.139 455.821 220.222C441.941 218.389 428.061 219.993 414.887 224.576C416.769 227.784 418.651 230.992 420.533 234.2C430.884 226.18 443.588 222.055 456.997 222.285C464.526 222.285 464.526 210.827 456.997 210.598Z" fill="#56CCF2"/>
<path d="M461.232 262.615C450.175 263.532 440.059 266.281 429.708 269.719C421.474 272.468 414.181 274.301 408.535 280.947C405.006 285.071 408.3 292.175 414.181 290.571C430.179 286.217 446.411 282.78 463.114 284.384C470.642 285.071 470.642 273.614 463.114 272.927C445.235 271.323 428.061 275.218 410.888 279.572C412.77 282.78 414.652 285.988 416.534 289.196C421.239 283.467 428.297 282.322 435.119 280.03C443.588 277.28 451.822 274.989 460.997 274.301C468.76 273.385 468.76 261.927 461.232 262.615Z" fill="#56CCF2"/>
<path d="M466.878 317.839C449.705 317.61 433.002 320.589 416.769 326.547C409.712 329.067 412.299 338.921 419.828 337.546C436.766 334.338 453.704 334.567 470.642 338.233C477.935 339.837 481.229 328.838 473.701 327.234C454.645 323.339 435.825 323.11 416.534 326.547C417.475 330.213 418.651 333.88 419.592 337.546C434.884 331.817 450.175 329.067 466.643 329.297C474.406 329.297 474.406 317.839 466.878 317.839Z" fill="#56CCF2"/>
<path d="M435.589 53.8607C440.53 53.4024 446.411 54.319 450.175 58.6728C455.116 64.4014 463.349 56.1522 458.409 50.6527C452.998 44.4657 443.588 41.716 435.354 42.4034C428.061 42.8617 428.061 54.319 435.589 53.8607Z" fill="#56CCF2"/>
<path d="M539.593 410.744C547.827 338.562 556.061 266.38 564.295 194.199C565.471 183.887 566.647 173.575 567.824 163.264C568.529 157.077 558.413 157.077 557.708 163.264C549.474 235.445 541.24 307.627 533.006 379.809C531.83 390.12 530.653 400.432 529.477 410.744C528.771 416.931 538.887 416.931 539.593 410.744Z" fill="#56CCF2"/>
<path d="M593.466 410.973C585.938 338.791 578.41 266.38 571.117 194.199C569.941 183.887 569 173.575 567.824 163.264C567.118 157.077 557.002 157.077 557.708 163.264C565.236 235.445 572.764 307.856 580.057 380.038C581.233 390.349 582.174 400.661 583.35 410.973C584.056 417.16 593.937 417.16 593.466 410.973Z" fill="#56CCF2"/>
<path d="M570.646 213.676C573.234 215.738 575.822 217.801 578.41 219.634C579.586 220.321 581.233 219.863 581.939 218.717C582.644 217.572 582.174 216.197 580.998 215.28C578.645 213.676 576.528 211.843 574.175 210.01C571.823 208.176 568.294 211.614 570.646 213.676Z" fill="#56CCF2"/>
<path d="M576.998 217.114C576.998 248.965 576.998 280.817 576.998 312.897C576.998 316.105 581.938 316.105 581.938 312.897C581.938 281.046 581.938 249.194 581.938 217.114C581.938 213.906 576.998 213.906 576.998 217.114Z" fill="#56CCF2"/>
<path d="M551.355 210.01C548.767 211.614 545.944 213.218 543.357 214.822C540.534 216.426 543.121 220.78 545.944 218.946C548.532 217.342 551.355 215.738 553.943 214.134C556.531 212.53 553.943 208.177 551.355 210.01Z" fill="#56CCF2"/>
<path d="M542.416 217.342C542.416 245.298 542.416 273.255 542.416 301.211C542.416 304.419 547.356 304.419 547.356 301.211C547.356 273.255 547.356 245.298 547.356 217.342C547.356 214.363 542.416 214.363 542.416 217.342Z" fill="#56CCF2"/>
<path d="M529.477 412.118C527.83 416.014 526.418 419.91 525.242 423.805C523.36 429.763 533.006 432.513 534.888 426.326C536.064 422.43 537.475 418.306 539.122 414.639C540.063 412.118 537.946 409.369 535.593 408.681C532.77 407.994 530.418 409.598 529.477 412.118Z" fill="#56CCF2"/>
<path d="M580.527 414.639C580.527 418.306 580.997 422.201 582.174 425.868C584.056 431.825 593.701 429.305 591.819 423.347C590.878 420.597 590.643 417.847 590.643 414.868C590.643 408.223 580.527 408.223 580.527 414.639Z" fill="#56CCF2"/>
<path d="M593.937 429.762C595.819 428.158 597.936 426.554 599.818 424.721C601.465 423.346 601.7 420.367 600.524 418.763C597.936 415.097 595.583 411.202 592.996 407.306C589.702 401.807 580.998 406.848 584.291 412.347C586.644 416.243 589.231 419.909 591.819 423.805C592.055 421.742 592.29 419.909 592.525 417.847C590.643 419.451 588.526 421.055 586.644 422.888C581.939 427.013 588.996 433.887 593.937 429.762Z" fill="#56CCF2"/>
<path d="M531.124 432.513C549.709 432.513 568.529 432.513 587.114 432.513C593.701 432.513 593.701 422.659 587.114 422.659C568.529 422.659 549.709 422.659 531.124 422.659C524.772 422.659 524.772 432.513 531.124 432.513Z" fill="#56CCF2"/>
<path d="M552.532 264.089C556.766 264.089 561.001 264.089 565 264.089C568.294 264.089 568.294 259.277 565 259.277C560.766 259.277 556.531 259.277 552.532 259.277C549.238 259.047 549.238 264.089 552.532 264.089Z" fill="#56CCF2"/>
<path d="M552.061 275.546C557.942 275.546 564.059 275.546 569.94 275.546C573.234 275.546 573.234 270.734 569.94 270.734C564.059 270.734 557.942 270.734 552.061 270.734C549.003 270.734 549.003 275.546 552.061 275.546Z" fill="#56CCF2"/>
<path d="M557.472 285.629C562.883 285.629 568.059 285.629 573.47 285.629C576.763 285.629 576.763 280.817 573.47 280.817C568.059 280.817 562.883 280.817 557.472 280.817C554.414 280.588 554.414 285.629 557.472 285.629Z" fill="#56CCF2"/>
<path d="M548.297 298.461C554.649 298.461 561 298.461 567.352 298.461C570.646 298.461 570.646 293.649 567.352 293.649C561 293.649 554.649 293.649 548.297 293.649C545.238 293.42 545.238 298.461 548.297 298.461Z" fill="#56CCF2"/>
<path d="M554.179 308.315C561.236 308.315 568.294 308.315 575.116 308.315C578.41 308.315 578.41 303.502 575.116 303.502C568.059 303.502 561.001 303.502 554.179 303.502C550.885 303.502 550.885 308.315 554.179 308.315Z" fill="#56CCF2"/>
<path d="M547.356 320.459C554.649 320.459 561.707 320.459 569 320.459C572.293 320.459 572.293 315.647 569 315.647C561.707 315.647 554.649 315.647 547.356 315.647C544.063 315.647 544.063 320.459 547.356 320.459Z" fill="#56CCF2"/>
<path d="M554.179 330.771C562.648 330.771 570.882 330.771 579.351 330.771C582.644 330.771 582.644 325.958 579.351 325.958C570.882 325.958 562.648 325.958 554.179 325.958C550.885 325.958 550.885 330.771 554.179 330.771Z" fill="#56CCF2"/>
<path d="M545.709 340.395C553.238 340.395 560.766 340.395 568.529 340.395C571.823 340.395 571.823 335.583 568.529 335.583C561.001 335.583 553.473 335.583 545.709 335.583C542.416 335.354 542.416 340.395 545.709 340.395Z" fill="#56CCF2"/>
<path d="M553.473 348.186C562.177 348.186 570.881 348.186 579.586 348.186C582.879 348.186 582.879 343.374 579.586 343.374C570.881 343.374 562.177 343.374 553.473 343.374C550.179 343.374 550.179 348.186 553.473 348.186Z" fill="#56CCF2"/>
<path d="M543.357 356.436C553.002 356.436 562.648 356.436 572.293 356.436C575.587 356.436 575.587 351.624 572.293 351.624C562.648 351.624 553.002 351.624 543.357 351.624C540.063 351.624 540.063 356.436 543.357 356.436Z" fill="#56CCF2"/>
<path d="M548.768 366.518C559.824 366.518 570.881 366.518 581.938 366.518C585.232 366.518 585.232 361.706 581.938 361.706C570.881 361.706 559.824 361.706 548.768 361.706C545.474 361.477 545.474 366.518 548.768 366.518Z" fill="#56CCF2"/>
<path d="M539.828 375.913C550.65 375.913 561.471 375.913 572.293 375.913C575.587 375.913 575.587 371.101 572.293 371.101C561.471 371.101 550.65 371.101 539.828 371.101C536.77 371.101 536.77 375.913 539.828 375.913Z" fill="#56CCF2"/>
<path d="M547.356 385.995C559.354 385.995 571.352 385.995 583.35 385.995C586.644 385.995 586.644 381.183 583.35 381.183C571.352 381.183 559.354 381.183 547.356 381.183C544.063 380.954 544.063 385.995 547.356 385.995Z" fill="#56CCF2"/>
<path d="M539.828 394.932C551.355 394.932 562.648 394.932 574.175 394.932C577.469 394.932 577.469 390.12 574.175 390.12C562.648 390.12 551.355 390.12 539.828 390.12C536.77 389.891 536.77 394.932 539.828 394.932Z" fill="#56CCF2"/>
<path d="M545.004 406.389C558.413 406.389 571.588 406.389 584.997 406.389C588.291 406.389 588.291 401.578 584.997 401.578C571.588 401.578 558.413 401.578 545.004 401.578C541.71 401.578 541.71 406.389 545.004 406.389Z" fill="#56CCF2"/>
<path d="M541.709 415.555C556.06 415.555 570.41 415.555 584.761 415.555C588.054 415.555 588.054 410.744 584.761 410.744C570.41 410.744 556.06 410.744 541.709 410.744C538.416 410.744 538.416 415.555 541.709 415.555Z" fill="#56CCF2"/>
<path d="M543.357 413.493C541.475 416.243 539.828 419.222 538.652 422.43C537.711 425.409 542.416 426.784 543.592 423.805C544.533 421.055 545.945 418.535 547.592 416.014C549.474 413.493 545.004 410.973 543.357 413.493Z" fill="#56CCF2"/>
<path d="M544.298 415.097C544.533 417.847 545.239 420.139 546.415 422.659C546.886 423.805 548.768 424.034 549.944 423.576C551.355 422.889 551.355 421.514 550.885 420.139C550.179 418.535 549.709 416.701 549.473 415.097C549.238 413.722 548.532 412.577 546.886 412.577C545.709 412.806 544.298 413.722 544.298 415.097Z" fill="#56CCF2"/>
<path d="M552.296 423.805C553.708 421.055 555.355 418.764 557.472 416.472C556.06 416.243 554.884 416.243 553.473 416.014C555.355 418.764 557.001 421.514 558.413 424.492C559.824 427.242 564.294 424.722 562.647 421.972C561.001 418.993 559.354 416.243 557.707 413.494C557.001 412.348 554.884 411.66 553.708 413.035C551.355 415.556 549.473 418.306 547.826 421.284C546.415 424.034 550.649 426.555 552.296 423.805Z" fill="#56CCF2"/>
<path d="M563.354 413.722C561.472 416.701 560.295 420.139 559.119 423.347C558.178 426.326 563.118 427.7 564.059 424.721C565 421.743 566.177 418.993 567.823 416.243C569.235 413.493 564.765 410.973 563.354 413.722Z" fill="#56CCF2"/>
<path d="M564.53 416.014C565.235 418.535 566.412 420.826 567.353 423.347C567.823 424.493 569.705 424.951 570.882 424.263C572.058 423.576 572.293 422.201 571.823 420.826C570.882 418.764 570.176 416.701 569.47 414.639C568.529 411.66 563.589 413.035 564.53 416.014Z" fill="#56CCF2"/>
<path d="M572.057 413.264C571.587 414.869 570.646 416.243 569.94 417.847C569.234 419.451 568.529 421.056 568.058 422.66C567.117 425.639 572.057 427.013 572.998 424.034C573.939 420.826 576.292 417.847 576.998 414.639C577.703 411.431 572.763 410.286 572.057 413.264Z" fill="#56CCF2"/>
<path d="M573.94 415.785C575.351 417.618 576.763 419.68 578.175 421.743C579.821 424.493 584.291 421.972 582.409 419.222C580.998 416.701 579.351 414.639 577.469 412.348C576.528 411.202 574.881 411.431 573.94 412.348C572.764 413.264 572.999 414.868 573.94 415.785Z" fill="#56CCF2"/>
<path d="M872.032 435.011C868.268 380.473 865.915 325.707 867.797 270.94C869.679 216.861 867.562 162.095 879.09 108.932C880.266 103.891 872.267 101.829 871.326 106.87C859.799 159.345 861.681 213.195 859.799 266.587C857.681 322.728 860.034 379.098 863.798 435.011C864.504 440.052 872.503 440.052 872.032 435.011Z" fill="#56CCF2"/>
<path d="M879.325 108.245C879.325 104.808 887.088 104.579 889.676 104.349C896.499 103.891 903.086 104.808 909.438 107.099C914.378 108.932 916.495 101.37 911.555 99.5372C902.145 96.0999 871.797 91.746 871.326 108.474C871.091 113.516 879.09 113.516 879.325 108.245Z" fill="#56CCF2"/>
<path d="M933.198 437.531C932.257 326.165 939.315 214.341 915.083 104.349C913.907 99.3082 906.144 101.6 907.32 106.412C931.551 215.486 924.258 326.623 925.199 437.531C925.199 442.572 933.198 442.572 933.198 437.531Z" fill="#56CCF2"/>
<path d="M866.386 441.197C884.971 451.738 912.496 454.717 930.845 442.114C935.08 439.135 931.081 432.49 926.846 435.24C911.084 446.009 886.382 443.26 870.385 434.323C865.915 432.032 861.681 438.677 866.386 441.197Z" fill="#56CCF2"/>
<path d="M872.738 139.868C887.089 132.993 902.615 132.305 917.436 137.805C919.789 138.722 920.965 134.826 918.613 133.91C902.615 127.952 886.148 129.097 870.856 136.43C868.268 137.576 870.385 141.013 872.738 139.868Z" fill="#56CCF2"/>
<path d="M877.443 170.115C878.384 170.115 879.56 170.115 880.501 170.115C883.089 170.115 883.089 166.22 880.501 166.22C879.56 166.22 878.384 166.22 877.443 166.22C874.855 166.22 874.855 170.115 877.443 170.115Z" fill="#56CCF2"/>
<path d="M882.383 185.468C884.736 185.468 886.853 185.468 889.206 185.468C891.793 185.468 891.793 181.573 889.206 181.573C886.853 181.573 884.736 181.573 882.383 181.573C879.795 181.573 879.795 185.468 882.383 185.468Z" fill="#56CCF2"/>
<path d="M892.97 208.612C894.617 208.612 896.264 208.612 897.91 208.612C900.498 208.612 900.498 204.717 897.91 204.717C896.264 204.717 894.617 204.717 892.97 204.717C890.382 204.717 890.382 208.612 892.97 208.612Z" fill="#56CCF2"/>
<path d="M884.265 234.506C885.206 234.506 886.382 234.506 887.323 234.506C889.911 234.506 889.911 230.61 887.323 230.61C886.382 230.61 885.206 230.61 884.265 230.61C881.677 230.61 881.677 234.506 884.265 234.506Z" fill="#56CCF2"/>
<path d="M899.792 253.067C900.498 253.067 900.969 253.067 901.674 253.067C904.262 253.067 904.262 249.171 901.674 249.171C900.969 249.171 900.498 249.171 899.792 249.171C897.205 249.171 897.205 253.067 899.792 253.067Z" fill="#56CCF2"/>
<path d="M907.79 282.398C908.731 282.398 909.437 282.398 910.378 282.398C912.966 282.398 912.966 278.502 910.378 278.502C909.437 278.502 908.731 278.502 907.79 278.502C905.203 278.502 905.203 282.398 907.79 282.398Z" fill="#56CCF2"/>
<path d="M892.97 306.229C894.382 306.229 895.793 306.229 897.205 306.229C899.792 306.229 899.792 302.333 897.205 302.333C895.793 302.333 894.382 302.333 892.97 302.333C890.382 302.333 890.382 306.229 892.97 306.229Z" fill="#56CCF2"/>
<path d="M875.09 327.54C876.737 327.54 878.384 327.54 880.031 327.54C882.618 327.54 882.618 323.644 880.031 323.644C878.384 323.644 876.737 323.644 875.09 323.644C872.502 323.644 872.502 327.54 875.09 327.54Z" fill="#56CCF2"/>
<path d="M888.03 350.684C889.206 350.684 890.618 350.684 891.794 350.684C894.382 350.684 894.382 346.788 891.794 346.788C890.618 346.788 889.206 346.788 888.03 346.788C885.442 346.788 885.442 350.684 888.03 350.684Z" fill="#56CCF2"/>
<path d="M896.733 369.932C898.145 369.932 899.556 369.932 900.968 369.932C903.556 369.932 903.556 366.037 900.968 366.037C899.556 366.037 898.145 366.037 896.733 366.037C894.146 366.037 894.146 369.932 896.733 369.932Z" fill="#56CCF2"/>
<path d="M908.496 403.159C909.672 403.159 911.084 403.159 912.26 403.159C914.848 403.159 914.848 399.263 912.26 399.263C911.084 399.263 909.672 399.263 908.496 399.263C905.908 399.263 905.908 403.159 908.496 403.159Z" fill="#56CCF2"/>
<path d="M903.556 435.01C904.497 435.01 905.673 435.01 906.614 435.01C909.202 435.01 909.202 431.115 906.614 431.115C905.673 431.115 904.497 431.115 903.556 431.115C900.968 431.115 900.968 435.01 903.556 435.01Z" fill="#56CCF2"/>
<path d="M900.028 124.285C902.616 124.285 904.968 124.285 907.556 124.285C910.144 124.285 910.144 120.39 907.556 120.39C904.968 120.39 902.616 120.39 900.028 120.39C897.44 120.161 897.44 124.285 900.028 124.285Z" fill="#56CCF2"/>
<path d="M890.382 116.036C891.088 116.036 891.794 116.036 892.5 116.036C895.087 116.036 895.087 112.14 892.5 112.14C891.794 112.14 891.088 112.14 890.382 112.14C887.794 112.14 887.794 116.036 890.382 116.036Z" fill="#56CCF2"/>
<path d="M1026.93 80.693C1026.93 93.5253 1026.93 106.358 1026.93 119.19C1026.93 125.835 1037.52 125.835 1037.52 119.19C1037.52 106.358 1037.52 93.5253 1037.52 80.693C1037.52 74.0477 1026.93 74.0477 1026.93 80.693Z" fill="#56CCF2"/>
<path d="M1030.93 85.5047C1030.93 176.706 1030.93 267.907 1030.93 359.337C1030.93 374.232 1030.93 389.126 1030.93 404.021C1030.93 410.666 1041.52 410.666 1041.52 404.021C1041.52 312.82 1041.52 221.619 1041.52 130.189C1041.52 115.294 1041.52 100.399 1041.52 85.5047C1041.52 78.8594 1030.93 78.8594 1030.93 85.5047Z" fill="#56CCF2"/>
<path d="M1024.81 123.314C1024.81 216.807 1024.81 310.299 1024.81 403.792C1024.81 410.437 1035.4 410.437 1035.4 403.792C1035.4 310.299 1035.4 216.807 1035.4 123.314C1035.4 116.669 1024.81 116.669 1024.81 123.314Z" fill="#56CCF2"/>
<path d="M1015.4 203.745C1015.4 224.598 1015.4 245.45 1015.4 266.303C1015.4 272.948 1025.99 272.948 1025.99 266.303C1025.99 245.45 1025.99 224.598 1025.99 203.745C1026.23 197.1 1015.4 197.1 1015.4 203.745Z" fill="#56CCF2"/>
<path d="M1008.35 271.802C1008.35 291.738 1008.35 311.674 1008.35 331.839C1008.35 338.485 1018.93 338.485 1018.93 331.839C1018.93 311.903 1018.93 291.967 1018.93 271.802C1018.93 265.157 1008.35 265.157 1008.35 271.802Z" fill="#56CCF2"/>
<path d="M1041.75 151.27C1041.75 174.873 1041.75 198.704 1041.75 222.306C1041.75 228.951 1052.34 228.951 1052.34 222.306C1052.34 198.704 1052.34 174.873 1052.34 151.27C1052.34 144.396 1041.75 144.396 1041.75 151.27Z" fill="#56CCF2"/>
<path d="M1047.16 228.493C1047.16 248.429 1047.16 268.136 1047.16 288.072C1047.16 294.717 1057.75 294.717 1057.75 288.072C1057.75 268.136 1057.75 248.429 1057.75 228.493C1057.99 221.848 1047.16 221.848 1047.16 228.493Z" fill="#56CCF2"/>
<path d="M1054.46 293.342C1054.46 311.903 1054.46 330.464 1054.46 349.025C1054.46 355.67 1065.04 355.67 1065.04 349.025C1065.04 330.464 1065.04 311.903 1065.04 293.342C1065.04 286.697 1054.46 286.697 1054.46 293.342Z" fill="#56CCF2"/>
<path d="M1000.35 338.255C1000.35 359.108 1000.35 379.96 1000.35 400.813C1000.35 407.458 1010.94 407.458 1010.94 400.813C1010.94 379.96 1010.94 359.108 1010.94 338.255C1011.17 331.61 1000.35 331.61 1000.35 338.255Z" fill="#56CCF2"/>
<path d="M1059.87 351.316C1059.87 369.648 1059.87 387.98 1059.87 406.083C1059.87 412.728 1070.45 412.728 1070.45 406.083C1070.45 387.751 1070.45 369.419 1070.45 351.316C1070.69 344.671 1059.87 344.671 1059.87 351.316Z" fill="#56CCF2"/>
<path d="M1029.28 423.956C1029.28 418.915 1029.28 413.645 1029.28 408.604C1027.4 410.437 1025.76 412.041 1023.87 413.874C1029.52 413.645 1036.81 412.728 1042.22 414.332C1041.05 413.645 1040.11 412.728 1038.93 412.041C1038.22 410.895 1038.69 410.666 1038.69 412.27C1038.69 413.416 1038.69 414.791 1038.69 415.936C1038.69 418.228 1038.69 420.29 1038.69 422.582C1038.69 429.227 1049.28 429.227 1049.28 422.582C1049.28 417.54 1051.4 407.229 1045.52 404.479C1042.46 403.104 1038.69 403.333 1035.4 403.333C1031.4 403.104 1027.64 403.333 1023.64 403.333C1020.82 403.333 1018.23 405.625 1018.23 408.604C1018.23 413.645 1018.23 418.915 1018.23 423.956C1018.7 430.602 1029.28 430.602 1029.28 423.956Z" fill="#56CCF2"/>
<path d="M1024.11 431.289C1030.93 431.289 1037.52 431.289 1044.34 431.289C1051.16 431.289 1051.16 420.978 1044.34 420.978C1037.52 420.978 1030.93 420.978 1024.11 420.978C1017.05 420.978 1017.05 431.289 1024.11 431.289Z" fill="#56CCF2"/>
<path d="M1005.29 398.292C1000.82 398.292 996.349 398.292 991.879 398.292C989.056 398.292 986.468 400.584 986.468 403.563C986.468 405.854 987.174 409.291 986.704 411.583C987.88 410.437 989.291 409.062 990.468 407.916C987.174 408.833 982.94 408.375 979.411 408.375C976.588 408.375 974 410.666 974 413.645C974 417.999 974 422.353 974 426.707C974 429.686 976.353 431.748 979.411 431.977C993.526 432.435 1007.41 433.123 1021.52 433.581C1028.34 433.81 1028.34 423.499 1021.52 423.269C1007.41 422.811 993.526 422.124 979.411 421.665C981.293 423.499 982.94 425.103 984.822 426.936C984.822 422.582 984.822 418.228 984.822 413.874C982.94 415.708 981.293 417.312 979.411 419.145C983.881 418.916 988.821 419.374 993.291 418.228C995.173 417.77 996.584 416.395 997.055 414.562C997.996 411.125 997.29 407.458 997.29 403.792C995.408 405.625 993.761 407.229 991.879 409.062C996.349 409.062 1000.82 409.062 1005.29 409.062C1012.11 408.604 1012.11 398.292 1005.29 398.292Z" fill="#56CCF2"/>
<path d="M1063.87 410.895C1066.69 410.895 1071.16 410.208 1073.98 410.895C1072.81 409.75 1071.4 408.375 1070.22 407.229C1070.45 409.52 1070.45 411.812 1070.45 414.103C1070.45 416.853 1072.81 419.374 1075.87 419.374C1078.45 419.145 1081.04 419.374 1083.63 419.832C1082.45 418.686 1081.04 417.311 1079.86 416.166C1080.81 418.457 1082.22 423.957 1081.98 426.477C1083.16 425.332 1084.57 423.957 1085.75 422.811C1079.63 424.644 1069.98 423.269 1063.87 423.269C1056.34 423.498 1048.58 423.498 1041.05 423.728C1034.23 423.957 1034.23 434.268 1041.05 434.039C1049.75 433.81 1058.69 433.581 1067.4 433.352C1073.98 433.123 1082.45 434.497 1088.8 432.664C1090.45 432.206 1092.33 430.831 1092.57 428.998C1093.27 424.644 1092.57 417.311 1090.45 413.187C1087.86 407.916 1081.51 408.604 1076.34 408.604C1078.22 410.437 1079.86 412.041 1081.75 413.874C1081.75 410.666 1082.22 407.458 1081.28 404.25C1080.81 402.417 1079.39 401.042 1077.51 400.584C1073.51 399.667 1068.81 400.125 1064.57 400.125C1057.04 400.584 1057.04 410.895 1063.87 410.895Z" fill="#56CCF2"/>
<path d="M1040.34 85.7338C1040.34 69.9226 1040.34 53.8823 1040.34 38.0711C1040.34 31.4258 1029.75 31.4258 1029.75 38.0711C1029.75 53.8823 1029.75 69.9226 1029.75 85.7338C1029.52 92.3791 1040.34 92.3791 1040.34 85.7338Z" fill="#56CCF2"/>
<path d="M1134.43 220.472C1157.96 272.03 1167.37 328.172 1162.43 384.313C1162.19 387.292 1167.13 387.292 1167.37 384.313C1172.31 327.255 1162.43 270.426 1138.67 218.181C1137.26 215.431 1133.26 217.722 1134.43 220.472Z" fill="#56CCF2"/>
<path d="M1136.55 219.556C1160.31 236.283 1177.25 259.657 1185.72 286.925C1194.19 314.194 1197.72 345.816 1189.72 373.543C1188.78 376.522 1193.48 377.668 1194.42 374.918C1202.89 345.358 1199.13 310.986 1189.25 282.113C1180.07 255.074 1162.66 232.388 1139.14 215.66C1136.55 213.598 1134.2 217.722 1136.55 219.556Z" fill="#56CCF2"/>
<path d="M1141.96 220.014C1141.96 209.702 1141.96 199.391 1141.96 189.079C1141.96 186.1 1137.02 186.1 1137.02 189.079C1137.02 199.391 1137.02 209.702 1137.02 220.014C1137.02 222.993 1141.96 222.993 1141.96 220.014Z" fill="#56CCF2"/>
<path d="M1136.08 223.909C1136.08 274.322 1136.08 324.734 1136.08 375.147C1136.08 378.126 1141.02 378.126 1141.02 375.147C1141.02 324.734 1141.02 274.322 1141.02 223.909C1141.02 220.93 1136.08 220.93 1136.08 223.909Z" fill="#56CCF2"/>
<path d="M1140.32 263.552C1144.31 263.552 1148.31 263.323 1152.08 262.864C1155.14 262.406 1155.14 257.823 1152.08 258.052C1148.08 258.511 1144.31 258.74 1140.32 258.74C1137.26 258.74 1137.26 263.552 1140.32 263.552Z" fill="#56CCF2"/>
<path d="M1152.31 262.406C1160.31 262.406 1168.31 262.635 1176.31 262.635C1179.37 262.635 1179.37 257.823 1176.31 257.823C1168.31 257.823 1160.31 257.594 1152.31 257.594C1149.02 257.594 1149.02 262.406 1152.31 262.406Z" fill="#56CCF2"/>
<path d="M1163.84 261.948C1178.9 301.132 1182.43 342.15 1178.19 383.397C1177.96 386.376 1182.66 386.376 1183.13 383.397C1187.37 341.692 1183.84 299.987 1168.55 260.573C1167.37 257.823 1162.66 259.198 1163.84 261.948Z" fill="#56CCF2"/>
<path d="M1138.9 273.176C1144.08 273.864 1149.26 274.78 1154.2 275.468C1157.25 275.926 1158.67 271.343 1155.61 270.885C1150.43 270.197 1145.26 269.281 1140.32 268.593C1137.02 267.906 1135.85 272.489 1138.9 273.176Z" fill="#56CCF2"/>
<path d="M1153.02 275.009C1147.84 284.175 1142.2 293.112 1136.08 301.591C1134.2 304.111 1138.43 306.403 1140.32 303.882C1146.43 295.404 1152.08 286.467 1157.25 277.301C1158.9 274.78 1154.67 272.26 1153.02 275.009Z" fill="#56CCF2"/>
<path d="M1137.96 307.548C1145.73 308.923 1153.25 310.986 1160.55 313.277C1163.6 314.194 1164.78 309.611 1161.96 308.694C1154.43 306.403 1146.9 304.34 1139.37 302.966C1136.32 302.507 1134.9 307.09 1137.96 307.548Z" fill="#56CCF2"/>
<path d="M1161.49 313.048C1153.02 322.214 1145.02 331.609 1137.02 341.004C1135.14 343.296 1138.43 346.733 1140.55 344.441C1148.31 334.817 1156.55 325.422 1165.02 316.485C1167.13 313.965 1163.61 310.757 1161.49 313.048Z" fill="#56CCF2"/>
<path d="M1137.73 346.504C1147.37 346.045 1156.08 351.316 1165.49 352.232C1168.55 352.462 1168.55 347.879 1165.49 347.42C1155.84 346.274 1147.61 341.004 1137.73 341.691C1134.43 341.921 1134.43 346.733 1137.73 346.504Z" fill="#56CCF2"/>
<path d="M1163.61 350.628C1154.9 357.274 1146.43 364.377 1138.43 371.481C1136.08 373.543 1139.61 376.98 1141.96 374.918C1150.2 367.585 1158.43 360.711 1167.13 354.066C1169.49 352.232 1165.96 348.795 1163.61 350.628Z" fill="#56CCF2"/>
<path d="M1124.79 270.656C1129.49 271.343 1134.43 272.031 1139.14 270.426C1141.96 269.281 1140.79 264.697 1137.73 265.843C1133.96 267.218 1129.96 266.76 1125.96 266.072C1122.91 265.614 1121.73 270.197 1124.79 270.656Z" fill="#56CCF2"/>
<path d="M1127.14 269.739C1131.38 268.822 1135.14 267.218 1138.9 265.156C1141.73 263.781 1139.14 259.657 1136.55 261.031C1133.26 262.864 1129.73 264.239 1125.96 265.156C1122.67 265.843 1124.08 270.655 1127.14 269.739Z" fill="#56CCF2"/>
<path d="M1179.37 262.177C1180.31 262.177 1181.25 262.177 1182.19 262.177C1185.25 262.177 1185.25 257.365 1182.19 257.365C1181.25 257.365 1180.31 257.365 1179.37 257.365C1176.31 257.365 1176.31 262.177 1179.37 262.177Z" fill="#56CCF2"/>
<path d="M1137.73 379.042C1146.43 380.646 1153.96 385.459 1162.43 387.75C1165.49 388.667 1166.66 384.084 1163.84 383.167C1155.37 380.876 1147.84 376.063 1139.14 374.459C1135.85 374.001 1134.67 378.584 1137.73 379.042Z" fill="#56CCF2"/>
<path d="M1164.55 387.75C1175.6 388.438 1186.19 384.313 1193.72 376.064C1195.84 373.772 1192.31 370.335 1190.19 372.626C1183.6 379.959 1174.43 383.625 1164.55 382.938C1161.49 382.709 1161.49 387.521 1164.55 387.75Z" fill="#56CCF2"/>
<path d="M1161.25 270.426C1162.9 270.426 1164.78 270.426 1166.43 270.426C1169.49 270.426 1169.49 265.614 1166.43 265.614C1164.78 265.614 1162.9 265.614 1161.25 265.614C1157.96 265.843 1157.96 270.426 1161.25 270.426Z" fill="#56CCF2"/>
<path d="M1162.43 278.446C1164.55 278.446 1166.9 278.446 1169.02 278.446C1172.07 278.446 1172.07 273.635 1169.02 273.635C1166.9 273.635 1164.55 273.635 1162.43 273.635C1159.14 273.635 1159.14 278.446 1162.43 278.446Z" fill="#56CCF2"/>
<path d="M1164.31 286.925C1166.9 286.925 1169.25 286.925 1171.84 286.925C1174.9 286.925 1174.9 282.113 1171.84 282.113C1169.25 282.113 1166.9 282.113 1164.31 282.113C1161.25 282.342 1161.25 286.925 1164.31 286.925Z" fill="#56CCF2"/>
<path d="M1165.96 297.007C1168.08 297.237 1169.96 297.237 1172.07 297.237C1173.49 297.237 1174.43 296.091 1174.43 294.945C1174.43 293.8 1173.25 292.425 1172.07 292.654C1169.96 292.883 1168.08 292.654 1165.96 292.425C1164.55 292.196 1163.61 293.57 1163.61 294.716C1163.61 295.862 1164.78 296.778 1165.96 297.007Z" fill="#56CCF2"/>
<path d="M1167.37 304.799C1169.49 304.799 1171.84 304.799 1173.96 304.799C1177.01 304.799 1177.01 299.986 1173.96 299.986C1171.84 299.986 1169.49 299.986 1167.37 299.986C1164.31 300.215 1164.31 304.799 1167.37 304.799Z" fill="#56CCF2"/>
<path d="M1168.55 315.568C1170.9 315.568 1173.25 315.568 1175.6 315.568C1178.66 315.568 1178.66 310.757 1175.6 310.757C1173.25 310.757 1170.9 310.757 1168.55 310.757C1165.49 310.757 1165.49 315.568 1168.55 315.568Z" fill="#56CCF2"/>
<path d="M1171.13 324.735C1173.72 324.735 1176.31 324.735 1178.9 324.735C1181.96 324.735 1181.96 319.923 1178.9 319.923C1176.31 319.923 1173.72 319.923 1171.13 319.923C1168.08 319.923 1168.08 324.735 1171.13 324.735Z" fill="#56CCF2"/>
<path d="M1172.31 333.9C1175.6 333.9 1178.9 333.9 1181.96 333.9C1185.01 333.9 1185.01 329.088 1181.96 329.088C1178.66 329.088 1175.37 329.088 1172.31 329.088C1169.25 329.088 1169.25 333.9 1172.31 333.9Z" fill="#56CCF2"/>
<path d="M1172.31 341.233C1175.6 341.233 1178.9 341.233 1181.96 341.233C1185.01 341.233 1185.01 336.421 1181.96 336.421C1178.66 336.421 1175.37 336.421 1172.31 336.421C1169.25 336.421 1169.25 341.233 1172.31 341.233Z" fill="#56CCF2"/>
<path d="M1171.6 352.003C1174.66 352.003 1177.72 352.003 1180.78 352.003C1183.84 352.003 1183.84 347.191 1180.78 347.191C1177.72 347.191 1174.66 347.191 1171.6 347.191C1168.31 347.421 1168.31 352.003 1171.6 352.003Z" fill="#56CCF2"/>
<path d="M1170.66 362.086C1173.72 362.086 1176.54 362.086 1179.6 362.086C1182.66 362.086 1182.66 357.273 1179.6 357.273C1176.54 357.273 1173.72 357.273 1170.66 357.273C1167.37 357.273 1167.37 362.086 1170.66 362.086Z" fill="#56CCF2"/>
<path d="M1171.13 371.939C1174.19 371.939 1177.25 371.939 1180.31 371.939C1183.37 371.939 1183.37 367.127 1180.31 367.127C1177.25 367.127 1174.19 367.127 1171.13 367.127C1168.08 367.127 1168.08 371.939 1171.13 371.939Z" fill="#56CCF2"/>
<path d="M1169.72 383.167C1172.54 383.167 1175.37 383.167 1178.43 383.167C1181.48 383.167 1181.48 378.355 1178.43 378.355C1175.6 378.355 1172.78 378.355 1169.72 378.355C1166.66 378.355 1166.66 383.167 1169.72 383.167Z" fill="#56CCF2"/>
<path d="M1160.08 299.987C1155.37 299.528 1150.67 298.841 1145.96 297.466C1142.9 296.549 1141.73 301.132 1144.55 302.049C1149.73 303.424 1154.67 304.34 1160.08 304.569C1163.37 305.028 1163.37 300.216 1160.08 299.987Z" fill="#56CCF2"/>
<path d="M1139.37 316.027C1142.2 316.027 1145.02 316.256 1147.84 317.172C1150.9 318.089 1152.08 313.506 1149.26 312.589C1146.2 311.673 1142.9 311.215 1139.61 311.215C1136.32 311.444 1136.32 316.256 1139.37 316.027Z" fill="#56CCF2"/>
<path d="M1143.84 325.193C1146.67 325.193 1149.49 325.651 1152.08 326.797C1154.9 328.172 1157.49 324.047 1154.43 322.672C1151.14 321.068 1147.61 320.38 1143.84 320.38C1140.79 320.61 1140.79 325.193 1143.84 325.193Z" fill="#56CCF2"/>
<path d="M1151.61 338.483C1155.61 339.171 1159.37 340.317 1163.13 341.691C1165.96 342.837 1167.37 338.254 1164.55 337.109C1160.78 335.505 1157.02 334.588 1153.02 333.901C1149.73 333.442 1148.55 338.025 1151.61 338.483Z" fill="#56CCF2"/>
<path d="M1158.43 330.005C1160.31 330.234 1161.96 330.693 1163.6 331.609C1166.43 332.984 1168.78 329.088 1165.96 327.484C1163.6 326.109 1161.02 325.422 1158.43 325.193C1157.02 324.964 1156.08 326.339 1156.08 327.484C1156.08 329.088 1157.25 330.005 1158.43 330.005Z" fill="#56CCF2"/>
<path d="M1152.55 294.716C1154.43 294.487 1156.08 294.716 1157.72 295.174C1160.78 296.091 1161.96 291.508 1159.14 290.591C1157.02 290.133 1154.9 289.904 1152.78 289.904C1151.37 289.904 1150.43 290.821 1150.43 292.196C1149.96 293.57 1151.14 294.716 1152.55 294.716Z" fill="#56CCF2"/>
<path d="M1140.32 281.426C1141.49 281.196 1142.9 281.426 1144.08 281.884C1147.14 282.8 1148.31 278.218 1145.49 277.301C1143.37 276.613 1141.26 276.613 1139.14 276.843C1137.73 277.072 1137.02 278.676 1137.49 279.822C1137.73 281.196 1139.14 281.655 1140.32 281.426Z" fill="#56CCF2"/>
<path d="M1151.37 375.834C1154.9 377.209 1158.43 378.584 1161.72 379.959C1164.55 381.105 1165.96 376.522 1163.13 375.376C1159.61 374.001 1156.08 372.627 1152.78 371.252C1149.73 370.106 1148.55 374.689 1151.37 375.834Z" fill="#56CCF2"/>
<path d="M1158.43 369.648C1161.02 369.648 1163.37 370.335 1165.96 371.252C1169.02 372.397 1170.19 367.815 1167.37 366.669C1164.55 365.752 1161.72 365.065 1158.67 365.065C1155.37 364.836 1155.37 369.419 1158.43 369.648Z" fill="#56CCF2"/>
<path d="M1139.84 354.982C1142.9 354.753 1145.49 355.898 1148.31 357.044C1149.49 357.502 1150.9 357.502 1151.61 356.127C1152.31 355.211 1151.84 353.378 1150.67 352.919C1147.14 351.545 1143.61 350.17 1139.84 350.17C1136.55 350.399 1136.55 355.211 1139.84 354.982Z" fill="#56CCF2"/>
<path d="M1139.37 363.002C1140.32 363.231 1141.26 363.231 1142.2 363.461C1143.61 363.69 1144.79 363.231 1145.26 361.857C1145.49 360.711 1144.79 359.107 1143.61 358.878C1142.67 358.648 1141.73 358.648 1140.79 358.419C1139.37 358.19 1138.2 358.648 1137.73 360.023C1137.49 361.169 1138.2 362.773 1139.37 363.002Z" fill="#56CCF2"/>
<path d="M665.705 357.637C665.705 377.801 665.705 397.737 665.705 417.902C665.705 421.11 670.881 421.11 670.881 417.902C670.881 397.737 670.881 377.801 670.881 357.637C670.881 354.199 665.705 354.199 665.705 357.637Z" fill="#56CCF2"/>
<path d="M664.293 358.553C713.697 358.553 763.335 358.553 812.739 358.553C816.032 358.553 816.032 353.512 812.739 353.512C763.335 353.512 713.697 353.512 664.293 353.512C661 353.283 661 358.553 664.293 358.553Z" fill="#56CCF2"/>
<path d="M661.47 345.491C711.579 345.491 761.453 345.491 811.562 345.491C814.856 345.491 814.856 340.45 811.562 340.45C761.453 340.45 711.579 340.45 661.47 340.45C658.177 340.45 658.177 345.491 661.47 345.491Z" fill="#56CCF2"/>
<path d="M670.174 342.971C670.174 325.097 670.174 306.994 670.174 289.121C670.174 285.913 664.999 285.913 664.999 289.121C664.999 306.994 664.999 325.097 664.999 342.971C664.999 346.179 670.174 346.179 670.174 342.971Z" fill="#56CCF2"/>
<path d="M664.293 291.184C681.702 291.184 698.876 291.184 716.285 291.184C719.578 291.184 719.578 286.142 716.285 286.142C698.876 286.142 681.702 286.142 664.293 286.142C661 285.913 661 291.184 664.293 291.184Z" fill="#56CCF2"/>
<path d="M760.277 292.1C776.509 292.1 792.742 292.1 808.739 292.1C812.033 292.1 812.033 287.059 808.739 287.059C792.507 287.059 776.274 287.059 760.277 287.059C756.983 287.059 756.983 292.1 760.277 292.1Z" fill="#56CCF2"/>
<path d="M669.233 287.517C669.233 273.539 669.233 259.561 669.233 245.583C669.233 242.375 664.058 242.375 664.058 245.583C664.058 259.561 664.058 273.539 664.058 287.517C664.058 290.725 669.233 290.725 669.233 287.517Z" fill="#56CCF2"/>
<path d="M663.822 246.041C680.29 246.041 696.523 246.041 712.99 246.041C716.284 246.041 716.284 241 712.99 241C696.523 241 680.29 241 663.822 241C660.294 241 660.294 246.041 663.822 246.041Z" fill="#56CCF2"/>
<path d="M709.697 245.125C709.697 259.103 709.697 273.081 709.697 287.059C709.697 290.267 714.872 290.267 714.872 287.059C714.872 273.081 714.872 259.103 714.872 245.125C714.872 241.917 709.697 241.688 709.697 245.125Z" fill="#56CCF2"/>
<path d="M767.335 289.579C767.335 276.289 767.335 262.769 767.335 249.478C767.335 246.27 762.159 246.27 762.159 249.478C762.159 262.769 762.159 276.289 762.159 289.579C762.159 293.017 767.335 293.017 767.335 289.579Z" fill="#56CCF2"/>
<path d="M761.924 249.708C778.156 249.708 794.389 249.708 810.386 249.708C813.68 249.708 813.68 244.667 810.386 244.667C794.154 244.667 777.921 244.667 761.924 244.667C758.63 244.667 758.63 249.708 761.924 249.708Z" fill="#56CCF2"/>
<path d="M804.975 248.791C804.975 262.082 804.975 275.601 804.975 288.892C804.975 292.1 810.15 292.1 810.15 288.892C810.15 275.601 810.15 262.082 810.15 248.791C810.386 245.583 804.975 245.583 804.975 248.791Z" fill="#56CCF2"/>
<path d="M804.505 291.871C804.505 308.37 804.505 324.868 804.505 341.367C804.505 344.575 809.681 344.575 809.681 341.367C809.681 324.868 809.681 308.37 809.681 291.871C809.681 288.434 804.505 288.434 804.505 291.871Z" fill="#56CCF2"/>
<path d="M805.681 359.24C805.681 377.343 805.681 395.446 805.681 413.549C805.681 416.757 810.857 416.757 810.857 413.549C810.857 395.446 810.857 377.343 810.857 359.24C810.857 356.032 805.681 356.032 805.681 359.24Z" fill="#56CCF2"/>
<path d="M667.116 282.705C681.702 282.705 696.288 282.705 710.874 282.705C714.167 282.705 714.167 277.664 710.874 277.664C696.288 277.664 681.702 277.664 667.116 277.664C663.588 277.435 663.588 282.705 667.116 282.705Z" fill="#56CCF2"/>
<path d="M764.982 283.622C779.332 283.622 793.918 283.622 808.269 283.622C811.562 283.622 811.562 278.58 808.269 278.58C793.918 278.58 779.332 278.58 764.982 278.58C761.688 278.58 761.688 283.622 764.982 283.622Z" fill="#56CCF2"/>
<path d="M709.697 289.58C709.697 306.766 709.697 324.181 709.697 341.367C709.697 344.575 714.872 344.575 714.872 341.367C714.872 324.181 714.872 306.766 714.872 289.58C715.108 286.142 709.697 286.142 709.697 289.58Z" fill="#56CCF2"/>
<path d="M762.159 290.725C762.159 307.453 762.159 323.952 762.159 340.679C762.159 343.887 767.335 343.887 767.335 340.679C767.335 323.952 767.335 307.453 767.335 290.725C767.335 287.517 762.159 287.517 762.159 290.725Z" fill="#56CCF2"/>
<path d="M664.058 344.804C664.058 347.096 664.058 349.616 664.058 351.908C664.058 355.116 669.233 355.116 669.233 351.908C669.233 349.616 669.233 347.096 669.233 344.804C669.468 341.596 664.058 341.596 664.058 344.804Z" fill="#56CCF2"/>
<path d="M672.056 344.575C672.056 348.471 672.056 352.366 672.056 356.262C672.056 359.47 677.232 359.47 677.232 356.262C677.232 352.366 677.232 348.471 677.232 344.575C677.232 341.367 672.056 341.367 672.056 344.575Z" fill="#56CCF2"/>
<path d="M680.525 343.887C680.525 347.324 680.525 350.762 680.525 353.97C680.525 357.178 685.701 357.178 685.701 353.97C685.701 350.532 685.701 347.095 685.701 343.887C685.701 340.45 680.525 340.45 680.525 343.887Z" fill="#56CCF2"/>
<path d="M688.054 344.804C688.054 348.012 688.054 351.22 688.054 354.428C688.054 357.636 693.23 357.636 693.23 354.428C693.23 351.22 693.23 348.012 693.23 344.804C693.465 341.596 688.054 341.596 688.054 344.804Z" fill="#56CCF2"/>
<path d="M695.582 345.492C695.582 349.158 695.582 352.824 695.582 356.491C695.582 359.699 700.757 359.699 700.757 356.491C700.757 352.824 700.757 349.158 700.757 345.492C700.992 342.283 695.582 342.283 695.582 345.492Z" fill="#56CCF2"/>
<path d="M703.581 345.033C703.581 348.929 703.581 352.595 703.581 356.491C703.581 359.699 708.757 359.699 708.757 356.491C708.757 352.595 708.757 348.929 708.757 345.033C708.757 341.825 703.581 341.825 703.581 345.033Z" fill="#56CCF2"/>
<path d="M710.168 345.492C710.168 348.241 710.168 350.991 710.168 353.512C710.168 356.72 715.343 356.72 715.343 353.512C715.343 350.762 715.343 348.012 715.343 345.492C715.579 342.283 710.168 342.283 710.168 345.492Z" fill="#56CCF2"/>
<path d="M717.696 345.033C717.696 348.7 717.696 352.366 717.696 356.262C717.696 359.47 722.872 359.47 722.872 356.262C722.872 352.595 722.872 348.929 722.872 345.033C722.872 341.825 717.696 341.825 717.696 345.033Z" fill="#56CCF2"/>
<path d="M725.93 345.034C725.93 348.7 725.93 352.366 725.93 356.033C725.93 359.241 731.106 359.241 731.106 356.033C731.106 352.366 731.106 348.7 731.106 345.034C731.106 341.825 725.93 341.825 725.93 345.034Z" fill="#56CCF2"/>
<path d="M734.634 345.492C734.634 348.929 734.634 352.366 734.634 355.803C734.634 359.012 739.809 359.012 739.809 355.803C739.809 352.366 739.809 348.929 739.809 345.492C739.809 342.283 734.634 342.283 734.634 345.492Z" fill="#56CCF2"/>
<path d="M742.868 344.575C742.868 348.471 742.868 352.595 742.868 356.491C742.868 359.699 748.044 359.699 748.044 356.491C748.044 352.595 748.044 348.471 748.044 344.575C748.044 341.367 742.868 341.367 742.868 344.575Z" fill="#56CCF2"/>
<path d="M752.278 344.575C752.278 347.783 752.278 350.762 752.278 353.97C752.278 357.178 757.454 357.178 757.454 353.97C757.454 350.762 757.454 347.783 757.454 344.575C757.454 341.367 752.278 341.367 752.278 344.575Z" fill="#56CCF2"/>
<path d="M760.748 345.033C760.748 348.7 760.748 352.366 760.748 356.262C760.748 359.47 765.923 359.47 765.923 356.262C765.923 352.595 765.923 348.929 765.923 345.033C766.158 341.825 760.748 341.825 760.748 345.033Z" fill="#56CCF2"/>
<path d="M768.981 344.804C768.981 348.241 768.981 351.679 768.981 354.887C768.981 358.095 774.157 358.095 774.157 354.887C774.157 351.449 774.157 348.012 774.157 344.804C774.157 341.596 768.981 341.596 768.981 344.804Z" fill="#56CCF2"/>
<path d="M775.333 344.804C775.333 348.471 775.333 352.137 775.333 356.033C775.333 359.241 780.509 359.241 780.509 356.033C780.509 352.366 780.509 348.7 780.509 344.804C780.744 341.596 775.333 341.596 775.333 344.804Z" fill="#56CCF2"/>
<path d="M781.92 344.575C781.92 348.471 781.92 352.595 781.92 356.491C781.92 359.699 787.096 359.699 787.096 356.491C787.096 352.595 787.096 348.471 787.096 344.575C787.096 341.367 781.92 341.367 781.92 344.575Z" fill="#56CCF2"/>
<path d="M789.213 345.262C789.213 348.241 789.213 351.22 789.213 354.199C789.213 357.407 794.389 357.407 794.389 354.199C794.389 351.22 794.389 348.241 794.389 345.262C794.389 342.054 789.213 342.054 789.213 345.262Z" fill="#56CCF2"/>
<path d="M795.8 345.262C795.8 348.012 795.8 350.762 795.8 353.282C795.8 356.49 800.976 356.49 800.976 353.282C800.976 350.533 800.976 347.783 800.976 345.262C800.976 342.054 795.8 342.054 795.8 345.262Z" fill="#56CCF2"/>
<path d="M803.093 344.575C803.093 348.471 803.093 352.366 803.093 356.262C803.093 359.47 808.269 359.47 808.269 356.262C808.269 352.366 808.269 348.471 808.269 344.575C808.269 341.367 803.093 341.367 803.093 344.575Z" fill="#56CCF2"/>
<path d="M676.761 290.038C676.761 306.766 676.761 323.723 676.761 340.45C676.761 343.658 681.937 343.658 681.937 340.45C681.937 323.723 681.937 306.766 681.937 290.038C682.172 286.83 676.761 286.83 676.761 290.038Z" fill="#56CCF2"/>
<path d="M700.287 290.038C700.287 307.224 700.287 324.181 700.287 341.367C700.287 344.575 705.462 344.575 705.462 341.367C705.462 324.181 705.462 307.224 705.462 290.038C705.462 286.83 700.287 286.83 700.287 290.038Z" fill="#56CCF2"/>
<path d="M668.057 308.828C671.586 308.828 675.115 308.828 678.879 308.828C682.172 308.828 682.172 303.786 678.879 303.786C675.35 303.786 671.821 303.786 668.057 303.786C664.764 303.786 664.764 308.828 668.057 308.828Z" fill="#56CCF2"/>
<path d="M668.292 329.451C672.056 329.451 675.585 329.451 679.349 329.451C682.643 329.451 682.643 324.41 679.349 324.41C675.585 324.41 672.056 324.41 668.292 324.41C664.999 324.41 664.999 329.451 668.292 329.451Z" fill="#56CCF2"/>
<path d="M703.11 308.828C706.404 308.828 709.462 308.828 712.756 308.828C716.049 308.828 716.049 303.786 712.756 303.786C709.462 303.786 706.404 303.786 703.11 303.786C699.817 303.786 699.817 308.828 703.11 308.828Z" fill="#56CCF2"/>
<path d="M702.404 329.451C706.169 329.451 709.933 329.451 713.697 329.451C716.99 329.451 716.99 324.41 713.697 324.41C709.933 324.41 706.169 324.41 702.404 324.41C698.876 324.41 698.876 329.451 702.404 329.451Z" fill="#56CCF2"/>
<path d="M680.526 306.536C687.819 306.536 695.112 306.536 702.169 306.536C705.463 306.536 705.463 301.495 702.169 301.495C694.876 301.495 687.583 301.495 680.526 301.495C677.232 301.495 677.232 306.536 680.526 306.536Z" fill="#56CCF2"/>
<path d="M682.408 325.327C682.408 322.577 684.996 319.827 686.878 317.765C687.348 317.077 688.054 316.39 688.524 315.931C689.701 314.786 689.701 314.556 691.112 315.244C694.641 317.077 697.229 321.889 698.405 325.556C699.346 328.764 704.522 327.389 703.346 324.181C702.169 320.744 700.522 317.765 698.17 315.015C696.288 312.952 692.994 309.515 690.171 309.286C686.878 309.057 684.29 312.494 682.408 314.786C679.82 317.994 676.997 321.202 676.997 325.327C677.232 328.535 682.408 328.535 682.408 325.327Z" fill="#56CCF2"/>
<path d="M691.347 341.367C691.583 337.013 690.171 331.055 692.288 327.16C691.818 327.618 691.347 327.847 690.642 328.305C689.701 328.764 690.406 333.347 690.406 334.492C690.406 337.013 690.406 339.304 690.406 341.825C690.406 345.033 695.582 345.033 695.582 341.825C695.582 337.471 695.817 333.117 695.347 328.764C695.111 326.243 693.935 323.264 690.877 323.264C683.584 322.806 686.172 337.7 685.937 341.596C685.937 344.804 691.112 344.804 691.347 341.367Z" fill="#56CCF2"/>
<path d="M771.569 291.412C771.569 307.453 771.569 323.264 771.569 339.305C771.569 342.513 776.745 342.513 776.745 339.305C776.745 323.264 776.745 307.453 776.745 291.412C776.98 288.204 771.569 288.204 771.569 291.412Z" fill="#56CCF2"/>
<path d="M792.742 291.183C792.742 307.911 792.742 324.639 792.742 341.596C792.742 344.804 797.918 344.804 797.918 341.596C797.918 324.868 797.918 308.14 797.918 291.183C797.918 287.975 792.742 287.975 792.742 291.183Z" fill="#56CCF2"/>
<path d="M764.982 309.973C768.275 309.973 771.569 309.973 774.862 309.973C778.156 309.973 778.156 304.932 774.862 304.932C771.569 304.932 768.275 304.932 764.982 304.932C761.453 304.932 761.453 309.973 764.982 309.973Z" fill="#56CCF2"/>
<path d="M765.453 330.368C768.276 330.368 771.099 330.368 774.157 330.368C777.45 330.368 777.45 325.326 774.157 325.326C771.334 325.326 768.511 325.326 765.453 325.326C762.159 325.326 762.159 330.368 765.453 330.368Z" fill="#56CCF2"/>
<path d="M795.565 310.432C799.564 310.432 803.564 310.432 807.563 310.432C810.856 310.432 810.856 305.391 807.563 305.391C803.564 305.391 799.564 305.391 795.565 305.391C792.271 305.391 792.271 310.432 795.565 310.432Z" fill="#56CCF2"/>
<path d="M796.27 330.597C799.564 330.597 802.622 330.597 805.916 330.597C809.209 330.597 809.209 325.555 805.916 325.555C802.622 325.555 799.564 325.555 796.27 325.555C792.977 325.555 792.977 330.597 796.27 330.597Z" fill="#56CCF2"/>
<path d="M776.275 307.224C782.391 307.224 788.272 307.224 794.389 307.224C797.683 307.224 797.683 302.183 794.389 302.183C788.272 302.183 782.391 302.183 776.275 302.183C772.746 301.953 772.746 307.224 776.275 307.224Z" fill="#56CCF2"/>
<path d="M776.509 327.16C777.686 323.952 781.45 315.015 785.684 316.848C789.448 318.452 792.271 323.722 792.977 327.389C793.683 330.597 798.623 329.222 797.917 326.014C797.212 322.577 795.565 319.598 793.212 316.848C791.33 314.786 788.037 311.348 785.214 310.89C778.391 309.744 772.981 321.202 771.334 326.014C770.393 328.993 775.333 330.368 776.509 327.16Z" fill="#56CCF2"/>
<path d="M785.684 341.596C785.684 339.534 785.684 337.242 785.684 335.18C785.684 334.263 785.684 333.347 785.684 332.201C785.684 331.972 786.154 328.305 784.508 330.139C784.037 330.597 784.743 334.721 784.743 335.409C784.743 337.7 784.743 339.763 784.743 342.054C784.743 345.262 789.918 345.262 789.918 342.054C789.918 338.159 790.154 334.263 789.683 330.368C789.448 327.847 788.036 325.097 784.978 324.639C782.155 324.181 780.508 326.701 780.273 329.222C779.803 333.347 780.273 337.471 780.273 341.596C780.508 344.804 785.684 344.804 785.684 341.596Z" fill="#56CCF2"/>
<path d="M683.349 278.81C683.349 275.372 683.349 272.164 683.113 268.727C683.113 267.352 683.113 265.977 683.113 264.602C683.113 262.769 683.819 260.707 682.172 260.249C680.055 259.561 681.467 262.311 681.467 263.686C681.467 265.29 681.467 266.894 681.467 268.498C681.467 271.706 681.467 275.143 681.467 278.351C681.467 281.559 686.642 281.559 686.642 278.351C686.642 273.081 686.878 267.581 686.642 262.311C686.407 259.332 685.937 254.978 681.937 254.749C677.938 254.52 677.703 258.644 677.938 261.394C677.938 267.352 678.173 273.081 678.173 279.039C678.173 282.247 683.349 282.247 683.349 278.81Z" fill="#56CCF2"/>
<path d="M698.405 279.039C697.7 275.143 697.229 271.477 696.994 267.581C696.994 266.894 697.229 257.499 695.818 257.728C696.288 257.728 696.053 277.435 695.818 279.039C695.582 282.247 700.758 282.247 700.993 279.039C701.699 272.164 701.934 264.832 700.993 257.957C700.523 255.436 699.347 252.228 696.053 252.687C692.054 253.145 691.818 257.957 691.583 260.936C691.348 267.352 692.054 273.997 693.23 280.414C693.936 283.622 698.876 282.247 698.405 279.039Z" fill="#56CCF2"/>
<path d="M672.292 244.208C672.292 257.269 672.292 270.331 672.292 283.163C672.292 286.371 677.468 286.371 677.468 283.163C677.468 270.102 677.468 257.04 677.468 244.208C677.468 240.771 672.292 240.771 672.292 244.208Z" fill="#56CCF2"/>
<path d="M701.229 245.125C701.229 256.353 701.229 267.81 701.229 279.038C701.229 282.246 706.404 282.246 706.404 279.038C706.404 267.81 706.404 256.353 706.404 245.125C706.404 241.917 701.229 241.917 701.229 245.125Z" fill="#56CCF2"/>
<path d="M781.214 280.872C781.214 277.435 781.214 273.768 781.214 270.331C781.214 268.956 781.92 262.082 780.744 261.623C779.803 261.165 780.508 263.915 780.508 264.602C780.508 266.206 780.273 267.81 780.273 269.644C780.038 273.31 779.803 277.206 779.567 280.872C779.332 284.08 784.743 284.08 784.743 280.872C784.978 274.456 785.919 268.04 785.449 261.623C785.214 258.644 784.272 254.978 780.508 254.978C776.744 254.978 776.039 258.874 775.803 261.853C775.333 268.269 775.803 274.685 775.803 280.872C775.803 284.08 781.214 284.08 781.214 280.872Z" fill="#56CCF2"/>
<path d="M792.272 280.185C792.272 276.747 792.272 273.081 792.272 269.644C792.272 268.269 792.977 261.394 791.801 260.936C790.86 260.478 791.566 263.228 791.566 263.915C791.566 265.519 791.331 267.123 791.331 268.956C791.096 272.623 790.86 276.518 790.625 280.185C790.39 283.393 795.801 283.393 795.801 280.185C796.036 273.768 796.977 267.352 796.506 260.936C796.271 257.957 795.33 254.291 791.566 254.291C787.802 254.291 787.096 258.186 786.861 261.165C786.39 267.581 786.861 273.998 786.861 280.185C786.861 283.622 792.272 283.622 792.272 280.185Z" fill="#56CCF2"/>
<path d="M769.922 248.562C769.922 259.103 769.922 269.643 769.922 279.955C769.922 283.163 775.098 283.163 775.098 279.955C775.098 269.414 775.098 258.873 775.098 248.562C775.333 245.354 769.922 245.354 769.922 248.562Z" fill="#56CCF2"/>
<path d="M796.271 249.707C796.271 259.561 796.271 269.414 796.271 279.268C796.271 282.476 801.447 282.476 801.447 279.268C801.447 269.414 801.447 259.561 801.447 249.707C801.447 246.499 796.271 246.499 796.271 249.707Z" fill="#56CCF2"/>
<path d="M715.343 292.1C730.164 292.1 745.22 292.1 760.041 292.1C763.335 292.1 763.335 287.059 760.041 287.059C745.22 287.059 730.164 287.059 715.343 287.059C712.05 286.83 712.05 292.1 715.343 292.1Z" fill="#56CCF2"/>
<path d="M715.579 306.995C730.87 306.995 746.397 306.995 761.688 306.995C764.982 306.995 764.982 301.954 761.688 301.954C746.397 301.954 730.87 301.954 715.579 301.954C712.285 301.954 712.285 306.995 715.579 306.995Z" fill="#56CCF2"/>
<path d="M738.869 327.618C737.222 328.535 735.105 329.222 735.81 326.701C736.281 324.868 734.634 322.806 732.517 323.493C731.576 322.348 731.576 320.973 732.752 319.827C734.634 320.744 736.516 319.598 736.751 317.535C737.692 317.077 738.633 316.39 739.574 315.931C740.516 317.306 742.397 317.765 743.574 316.39C746.162 315.931 746.867 316.619 745.926 318.223C745.456 319.369 746.162 320.514 747.103 321.202C747.808 321.431 748.514 321.889 748.749 322.577C746.632 323.035 746.397 325.556 747.573 326.931C747.338 326.931 747.338 326.931 747.103 326.931C745.691 326.472 744.28 327.389 743.809 328.764C743.574 328.764 743.103 328.535 742.868 328.535C742.162 325.327 737.222 326.701 737.928 329.909C739.104 336.096 747.103 335.867 748.985 330.139C747.808 330.826 746.867 331.284 745.691 331.972C751.572 333.805 754.866 327.618 751.102 323.264C750.631 324.639 750.396 326.014 749.926 327.618C752.278 327.16 753.925 325.327 753.925 322.806C753.925 320.056 751.572 318.223 749.455 316.848C749.926 317.765 750.161 318.681 750.631 319.827C753.454 312.953 744.75 308.14 739.574 313.182C740.986 313.411 742.397 313.64 743.574 313.64C739.104 307.682 731.576 311.348 730.87 317.765C732.282 317.077 733.458 316.39 734.869 315.473C724.048 310.661 723.342 331.972 733.458 328.535C732.282 327.389 731.341 326.472 730.164 325.327C728.518 332.888 734.634 335.638 740.986 331.972C744.28 330.368 741.692 326.014 738.869 327.618Z" fill="#56CCF2"/>
<path d="M744.044 307.224C753.925 309.515 758.395 316.848 756.278 326.472C754.396 334.722 747.808 339.992 739.104 339.076C730.635 338.388 724.048 331.285 723.577 323.264C722.636 311.12 732.987 305.62 744.044 307.224C747.338 307.682 748.749 302.641 745.456 302.412C732.752 300.808 720.519 305.162 718.402 318.681C716.52 330.368 724.989 342.284 736.987 344.117C748.279 345.95 758.16 339.534 760.983 328.993C764.276 316.39 758.63 305.62 745.456 302.641C742.162 301.495 740.751 306.307 744.044 307.224Z" fill="#56CCF2"/>
<path d="M733.929 304.015C735.105 302.87 736.281 301.724 737.458 300.578C738.399 299.662 739.575 298.058 740.751 297.599C739.81 297.599 739.104 297.599 738.163 297.599C740.751 298.745 743.104 301.953 744.986 303.786C747.338 306.307 750.867 302.64 748.75 300.12C747.338 298.516 745.691 296.912 743.809 295.308C742.633 294.391 741.457 292.787 739.81 292.787C738.163 292.558 736.987 293.933 735.811 295.079C733.929 296.912 732.047 298.516 730.165 300.349C727.812 302.64 731.576 306.078 733.929 304.015Z" fill="#56CCF2"/>
<path d="M722.871 289.35C722.871 294.162 722.871 298.974 722.871 304.016C722.871 307.224 728.047 307.224 728.047 304.016C728.047 299.203 728.047 294.391 728.047 289.35C728.047 286.142 722.871 286.142 722.871 289.35Z" fill="#56CCF2"/>
<path d="M750.161 290.725C750.161 295.537 750.161 300.578 750.161 305.39C750.161 308.598 755.337 308.598 755.337 305.39C755.337 300.578 755.337 295.537 755.337 290.725C755.337 287.517 750.161 287.517 750.161 290.725Z" fill="#56CCF2"/>
<path d="M675.35 416.298C674.644 407.361 674.174 397.279 677.232 388.571C678.644 384.447 681.937 378.26 685.701 375.739C688.524 373.906 687.348 374.135 690.406 376.197C702.404 385.134 699.817 404.382 700.287 417.444C700.287 420.652 705.698 420.652 705.463 417.444C705.227 406.903 706.639 394.3 702.404 384.217C700.522 379.405 694.876 370.698 689.23 368.864C683.349 366.802 678.408 375.51 675.821 379.634C668.763 390.175 669.233 404.382 670.175 416.298C670.41 419.506 675.585 419.506 675.35 416.298Z" fill="#56CCF2"/>
<path d="M755.572 417.902C756.278 406.216 757.454 393.154 753.219 381.926C750.632 374.823 743.339 364.053 734.634 362.907C726.871 361.99 719.343 372.989 716.284 378.489C709.697 390.175 712.52 403.008 712.05 415.84C711.815 419.048 717.225 419.048 717.225 415.84C717.696 406.674 715.579 396.592 718.166 387.426C720.519 379.406 728.988 365.886 738.398 370.698C754.16 378.489 751.337 403.924 750.396 417.902C750.161 421.11 755.337 421.11 755.572 417.902Z" fill="#56CCF2"/>
<path d="M768.511 413.778C767.805 404.841 767.334 394.758 770.393 386.051C771.804 381.926 775.098 375.739 778.862 373.218C781.685 371.385 780.509 371.614 783.567 373.677C795.565 382.613 792.977 401.862 793.448 414.923C793.448 418.131 798.859 418.131 798.623 414.923C798.388 404.382 799.8 391.779 795.565 381.697C793.683 376.885 788.037 368.177 782.391 366.344C776.509 364.282 771.569 372.989 768.981 377.114C761.924 387.655 762.394 401.862 763.335 413.778C763.57 416.986 768.746 416.986 768.511 413.778Z" fill="#56CCF2"/>
<path d="M670.645 420.424C716.99 420.424 763.335 420.424 809.68 420.424C812.974 420.424 812.974 415.382 809.68 415.382C763.335 415.382 716.99 415.382 670.645 415.382C667.351 415.153 667.351 420.424 670.645 420.424Z" fill="#56CCF2"/>
<path d="M676.761 400.716C676.761 405.528 676.761 410.569 676.761 415.381C676.761 418.589 681.937 418.589 681.937 415.381C681.937 410.569 681.937 405.528 681.937 400.716C682.172 397.508 676.761 397.508 676.761 400.716Z" fill="#56CCF2"/>
<path d="M679.114 402.55C680.055 402.55 680.996 402.55 681.937 402.55C680.996 401.633 680.291 400.946 679.349 400.029C679.349 405.529 679.349 410.799 679.349 416.299C679.349 419.507 684.525 419.507 684.525 416.299C684.525 410.799 684.525 405.529 684.525 400.029C684.525 398.654 683.349 397.508 681.937 397.508C680.996 397.508 680.055 397.508 679.114 397.508C675.821 397.279 675.821 402.55 679.114 402.55Z" fill="#56CCF2"/>
<path d="M687.113 400.716C687.113 405.528 687.113 410.569 687.113 415.381C687.113 418.589 692.289 418.589 692.289 415.381C692.289 410.569 692.289 405.528 692.289 400.716C692.289 397.279 687.113 397.279 687.113 400.716Z" fill="#56CCF2"/>
<path d="M689.465 402.321C690.406 402.321 691.347 402.321 692.288 402.321C691.347 401.404 690.642 400.717 689.701 399.8C689.701 405.3 689.701 410.57 689.701 416.069C689.701 419.277 694.876 419.277 694.876 416.069C694.876 410.57 694.876 405.3 694.876 399.8C694.876 398.425 693.7 397.28 692.288 397.28C691.347 397.28 690.406 397.28 689.465 397.28C686.172 397.28 686.172 402.321 689.465 402.321Z" fill="#56CCF2"/>
<path d="M724.754 400.716C724.754 405.528 724.754 410.569 724.754 415.381C724.754 418.589 729.93 418.589 729.93 415.381C729.93 410.569 729.93 405.528 729.93 400.716C729.93 397.279 724.754 397.279 724.754 400.716Z" fill="#56CCF2"/>
<path d="M727.106 402.321C728.047 402.321 728.988 402.321 729.929 402.321C728.988 401.404 728.282 400.717 727.341 399.8C727.341 405.3 727.341 410.57 727.341 416.069C727.341 419.277 732.517 419.277 732.517 416.069C732.517 410.57 732.517 405.3 732.517 399.8C732.517 398.425 731.341 397.28 729.929 397.28C728.988 397.28 728.047 397.28 727.106 397.28C723.812 397.28 723.812 402.321 727.106 402.321Z" fill="#56CCF2"/>
<path d="M734.634 400.029C734.634 404.841 734.634 409.883 734.634 414.695C734.634 417.903 739.809 417.903 739.809 414.695C739.809 409.883 739.809 404.841 739.809 400.029C740.045 396.592 734.634 396.592 734.634 400.029Z" fill="#56CCF2"/>
<path d="M736.987 401.633C737.928 401.633 738.869 401.633 739.81 401.633C738.869 400.716 738.163 400.029 737.222 399.112C737.222 404.612 737.222 409.882 737.222 415.381C737.222 418.589 742.398 418.589 742.398 415.381C742.398 409.882 742.398 404.612 742.398 399.112C742.398 397.737 741.221 396.592 739.81 396.592C738.869 396.592 737.928 396.592 736.987 396.592C733.693 396.592 733.693 401.633 736.987 401.633Z" fill="#56CCF2"/>
<path d="M771.805 400.716C771.805 405.528 771.805 410.569 771.805 415.381C771.805 418.589 776.98 418.589 776.98 415.381C776.98 410.569 776.98 405.528 776.98 400.716C776.98 397.279 771.805 397.279 771.805 400.716Z" fill="#56CCF2"/>
<path d="M774.157 402.321C775.098 402.321 776.039 402.321 776.98 402.321C776.039 401.404 775.333 400.717 774.392 399.8C774.392 405.3 774.392 410.57 774.392 416.069C774.392 419.277 779.568 419.277 779.568 416.069C779.568 410.57 779.568 405.3 779.568 399.8C779.568 398.425 778.391 397.28 776.98 397.28C776.039 397.28 775.098 397.28 774.157 397.28C770.863 397.28 770.863 402.321 774.157 402.321Z" fill="#56CCF2"/>
<path d="M782.861 400.945C782.861 405.758 782.861 410.799 782.861 415.611C782.861 418.819 788.037 418.819 788.037 415.611C788.037 410.799 788.037 405.758 788.037 400.945C788.037 397.737 782.861 397.737 782.861 400.945Z" fill="#56CCF2"/>
<path d="M785.214 402.778C786.155 402.778 787.096 402.778 788.037 402.778C787.096 401.862 786.39 401.174 785.449 400.258C785.449 405.757 785.449 411.028 785.449 416.527C785.449 419.735 790.625 419.735 790.625 416.527C790.625 411.028 790.625 405.757 790.625 400.258C790.625 398.883 789.448 397.737 788.037 397.737C787.096 397.737 786.155 397.737 785.214 397.737C781.92 397.508 781.92 402.778 785.214 402.778Z" fill="#56CCF2"/>
<path d="M669.469 367.032C714.402 367.032 759.1 367.032 804.034 367.032C807.328 367.032 807.328 361.99 804.034 361.99C759.1 361.99 714.402 361.99 669.469 361.99C666.175 361.99 666.175 367.032 669.469 367.032Z" fill="#56CCF2"/>
<path d="M707.58 386.28C706.874 386.051 706.404 385.822 705.698 385.593C705.698 384.905 705.933 384.218 705.933 383.53C706.639 383.301 707.11 383.301 707.815 383.072C708.051 384.218 708.521 385.363 708.756 386.509C708.756 386.509 708.756 386.28 708.992 386.28C708.286 386.738 707.58 387.197 706.639 387.655H706.874C706.169 387.197 705.463 386.738 704.522 386.28C704.757 386.738 703.581 389.717 703.581 390.176C703.346 391.55 703.346 393.384 703.816 394.759C704.051 395.446 704.757 396.363 705.698 396.592C707.11 396.821 708.521 396.592 710.168 396.363C711.344 396.134 712.05 394.988 712.05 393.842C712.05 391.78 711.815 389.717 711.109 387.655C710.168 384.447 705.228 385.822 706.169 389.03C706.639 390.634 706.874 392.238 706.874 394.071C707.58 393.155 708.051 392.467 708.756 391.55C708.521 391.55 706.169 391.78 707.11 391.78C707.815 392.467 708.286 392.925 708.992 393.613C708.051 390.863 710.638 388.113 709.933 385.363C709.227 382.613 706.169 381.926 704.287 384.218C703.581 385.363 704.051 387.197 705.228 387.655C707.345 388.801 710.168 387.884 710.638 385.593C711.344 382.614 708.521 381.009 705.933 381.468C702.875 381.697 704.287 386.738 707.58 386.28Z" fill="#56CCF2"/>
<path d="M762.159 386.28C761.924 386.738 761.688 386.968 761.453 387.426C760.747 387.426 760.042 387.655 759.336 387.655C759.806 386.509 760.277 385.593 760.747 384.447C760.277 386.051 759.806 387.655 759.336 389.259C759.571 389.259 759.571 389.259 759.806 389.259C759.101 389.03 758.63 388.801 757.924 388.572C757.924 388.801 758.16 388.801 758.16 389.03C757.924 388.343 757.689 387.884 757.454 387.197C757.689 386.509 757.689 386.509 757.454 386.739C757.219 386.968 756.983 387.197 756.748 387.426C756.513 387.655 756.278 388.113 756.042 388.572C755.336 389.717 755.101 390.863 755.101 392.238C754.866 394.3 754.866 397.737 757.454 398.425C759.336 398.883 762.394 398.195 763.1 396.133C763.806 393.842 763.335 390.863 762.865 388.342C762.159 385.135 757.219 386.509 757.924 389.717C758.16 391.092 758.63 393.154 758.16 394.758C758.63 394.3 758.865 393.842 759.336 393.154C758.865 393.154 758.63 393.154 758.16 393.154C758.865 393.384 759.336 393.613 760.042 393.842C760.512 394.3 760.277 392.467 760.277 392.238C760.277 391.78 760.277 391.321 760.747 390.863C761.218 389.946 762.394 389.488 762.865 388.572C763.806 386.28 762.159 384.218 759.806 384.218C757.219 384.218 756.042 387.884 758.395 389.03C761.453 390.405 765.217 387.884 763.335 384.447C761.688 381.468 756.513 382.614 756.983 386.28C757.454 389.488 762.629 389.488 762.159 386.28Z" fill="#56CCF2"/>
<path d="M801.917 387.426C801.917 386.968 801.917 386.509 801.917 386.051C801.211 386.739 800.741 387.197 800.035 387.884C800.27 387.884 800.27 387.884 800.505 387.884C799.8 387.884 799.094 387.655 798.388 387.655C798.623 386.968 798.623 386.28 798.859 385.593C799.564 385.364 800.035 385.135 800.741 384.905C799.094 385.135 797.447 385.364 796.741 387.197C796.271 388.114 796.506 389.03 796.741 389.947C796.741 391.092 796.271 392.009 796.036 393.155C795.8 394.759 796.036 396.592 797.447 397.738C799.094 399.113 801.446 398.883 803.564 399.113C804.975 399.113 806.151 397.967 806.151 396.592C806.151 392.926 804.975 388.801 802.152 386.28C799.8 383.989 796.036 387.655 798.388 389.947C800.27 391.551 800.741 394.3 800.976 396.592C801.917 395.675 802.623 394.988 803.564 394.071C803.093 394.071 800.976 393.842 801.211 394.071C800.976 393.842 801.917 391.551 801.917 391.092C801.917 390.634 801.917 390.176 801.917 389.718C801.682 388.801 801.917 388.572 800.976 389.488C800.035 390.634 800.27 390.176 800.976 390.176C801.682 390.176 801.917 389.947 802.387 389.488C805.446 386.739 801.682 382.614 798.388 383.301C797.447 383.531 796.741 384.218 796.506 385.135C796.271 386.051 796.271 386.968 796.271 387.884C796.741 390.634 801.917 390.634 801.917 387.426Z" fill="#56CCF2"/>
<path d="M1266.82 329.589C1265.88 319.277 1272.23 311.486 1282.58 309.424C1296.22 306.674 1306.34 316.069 1306.81 329.36C1306.81 331.88 1311.05 331.88 1311.05 329.36C1310.57 314.465 1299.99 303.466 1284.23 305.299C1270.82 306.674 1261.64 316.757 1262.58 329.818C1262.82 332.11 1267.05 332.11 1266.82 329.589Z" fill="#56CCF2"/>
<path d="M1248.94 330.506C1254.82 321.11 1260.94 311.715 1267.29 302.549C1268.7 300.258 1265.17 298.425 1263.76 300.487C1257.41 309.653 1251.29 319.048 1245.41 328.443C1243.76 330.506 1247.53 332.568 1248.94 330.506Z" fill="#56CCF2"/>
<path d="M1304.93 302.32C1311.04 310.799 1316.93 319.506 1322.81 328.214C1324.22 330.505 1327.98 328.443 1326.34 326.152C1320.46 317.444 1314.57 308.736 1308.46 300.258C1307.05 297.966 1303.52 300.029 1304.93 302.32Z" fill="#56CCF2"/>
<path d="M1263.29 302.32C1278.11 302.32 1292.93 302.32 1307.75 302.32C1310.34 302.32 1310.34 298.196 1307.75 298.196C1292.93 298.196 1278.11 298.196 1263.29 298.196C1260.47 298.196 1260.47 302.32 1263.29 302.32Z" fill="#56CCF2"/>
<path d="M1262.35 295.675C1277.4 295.675 1292.22 295.675 1307.28 295.675C1309.87 295.675 1309.87 291.551 1307.28 291.551C1292.22 291.551 1277.4 291.551 1262.35 291.551C1259.76 291.78 1259.76 295.675 1262.35 295.675Z" fill="#56CCF2"/>
<path d="M1261.88 294.529C1261.88 296.821 1261.88 299.112 1261.88 301.404C1261.88 303.924 1266.11 303.924 1266.11 301.404C1266.11 299.112 1266.11 296.821 1266.11 294.529C1266.11 291.779 1261.88 291.779 1261.88 294.529Z" fill="#56CCF2"/>
<path d="M1304.69 294.529C1304.69 296.362 1304.69 298.425 1304.69 300.258C1304.69 302.779 1308.93 302.779 1308.93 300.258C1308.93 298.425 1308.93 296.362 1308.93 294.529C1308.93 291.779 1304.69 291.779 1304.69 294.529Z" fill="#56CCF2"/>
<path d="M1269.17 293.842C1270.58 289.488 1272.7 285.134 1273.88 280.78C1275.29 276.197 1276.23 271.614 1277.17 267.031C1277.64 264.511 1273.64 263.365 1273.17 265.886C1272.23 270.469 1271.29 275.052 1269.88 279.635C1268.46 283.988 1266.35 288.342 1265.17 292.696C1264.46 295.217 1268.46 296.362 1269.17 293.842Z" fill="#56CCF2"/>
<path d="M1280.7 266.344C1281.17 274.823 1278.34 283.989 1276.93 292.467C1276.46 294.988 1280.46 296.133 1280.93 293.613C1282.58 284.905 1285.4 275.281 1284.93 266.344C1284.7 263.824 1280.46 263.824 1280.7 266.344Z" fill="#56CCF2"/>
<path d="M1285.87 267.031C1287.52 275.968 1287.99 285.822 1292.46 293.842C1293.64 296.133 1297.4 294.071 1295.99 291.779C1291.75 284.218 1291.28 274.135 1289.87 265.886C1289.4 263.594 1285.4 264.511 1285.87 267.031Z" fill="#56CCF2"/>
<path d="M1292.93 265.886C1295.28 275.739 1298.81 285.134 1303.52 294.071C1304.69 296.362 1308.46 294.3 1307.05 292.008C1302.58 283.301 1299.05 274.364 1296.93 264.969C1296.46 262.219 1292.46 263.365 1292.93 265.886Z" fill="#56CCF2"/>
<path d="M1273.88 266.573C1281.87 266.573 1289.87 266.573 1297.87 266.573C1300.46 266.573 1300.46 262.449 1297.87 262.449C1289.87 262.449 1281.87 262.449 1273.88 262.449C1271.05 262.449 1271.05 266.573 1273.88 266.573Z" fill="#56CCF2"/>
<path d="M1273.17 274.823C1281.64 274.823 1290.11 274.823 1298.81 274.823C1301.4 274.823 1301.4 270.698 1298.81 270.698C1290.34 270.698 1281.87 270.698 1273.17 270.698C1270.58 270.927 1270.58 274.823 1273.17 274.823Z" fill="#56CCF2"/>
<path d="M1277.64 262.219C1280.93 235.18 1282.11 208.14 1284.93 181.101C1285.17 178.58 1280.93 178.58 1280.7 181.101C1277.87 208.14 1276.7 235.18 1273.4 262.219C1273.17 264.74 1277.4 264.74 1277.64 262.219Z" fill="#56CCF2"/>
<path d="M1268.93 315.611C1269.4 313.32 1271.52 311.028 1272.7 308.966C1274.11 306.904 1275.29 304.612 1276.7 302.55C1278.11 300.258 1274.58 298.196 1273.17 300.487C1271.76 303.008 1270.11 305.299 1268.7 307.82C1267.29 309.882 1265.64 312.174 1265.17 314.465C1264.23 317.215 1268.46 318.361 1268.93 315.611Z" fill="#56CCF2"/>
<path d="M1295.05 303.008C1297.64 307.132 1300.22 311.257 1302.81 315.153C1304.22 317.444 1307.75 315.382 1306.34 313.09C1303.75 308.966 1301.16 304.841 1298.58 300.946C1297.16 298.883 1293.64 300.716 1295.05 303.008Z" fill="#56CCF2"/>
<path d="M1285.4 264.74C1285.87 257.636 1286.34 250.304 1287.05 243.2C1285.64 243.2 1284.23 243.2 1282.81 243.2C1283.76 250.762 1283.99 258.324 1284.23 265.886C1284.23 268.407 1288.46 268.407 1288.46 265.886C1288.46 258.324 1287.99 250.762 1287.05 243.2C1286.81 240.679 1283.05 240.679 1282.81 243.2C1282.11 250.304 1281.64 257.636 1281.17 264.74C1281.17 267.261 1285.4 267.261 1285.4 264.74Z" fill="#56CCF2"/>
<path d="M1284.7 181.101C1287.52 208.14 1289.4 235.18 1291.75 262.448C1291.99 264.969 1296.22 264.969 1295.99 262.448C1293.64 235.409 1291.75 208.14 1288.93 181.101C1288.7 178.58 1284.46 178.58 1284.7 181.101Z" fill="#56CCF2"/>
<path d="M1280.46 182.247C1283.28 182.247 1286.11 182.247 1288.93 182.247C1291.52 182.247 1291.52 178.122 1288.93 178.122C1286.11 178.122 1283.28 178.122 1280.46 178.122C1277.64 178.351 1277.64 182.247 1280.46 182.247Z" fill="#56CCF2"/>
<path d="M1279.99 176.747C1282.58 176.747 1285.17 176.747 1287.99 176.747C1287.99 175.372 1287.99 173.997 1287.99 172.622C1287.75 172.622 1287.75 172.622 1287.52 172.622C1284.93 172.622 1284.93 176.747 1287.52 176.747C1287.75 176.747 1287.75 176.747 1287.99 176.747C1290.58 176.747 1290.58 172.622 1287.99 172.622C1285.4 172.622 1282.81 172.622 1279.99 172.622C1277.4 172.622 1277.4 176.747 1279.99 176.747Z" fill="#56CCF2"/>
<path d="M1279.29 175.143C1279.29 176.976 1279.29 178.58 1279.29 180.414C1279.29 182.934 1283.52 182.934 1283.52 180.414C1283.52 178.58 1283.52 176.976 1283.52 175.143C1283.52 172.623 1279.29 172.623 1279.29 175.143Z" fill="#56CCF2"/>
<path d="M1285.4 174.914C1285.4 176.289 1285.4 177.664 1285.4 179.038C1285.4 181.559 1289.64 181.559 1289.64 179.038C1289.64 177.664 1289.64 176.289 1289.64 174.914C1289.64 172.393 1285.4 172.393 1285.4 174.914Z" fill="#56CCF2"/>
<path d="M1282.11 158.874C1282.11 163.686 1282.11 168.498 1282.11 173.31C1282.11 175.831 1286.34 175.831 1286.34 173.31C1286.34 168.498 1286.34 163.686 1286.34 158.874C1286.34 156.124 1282.11 156.124 1282.11 158.874Z" fill="#56CCF2"/>
<path d="M1281.64 173.997C1283.29 173.997 1284.93 173.997 1286.58 173.997C1289.17 173.997 1289.17 169.873 1286.58 169.873C1284.93 169.873 1283.29 169.873 1281.64 169.873C1279.05 170.102 1279.05 173.997 1281.64 173.997Z" fill="#56CCF2"/>
<path d="M1247.29 332.11C1252.94 332.11 1258.35 332.11 1263.99 332.11C1266.58 332.11 1266.58 327.985 1263.99 327.985C1258.35 327.985 1252.94 327.985 1247.29 327.985C1244.7 327.985 1244.7 332.11 1247.29 332.11Z" fill="#56CCF2"/>
<path d="M1310.81 331.422C1315.51 331.422 1320.46 331.422 1325.16 331.422C1327.75 331.422 1327.75 327.297 1325.16 327.297C1320.46 327.297 1315.51 327.297 1310.81 327.297C1308.22 327.297 1308.22 331.422 1310.81 331.422Z" fill="#56CCF2"/>
<path d="M187.697 29.6543C187.697 36.0705 187.697 42.4866 187.697 48.9028C187.697 52.34 193.108 52.34 193.108 48.9028C193.108 42.4866 193.108 36.0705 193.108 29.6543C193.108 26.4463 187.697 26.4463 187.697 29.6543Z" fill="#56CCF2"/>
<path d="M184.404 51.8816C184.404 59.6727 184.404 67.4637 184.404 75.4839C184.404 78.9211 189.815 78.9211 189.815 75.4839C189.815 67.6928 189.815 59.9018 189.815 51.8816C189.815 48.4444 184.404 48.4444 184.404 51.8816Z" fill="#56CCF2"/>
<path d="M192.638 50.9654C192.638 59.2146 192.638 67.4639 192.638 75.9424C192.638 79.3796 198.049 79.3796 198.049 75.9424C198.049 67.6931 198.049 59.4438 198.049 50.9654C198.049 47.5282 192.638 47.5282 192.638 50.9654Z" fill="#56CCF2"/>
<path d="M193.579 74.5672C192.873 77.7753 194.755 80.296 196.637 83.0458C198.519 85.7956 200.872 88.3162 203.224 90.6078C205.577 92.8993 209.576 89.2329 206.988 86.9413C205.342 85.3373 203.695 83.5041 202.048 81.4417C201.107 80.296 198.284 77.317 198.755 75.9421C199.46 72.5048 194.285 71.1299 193.579 74.5672Z" fill="#56CCF2"/>
<path d="M183.698 74.7964C182.051 79.6084 178.993 83.9622 174.758 86.9411C171.935 89.0034 174.758 93.5864 177.581 91.5241C182.992 87.6286 186.756 82.3582 188.873 76.1712C189.814 72.9632 184.639 71.5883 183.698 74.7964Z" fill="#56CCF2"/>
<path d="M169.818 92.4409C183.463 92.4409 196.872 92.4409 210.517 92.4409C214.046 92.4409 214.046 87.1702 210.517 87.1702C196.872 87.1702 183.463 87.1702 169.818 87.1702C166.289 87.3993 166.289 92.4409 169.818 92.4409Z" fill="#56CCF2"/>
<path d="M166.289 90.6075C166.289 94.7322 166.289 98.6277 166.289 102.752C166.289 106.19 171.7 106.19 171.7 102.752C171.7 98.6277 171.7 94.7322 171.7 90.6075C171.7 87.1702 166.289 87.1702 166.289 90.6075Z" fill="#56CCF2"/>
<path d="M209.105 90.6075C209.105 95.1905 209.105 99.7736 209.105 104.357C209.105 107.794 214.516 107.794 214.516 104.357C214.516 99.7736 214.516 95.1905 214.516 90.6075C214.516 87.1702 209.105 87.1702 209.105 90.6075Z" fill="#56CCF2"/>
<path d="M160.878 105.044C160.878 113.293 160.878 121.313 160.878 129.563C160.878 133 166.289 133 166.289 129.563C166.289 121.313 166.289 113.293 166.289 105.044C166.289 101.607 160.878 101.607 160.878 105.044Z" fill="#56CCF2"/>
<path d="M163.937 107.335C169.347 107.335 174.758 107.335 180.169 107.335C183.698 107.335 183.698 102.065 180.169 102.065C179.934 102.065 179.463 102.065 179.228 102.065C175.699 102.065 175.699 107.335 179.228 107.335C179.463 107.335 179.934 107.335 180.169 107.335C183.698 107.335 183.698 102.065 180.169 102.065C174.758 102.065 169.347 102.065 163.937 102.065C160.408 102.065 160.408 107.335 163.937 107.335Z" fill="#56CCF2"/>
<path d="M176.405 105.961C176.405 113.523 176.405 121.314 176.405 128.875C176.405 132.313 181.816 132.313 181.816 128.875C181.816 121.314 181.816 113.523 181.816 105.961C181.816 102.753 176.405 102.753 176.405 105.961Z" fill="#56CCF2"/>
<path d="M199.46 106.419C199.46 113.293 199.46 120.397 199.46 127.271C199.46 130.709 204.871 130.709 204.871 127.271C204.871 120.397 204.871 113.293 204.871 106.419C204.871 102.982 199.46 102.982 199.46 106.419Z" fill="#56CCF2"/>
<path d="M202.989 108.023C207.459 108.023 211.929 108.023 216.398 108.023C219.927 108.023 219.927 102.753 216.398 102.753C211.929 102.753 207.459 102.753 202.989 102.753C199.46 102.753 199.46 108.023 202.989 108.023Z" fill="#56CCF2"/>
<path d="M215.457 105.502C215.457 112.606 215.457 119.939 215.457 127.042C215.457 130.479 220.868 130.479 220.868 127.042C220.868 119.939 220.868 112.606 220.868 105.502C220.868 102.065 215.457 102.065 215.457 105.502Z" fill="#56CCF2"/>
<path d="M162.055 133.917C168.877 133.917 175.464 133.917 182.287 133.917C185.815 133.917 185.815 128.646 182.287 128.646C175.464 128.646 168.877 128.646 162.055 128.646C158.526 128.646 158.526 133.917 162.055 133.917Z" fill="#56CCF2"/>
<path d="M158.291 132.313C158.291 183.184 158.291 233.825 158.291 284.696C158.291 288.133 163.701 288.133 163.701 284.696C163.701 233.825 163.701 183.184 163.701 132.313C163.701 128.876 158.291 128.876 158.291 132.313Z" fill="#56CCF2"/>
<path d="M200.872 133.458C206.988 133.458 213.34 133.458 219.457 133.458C222.986 133.458 222.986 128.188 219.457 128.188C213.34 128.188 206.988 128.188 200.872 128.188C197.343 128.188 197.343 133.458 200.872 133.458Z" fill="#56CCF2"/>
<path d="M197.107 132.771C197.107 174.705 197.107 216.639 197.107 258.573C197.107 262.01 202.518 262.01 202.518 258.573C202.518 216.639 202.518 174.705 202.518 132.771C202.518 129.334 197.107 129.334 197.107 132.771Z" fill="#56CCF2"/>
<path d="M179.463 132.313C179.463 175.164 179.463 217.785 179.463 260.636C179.463 264.073 184.874 264.073 184.874 260.636C184.874 217.785 184.874 175.164 184.874 132.313C184.874 128.876 179.463 128.876 179.463 132.313Z" fill="#56CCF2"/>
<path d="M182.051 263.615C187.933 263.615 193.814 263.615 199.695 263.615C203.224 263.615 203.224 258.344 199.695 258.344C193.814 258.344 187.933 258.344 182.051 258.344C178.758 258.344 178.758 263.615 182.051 263.615Z" fill="#56CCF2"/>
<path d="M217.81 130.938C217.81 181.58 217.81 232.221 217.81 282.863C217.81 286.3 223.22 286.3 223.22 282.863C223.22 232.221 223.22 181.58 223.22 130.938C223.22 127.501 217.81 127.501 217.81 130.938Z" fill="#56CCF2"/>
<path d="M161.114 287.446C166.289 287.446 171.23 287.446 176.405 287.446C179.934 287.446 179.934 282.176 176.405 282.176C171.23 282.176 166.289 282.176 161.114 282.176C157.82 282.176 157.82 287.446 161.114 287.446Z" fill="#56CCF2"/>
<path d="M180.404 284.925C180.404 280.113 180.404 275.301 180.404 270.26C180.404 266.823 174.994 266.823 174.994 270.26C174.994 275.072 174.994 279.884 174.994 284.925C174.994 288.133 180.404 288.133 180.404 284.925Z" fill="#56CCF2"/>
<path d="M177.346 273.01C186.521 273.01 195.696 273.01 204.636 273.01C208.165 273.01 208.165 267.739 204.636 267.739C195.461 267.739 186.286 267.739 177.346 267.739C173.818 267.739 173.818 273.01 177.346 273.01Z" fill="#56CCF2"/>
<path d="M202.048 270.26C202.048 275.072 202.048 279.884 202.048 284.926C202.048 288.363 207.459 288.363 207.459 284.926C207.459 280.113 207.459 275.301 207.459 270.26C207.223 266.823 202.048 266.823 202.048 270.26Z" fill="#56CCF2"/>
<path d="M205.106 287.446C210.046 287.446 214.987 287.446 219.927 287.446C223.456 287.446 223.456 282.176 219.927 282.176C214.987 282.176 210.046 282.176 205.106 282.176C201.577 282.176 201.577 287.446 205.106 287.446Z" fill="#56CCF2"/>
<path d="M151.939 274.155C154.527 274.155 156.879 274.155 159.467 274.155C162.996 274.155 162.996 268.885 159.467 268.885C156.879 268.885 154.527 268.885 151.939 268.885C148.645 268.885 148.645 274.155 151.939 274.155Z" fill="#56CCF2"/>
<path d="M148.41 271.406C148.41 280.113 148.41 288.821 148.41 297.529C148.41 300.966 153.82 300.966 153.82 297.529C153.82 288.821 153.82 280.113 153.82 271.406C153.82 268.197 148.41 268.197 148.41 271.406Z" fill="#56CCF2"/>
<path d="M142.764 302.341C145.587 302.341 148.41 302.341 151.233 302.341C154.762 302.341 154.762 297.07 151.233 297.07C148.41 297.07 145.587 297.07 142.764 297.07C139.235 297.07 139.235 302.341 142.764 302.341Z" fill="#56CCF2"/>
<path d="M138.765 300.278C138.765 313.34 138.765 326.63 138.765 339.692C138.765 343.129 144.176 343.129 144.176 339.692C144.176 326.63 144.176 313.34 144.176 300.278C144.176 296.841 138.765 296.841 138.765 300.278Z" fill="#56CCF2"/>
<path d="M223.221 274.155C225.103 274.155 226.985 274.155 228.867 274.155C232.396 274.155 232.396 268.885 228.867 268.885C226.985 268.885 225.103 268.885 223.221 268.885C219.927 268.885 219.927 274.155 223.221 274.155Z" fill="#56CCF2"/>
<path d="M226.279 271.406C226.279 281.488 226.279 291.342 226.279 301.424C226.279 304.862 231.69 304.862 231.69 301.424C231.69 291.342 231.69 281.488 231.69 271.406C231.69 268.197 226.279 268.197 226.279 271.406Z" fill="#56CCF2"/>
<path d="M229.337 304.403C232.866 304.403 236.395 304.403 239.924 304.403C243.453 304.403 243.453 299.133 239.924 299.133C236.395 299.133 232.866 299.133 229.337 299.133C226.044 299.362 226.044 304.403 229.337 304.403Z" fill="#56CCF2"/>
<path d="M237.336 301.424C237.336 314.944 237.336 328.234 237.336 341.754C237.336 345.191 242.747 345.191 242.747 341.754C242.747 328.234 242.747 314.944 242.747 301.424C242.747 297.987 237.336 297.987 237.336 301.424Z" fill="#56CCF2"/>
<path d="M175.935 292.717C175.935 306.695 174.994 320.673 174.994 334.651C174.994 338.088 180.404 338.088 180.404 334.651C180.404 320.673 181.345 306.695 181.345 292.717C181.345 289.28 175.935 289.28 175.935 292.717Z" fill="#56CCF2"/>
<path d="M202.283 292.945C202.283 306.923 202.283 320.902 202.283 334.88C202.283 338.317 207.694 338.317 207.694 334.88C207.694 320.902 207.694 306.923 207.694 292.945C207.694 289.737 202.283 289.737 202.283 292.945Z" fill="#56CCF2"/>
<path d="M184.168 281.259C184.168 299.133 184.168 316.777 184.168 334.651C184.168 338.088 189.579 338.088 189.579 334.651C189.579 316.777 189.579 299.133 189.579 281.259C189.579 277.822 184.168 277.822 184.168 281.259Z" fill="#56CCF2"/>
<path d="M193.579 281.259C193.579 299.133 192.638 316.777 192.402 334.651C192.402 338.088 197.813 338.088 197.813 334.651C197.813 316.777 198.754 299.133 198.989 281.259C198.989 277.822 193.579 277.822 193.579 281.259Z" fill="#56CCF2"/>
<path d="M140.647 345.191C173.347 345.191 206.047 345.191 238.983 345.191C242.512 345.191 242.512 339.921 238.983 339.921C206.282 339.921 173.582 339.921 140.647 339.921C137.118 339.921 137.118 345.191 140.647 345.191Z" fill="#56CCF2"/>
<path d="M164.643 296.612C164.643 309.444 164.643 322.277 164.643 334.88C164.643 338.317 170.053 338.317 170.053 334.88C170.053 322.047 170.053 309.215 170.053 296.612C170.053 293.404 164.643 293.404 164.643 296.612Z" fill="#56CCF2"/>
<path d="M154.056 308.299C154.056 317.235 154.056 326.172 154.056 335.109C154.056 338.546 159.467 338.546 159.467 335.109C159.467 326.172 159.467 317.235 159.467 308.299C159.232 304.861 154.056 304.861 154.056 308.299Z" fill="#56CCF2"/>
<path d="M214.281 297.987C214.281 310.361 214.281 322.735 214.281 334.88C214.281 338.317 219.692 338.317 219.692 334.88C219.692 322.506 219.692 310.132 219.692 297.987C219.692 294.779 214.281 294.55 214.281 297.987Z" fill="#56CCF2"/>
<path d="M223.926 310.819C223.926 318.839 223.926 326.859 223.926 334.88C223.926 338.317 229.337 338.317 229.337 334.88C229.337 326.859 229.337 318.839 229.337 310.819C229.337 307.611 223.926 307.611 223.926 310.819Z" fill="#56CCF2"/>
<path d="M156.897 316.902C90.2308 294.129 51.7692 284.313 1 283.92V717H1481V269C1407.67 270.178 1362.54 289.025 1283.56 316.902C1204.59 344.779 944.59 424.485 726.641 421.344C508.692 418.202 207.69 334.252 156.897 316.902Z" fill="#0065ED"/>
<path d="M426.873 397.549C292.722 440.727 101.074 459.073 1 459.571V717H1481V459.571C1357.41 449.11 1190.56 444.252 1058.22 397.549C925.871 350.845 838.843 343 750.269 343C661.696 343 583.422 347.163 426.873 397.549Z" fill="#004CB3" fill-opacity="0.6"/>
</svg>
