<svg width="26" height="28" viewBox="0 0 26 28" fill="none" xmlns="http://www.w3.org/2000/svg">
<path fill-rule="evenodd" clip-rule="evenodd" d="M12.9602 0.727966C5.80428 0.727966 0 6.75722 0 14.1905C0 20.1372 3.737 25.1753 8.82569 26.9924C9.46177 27.075 9.7003 26.662 9.7003 26.3316C9.7003 26.0013 9.7003 25.1753 9.7003 24.019C6.12232 24.845 5.32722 22.202 5.32722 22.202C4.77064 20.6327 3.89602 20.2198 3.89602 20.2198C2.70336 19.3939 3.97553 19.3939 3.97553 19.3939C5.24771 19.4765 5.9633 20.7979 5.9633 20.7979C7.15596 22.8627 8.98471 22.2846 9.7003 21.9542C9.77982 21.0457 10.1774 20.4676 10.4954 20.1372C7.63303 19.8068 4.61162 18.6505 4.61162 13.4472C4.61162 11.9605 5.08869 10.8042 5.9633 9.81314C5.88379 9.56536 5.40673 8.16129 6.12232 6.34425C6.12232 6.34425 7.23547 6.01388 9.7003 7.74833C10.7339 7.41796 11.8471 7.33536 12.9602 7.33536C14.0734 7.33536 15.1865 7.50055 16.2202 7.74833C18.685 6.01388 19.7982 6.34425 19.7982 6.34425C20.5138 8.16129 20.0367 9.56536 19.9572 9.89573C20.7523 10.8042 21.3089 12.0431 21.3089 13.5298C21.3089 18.7331 18.2875 19.8068 15.4251 20.1372C15.9021 20.5502 16.2997 21.3761 16.2997 22.615C16.2997 24.432 16.2997 25.8361 16.2997 26.3316C16.2997 26.662 16.5382 27.075 17.1743 26.9924C22.3425 25.1753 26 20.1372 26 14.1905C25.9205 6.75722 20.1162 0.727966 12.9602 0.727966Z" fill="white"/>
</svg>
