<svg xmlns="http://www.w3.org/2000/svg" width="1363" height="634" fill="none" viewBox="0 0 1363 634"><path fill="#56CCF2" fill-opacity=".5" d="M816.258 212.995L778.732 186L751 222.53L788.527 249.525L816.258 212.995Z"/><path fill="#56CCF2" fill-opacity=".5" d="M1114.24 392.747L1100.65 341.991L1065 351.039L1078.6 401.794L1114.24 392.747Z"/><path fill="#56CCF2" fill-opacity=".5" d="M54.6457 598.302C51.1785 605.193 47.8557 612.084 44.3885 618.975C42.6549 622.35 40.9213 625.865 39.1877 629.241C38.1764 631.35 36.5872 635.991 34.2758 631.913C32.8311 629.381 30.2307 627.412 28.2081 625.162C25.8966 622.912 23.7296 620.521 21.5626 618.131C17.3731 613.49 13.328 608.568 9.42735 603.646C9.13842 603.224 4.94886 598.02 6.24907 597.739C7.83821 597.458 9.57182 597.458 11.3054 597.317C13.1835 597.177 15.0616 596.895 16.9397 596.755C20.6958 596.333 24.3075 596.052 28.0637 595.63C35.4315 594.927 42.9438 594.223 50.3117 593.38C51.034 593.239 51.7563 593.239 52.4787 593.098C53.0565 593.098 53.6344 592.958 54.2123 593.239C55.9459 594.364 55.5125 596.755 54.6457 598.302Z"/><path fill="#56CCF2" fill-opacity=".5" d="M28.6735 455.942C24.5052 450.025 20.2835 444.17 16.1152 438.253C14.0867 435.34 11.9469 432.336 9.9184 429.423C8.62386 427.633 5.54085 423.97 9.62116 425.59C12.1574 426.591 14.6761 426.734 17.2036 427.305C19.838 427.753 22.5301 428.352 25.2222 428.952C30.4419 430.124 35.8305 431.538 41.1658 433.014C41.6063 433.161 47.2708 434.693 47.0126 435.434C46.6475 436.3 46.0065 437.048 45.4767 437.885C44.8935 438.785 44.4216 439.776 43.8384 440.676C42.7833 442.566 41.6704 444.304 40.6153 446.194C38.4473 449.823 36.2258 453.513 34.169 457.232C34.0132 457.634 33.7461 457.945 33.5903 458.347C33.3766 458.596 33.2742 458.935 32.8381 459.004C31.3072 459.03 29.5766 457.309 28.6735 455.942Z"/><path fill="#56CCF2" fill-opacity=".5" d="M828.23 0.415771C826.063 19.1197 823.896 37.8237 821.729 56.5276C815.083 51.7462 808.149 47.1053 801.503 42.3239C794.858 37.5424 787.49 32.7609 782 26.8544C785.467 25.4481 788.79 22.7761 792.113 20.9479C796.158 18.6978 800.203 16.4477 804.248 14.057C808.293 11.8069 812.338 9.55678 816.383 7.16605C818.406 6.041 820.573 4.77532 822.595 3.65027C823.173 3.22838 828.085 1.11893 828.23 0.415771Z"/><path fill="#56CCF2" fill-opacity=".5" d="M1214 81C1191.77 88.8295 1169.54 96.6589 1147.31 104.488C1150.94 97.7074 1154.33 90.8043 1157.97 84.0233C1161.6 77.2423 1165.03 69.9818 1170.29 63.4106C1172.9 65.0155 1176.93 65.8974 1179.99 67.1973C1183.74 68.7678 1187.5 70.3382 1191.41 71.8389C1195.16 73.4094 1198.91 74.9798 1202.83 76.4805C1204.7 77.2657 1206.78 78.0772 1208.66 78.8624C1209.31 79.037 1213.15 81.2525 1214 81Z"/><path fill="#56CCF2" fill-opacity=".5" d="M524.726 100.007C512.385 79.8467 500.044 59.6862 487.704 39.5257C497.175 39.8726 506.792 39.8859 516.263 40.2328C525.734 40.5797 535.839 40.4444 545.152 42.6886C543.181 46.4106 542.301 51.3024 540.778 55.3501C538.942 60.3022 537.107 65.2542 535.378 70.347C533.543 75.2991 531.707 80.2512 529.979 85.3439C529.061 87.82 528.124 90.5331 527.206 93.0092C527.02 93.8171 524.317 99.2072 524.726 100.007Z"/><path fill="#56CCF2" fill-opacity=".5" d="M1293.09 180.448L1248 191.003L1255.77 222.452L1300.86 211.897L1293.09 180.448Z"/><path fill="#fff" fill-opacity=".2" d="M1135.82 282.075C1142.58 282.075 1152.4 283.88 1158.18 279.527C1163.85 275.174 1165.05 267.742 1165.59 261.159C1166.25 252.878 1166.68 243.004 1164.94 234.829C1163.63 228.99 1159.27 226.336 1153.71 224.743C1150.98 223.894 1148.03 223.681 1146.51 221.027C1145.74 219.753 1145.63 218.373 1144.87 217.099C1143.56 214.975 1141.49 213.489 1139.2 212.64C1133.64 210.41 1125.78 210.41 1119.9 210.835C1113.46 211.259 1108.12 213.914 1105.06 219.541C1103.43 222.62 1102.55 225.911 1101.46 229.202C1100.05 233.555 1098.41 237.696 1097.86 242.367C1097.43 245.765 1102.88 245.765 1103.32 242.367C1103.97 236.422 1106.48 230.052 1108.66 224.425C1111.61 217.205 1117.28 215.931 1124.48 216.143C1128.73 216.249 1134.84 215.719 1138.55 218.267C1142.14 220.815 1141.6 225.805 1145.96 228.034C1151.09 230.582 1157.96 229.627 1159.49 236.316C1160.8 242.049 1160.58 249.375 1160.36 255.214C1160.25 261.266 1160.14 269.122 1156 273.9C1151.74 278.784 1141.6 276.873 1135.6 276.873C1132.33 276.766 1132.33 282.075 1135.82 282.075Z"/><path fill="#fff" fill-opacity=".2" d="M1093.06 218.267C1091.32 218.798 1089.68 219.435 1089.25 221.346C1088.92 222.726 1088.7 225.168 1089.68 226.442C1090.99 228.14 1094.48 228.034 1096.45 228.14C1099.28 228.353 1102.34 228.14 1104.95 227.079C1108.23 225.699 1110.95 220.921 1107.13 218.585C1103.21 216.249 1097.21 216.993 1093.06 218.267C1089.68 219.328 1091.1 224.425 1094.48 223.363C1096.45 222.726 1098.52 222.407 1100.59 222.513C1101.14 222.513 1103.86 222.513 1104.08 222.726C1103.97 222.089 1103.86 221.346 1103.75 220.709C1103.43 222.62 1101.46 222.726 1099.72 222.938C1098.08 223.044 1094.7 223.257 1093.17 222.62C1093.61 223.15 1094.05 223.681 1094.37 224.212C1094.26 223.575 1094.48 222.513 1094.59 221.77C1094.37 222.407 1094.05 223.044 1093.83 223.681C1094.05 223.575 1094.26 223.469 1094.48 223.469C1097.86 222.407 1096.45 217.311 1093.06 218.267Z"/><path fill="#fff" fill-opacity=".2" d="M1135.71 278.996C1141.38 264.238 1135.16 246.083 1118.59 241.518C1104.52 237.59 1088.37 242.155 1081.94 255.851C1075.51 269.759 1080.96 286.746 1095.14 293.329C1110.08 300.23 1128.4 294.603 1135.38 279.739C1136.8 276.66 1132.11 273.9 1130.69 277.085C1124.8 289.613 1109.64 294.709 1096.99 288.445C1085.76 282.924 1081.72 269.122 1086.96 257.974C1091.97 247.357 1104.52 243.641 1115.53 246.296C1130.15 249.799 1135.38 264.663 1130.37 277.722C1129.27 280.801 1134.51 282.181 1135.71 278.996Z"/><path fill="#fff" fill-opacity=".2" d="M1092.52 250.649C1096.12 247.57 1100.26 245.128 1104.41 242.686C1107.46 240.881 1110.73 238.12 1114.33 237.377C1122.73 235.572 1132.66 238.758 1137.78 245.446C1143.34 252.772 1144.11 260.629 1142.25 269.228C1142.04 269.547 1141.93 269.972 1142.04 270.29C1143.13 268.379 1142.91 268.273 1141.49 269.865C1140.07 270.821 1138.76 272.626 1137.56 273.794C1134.07 277.191 1130.69 280.695 1126.66 283.455C1123.82 285.366 1126.55 290.038 1129.38 288.021C1134.07 284.835 1138 280.801 1142.04 276.873C1144.43 274.537 1146.94 272.52 1148.03 269.441C1151.09 259.992 1147.6 248.844 1141.38 241.306C1135.16 233.661 1124.69 231.007 1115.1 232.069C1110.41 232.493 1107.24 234.935 1103.32 237.271C1098.3 240.244 1093.28 243.323 1088.81 247.039C1085.98 249.162 1089.9 252.878 1092.52 250.649Z"/><path fill="#fff" fill-opacity=".2" d="M1083.47 276.66C1079.76 277.722 1076.05 277.616 1074.52 273.688C1073.65 271.564 1073.98 269.122 1073.98 266.893C1073.87 261.584 1073.76 256.382 1073.87 251.073C1073.98 246.083 1073.87 240.35 1075.94 235.679C1078.12 230.689 1083.14 228.459 1088.37 227.503C1089.57 227.291 1090.34 226.017 1090.34 224.955C1090.45 223.469 1090.34 223.363 1090.23 224.637C1090.77 224.637 1091.43 224.637 1091.97 224.743C1095.46 225.062 1095.46 219.753 1091.97 219.434C1087.18 218.904 1084.88 220.284 1084.88 225.062C1085.54 224.212 1086.19 223.363 1086.85 222.513C1080.74 223.575 1074.63 226.548 1071.58 231.963C1067.87 238.545 1068.42 247.57 1068.31 254.895C1068.2 261.584 1067.11 270.502 1069.83 276.873C1072.56 283.349 1078.78 283.561 1084.99 281.863C1088.27 280.801 1086.85 275.705 1083.47 276.66Z"/><path fill="#fff" fill-opacity=".2" d="M1078.45 231.113C1080.74 230.901 1083.03 230.689 1085.32 230.795C1086.3 230.795 1087.94 231.007 1086.85 232.387C1086.3 233.13 1084.01 233.024 1083.25 233.13C1078.99 233.237 1075.4 232.387 1071.36 234.192C1068.2 235.572 1070.92 240.138 1074.09 238.758C1077.8 237.059 1082.16 238.97 1086.08 238.227C1089.14 237.696 1092.19 235.891 1093.06 232.812C1095.35 224.637 1083.25 225.38 1078.45 225.805C1074.96 226.229 1074.96 231.538 1078.45 231.113Z"/><path fill="#fff" fill-opacity=".2" d="M1081.29 235.042C1082.92 236.103 1085.32 235.679 1086.74 234.511C1088.59 233.024 1088.37 230.052 1086.3 228.778C1084.88 227.928 1083.03 228.14 1081.61 228.99C1079.54 230.264 1078.99 232.812 1080.74 234.511C1081.72 235.466 1083.58 235.572 1084.56 234.511C1085.54 233.449 1085.65 231.856 1084.56 230.795C1084.99 231.219 1085.1 232.069 1084.99 232.6C1084.88 232.812 1084.78 233.024 1084.67 233.237C1084.45 233.449 1084.45 233.449 1084.56 233.343C1084.78 233.131 1084.01 233.661 1084.34 233.555C1084.45 233.555 1084.45 233.449 1084.56 233.449C1084.78 233.237 1083.9 233.661 1084.34 233.555C1084.45 233.555 1084.45 233.555 1084.56 233.449C1084.88 233.343 1084.12 233.449 1084.12 233.449C1084.56 233.449 1083.79 233.343 1083.58 233.343C1082.7 233.024 1082.27 231.856 1082.59 231.007C1082.59 230.901 1082.7 230.795 1082.81 230.689C1083.03 230.476 1083.03 230.476 1082.81 230.582C1082.81 230.582 1083.36 230.158 1083.03 230.37C1083.14 230.37 1083.68 230.158 1083.25 230.264C1083.36 230.264 1083.9 230.264 1083.58 230.264C1083.47 230.264 1083.03 230.158 1083.47 230.264C1083.58 230.264 1084.23 230.582 1083.9 230.37C1082.7 229.627 1080.85 230.158 1080.19 231.326C1079.54 232.812 1079.98 234.192 1081.29 235.042Z"/><path fill="#fff" fill-opacity=".2" d="M1119.46 272.626C1121.86 267.636 1120.88 261.266 1115.75 258.187C1110.51 255.108 1103.64 257.019 1101.03 262.433C1098.84 267.105 1100.26 273.475 1104.95 276.129C1109.97 278.996 1116.4 277.403 1119.46 272.626C1121.31 269.653 1116.62 266.999 1114.77 269.972C1111.5 275.174 1103.97 270.715 1105.72 265.3C1107.9 258.611 1117.82 263.495 1114.77 269.972C1113.24 273.05 1117.93 275.705 1119.46 272.626Z"/><path fill="#fff" fill-opacity=".2" d="M1148.91 255.426C1148.8 255.108 1148.69 254.789 1148.58 254.471C1146.83 255.108 1146.51 255.532 1147.6 255.851C1147.82 256.169 1148.14 256.382 1148.25 256.913C1148.47 257.443 1148.69 260.522 1147.6 260.204C1148.14 260.629 1148.69 261.053 1149.23 261.372C1149.02 260.947 1149.12 259.355 1149.12 258.824C1149.02 257.762 1149.02 256.7 1148.91 255.745C1148.69 252.347 1143.24 252.347 1143.45 255.745C1143.56 257.974 1143.56 260.204 1144 262.327C1144.33 264.026 1145.31 265.3 1147.05 265.512C1151.31 266.043 1153.92 262.009 1153.92 258.293C1153.92 254.789 1152.18 251.604 1148.58 250.542C1147.05 250.118 1145.31 250.542 1144.22 251.71C1142.91 253.197 1143.02 255.108 1143.67 256.806C1144.76 259.992 1150 258.611 1148.91 255.426Z"/><path fill="#fff" fill-opacity=".2" d="M1126.55 279.102C1131.57 269.228 1129.27 256.382 1119.13 250.436C1109.53 244.809 1096.55 247.782 1090.99 257.337C1085.98 265.937 1087.83 278.89 1096.34 284.942C1106.15 291.843 1120.33 289.082 1126.55 279.102C1128.4 276.129 1123.71 273.475 1121.86 276.448C1117.06 283.986 1105.39 286.003 1098.52 279.739C1093.17 274.962 1092.41 266.043 1095.79 259.992C1099.72 252.878 1109.42 250.861 1116.4 255.002C1123.93 259.461 1125.57 269.122 1121.86 276.448C1120.22 279.527 1125.02 282.181 1126.55 279.102Z"/><path fill="#fff" fill-opacity=".2" d="M1111.72 226.866C1118.04 227.291 1124.48 226.973 1130.8 227.503C1134.07 227.822 1135.49 228.99 1137.24 231.963C1138 233.237 1138.33 235.148 1138.76 236.528C1139.85 240.456 1140.29 244.278 1140.4 248.313C1140.51 251.71 1145.96 251.71 1145.85 248.313C1145.74 243.535 1145.2 238.758 1143.78 234.192C1142.8 230.901 1141.71 226.442 1138.76 224.212C1135.71 221.876 1130.69 222.089 1126.98 221.983C1121.86 221.77 1116.73 221.876 1111.72 221.558C1108.23 221.452 1108.23 226.76 1111.72 226.866Z"/><path fill="#fff" fill-opacity=".2" d="M1149.67 241.836C1149.12 241.943 1148.36 241.943 1147.82 242.155C1147.49 242.261 1147.16 242.261 1146.94 242.367C1147.6 242.58 1148.14 242.898 1148.8 243.11C1149.12 242.686 1148.14 240.032 1148.03 239.501C1147.82 238.227 1147.27 237.802 1148.36 237.271C1149.56 236.634 1151.63 236.634 1152.94 236.528C1153.92 236.422 1154.69 236.209 1155.12 236.953C1155.34 237.377 1155.34 238.439 1155.23 238.97C1155.12 240.138 1154.8 240.669 1153.71 240.987C1152.29 241.306 1150.98 241.518 1149.67 241.836C1146.29 242.58 1147.71 247.676 1151.09 246.933C1153.49 246.402 1156.98 246.189 1158.72 244.278C1160.03 242.792 1160.58 240.456 1160.69 238.545C1160.69 236.528 1160.36 234.192 1158.94 232.706C1157.2 230.901 1154.36 231.007 1151.96 231.219C1149.34 231.432 1146.07 231.75 1144 233.343C1142.14 234.829 1142.04 236.953 1142.47 239.076C1142.8 241.199 1143.02 244.703 1144.44 246.402C1146.07 248.419 1149.02 247.357 1151.2 246.826C1154.47 246.296 1153.05 241.199 1149.67 241.836Z"/><path fill="#fff" fill-opacity=".2" d="M1014.33 124.346C1018.23 110.845 1011.01 96.6417 997.142 92.0008C982.118 86.9381 963.048 93.829 959.003 109.72C955.536 123.08 962.615 139.534 976.339 144.316C992.953 150.082 1008.7 139.253 1014.33 124.346C1015.92 120.127 1008.99 118.299 1007.4 122.518C1003.21 133.487 991.653 141.925 979.373 137.987C968.827 134.612 963.626 121.674 966.082 111.689C972.294 87.0787 1014.77 97.2042 1007.4 122.518C1006.1 126.737 1013.03 128.706 1014.33 124.346Z"/><path fill="#fff" fill-opacity=".2" d="M977.888 88.0437C975.432 81.2354 972.976 74.427 970.664 67.6186C968.497 61.6355 962.285 66.9997 964.452 72.7765C966.908 79.5849 969.364 86.3932 971.675 93.2016C973.698 99.1847 979.91 93.8205 977.888 88.0437Z"/><path fill="#fff" fill-opacity=".2" d="M958.579 113.611C950.2 112.064 941.821 110.235 933.442 108.126C928.963 107.001 927.085 113.751 931.563 114.876C939.798 116.986 948.177 118.814 956.701 120.361C961.179 121.205 963.057 114.454 958.579 113.611Z"/><path fill="#fff" fill-opacity=".2" d="M954.877 138.911C950.687 142.567 946.353 146.223 942.164 149.88C938.696 152.833 943.753 157.896 947.22 154.802C951.409 151.146 955.744 147.489 959.933 143.833C963.545 140.879 958.344 135.957 954.877 138.911Z"/><path fill="#fff" fill-opacity=".2" d="M1009.2 93.4216C1013.25 89.7652 1017.44 86.2494 1021.77 82.8743C1023.36 81.6086 1023.07 79.2179 1021.77 77.9522C1020.33 76.5459 1018.16 76.8271 1016.71 77.9522C1012.38 81.3273 1008.19 84.8431 1004.15 88.4995C1000.68 91.5934 1005.88 96.5155 1009.2 93.4216Z"/><path fill="#fff" fill-opacity=".2" d="M988.226 152.136C990.065 158.212 991.853 164.12 993.692 170.197C995.327 175.599 1002.16 174.514 1000.53 169.113C998.691 163.036 996.903 157.128 995.064 151.051C993.429 145.65 986.591 146.734 988.226 152.136Z"/><path fill="#fff" fill-opacity=".2" d="M1017.16 142.833C1021.06 146.208 1025.11 149.302 1029.3 152.255C1030.89 153.38 1033.34 152.536 1034.21 150.989C1035.22 149.161 1034.5 147.333 1032.91 146.208C1029.15 143.677 1025.69 140.864 1022.22 137.911C1018.75 134.957 1013.7 139.879 1017.16 142.833Z"/><path fill="#fff" fill-opacity=".2" d="M1016.47 118.032C1024.27 118.172 1032.07 118.172 1039.73 118.313C1044.35 118.313 1044.35 111.281 1039.73 111.281C1031.93 111.141 1024.12 111.141 1016.47 111C1011.84 111 1011.84 118.032 1016.47 118.032Z"/><path fill="#fff" fill-opacity=".2" d="M1262.3 330.354C1259.27 323.884 1252.05 320.65 1244.97 321.775C1237.31 323.181 1232.54 329.51 1232.54 336.963C1232.69 346.526 1241.36 353.417 1251.04 351.589C1260.57 349.761 1265.77 339.916 1262.59 331.197C1261.15 326.978 1254.07 328.807 1255.66 333.026C1257.54 338.229 1254.79 344.135 1248.72 344.839C1241.93 345.542 1237.89 338.932 1240.35 333.026C1243.38 326.135 1253.2 327.822 1255.95 333.869C1257.97 337.948 1264.18 334.432 1262.3 330.354Z"/><path fill="#fff" fill-opacity=".2" d="M1247.57 351.167C1253.49 377.606 1260.14 404.044 1265.92 430.483C1266.93 434.843 1273.86 433.014 1272.85 428.655C1266.93 402.216 1260.28 375.777 1254.5 349.339C1253.49 344.839 1246.56 346.667 1247.57 351.167Z"/><path fill="#fff" fill-opacity=".2" d="M1229.22 372.262C1246.85 368.605 1264.47 364.949 1281.95 361.152C1286.43 360.167 1284.55 353.417 1280.07 354.402C1262.45 358.058 1244.82 361.714 1227.34 365.511C1222.72 366.496 1224.6 373.246 1229.22 372.262Z"/><path fill="#fff" fill-opacity=".2" d="M1219.69 400.669C1222.29 411.076 1225.61 422.045 1235.29 428.092C1246.12 434.983 1258.69 430.483 1269.24 437.374C1270.54 438.218 1272.56 437.936 1273.57 436.811C1278.05 431.889 1282.53 428.233 1288.02 424.295C1291.63 421.623 1294.95 418.67 1297.41 414.873C1303.48 405.451 1302.9 393.778 1302.18 383.09C1301.89 378.59 1294.67 378.59 1294.95 383.09C1295.68 393.497 1296.54 405.591 1289.03 414.029C1285.56 417.967 1280.65 420.358 1276.61 423.451C1273.57 425.842 1271.12 428.795 1268.52 431.749C1269.96 431.608 1271.41 431.327 1272.85 431.186C1269.09 428.795 1265.19 426.827 1260.72 425.983C1255.8 425.139 1250.75 426.405 1245.84 424.998C1233.12 421.483 1229.37 409.81 1226.48 398.56C1225.61 394.341 1218.68 396.31 1219.69 400.669Z"/><path fill="#fff" fill-opacity=".2" d="M1293.94 394.2C1296.98 390.825 1299.58 387.309 1302.03 383.653C1300.01 383.653 1297.84 383.653 1295.82 383.653C1297.7 386.747 1299.87 389.7 1302.18 392.513C1303.33 394.06 1305.21 394.763 1307.09 393.778C1308.68 392.934 1309.55 390.403 1308.39 388.997C1306.08 386.184 1304.06 383.231 1302.03 380.137C1300.59 377.887 1297.27 377.887 1295.82 380.137C1293.8 383.372 1291.49 386.465 1288.89 389.278C1285.71 392.653 1290.76 397.575 1293.94 394.2Z"/><path fill="#fff" fill-opacity=".2" d="M1221.28 411.638C1222.58 407.841 1224.02 404.044 1225.47 400.388C1223.73 401.091 1222 401.794 1220.12 402.497C1223.44 403.904 1226.62 405.591 1229.65 407.419C1233.7 409.81 1237.31 403.622 1233.27 401.372C1230.23 399.544 1227.05 397.857 1223.73 396.45C1221.42 395.466 1219.4 396.31 1218.39 398.56C1216.94 402.357 1215.5 406.013 1214.2 409.81C1212.75 414.17 1219.69 415.998 1221.28 411.638Z"/><path fill="#fff" fill-opacity=".2" d="M835.999 358.726C851.168 349.163 866.192 339.6 881.361 330.037C879.917 329.897 878.472 329.615 877.027 329.475C883.962 336.225 891.185 342.554 898.697 348.601C899.853 349.445 901.731 350.148 903.031 349.163C908.088 345.507 913.289 341.85 918.634 338.335C922.968 335.522 930.047 329.053 935.681 330.037C941.46 331.162 948.105 335.522 953.451 337.913C959.085 340.585 964.575 343.257 970.064 346.069C974.11 348.179 977.866 342.132 973.676 340.022C966.597 336.366 959.518 332.991 952.295 329.615C946.95 327.225 940.882 323.146 934.959 322.584C929.614 322.021 924.991 325.818 920.801 328.49C913.578 333.131 906.499 337.913 899.564 342.975C901.009 343.116 902.454 343.397 903.898 343.538C896.386 337.491 889.163 331.162 882.228 324.412C881.072 323.287 879.194 323.006 877.894 323.85C862.725 333.413 847.7 342.975 832.531 352.538C828.486 355.21 832.098 361.258 835.999 358.726Z"/><path fill="#fff" fill-opacity=".2" d="M828.053 357.742C832.387 383.618 837.443 409.213 842.933 434.948C843.366 437.198 846.256 438.183 848.278 437.058C854.635 433.542 860.991 430.026 867.492 426.932C873.56 423.979 883.384 417.229 890.029 419.62C895.808 421.729 901.587 425.667 907.076 428.479C910.833 430.448 914.733 433.401 919.067 431.011C923.69 428.339 927.446 421.87 931.347 418.073C933.081 416.385 934.959 414.416 936.981 412.869C942.038 408.932 945.216 409.775 950.561 412.307C956.051 414.838 961.396 417.791 967.175 419.62C973.387 421.729 979.455 422.713 985.089 426.089C988.989 428.479 992.746 422.432 988.701 420.041C983.211 416.807 977.432 415.26 971.364 413.572C964.141 411.463 957.64 407.666 950.85 404.713C946.083 402.603 941.749 401.056 936.837 403.869C931.202 407.244 926.146 412.869 921.668 417.651C919.501 419.901 917.189 423.838 914.444 423.979C911.41 424.12 906.21 420.041 903.32 418.635C898.264 415.963 892.052 411.182 885.984 411.604C879.772 412.025 872.838 416.526 867.348 419.057C859.547 422.713 851.89 426.792 844.378 431.011C846.111 431.714 847.845 432.417 849.723 433.12C844.233 407.525 839.177 381.79 834.843 355.914C834.265 351.554 827.33 353.382 828.053 357.742Z"/><path fill="#fff" fill-opacity=".2" d="M968.331 344.101C968.764 371.102 981.333 395.993 982.777 422.854C983.066 427.354 990.29 427.354 990.001 422.854C988.556 395.993 975.988 371.102 975.554 344.101C975.554 339.6 968.331 339.6 968.331 344.101Z"/><path fill="#fff" fill-opacity=".2" d="M853.479 341.147C851.312 345.929 851.89 348.882 854.346 353.242C855.502 355.351 858.391 359.148 858.247 361.539C858.825 360.554 859.402 359.57 859.98 358.445C861.136 357.882 854.346 356.898 854.779 357.039C851.601 356.617 849.29 359.289 850.734 362.242C852.324 365.617 854.78 368.43 858.102 370.258C859.402 370.961 860.992 371.524 862.436 371.946C862.436 371.946 867.204 372.508 867.059 372.367C868.504 373.774 867.926 376.586 869.515 378.274C871.393 380.102 873.705 380.102 876.305 379.54C878.906 378.977 881.506 377.571 883.384 375.743C884.54 374.617 885.407 373.211 886.273 371.946C888.44 368.711 889.596 367.586 892.774 365.617C894.364 364.633 895.953 363.367 897.686 362.523C905.343 358.586 900.431 361.82 899.131 363.226C896.531 366.18 897.108 371.664 894.075 373.774C892.63 374.899 891.619 376.868 892.774 378.555C895.086 382.071 898.698 383.759 901.154 387.274C903.032 390.087 904.91 392.337 904.476 396.134C904.332 396.837 900.287 404.15 904.043 402.603C901.298 403.728 897.975 396.415 897.397 395.15C896.675 393.884 896.386 392.9 895.23 392.056C893.352 390.649 891.33 391.493 889.741 389.384C889.018 388.259 888.007 383.055 888.151 382.071C888.729 379.821 887.14 377.571 884.684 377.571C881.073 377.571 875.872 377.711 873.56 380.946C872.838 381.93 872.693 382.915 872.405 384.04C871.538 387.556 871.249 390.509 869.949 394.165C868.504 398.103 868.793 401.056 869.949 405.134C871.249 409.775 875.583 411.885 876.305 416.666C877.027 421.166 883.962 419.198 883.24 414.838C882.951 412.588 882.517 410.197 881.073 408.369C878.761 405.134 875.872 403.728 876.594 399.087C877.027 396.415 878.761 394.306 879.05 391.493C879.194 390.509 879.05 389.384 879.194 388.399C879.917 385.305 880.928 384.743 884.54 384.743C883.384 383.196 882.228 381.79 881.073 380.243C879.772 385.305 882.084 394.868 887.285 397.259C890.463 398.806 889.018 397.259 891.041 400.072C891.763 401.056 892.197 402.322 893.063 403.306C895.086 405.697 899.131 409.213 902.454 409.494C908.81 410.197 912.566 397.54 912.422 392.759C912.277 388.681 908.955 386.431 907.077 383.055C906.21 381.508 905.632 380.243 904.332 378.977C902.743 377.43 900.142 376.868 898.842 374.899C898.409 376.446 897.975 378.133 897.542 379.68C901.442 376.868 901.587 374.477 903.032 370.117C904.332 366.602 907.799 364.351 908.232 360.554C909.244 352.117 898.842 353.242 893.786 356.195C890.463 358.164 886.273 360.133 883.528 362.804C881.65 364.633 880.928 367.023 879.339 368.992C878.617 370.117 877.605 371.102 876.45 371.805C874.138 371.805 873.56 372.367 874.572 373.211C874.138 372.93 874.283 369.414 873.705 368.57C872.838 367.023 872.26 366.461 870.526 365.758C868.359 364.914 866.192 365.617 864.025 365.055C860.414 364.07 858.102 361.82 856.658 358.586C855.357 360.273 853.913 361.961 852.612 363.789C855.791 364.211 860.414 366.18 863.448 364.492C864.603 363.93 865.181 362.664 865.181 361.398C865.326 356.335 857.235 349.304 859.402 344.522C861.425 340.585 855.213 337.069 853.479 341.147Z"/><path fill="#fff" fill-opacity=".2" d="M915.745 400.634C920.368 400.634 920.368 393.603 915.745 393.603C910.977 393.603 910.977 400.634 915.745 400.634Z"/><path fill="#fff" fill-opacity=".2" d="M924.846 396.134C929.469 396.134 929.469 389.103 924.846 389.103C920.079 389.103 920.079 396.134 924.846 396.134Z"/><path fill="#fff" fill-opacity=".2" d="M935.537 386.993C940.16 386.993 940.16 379.961 935.537 379.961C930.914 379.961 930.914 386.993 935.537 386.993Z"/><path fill="#fff" fill-opacity=".2" d="M941.026 375.039C945.649 375.039 945.649 368.008 941.026 368.008C936.403 368.008 936.403 375.039 941.026 375.039Z"/><path fill="#fff" fill-opacity=".2" d="M940.015 361.398C944.638 361.398 944.638 354.367 940.015 354.367C935.392 354.367 935.392 361.398 940.015 361.398Z"/><path fill="#fff" fill-opacity=".2" d="M930.625 349.726C935.248 349.726 935.248 342.694 930.625 342.694C926.001 342.694 926.001 349.726 930.625 349.726Z"/><path fill="#fff" fill-opacity=".2" d="M917.045 346.773C921.668 346.773 921.668 339.741 917.045 339.741C912.277 339.741 912.277 346.773 917.045 346.773Z"/><path fill="#fff" fill-opacity=".2" d="M924.846 403.166C929.469 403.166 929.469 396.134 924.846 396.134C920.079 396.134 920.079 403.166 924.846 403.166Z"/><path fill="#fff" fill-opacity=".2" d="M930.914 412.588C935.536 412.588 935.536 405.556 930.914 405.556C926.291 405.556 926.291 412.588 930.914 412.588Z"/><path fill="#fff" fill-opacity=".2" d="M1275.16 69.1055C1287.07 60.412 1300.79 54.1123 1315.42 50.8365C1322.42 49.3246 1329.67 48.4426 1336.79 48.5686C1344.55 48.5686 1351.93 50.8365 1359.57 50.9625C1363.72 51.0885 1363.72 57.3881 1359.57 57.2621C1353.1 57.1361 1346.76 55.1203 1340.28 54.8683C1332.51 54.4903 1324.75 55.1203 1317.11 56.8842C1302.99 60.034 1290.05 66.0817 1278.4 74.5232C1275.03 76.9171 1271.79 71.4994 1275.16 69.1055Z"/><path fill="#fff" fill-opacity=".2" d="M1240.59 7.9988C1244.86 12.5346 1249.91 16.0624 1254.05 20.7241C1258.33 25.5119 1262.08 30.5516 1265.45 35.9693C1272.18 46.8047 1276.97 58.6481 1279.82 70.9955C1280.73 74.9012 1274.51 76.6651 1273.6 72.6333C1270.89 60.79 1266.35 49.4506 1259.88 39.1191C1256.64 33.9534 1252.89 28.9137 1248.75 24.3779C1244.73 20.0942 1239.94 16.6923 1235.93 12.4086C1233.21 9.51072 1237.74 4.97496 1240.59 7.9988Z"/><path fill="#fff" fill-opacity=".2" d="M1356.72 52.6004C1356.72 52.4744 1356.85 52.4744 1356.85 52.3484C1356.85 53.3564 1356.85 54.4903 1356.85 55.4983C1351.55 47.0567 1335.75 45.7968 1326.95 45.2928C1313.87 44.5369 1302.09 46.4268 1289.92 51.4665C1287.85 52.3484 1285 51.3405 1285 48.6946C1285 49.5766 1285.65 50.2066 1284.74 49.0726C1284.35 48.4426 1283.83 47.8127 1283.44 47.1827C1282.41 45.6708 1281.24 44.2849 1280.08 42.7729C1277.62 39.6231 1275.16 36.8513 1272.31 34.2054C1262.47 24.6299 1251.34 15.9364 1237.35 13.4165C1233.21 12.6606 1235.02 6.61287 1239.04 7.36883C1254.31 10.1407 1266.87 19.9682 1277.62 30.4256C1280.73 33.4495 1283.44 36.7253 1286.03 40.1271C1287.72 42.395 1291.47 45.7968 1291.47 48.8206C1289.79 47.9387 1288.23 47.0567 1286.55 46.0488C1301.18 39.8751 1315.55 37.7332 1331.35 39.3711C1341.71 40.3791 1356.34 42.899 1362.29 52.3484C1362.94 53.3564 1362.81 54.4903 1362.29 55.4983C1362.29 55.6243 1362.16 55.6243 1362.16 55.7503C1360.22 59.2781 1354.65 56.1282 1356.72 52.6004Z"/><path fill="#fff" fill-opacity=".2" d="M588.876 96.0707C590.685 96.825 592.493 98.8367 594.173 99.8425C596.24 101.1 598.566 102.106 600.762 102.986C605.93 104.997 611.744 106.255 617.428 105.752C627.247 104.997 635.645 99.2138 640.942 91.4188C652.053 75.3257 648.694 49.1744 628.41 41.5051C624.534 39.9963 622.854 46.157 626.73 47.54C635.386 50.8089 640.813 61.4957 641.071 70.0451C641.2 77.463 638.358 85.1324 633.449 90.7901C627.764 97.3279 619.625 100.597 610.839 99.2139C606.705 98.5852 602.7 97.2022 599.082 95.1906C596.111 93.5561 593.785 91.1673 590.555 89.9101C586.68 88.5271 585 94.562 588.876 96.0707Z"/><path fill="#fff" fill-opacity=".2" d="M629.185 41.8823C629.314 42.1338 629.443 42.511 629.572 42.7624C628.797 44.0197 628.022 45.4027 627.376 46.6599C659.933 41.7566 681.509 78.4689 663.293 104.494C655.799 115.181 642.492 121.97 629.185 121.468C621.691 121.216 614.586 118.45 608.384 114.427C605.025 112.29 602.054 109.649 599.211 106.883C598.565 106.255 590.297 96.1964 591.201 95.6935C594.948 93.9333 591.718 88.5271 587.971 90.2873C580.478 93.6819 589.134 105.375 592.364 108.895C598.565 115.936 606.834 121.845 615.878 125.114C633.061 131.274 652.828 125.491 664.972 112.415C677.504 98.8367 680.088 78.3432 671.303 62.1244C662.517 45.7799 643.913 37.859 625.567 40.4993C623.888 40.7508 622.725 42.8881 623.371 44.3969C623.888 45.7799 624.405 46.6599 625.826 47.2886C629.702 49.0487 632.932 43.5168 629.185 41.8823Z"/></svg>