<svg width="1309" height="634" viewBox="0 0 1309 634" fill="none" xmlns="http://www.w3.org/2000/svg">
<path d="M820.122 210.815C817.232 202.799 811.454 197.174 803.508 193.658C795.562 190.142 785.883 190.283 778.082 194.361C770.28 198.439 765.08 206.596 764.791 215.034L764.935 216.018C757.567 212.221 747.743 212.784 741.387 218.128C735.03 223.472 733.008 233.316 737.197 240.347C741.676 247.66 750.922 250.473 759.445 252.02C766.669 253.285 774.036 253.989 781.115 252.442C788.194 250.895 795.129 246.957 798.451 240.629C804.664 244.285 811.165 248.082 818.532 248.504C825.9 248.926 833.846 244.426 834.713 237.394L836.88 240.91C842.081 247.942 850.893 250.332 859.706 249.629C868.518 248.926 876.753 242.879 879.498 234.722C880.509 231.628 880.798 228.394 880.653 225.159C879.931 213.768 872.13 202.94 861.295 198.299C850.46 193.658 837.024 195.486 827.923 202.799C825.322 205.049 820.122 210.815 820.122 210.815Z" fill="#56CCF2" fill-opacity="0.5"/>
<path d="M1170.91 40.3259C1172.07 34.7007 1176.11 29.7786 1181.46 27.1066C1185.94 24.8565 1192.73 26.6847 1196.34 23.5908C1199.8 20.4969 1199.95 13.606 1202.69 9.80896C1205.87 5.44939 1210.64 1.93362 1216.13 0.808567C1226.39 -1.3009 1237.94 5.30875 1240.26 15.2936C1243.14 11.3559 1248.49 9.24644 1253.4 9.9496C1258.31 10.6528 1262.65 14.3091 1264.53 18.8093C1264.96 19.7938 1265.25 20.7782 1266.11 21.4813C1267.13 22.1845 1268.57 22.0439 1269.87 21.9033C1281.28 20.6376 1292.84 30.0598 1293.42 41.3103C1294 51.4358 1286.77 60.4362 1278.68 66.7646C1271.75 72.2492 1263.66 76.6088 1254.85 78.0151C1247.77 79.1402 1226.68 78.7182 1229.71 67.0458C1227.54 71.1242 1223.06 74.0774 1218.44 74.64C1213.67 75.2025 1208.76 73.3743 1205.58 69.9991C1203.27 75.3431 1198.22 79.1402 1192.58 80.8277C1186.95 82.6559 1180.88 82.5153 1175.1 81.8121C1164.84 80.5464 1155.02 77.4526 1146.06 72.5305C1140.28 69.296 1134.22 64.0926 1135.08 57.6236C1135.52 54.6703 1137.39 51.9983 1139.56 49.8889C1147.36 42.1541 1159.64 39.2009 1170.19 42.4354" fill="#56CCF2" fill-opacity="0.5"/>
<path d="M595.258 71.2029L557.731 44.2075L530 80.7373L567.526 107.733L595.258 71.2029Z" fill="#56CCF2" fill-opacity="0.5"/>
<path d="M1114.24 392.747L1100.65 341.991L1065 351.039L1078.6 401.794L1114.24 392.747Z" fill="#56CCF2" fill-opacity="0.5"/>
<path d="M54.6462 598.302C51.1789 605.193 47.8562 612.084 44.389 618.975C42.6554 622.35 40.9218 625.865 39.1881 629.241C38.1769 631.35 36.5877 635.991 34.2762 631.913C32.8316 629.381 30.2312 627.412 28.2086 625.162C25.8971 622.912 23.7301 620.521 21.5631 618.131C17.3736 613.49 13.3285 608.568 9.42784 603.646C9.13891 603.224 4.94935 598.02 6.24956 597.739C7.8387 597.458 9.57231 597.458 11.3059 597.317C13.184 597.177 15.0621 596.895 16.9402 596.755C20.6963 596.333 24.308 596.052 28.0641 595.63C35.432 594.927 42.9443 594.223 50.3121 593.38C51.0345 593.239 51.7568 593.239 52.4791 593.098C53.057 593.098 53.6349 592.958 54.2128 593.239C55.9464 594.364 55.513 596.755 54.6462 598.302Z" fill="#56CCF2" fill-opacity="0.5"/>
<path d="M28.6735 455.942C24.5052 450.025 20.2835 444.17 16.1152 438.253C14.0867 435.34 11.9469 432.336 9.9184 429.423C8.62386 427.633 5.54085 423.97 9.62116 425.59C12.1574 426.591 14.6761 426.734 17.2036 427.305C19.838 427.753 22.5301 428.352 25.2222 428.952C30.4419 430.124 35.8305 431.538 41.1658 433.014C41.6063 433.161 47.2708 434.693 47.0126 435.434C46.6475 436.3 46.0065 437.047 45.4767 437.885C44.8935 438.785 44.4216 439.776 43.8384 440.676C42.7833 442.566 41.6704 444.304 40.6153 446.194C38.4473 449.823 36.2258 453.513 34.169 457.232C34.0132 457.633 33.7461 457.945 33.5903 458.347C33.3766 458.596 33.2742 458.935 32.8381 459.004C31.3072 459.03 29.5766 457.309 28.6735 455.942Z" fill="#56CCF2" fill-opacity="0.5"/>
<path d="M828.23 0.415771C826.063 19.1197 823.896 37.8237 821.729 56.5276C815.083 51.7462 808.149 47.1053 801.503 42.3239C794.858 37.5424 787.49 32.7609 782 26.8544C785.467 25.4481 788.79 22.7761 792.113 20.9479C796.158 18.6978 800.203 16.4477 804.248 14.057C808.293 11.8069 812.338 9.55678 816.383 7.16605C818.406 6.041 820.573 4.77532 822.595 3.65027C823.173 3.22838 828.085 1.11893 828.23 0.415771Z" fill="#56CCF2" fill-opacity="0.5"/>
<path d="M1293.09 180.448L1248 191.003L1255.77 222.452L1300.86 211.897L1293.09 180.448Z" fill="#56CCF2" fill-opacity="0.5"/>
<path d="M1135.82 282.075C1142.58 282.075 1152.4 283.88 1158.18 279.527C1163.85 275.174 1165.05 267.742 1165.59 261.159C1166.25 252.878 1166.68 243.004 1164.94 234.829C1163.63 228.99 1159.27 226.336 1153.71 224.743C1150.98 223.894 1148.03 223.681 1146.51 221.027C1145.74 219.753 1145.63 218.373 1144.87 217.099C1143.56 214.975 1141.49 213.489 1139.2 212.64C1133.64 210.41 1125.78 210.41 1119.9 210.835C1113.46 211.259 1108.12 213.914 1105.06 219.541C1103.43 222.62 1102.55 225.911 1101.46 229.202C1100.05 233.555 1098.41 237.696 1097.86 242.367C1097.43 245.765 1102.88 245.765 1103.32 242.367C1103.97 236.422 1106.48 230.052 1108.66 224.425C1111.61 217.205 1117.28 215.931 1124.48 216.143C1128.73 216.249 1134.84 215.719 1138.55 218.267C1142.14 220.815 1141.6 225.805 1145.96 228.034C1151.09 230.582 1157.96 229.627 1159.49 236.316C1160.8 242.049 1160.58 249.375 1160.36 255.214C1160.25 261.266 1160.14 269.122 1156 273.9C1151.74 278.784 1141.6 276.873 1135.6 276.873C1132.33 276.766 1132.33 282.075 1135.82 282.075Z" fill="white" fill-opacity="0.2"/>
<path d="M1093.06 218.267C1091.32 218.798 1089.68 219.435 1089.25 221.346C1088.92 222.726 1088.7 225.168 1089.68 226.442C1090.99 228.14 1094.48 228.034 1096.45 228.14C1099.28 228.353 1102.34 228.14 1104.95 227.079C1108.23 225.699 1110.95 220.921 1107.13 218.585C1103.21 216.249 1097.21 216.993 1093.06 218.267C1089.68 219.328 1091.1 224.425 1094.48 223.363C1096.45 222.726 1098.52 222.407 1100.59 222.513C1101.14 222.513 1103.86 222.513 1104.08 222.726C1103.97 222.089 1103.86 221.346 1103.75 220.709C1103.43 222.62 1101.46 222.726 1099.72 222.938C1098.08 223.044 1094.7 223.257 1093.17 222.62C1093.61 223.15 1094.05 223.681 1094.37 224.212C1094.26 223.575 1094.48 222.513 1094.59 221.77C1094.37 222.407 1094.05 223.044 1093.83 223.681C1094.05 223.575 1094.26 223.469 1094.48 223.469C1097.86 222.407 1096.45 217.311 1093.06 218.267Z" fill="white" fill-opacity="0.2"/>
<path d="M1135.71 278.996C1141.38 264.238 1135.16 246.083 1118.59 241.518C1104.52 237.59 1088.37 242.155 1081.94 255.851C1075.51 269.759 1080.96 286.746 1095.14 293.329C1110.08 300.23 1128.4 294.603 1135.38 279.739C1136.8 276.66 1132.11 273.9 1130.69 277.085C1124.8 289.613 1109.64 294.709 1096.99 288.445C1085.76 282.924 1081.72 269.122 1086.96 257.974C1091.97 247.357 1104.52 243.641 1115.53 246.296C1130.15 249.799 1135.38 264.663 1130.37 277.722C1129.27 280.801 1134.51 282.181 1135.71 278.996Z" fill="white" fill-opacity="0.2"/>
<path d="M1092.52 250.649C1096.12 247.57 1100.26 245.128 1104.41 242.686C1107.46 240.881 1110.73 238.12 1114.33 237.377C1122.73 235.572 1132.66 238.758 1137.78 245.446C1143.34 252.772 1144.11 260.629 1142.25 269.228C1142.04 269.547 1141.93 269.972 1142.04 270.29C1143.13 268.379 1142.91 268.273 1141.49 269.865C1140.07 270.821 1138.76 272.626 1137.56 273.794C1134.07 277.191 1130.69 280.695 1126.66 283.455C1123.82 285.366 1126.55 290.038 1129.38 288.021C1134.07 284.835 1138 280.801 1142.04 276.873C1144.43 274.537 1146.94 272.52 1148.03 269.441C1151.09 259.992 1147.6 248.844 1141.38 241.306C1135.16 233.661 1124.69 231.007 1115.1 232.069C1110.41 232.493 1107.24 234.935 1103.32 237.271C1098.3 240.244 1093.28 243.323 1088.81 247.039C1085.98 249.162 1089.9 252.878 1092.52 250.649Z" fill="white" fill-opacity="0.2"/>
<path d="M1083.47 276.66C1079.76 277.722 1076.05 277.616 1074.52 273.688C1073.65 271.564 1073.98 269.122 1073.98 266.893C1073.87 261.584 1073.76 256.382 1073.87 251.073C1073.98 246.083 1073.87 240.35 1075.94 235.679C1078.12 230.689 1083.14 228.459 1088.37 227.503C1089.57 227.291 1090.34 226.017 1090.34 224.955C1090.45 223.469 1090.34 223.363 1090.23 224.637C1090.77 224.637 1091.43 224.637 1091.97 224.743C1095.46 225.062 1095.46 219.753 1091.97 219.434C1087.18 218.904 1084.88 220.284 1084.88 225.062C1085.54 224.212 1086.19 223.363 1086.85 222.513C1080.74 223.575 1074.63 226.548 1071.58 231.963C1067.87 238.545 1068.42 247.57 1068.31 254.895C1068.2 261.584 1067.11 270.502 1069.83 276.873C1072.56 283.349 1078.78 283.561 1084.99 281.863C1088.27 280.801 1086.85 275.705 1083.47 276.66Z" fill="white" fill-opacity="0.2"/>
<path d="M1078.45 231.113C1080.74 230.901 1083.03 230.689 1085.32 230.795C1086.3 230.795 1087.94 231.007 1086.85 232.387C1086.3 233.13 1084.01 233.024 1083.25 233.13C1078.99 233.237 1075.4 232.387 1071.36 234.192C1068.2 235.572 1070.92 240.138 1074.09 238.758C1077.8 237.059 1082.16 238.97 1086.08 238.227C1089.14 237.696 1092.19 235.891 1093.06 232.812C1095.35 224.637 1083.25 225.38 1078.45 225.805C1074.96 226.229 1074.96 231.538 1078.45 231.113Z" fill="white" fill-opacity="0.2"/>
<path d="M1081.29 235.042C1082.92 236.103 1085.32 235.679 1086.74 234.511C1088.59 233.024 1088.37 230.052 1086.3 228.778C1084.88 227.928 1083.03 228.14 1081.61 228.99C1079.54 230.264 1078.99 232.812 1080.74 234.511C1081.72 235.466 1083.58 235.572 1084.56 234.511C1085.54 233.449 1085.65 231.856 1084.56 230.795C1084.99 231.219 1085.1 232.069 1084.99 232.6C1084.88 232.812 1084.78 233.024 1084.67 233.237C1084.45 233.449 1084.45 233.449 1084.56 233.343C1084.78 233.131 1084.01 233.661 1084.34 233.555C1084.45 233.555 1084.45 233.449 1084.56 233.449C1084.78 233.237 1083.9 233.661 1084.34 233.555C1084.45 233.555 1084.45 233.555 1084.56 233.449C1084.88 233.343 1084.12 233.449 1084.12 233.449C1084.56 233.449 1083.79 233.343 1083.58 233.343C1082.7 233.024 1082.27 231.856 1082.59 231.007C1082.59 230.901 1082.7 230.795 1082.81 230.689C1083.03 230.476 1083.03 230.476 1082.81 230.582C1082.81 230.582 1083.36 230.158 1083.03 230.37C1083.14 230.37 1083.68 230.158 1083.25 230.264C1083.36 230.264 1083.9 230.264 1083.58 230.264C1083.47 230.264 1083.03 230.158 1083.47 230.264C1083.58 230.264 1084.23 230.582 1083.9 230.37C1082.7 229.627 1080.85 230.158 1080.19 231.326C1079.54 232.812 1079.98 234.192 1081.29 235.042Z" fill="white" fill-opacity="0.2"/>
<path d="M1119.46 272.626C1121.86 267.636 1120.88 261.266 1115.75 258.187C1110.51 255.108 1103.64 257.019 1101.03 262.433C1098.84 267.105 1100.26 273.475 1104.95 276.129C1109.97 278.996 1116.4 277.403 1119.46 272.626C1121.31 269.653 1116.62 266.999 1114.77 269.972C1111.5 275.174 1103.97 270.715 1105.72 265.3C1107.9 258.611 1117.82 263.495 1114.77 269.972C1113.24 273.05 1117.93 275.705 1119.46 272.626Z" fill="white" fill-opacity="0.2"/>
<path d="M1148.91 255.426C1148.8 255.108 1148.69 254.789 1148.58 254.471C1146.83 255.108 1146.51 255.532 1147.6 255.851C1147.82 256.169 1148.14 256.382 1148.25 256.913C1148.47 257.443 1148.69 260.522 1147.6 260.204C1148.14 260.629 1148.69 261.053 1149.23 261.372C1149.02 260.947 1149.12 259.355 1149.12 258.824C1149.02 257.762 1149.02 256.7 1148.91 255.745C1148.69 252.347 1143.24 252.347 1143.45 255.745C1143.56 257.974 1143.56 260.204 1144 262.327C1144.33 264.026 1145.31 265.3 1147.05 265.512C1151.31 266.043 1153.92 262.009 1153.92 258.293C1153.92 254.789 1152.18 251.604 1148.58 250.542C1147.05 250.118 1145.31 250.542 1144.22 251.71C1142.91 253.197 1143.02 255.108 1143.67 256.806C1144.76 259.992 1150 258.611 1148.91 255.426Z" fill="white" fill-opacity="0.2"/>
<path d="M1126.55 279.102C1131.57 269.228 1129.27 256.382 1119.13 250.436C1109.53 244.809 1096.55 247.782 1090.99 257.337C1085.98 265.937 1087.83 278.89 1096.34 284.942C1106.15 291.843 1120.33 289.082 1126.55 279.102C1128.4 276.129 1123.71 273.475 1121.86 276.448C1117.06 283.986 1105.39 286.003 1098.52 279.739C1093.17 274.962 1092.41 266.043 1095.79 259.992C1099.72 252.878 1109.42 250.861 1116.4 255.002C1123.93 259.461 1125.57 269.122 1121.86 276.448C1120.22 279.527 1125.02 282.181 1126.55 279.102Z" fill="white" fill-opacity="0.2"/>
<path d="M1111.72 226.866C1118.04 227.291 1124.48 226.973 1130.8 227.503C1134.07 227.822 1135.49 228.99 1137.24 231.963C1138 233.237 1138.33 235.148 1138.76 236.528C1139.85 240.456 1140.29 244.278 1140.4 248.313C1140.51 251.71 1145.96 251.71 1145.85 248.313C1145.74 243.535 1145.2 238.758 1143.78 234.192C1142.8 230.901 1141.71 226.442 1138.76 224.212C1135.71 221.876 1130.69 222.089 1126.98 221.983C1121.86 221.77 1116.73 221.876 1111.72 221.558C1108.23 221.452 1108.23 226.76 1111.72 226.866Z" fill="white" fill-opacity="0.2"/>
<path d="M1149.67 241.836C1149.12 241.943 1148.36 241.943 1147.82 242.155C1147.49 242.261 1147.16 242.261 1146.94 242.367C1147.6 242.58 1148.14 242.898 1148.8 243.11C1149.12 242.686 1148.14 240.032 1148.03 239.501C1147.82 238.227 1147.27 237.802 1148.36 237.271C1149.56 236.634 1151.63 236.634 1152.94 236.528C1153.92 236.422 1154.69 236.209 1155.12 236.953C1155.34 237.377 1155.34 238.439 1155.23 238.97C1155.12 240.138 1154.8 240.669 1153.71 240.987C1152.29 241.306 1150.98 241.518 1149.67 241.836C1146.29 242.58 1147.71 247.676 1151.09 246.933C1153.49 246.402 1156.98 246.189 1158.72 244.278C1160.03 242.792 1160.58 240.456 1160.69 238.545C1160.69 236.528 1160.36 234.192 1158.94 232.706C1157.2 230.901 1154.36 231.007 1151.96 231.219C1149.34 231.432 1146.07 231.75 1144 233.343C1142.14 234.829 1142.04 236.953 1142.47 239.076C1142.8 241.199 1143.02 244.703 1144.44 246.402C1146.07 248.419 1149.02 247.357 1151.2 246.826C1154.47 246.296 1153.05 241.199 1149.67 241.836Z" fill="white" fill-opacity="0.2"/>
<path d="M1014.33 124.346C1018.23 110.845 1011.01 96.6417 997.142 92.0008C982.118 86.9381 963.048 93.829 959.003 109.72C955.536 123.08 962.615 139.534 976.339 144.316C992.953 150.082 1008.7 139.253 1014.33 124.346C1015.92 120.127 1008.99 118.299 1007.4 122.518C1003.21 133.487 991.653 141.925 979.373 137.987C968.827 134.612 963.626 121.674 966.082 111.689C972.294 87.0787 1014.77 97.2042 1007.4 122.518C1006.1 126.737 1013.03 128.706 1014.33 124.346Z" fill="white" fill-opacity="0.2"/>
<path d="M978.888 96.0437C976.432 89.2354 973.976 82.427 971.664 75.6186C969.497 69.6355 963.285 74.9997 965.452 80.7765C967.908 87.5849 970.364 94.3932 972.675 101.202C974.698 107.185 980.91 101.821 978.888 96.0437Z" fill="white" fill-opacity="0.2"/>
<path d="M961.579 117.611C953.2 116.064 944.821 114.235 936.442 112.126C931.963 111.001 930.085 117.751 934.563 118.876C942.798 120.986 951.177 122.814 959.701 124.361C964.179 125.205 966.057 118.454 961.579 117.611Z" fill="white" fill-opacity="0.2"/>
<path d="M951.877 146.911C947.687 150.567 943.353 154.223 939.164 157.88C935.696 160.833 940.753 165.896 944.22 162.802C948.409 159.146 952.744 155.489 956.933 151.833C960.545 148.879 955.344 143.957 951.877 146.911Z" fill="white" fill-opacity="0.2"/>
<path d="M1016.2 92.743C1020.25 89.0865 1024.44 85.5708 1028.77 82.1956C1030.36 80.9299 1030.07 78.5392 1028.77 77.2735C1027.33 75.8672 1025.16 76.1485 1023.71 77.2735C1019.38 80.6487 1015.19 84.1645 1011.15 87.8209C1007.68 90.9147 1012.88 95.8368 1016.2 92.743Z" fill="white" fill-opacity="0.2"/>
<path d="M995.226 158.336C997.065 164.412 998.853 170.32 1000.69 176.397C1002.33 181.799 1009.16 180.714 1007.53 175.313C1005.69 169.236 1003.9 163.328 1002.06 157.251C1000.43 151.85 993.591 152.934 995.226 158.336Z" fill="white" fill-opacity="0.2"/>
<path d="M1021.16 148.328C1025.06 151.703 1029.11 154.797 1033.3 157.751C1034.89 158.876 1037.34 158.032 1038.21 156.485C1039.22 154.657 1038.5 152.828 1036.91 151.703C1033.15 149.172 1029.69 146.359 1026.22 143.406C1022.75 140.453 1017.7 145.375 1021.16 148.328Z" fill="white" fill-opacity="0.2"/>
<path d="M1023.47 121.032C1031.27 121.172 1039.07 121.172 1046.73 121.313C1051.35 121.313 1051.35 114.281 1046.73 114.281C1038.93 114.141 1031.12 114.141 1023.47 114C1018.84 114 1018.84 121.032 1023.47 121.032Z" fill="white" fill-opacity="0.2"/>
<path d="M1262.3 330.354C1259.27 323.884 1252.05 320.65 1244.97 321.775C1237.31 323.181 1232.54 329.51 1232.54 336.963C1232.69 346.526 1241.36 353.417 1251.04 351.589C1260.57 349.761 1265.77 339.916 1262.59 331.197C1261.15 326.978 1254.07 328.807 1255.66 333.026C1257.54 338.229 1254.79 344.135 1248.72 344.839C1241.93 345.542 1237.89 338.932 1240.35 333.026C1243.38 326.135 1253.2 327.822 1255.95 333.869C1257.97 337.948 1264.18 334.432 1262.3 330.354Z" fill="white" fill-opacity="0.2"/>
<path d="M1247.57 351.167C1253.49 377.606 1260.14 404.044 1265.92 430.483C1266.93 434.843 1273.86 433.014 1272.85 428.655C1266.93 402.216 1260.28 375.777 1254.5 349.339C1253.49 344.839 1246.56 346.667 1247.57 351.167Z" fill="white" fill-opacity="0.2"/>
<path d="M1229.22 372.262C1246.85 368.605 1264.47 364.949 1281.95 361.152C1286.43 360.167 1284.55 353.417 1280.07 354.402C1262.45 358.058 1244.82 361.714 1227.34 365.511C1222.72 366.496 1224.6 373.246 1229.22 372.262Z" fill="white" fill-opacity="0.2"/>
<path d="M1219.69 400.669C1222.29 411.076 1225.61 422.045 1235.29 428.092C1246.12 434.983 1258.69 430.483 1269.24 437.374C1270.54 438.218 1272.56 437.936 1273.57 436.811C1278.05 431.889 1282.53 428.233 1288.02 424.295C1291.63 421.623 1294.95 418.67 1297.41 414.873C1303.48 405.451 1302.9 393.778 1302.18 383.09C1301.89 378.59 1294.67 378.59 1294.95 383.09C1295.68 393.497 1296.54 405.591 1289.03 414.029C1285.56 417.967 1280.65 420.358 1276.61 423.451C1273.57 425.842 1271.12 428.795 1268.52 431.749C1269.96 431.608 1271.41 431.327 1272.85 431.186C1269.09 428.795 1265.19 426.827 1260.72 425.983C1255.8 425.139 1250.75 426.405 1245.84 424.998C1233.12 421.483 1229.37 409.81 1226.48 398.56C1225.61 394.341 1218.68 396.31 1219.69 400.669Z" fill="white" fill-opacity="0.2"/>
<path d="M1293.94 394.2C1296.98 390.825 1299.58 387.309 1302.03 383.653C1300.01 383.653 1297.84 383.653 1295.82 383.653C1297.7 386.747 1299.87 389.7 1302.18 392.513C1303.33 394.06 1305.21 394.763 1307.09 393.778C1308.68 392.934 1309.55 390.403 1308.39 388.997C1306.08 386.184 1304.06 383.231 1302.03 380.137C1300.59 377.887 1297.27 377.887 1295.82 380.137C1293.8 383.372 1291.49 386.465 1288.89 389.278C1285.71 392.653 1290.76 397.575 1293.94 394.2Z" fill="white" fill-opacity="0.2"/>
<path d="M1221.28 411.638C1222.58 407.841 1224.02 404.044 1225.47 400.388C1223.73 401.091 1222 401.794 1220.12 402.497C1223.44 403.904 1226.62 405.591 1229.65 407.419C1233.7 409.81 1237.31 403.622 1233.27 401.372C1230.23 399.544 1227.05 397.857 1223.73 396.45C1221.42 395.466 1219.4 396.31 1218.39 398.56C1216.94 402.357 1215.5 406.013 1214.2 409.81C1212.75 414.17 1219.69 415.998 1221.28 411.638Z" fill="white" fill-opacity="0.2"/>
<path d="M835.999 358.726C851.168 349.163 866.192 339.6 881.361 330.037C879.917 329.897 878.472 329.615 877.027 329.475C883.962 336.225 891.185 342.554 898.697 348.601C899.853 349.445 901.731 350.148 903.031 349.163C908.088 345.507 913.289 341.85 918.634 338.335C922.968 335.522 930.047 329.053 935.681 330.037C941.46 331.162 948.105 335.522 953.451 337.913C959.085 340.585 964.575 343.257 970.064 346.069C974.11 348.179 977.866 342.132 973.676 340.022C966.597 336.366 959.518 332.991 952.295 329.615C946.95 327.225 940.882 323.146 934.959 322.584C929.614 322.021 924.991 325.818 920.801 328.49C913.578 333.131 906.499 337.913 899.564 342.975C901.009 343.116 902.454 343.397 903.898 343.538C896.386 337.491 889.163 331.162 882.228 324.412C881.072 323.287 879.194 323.006 877.894 323.85C862.725 333.413 847.7 342.975 832.531 352.538C828.486 355.21 832.098 361.258 835.999 358.726Z" fill="white" fill-opacity="0.2"/>
<path d="M828.053 357.742C832.387 383.618 837.443 409.213 842.933 434.948C843.366 437.198 846.256 438.183 848.278 437.058C854.635 433.542 860.991 430.026 867.492 426.932C873.56 423.979 883.384 417.229 890.029 419.62C895.808 421.729 901.587 425.667 907.076 428.479C910.833 430.448 914.733 433.401 919.067 431.011C923.69 428.339 927.446 421.87 931.347 418.073C933.081 416.385 934.959 414.416 936.981 412.869C942.038 408.932 945.216 409.775 950.561 412.307C956.051 414.838 961.396 417.791 967.175 419.62C973.387 421.729 979.455 422.713 985.089 426.089C988.989 428.479 992.746 422.432 988.701 420.041C983.211 416.807 977.432 415.26 971.364 413.572C964.141 411.463 957.64 407.666 950.85 404.713C946.083 402.603 941.749 401.056 936.837 403.869C931.202 407.244 926.146 412.869 921.668 417.651C919.501 419.901 917.189 423.838 914.444 423.979C911.41 424.12 906.21 420.041 903.32 418.635C898.264 415.963 892.052 411.182 885.984 411.604C879.772 412.025 872.838 416.526 867.348 419.057C859.547 422.713 851.89 426.792 844.378 431.011C846.111 431.714 847.845 432.417 849.723 433.12C844.233 407.525 839.177 381.79 834.843 355.914C834.265 351.554 827.33 353.382 828.053 357.742Z" fill="white" fill-opacity="0.2"/>
<path d="M968.331 344.101C968.764 371.102 981.333 395.993 982.777 422.854C983.066 427.354 990.29 427.354 990.001 422.854C988.556 395.993 975.988 371.102 975.554 344.101C975.554 339.6 968.331 339.6 968.331 344.101Z" fill="white" fill-opacity="0.2"/>
<path d="M853.479 341.147C851.312 345.929 851.89 348.882 854.346 353.242C855.502 355.351 858.391 359.148 858.247 361.539C858.825 360.554 859.402 359.57 859.98 358.445C861.136 357.882 854.346 356.898 854.779 357.039C851.601 356.617 849.29 359.289 850.734 362.242C852.324 365.617 854.78 368.43 858.102 370.258C859.402 370.961 860.992 371.524 862.436 371.946C862.436 371.946 867.204 372.508 867.059 372.367C868.504 373.774 867.926 376.586 869.515 378.274C871.393 380.102 873.705 380.102 876.305 379.54C878.906 378.977 881.506 377.571 883.384 375.743C884.54 374.617 885.407 373.211 886.273 371.946C888.44 368.711 889.596 367.586 892.774 365.617C894.364 364.633 895.953 363.367 897.686 362.523C905.343 358.586 900.431 361.82 899.131 363.226C896.531 366.18 897.108 371.664 894.075 373.774C892.63 374.899 891.619 376.868 892.774 378.555C895.086 382.071 898.698 383.759 901.154 387.274C903.032 390.087 904.91 392.337 904.476 396.134C904.332 396.837 900.287 404.15 904.043 402.603C901.298 403.728 897.975 396.415 897.397 395.15C896.675 393.884 896.386 392.9 895.23 392.056C893.352 390.649 891.33 391.493 889.741 389.384C889.018 388.259 888.007 383.055 888.151 382.071C888.729 379.821 887.14 377.571 884.684 377.571C881.073 377.571 875.872 377.711 873.56 380.946C872.838 381.93 872.693 382.915 872.405 384.04C871.538 387.556 871.249 390.509 869.949 394.165C868.504 398.103 868.793 401.056 869.949 405.134C871.249 409.775 875.583 411.885 876.305 416.666C877.027 421.166 883.962 419.198 883.24 414.838C882.951 412.588 882.517 410.197 881.073 408.369C878.761 405.134 875.872 403.728 876.594 399.087C877.027 396.415 878.761 394.306 879.05 391.493C879.194 390.509 879.05 389.384 879.194 388.399C879.917 385.305 880.928 384.743 884.54 384.743C883.384 383.196 882.228 381.79 881.073 380.243C879.772 385.305 882.084 394.868 887.285 397.259C890.463 398.806 889.018 397.259 891.041 400.072C891.763 401.056 892.197 402.322 893.063 403.306C895.086 405.697 899.131 409.213 902.454 409.494C908.81 410.197 912.566 397.54 912.422 392.759C912.277 388.681 908.955 386.431 907.077 383.055C906.21 381.508 905.632 380.243 904.332 378.977C902.743 377.43 900.142 376.868 898.842 374.899C898.409 376.446 897.975 378.133 897.542 379.68C901.442 376.868 901.587 374.477 903.032 370.117C904.332 366.602 907.799 364.351 908.232 360.554C909.244 352.117 898.842 353.242 893.786 356.195C890.463 358.164 886.273 360.133 883.528 362.804C881.65 364.633 880.928 367.023 879.339 368.992C878.617 370.117 877.605 371.102 876.45 371.805C874.138 371.805 873.56 372.367 874.572 373.211C874.138 372.93 874.283 369.414 873.705 368.57C872.838 367.023 872.26 366.461 870.526 365.758C868.359 364.914 866.192 365.617 864.025 365.055C860.414 364.07 858.102 361.82 856.658 358.586C855.357 360.273 853.913 361.961 852.612 363.789C855.791 364.211 860.414 366.18 863.448 364.492C864.603 363.93 865.181 362.664 865.181 361.398C865.326 356.335 857.235 349.304 859.402 344.522C861.425 340.585 855.213 337.069 853.479 341.147Z" fill="white" fill-opacity="0.2"/>
<path d="M915.745 400.634C920.368 400.634 920.368 393.603 915.745 393.603C910.977 393.603 910.977 400.634 915.745 400.634Z" fill="white" fill-opacity="0.2"/>
<path d="M924.846 396.134C929.469 396.134 929.469 389.103 924.846 389.103C920.079 389.103 920.079 396.134 924.846 396.134Z" fill="white" fill-opacity="0.2"/>
<path d="M935.537 386.993C940.16 386.993 940.16 379.961 935.537 379.961C930.914 379.961 930.914 386.993 935.537 386.993Z" fill="white" fill-opacity="0.2"/>
<path d="M941.026 375.039C945.649 375.039 945.649 368.008 941.026 368.008C936.403 368.008 936.403 375.039 941.026 375.039Z" fill="white" fill-opacity="0.2"/>
<path d="M940.015 361.398C944.638 361.398 944.638 354.367 940.015 354.367C935.392 354.367 935.392 361.398 940.015 361.398Z" fill="white" fill-opacity="0.2"/>
<path d="M930.625 349.726C935.248 349.726 935.248 342.694 930.625 342.694C926.001 342.694 926.001 349.726 930.625 349.726Z" fill="white" fill-opacity="0.2"/>
<path d="M917.045 346.773C921.668 346.773 921.668 339.741 917.045 339.741C912.277 339.741 912.277 346.773 917.045 346.773Z" fill="white" fill-opacity="0.2"/>
<path d="M924.846 403.166C929.469 403.166 929.469 396.134 924.846 396.134C920.079 396.134 920.079 403.166 924.846 403.166Z" fill="white" fill-opacity="0.2"/>
<path d="M930.914 412.588C935.536 412.588 935.536 405.556 930.914 405.556C926.291 405.556 926.291 412.588 930.914 412.588Z" fill="white" fill-opacity="0.2"/>
<path d="M173.571 101.447C161.66 92.7537 147.936 86.454 133.306 83.1782C126.315 81.6662 119.065 80.7843 111.944 80.9103C104.176 80.9103 96.7958 83.1782 89.1571 83.3041C85.014 83.4301 85.014 89.7298 89.1571 89.6038C95.6306 89.4778 101.975 87.4619 108.448 87.2099C116.216 86.832 123.984 87.4619 131.623 89.2258C145.735 92.3757 158.682 98.4233 170.335 106.865C173.701 109.259 176.938 103.841 173.571 101.447Z" fill="white" fill-opacity="0.2"/>
<path d="M208.14 40.3405C203.868 44.8762 198.818 48.404 194.675 53.0658C190.403 57.8535 186.648 62.8933 183.282 68.311C176.549 79.1464 171.759 90.9898 168.911 103.337C168.005 107.243 174.219 109.007 175.125 104.975C177.844 93.1317 182.376 81.7923 188.849 71.4608C192.086 66.2951 195.841 61.2554 199.984 56.7196C203.997 52.4358 208.787 49.034 212.801 44.7502C215.52 41.8524 210.988 37.3166 208.14 40.3405Z" fill="white" fill-opacity="0.2"/>
<path d="M92.0055 84.9421C92.0055 84.8161 91.876 84.8161 91.876 84.6901C91.876 85.6981 91.876 86.832 91.876 87.84C97.1843 79.3984 112.98 78.1385 121.784 77.6345C134.86 76.8785 146.642 78.7684 158.812 83.8082C160.883 84.6901 163.732 83.6822 163.732 81.0363C163.732 81.9183 163.084 82.5482 163.991 81.4143C164.379 80.7843 164.897 80.1544 165.285 79.5244C166.321 78.0125 167.486 76.6265 168.652 75.1146C171.112 71.9648 173.571 69.1929 176.42 66.5471C186.259 56.9716 197.394 48.2781 211.377 45.7582C215.52 45.0022 213.707 38.9545 209.694 39.7105C194.416 42.4824 181.857 52.3098 171.111 62.7673C168.004 65.7911 165.285 69.0669 162.696 72.4688C161.013 74.7366 157.258 78.1385 157.258 81.1623C158.941 80.2804 160.495 79.3984 162.178 78.3905C147.548 72.2168 133.177 70.0749 117.382 71.7128C107.024 72.7208 92.3939 75.2406 86.4383 84.6901C85.791 85.6981 85.9204 86.832 86.4383 87.84C86.4383 87.966 86.5677 87.966 86.5677 88.0919C88.5098 91.6198 94.077 88.4699 92.0055 84.9421Z" fill="white" fill-opacity="0.2"/>
<path d="M561.794 561.551C563.603 562.305 565.411 564.317 567.091 565.322C569.158 566.58 571.484 567.585 573.68 568.466C578.848 570.477 584.662 571.734 590.346 571.232C600.165 570.477 608.563 564.694 613.86 556.899C624.971 540.806 621.612 514.654 601.328 506.985C597.452 505.476 595.772 511.637 599.648 513.02C608.304 516.289 613.731 526.976 613.989 535.525C614.118 542.943 611.276 550.612 606.367 556.27C600.682 562.808 592.543 566.077 583.757 564.694C579.623 564.065 575.618 562.682 572 560.67C569.029 559.036 566.703 556.647 563.473 555.39C559.597 554.007 557.918 560.042 561.794 561.551Z" fill="white" fill-opacity="0.2"/>
<path d="M602.103 507.362C602.232 507.614 602.361 507.991 602.49 508.242C601.715 509.5 600.94 510.883 600.294 512.14C632.851 507.236 654.427 543.949 636.211 569.974C628.717 580.661 615.41 587.45 602.103 586.947C594.609 586.696 587.504 583.93 581.302 579.907C577.943 577.769 574.972 575.129 572.129 572.363C571.483 571.734 563.215 561.676 564.119 561.173C567.866 559.413 564.636 554.007 560.889 555.767C553.396 559.162 562.052 570.854 565.282 574.375C571.483 581.415 579.752 587.325 588.796 590.594C605.979 596.754 625.746 590.971 637.89 577.895C650.422 564.317 653.006 543.823 644.221 527.604C635.435 511.26 616.831 503.339 598.485 505.979C596.806 506.231 595.643 508.368 596.289 509.877C596.806 511.26 597.323 512.14 598.744 512.768C602.62 514.529 605.849 508.997 602.103 507.362Z" fill="white" fill-opacity="0.2"/>
</svg>
