<svg width="27" height="26" viewBox="0 0 27 26" fill="none" xmlns="http://www.w3.org/2000/svg">
<path d="M13.1932 2.51147C16.718 2.51147 17.1318 2.52676 18.5249 2.58792C19.8133 2.64399 20.5099 2.85296 20.976 3.03135C21.5941 3.2658 22.034 3.54103 22.4949 3.98955C22.9558 4.43807 23.2439 4.86621 23.4796 5.46763C23.6576 5.92125 23.8776 6.59913 23.9352 7.85295C23.9981 9.2087 24.0138 9.61135 24.0138 13.0415C24.0138 16.4717 23.9981 16.8743 23.9352 18.2301C23.8776 19.4839 23.6629 20.1618 23.4796 20.6154C23.2386 21.2168 22.9558 21.645 22.4949 22.0935C22.034 22.542 21.5941 22.8223 20.976 23.0517C20.5099 23.225 19.8133 23.4391 18.5249 23.4951C17.1318 23.5563 16.718 23.5716 13.1932 23.5716C9.66836 23.5716 9.2546 23.5563 7.86144 23.4951C6.57302 23.4391 5.87644 23.2301 5.4103 23.0517C4.79228 22.8172 4.35233 22.542 3.89144 22.0935C3.43054 21.645 3.14248 21.2168 2.90679 20.6154C2.72872 20.1618 2.50875 19.4839 2.45113 18.2301C2.38828 16.8743 2.37257 16.4717 2.37257 13.0415C2.37257 9.61135 2.38828 9.2087 2.45113 7.85295C2.50875 6.59913 2.72348 5.92125 2.90679 5.46763C3.14772 4.86621 3.43054 4.43807 3.89144 3.98955C4.35233 3.54103 4.79228 3.2607 5.4103 3.03135C5.87644 2.85805 6.57302 2.64399 7.86144 2.58792C9.2546 2.52166 9.66836 2.51147 13.1932 2.51147ZM13.1932 0.19751C9.61075 0.19751 9.16033 0.2128 7.75145 0.273962C6.34781 0.335124 5.38935 0.554288 4.55136 0.870291C3.68194 1.19649 2.94869 1.63991 2.21545 2.35347C1.4822 3.06702 1.03178 3.78568 0.691345 4.62665C0.366623 5.44215 0.141412 6.37487 0.078562 7.74591C0.0157124 9.11186 0 9.55019 0 13.0364C0 16.5227 0.0157124 16.961 0.078562 18.332C0.141412 19.698 0.366623 20.6307 0.691345 21.4513C1.02654 22.2974 1.4822 23.0109 2.21545 23.7245C2.94869 24.438 3.68718 24.8764 4.55136 25.2077C5.38935 25.5237 6.34781 25.7428 7.75669 25.804C9.16556 25.8651 9.61075 25.8804 13.1984 25.8804C16.7861 25.8804 17.2313 25.8651 18.6401 25.804C20.0438 25.7428 21.0022 25.5237 21.8455 25.2077C22.7149 24.8815 23.4481 24.438 24.1814 23.7245C24.9146 23.0109 25.365 22.2923 25.7055 21.4513C26.0302 20.6358 26.2554 19.7031 26.3183 18.332C26.3811 16.961 26.3968 16.5278 26.3968 13.0364C26.3968 9.54509 26.3811 9.11186 26.3183 7.74082C26.2554 6.37487 26.0302 5.44215 25.7055 4.62156C25.3703 3.77548 24.9146 3.06193 24.1814 2.34837C23.4481 1.63482 22.7097 1.19649 21.8455 0.865194C21.0075 0.549191 20.049 0.330027 18.6401 0.268865C17.226 0.2128 16.7756 0.19751 13.1932 0.19751Z" fill="white"/>
<path d="M13.1933 6.4411C9.45375 6.4411 6.41602 9.39217 6.41602 13.0364C6.41602 16.6806 9.45375 19.6317 13.1933 19.6317C16.9328 19.6317 19.9706 16.6755 19.9706 13.0364C19.9706 9.39727 16.9328 6.4411 13.1933 6.4411ZM13.1933 17.3177C10.7631 17.3177 8.79383 15.4013 8.79383 13.0364C8.79383 10.6715 10.7631 8.75506 13.1933 8.75506C15.6235 8.75506 17.5928 10.6715 17.5928 13.0364C17.5928 15.4013 15.6235 17.3177 13.1933 17.3177Z" fill="white"/>
<path d="M20.2375 7.72046C21.111 7.72046 21.8192 7.03132 21.8192 6.18121C21.8192 5.33111 21.111 4.64197 20.2375 4.64197C19.3639 4.64197 18.6558 5.33111 18.6558 6.18121C18.6558 7.03132 19.3639 7.72046 20.2375 7.72046Z" fill="white"/>
</svg>
