<svg width="26" height="27" viewBox="0 0 26 27" fill="none" xmlns="http://www.w3.org/2000/svg">
<path d="M23.6481 0.204834H2.35191C1.053 0.204834 0 1.26897 0 2.58162V24.103C0 25.4157 1.053 26.4799 2.35191 26.4799H23.648C24.947 26.4799 26 25.4157 26 24.103V2.58162C26 1.26897 24.947 0.204834 23.6481 0.204834ZM8.0455 22.8924C8.0455 23.2744 7.73908 23.5841 7.36106 23.5841H4.44757C4.06954 23.5841 3.76313 23.2744 3.76313 22.8924V10.55C3.76313 10.168 4.06954 9.85829 4.44757 9.85829H7.36106C7.73908 9.85829 8.0455 10.168 8.0455 10.55V22.8924ZM5.90431 8.69483C4.37569 8.69483 3.13647 7.4425 3.13647 5.89771C3.13647 4.35292 4.37569 3.10059 5.90431 3.10059C7.43294 3.10059 8.67216 4.35292 8.67216 5.89771C8.67216 7.4425 7.43301 8.69483 5.90431 8.69483ZM23.2714 22.9481C23.2714 23.2993 22.9896 23.5841 22.6421 23.5841H19.5157C19.1681 23.5841 18.8863 23.2993 18.8863 22.9481V17.1588C18.8863 16.2952 19.137 13.3743 16.653 13.3743C14.7262 13.3743 14.3354 15.3736 14.2569 16.2708V22.9481C14.2569 23.2993 13.9752 23.5841 13.6276 23.5841H10.6038C10.2563 23.5841 9.97454 23.2993 9.97454 22.9481V10.4943C9.97454 10.1431 10.2563 9.85829 10.6038 9.85829H13.6276C13.9751 9.85829 14.2569 10.1431 14.2569 10.4943V11.5711C14.9714 10.4875 16.0332 9.65119 18.2939 9.65119C23.3 9.65119 23.2714 14.3777 23.2714 16.9746V22.9481Z" fill="white"/>
</svg>
