<svg xmlns="http://www.w3.org/2000/svg" width="145" height="120" fill="none" viewBox="0 0 145 120"><g id="logo"><path id="Vector" fill="#fff" d="M111.912 63.496C97.3675 78.5649 82.5767 93.8892 67.786 108.958C70.4977 108.958 73.4558 108.958 76.1674 108.958C54.2279 86.227 32.0419 63.2406 10.3488 40.7649C10.3488 43.5743 10.3488 46.6392 10.3488 49.4487C20.9488 37.7 31.5488 26.2068 41.9023 14.7135C39.1907 14.7135 36.2326 14.7135 33.5209 14.7135C37.4651 18.8 41.6558 23.1419 45.6 27.2284C51.0233 32.8473 59.6512 24.1635 53.9814 18.5446C50.0372 14.4581 45.8465 10.1162 41.9023 6.02974C39.6837 3.73109 35.493 3.73109 33.5209 6.02974C22.9209 17.7784 12.3209 29.2716 1.96745 40.7649C-0.251154 43.0635 -0.251154 47.15 1.96745 49.4487C23.907 72.1797 46.093 95.1662 67.786 117.642C70.0047 119.941 73.9488 119.941 76.1674 117.642C90.7116 102.573 105.749 87.2487 120.293 72.1797C125.963 66.5608 117.581 57.877 111.912 63.496Z"/><path id="Vector_2" fill="#fff" d="M132.865 59.4095C136.563 55.323 139.767 50.9811 143.219 46.8946C145.437 44.3405 145.437 40.7649 143.219 38.2108C133.605 26.973 124.484 14.7135 113.884 4.49729C109.693 0.410803 106.488 0.666209 101.065 0.666209C88.7395 0.666209 76.414 0.666209 64.0884 0.666209C56.2 0.666209 56.2 13.1811 64.0884 13.1811C75.4279 13.1811 86.5209 13.1811 98.107 13.1811C98.6 13.1811 108.214 12.6703 108.214 13.1811C108.214 12.9257 102.051 8.83918 107.474 14.9689C116.595 25.6959 125.963 36.1676 135.084 47.15C135.084 44.3405 135.084 41.2757 135.084 38.4662C131.633 42.5527 128.181 46.8946 124.73 50.9811C119.307 56.3446 127.688 65.2838 132.865 59.4095Z"/><path id="Vector_3" fill="#fff" d="M102.791 3.47567C84.3023 22.3757 65.8139 41.0203 47.3256 59.6649C41.9023 65.2838 50.2837 74.223 55.707 68.3486C74.1953 49.4487 92.6837 30.8041 111.172 12.1595C116.842 6.79594 108.46 -2.14324 102.791 3.47567Z"/><path id="Vector_4" fill="#fff" d="M79.8652 64.2621C92.6838 77.5432 105.749 91.0797 118.567 104.361C123.991 109.98 132.619 101.296 126.949 95.677C114.13 82.3959 101.065 68.8594 88.2465 55.5784C83.0698 49.704 74.4419 58.6432 79.8652 64.2621Z"/><path id="Vector_5" fill="#fff" d="M142.479 108.958C142.233 108.703 141.986 108.703 141.986 108.447C139.767 106.149 135.577 106.149 133.605 108.447C131.633 110.746 131.386 114.832 133.605 117.131C133.851 117.386 134.098 117.642 134.344 117.897C136.563 120.196 140.753 120.196 142.726 117.897C144.698 115.343 144.944 111.512 142.479 108.958Z"/><path id="Vector_6" fill="#fff" d="M58.1721 39.7432C60.8837 42.5527 63.8419 45.6176 66.5535 48.427C68.7721 50.7257 72.9628 50.7257 74.9349 48.427C77.1535 46.1284 77.1535 42.0419 74.9349 39.7432C72.2233 36.9338 69.2651 33.8689 66.5535 31.0595C64.3349 28.7608 60.1442 28.7608 58.1721 31.0595C55.9535 33.6135 55.707 37.4446 58.1721 39.7432Z"/></g></svg>