<svg width="1190" height="451" viewBox="0 0 1190 451" fill="none" xmlns="http://www.w3.org/2000/svg">
<path d="M160.857 75.758C160.857 84.2365 160.857 92.715 160.857 101.423C160.857 106.693 169.091 106.693 169.091 101.423C169.091 92.9442 169.091 84.4656 169.091 75.758C169.091 70.4876 160.857 70.4876 160.857 75.758Z" fill="#56CCF2"/>
<path d="M160.857 108.297C160.857 116.776 160.386 125.254 160.386 133.732C160.386 139.003 168.62 139.003 168.62 133.732C168.62 125.254 169.091 116.776 169.091 108.297C169.091 103.256 160.857 103.256 160.857 108.297Z" fill="#56CCF2"/>
<path d="M173.796 147.71C175.443 142.898 174.502 137.399 169.797 134.649C165.798 132.357 160.857 133.045 157.328 135.795C153.094 139.232 152.388 145.648 155.682 150.002C157.799 152.981 161.092 154.814 164.857 154.814C169.797 155.043 172.385 151.606 173.796 147.71C174.502 145.648 172.855 143.357 170.973 142.669C168.621 141.982 166.739 143.357 165.798 145.419C165.327 146.565 165.092 147.023 163.916 146.565C162.739 146.106 162.033 144.732 162.033 143.586C162.033 142.898 162.034 143.357 162.269 142.669C162.269 142.898 162.504 142.211 162.504 142.211C162.269 142.44 163.445 141.523 162.975 141.753C162.504 141.982 164.386 141.294 163.445 141.523C163.68 141.523 164.857 141.294 163.916 141.294C164.386 141.294 164.857 141.294 165.327 141.294C164.386 141.294 165.562 141.523 165.798 141.523C164.857 141.065 166.739 141.982 165.798 141.523C166.033 141.523 166.268 141.753 166.268 141.982C166.033 141.753 166.033 141.523 166.268 141.982C166.268 142.211 166.503 142.211 166.503 142.44C166.503 143.127 166.503 144.273 166.033 145.419C164.151 150.46 172.149 152.752 173.796 147.71Z" fill="#56CCF2"/>
<path d="M160.151 155.043C160.151 159.397 160.151 163.751 160.151 168.104C160.151 173.375 168.385 173.375 168.385 168.104C168.385 163.751 168.385 159.397 168.385 155.043C168.385 150.002 160.151 150.002 160.151 155.043Z" fill="#56CCF2"/>
<path d="M182.5 189.874C183.676 180.249 177.795 170.625 167.679 168.792C159.21 167.188 150.27 171.542 147.212 179.562C143.448 189.645 148.153 199.956 158.504 203.394C169.09 206.831 180.147 202.477 182.265 191.019C183.206 185.978 175.207 183.687 174.266 188.957C171.443 204.539 146.741 193.54 155.916 180.479C158.269 177.041 162.739 175.896 166.503 176.812C172.619 178.416 174.737 184.374 174.031 189.874C173.56 194.915 181.794 194.915 182.5 189.874Z" fill="#56CCF2"/>
<path d="M153.799 200.185C153.799 229.058 153.799 257.931 153.799 286.804C153.799 292.074 162.033 292.074 162.033 286.804C162.033 257.931 162.033 229.058 162.033 200.185C162.033 195.144 153.799 195.144 153.799 200.185Z" fill="#56CCF2"/>
<path d="M166.503 200.873C166.503 229.058 166.503 257.014 166.503 285.199C166.503 290.47 174.737 290.47 174.737 285.199C174.737 257.014 174.737 229.058 174.737 200.873C174.737 195.831 166.503 195.831 166.503 200.873Z" fill="#56CCF2"/>
<path d="M158.975 218.746C162.739 218.517 166.503 218.059 170.267 217.601C172.384 217.371 173.796 214.622 173.09 212.559C172.384 210.268 170.267 209.351 167.914 209.809C164.856 210.268 161.798 210.497 158.739 210.726C153.799 210.955 153.799 218.976 158.975 218.746Z" fill="#56CCF2"/>
<path d="M158.739 232.037C162.503 231.808 166.267 231.35 170.031 230.891C172.149 230.662 173.56 227.912 172.854 225.85C172.149 223.559 170.031 222.642 167.679 223.1C164.621 223.558 161.562 223.788 158.504 224.017C153.564 224.246 153.564 232.266 158.739 232.037Z" fill="#56CCF2"/>
<path d="M158.739 245.557C162.503 245.328 166.267 244.869 170.031 244.411C172.149 244.182 173.56 241.432 172.854 239.37C172.149 237.078 170.031 236.162 167.679 236.62C164.621 237.078 161.562 237.308 158.504 237.537C153.564 237.766 153.564 245.786 158.739 245.557Z" fill="#56CCF2"/>
<path d="M158.739 259.077C162.503 258.847 166.267 258.389 170.031 257.931C172.149 257.702 173.56 254.952 172.854 252.889C172.149 250.598 170.031 249.681 167.679 250.139C164.621 250.598 161.562 250.827 158.504 251.056C153.564 251.514 153.564 259.535 158.739 259.077Z" fill="#56CCF2"/>
<path d="M158.739 274.888C162.503 274.658 166.267 274.2 170.031 273.742C172.149 273.513 173.56 270.763 172.854 268.701C172.149 266.409 170.031 265.492 167.679 265.951C164.621 266.409 161.562 266.638 158.504 266.867C153.564 267.096 153.564 275.117 158.739 274.888Z" fill="#56CCF2"/>
<path d="M178.266 298.261C180.618 303.99 180.618 311.781 175.443 316.134C168.855 321.634 155.916 318.197 152.623 310.406C145.565 293.449 170.502 282.679 178.736 299.177C181.089 303.76 188.146 299.865 185.794 295.053C180.383 284.054 167.209 279.471 155.681 284.741C145.095 289.553 140.39 303.073 144.86 313.614C149.565 324.842 165.562 329.883 176.619 324.842C187.205 320.03 190.499 306.052 186.264 296.199C184.147 291.616 176.148 293.678 178.266 298.261Z" fill="#56CCF2"/>
<path d="M159.916 327.821C159.916 345.007 159.916 361.964 159.916 379.15C159.916 386.941 172.384 386.941 172.384 379.15C172.384 361.964 172.384 345.007 172.384 327.821C172.384 320.03 159.916 320.03 159.916 327.821Z" fill="#56CCF2"/>
<path d="M148.153 319.342C148.153 320.946 146.741 322.779 146.271 324.154C145.33 326.217 144.389 328.279 143.448 330.341C142.271 332.862 142.742 335.841 145.33 337.216C147.447 338.591 151.211 337.903 152.387 335.383C153.564 332.633 154.975 330.112 156.151 327.362C157.328 324.613 158.504 322.321 158.739 319.342C158.739 312.926 148.388 312.926 148.153 319.342Z" fill="#56CCF2"/>
<path d="M147.447 329.654C143.919 329.654 140.86 332.404 140.86 335.841C140.86 339.508 143.919 342.257 147.683 342.257C151.212 342.257 154.035 339.508 154.035 336.07C154.035 332.633 151.212 330.113 147.918 329.425C145.801 328.967 143.448 329.883 142.742 332.175C142.272 334.237 143.448 336.758 145.565 337.216C145.801 337.216 146.036 337.216 146.271 337.445C145.801 337.216 145.801 337.216 146.036 337.445C146.506 337.904 145.565 336.758 145.801 337.216C146.036 337.445 145.801 337.445 145.565 336.987C145.565 336.758 145.565 336.3 145.565 336.07C145.801 335.383 146.271 334.925 146.977 334.696C147.683 334.466 148.624 335.154 148.859 335.841C149.094 336.3 148.859 336.758 148.624 337.216C148.388 337.674 147.918 338.133 147.447 338.133C146.742 338.133 146.742 338.133 147.212 338.133C149.33 338.133 151.447 336.3 151.447 334.008C151.447 331.487 149.8 329.654 147.447 329.654Z" fill="#56CCF2"/>
<path d="M140.86 335.383C134.744 346.611 126.51 356.923 120.628 368.151C117.57 373.88 126.51 378.921 129.568 373.192C135.449 361.735 143.683 351.653 149.8 340.424C152.858 334.696 143.918 329.654 140.86 335.383Z" fill="#56CCF2"/>
<path d="M142.272 340.882C148.389 353.256 153.799 365.859 160.622 377.775C163.21 382.358 170.267 378.233 167.679 373.651C160.857 361.735 155.446 348.903 149.33 336.758C147.212 332.175 140.155 336.3 142.272 340.882Z" fill="#56CCF2"/>
<path d="M172.854 325.759C174.031 327.821 175.207 329.654 176.383 331.488C177.324 332.863 178.736 334.237 179.206 336.071C180.853 342.258 190.734 339.737 189.087 333.321C187.911 328.738 183.911 324.842 181.559 320.718C178.5 314.989 169.796 320.03 172.854 325.759Z" fill="#56CCF2"/>
<path d="M186.5 329.883C182.735 329.425 179.442 332.862 179.442 336.299C179.442 339.966 182.735 343.174 186.5 342.715C190.028 342.486 192.851 339.737 193.792 336.299C194.263 334.237 193.792 331.945 192.146 330.341C190.734 328.966 188.382 328.279 186.5 328.966C184.617 329.654 182.971 331.716 183.676 334.008C184.382 335.841 186.5 337.674 188.852 336.758C187.911 336.758 187.205 336.528 186.5 336.07C186.029 335.612 185.794 334.924 185.794 334.237C185.559 334.695 185.559 334.695 185.794 334.466C186.029 334.237 185.794 334.237 185.794 334.695C185.559 335.154 185.559 335.154 185.794 334.695C185.559 334.924 185.559 334.924 185.794 334.924C186.029 334.695 186.029 334.695 185.558 334.924C185.794 334.695 186.029 334.695 186.264 334.695C186.735 334.695 187.205 334.924 187.441 335.154C187.676 335.383 187.676 335.612 187.911 335.841C187.676 335.383 187.676 335.383 187.911 336.07C187.911 336.528 187.676 336.758 187.676 337.216C187.441 337.674 187.205 337.674 187.676 337.216C187.441 337.445 187.205 337.674 186.97 337.674C186.5 337.674 186.264 337.674 186.735 337.674C188.852 337.903 190.969 335.612 190.969 333.549C190.499 331.716 188.852 330.112 186.5 329.883Z" fill="#56CCF2"/>
<path d="M181.794 336.758C174.736 345.924 170.972 357.152 163.915 366.318C160.856 370.443 167.914 374.568 170.972 370.443C177.795 361.277 181.794 350.049 188.852 340.883C192.145 336.758 185.088 332.862 181.794 336.758Z" fill="#56CCF2"/>
<path d="M182.971 341.112C189.558 351.194 196.38 361.276 203.673 370.901C207.672 375.942 216.612 371.13 212.613 365.859C205.32 356.235 198.497 346.153 191.91 336.07C188.146 330.571 179.207 335.612 182.971 341.112Z" fill="#56CCF2"/>
<path d="M161.563 108.297C163.915 108.297 166.032 108.297 168.385 108.297C173.09 108.297 173.09 101.193 168.385 101.193C166.032 101.193 163.915 101.193 161.563 101.193C156.622 101.193 156.622 108.297 161.563 108.297Z" fill="#56CCF2"/>
<path d="M161.563 76.6748C163.68 76.6748 165.562 76.6748 167.679 76.6748C169.561 76.6748 171.208 75.0707 171.208 73.2374C171.208 71.4042 169.561 69.8 167.679 69.8C165.562 69.8 163.68 69.8 161.563 69.8C159.68 69.8 158.034 71.4042 158.034 73.2374C158.034 75.0707 159.68 76.6748 161.563 76.6748Z" fill="#56CCF2"/>
<path d="M160.857 47.5727C160.857 56.0511 160.857 64.5296 160.857 73.2372C160.857 78.5075 169.091 78.5075 169.091 73.2372C169.091 64.7587 169.091 56.2803 169.091 47.5727C169.091 42.5314 160.857 42.5314 160.857 47.5727Z" fill="#56CCF2"/>
<path d="M161.327 167.417C163.68 167.417 165.797 167.417 168.15 167.417C172.855 167.417 172.855 160.314 168.15 160.314C165.797 160.314 163.68 160.314 161.327 160.314C156.622 160.314 156.622 167.417 161.327 167.417Z" fill="#56CCF2"/>
<path d="M280.181 17.8844C283.474 12.6139 289.356 11.239 295.237 11.4682C298.06 11.4682 309.352 12.6139 311.234 15.3637C315.469 21.5508 325.585 15.822 321.35 9.63498C316.175 2.07304 303.941 0.239836 295.237 0.0106861C284.886 -0.218464 275.476 3.21879 269.83 12.1556C266.301 18.5718 276.417 24.3006 280.181 17.8844Z" fill="#56CCF2"/>
<path d="M270.065 15.5928C268.888 50.1942 276.652 84.3372 284.415 117.793C291.943 150.103 311.234 179.434 313.587 212.66C314.057 219.993 325.82 219.993 325.349 212.66C322.997 180.579 305.588 153.311 297.589 122.605C288.414 88.0036 280.416 51.569 281.827 15.5928C282.063 8.03092 270.3 8.03092 270.065 15.5928Z" fill="#56CCF2"/>
<path d="M310.764 14.6761C308.882 79.525 313.117 144.374 313.352 209.223C313.352 216.556 325.114 216.556 325.114 209.223C325.114 144.374 320.88 79.525 322.527 14.6761C322.527 7.34333 310.764 7.34333 310.764 14.6761Z" fill="#56CCF2"/>
<path d="M270.3 38.5076C265.124 104.273 256.42 169.58 253.126 235.575C249.833 301.799 252.421 368.252 260.89 434.017C261.831 441.35 273.594 441.35 272.653 434.017C264.183 368.252 261.831 301.799 264.889 235.575C268.183 169.58 276.887 104.273 282.063 38.5076C282.533 31.1749 270.77 31.1749 270.3 38.5076Z" fill="#56CCF2"/>
<path d="M314.293 206.931C315.704 245.199 326.996 282.092 328.173 320.589C329.584 358.856 326.29 397.353 326.055 435.621C326.055 442.954 337.818 442.954 337.818 435.621C338.053 397.353 341.347 358.856 339.935 320.589C338.524 282.321 327.467 245.199 326.055 206.931C325.82 199.599 314.057 199.599 314.293 206.931Z" fill="#56CCF2"/>
<path d="M264.654 441.579C286.768 447.766 309.587 447.766 331.936 441.808C339.229 439.975 336.171 428.747 328.878 430.809C308.411 436.309 288.179 436.08 267.947 430.58C260.419 428.518 257.361 439.517 264.654 441.579Z" fill="#56CCF2"/>
<path d="M308.176 162.706C298.295 163.622 288.885 162.018 281.122 169.58C277.122 173.476 281.122 180.809 286.768 179.205C295.002 176.913 303 179.205 310.999 181.038C318.292 182.871 321.585 171.872 314.057 170.039C303.706 167.518 294.061 165.226 283.474 168.205C285.356 171.414 287.238 174.622 289.12 177.83C293.825 173.247 301.589 174.851 307.705 174.392C315.704 173.476 315.939 162.018 308.176 162.706Z" fill="#56CCF2"/>
<path d="M318.997 210.598C302.294 210.369 287.238 215.868 274.299 225.951C269.829 229.388 274.77 237.408 279.945 235.575C292.178 231.221 304.647 229.846 317.821 231.68C325.349 232.596 325.349 221.139 317.821 220.222C303.941 218.389 290.061 219.993 276.887 224.576C278.769 227.784 280.651 230.992 282.533 234.2C292.884 226.18 305.588 222.055 318.997 222.285C326.526 222.285 326.526 210.827 318.997 210.598Z" fill="#56CCF2"/>
<path d="M323.232 262.615C312.175 263.532 302.059 266.281 291.708 269.719C283.474 272.468 276.181 274.301 270.535 280.947C267.006 285.071 270.3 292.175 276.181 290.571C292.179 286.217 308.411 282.78 325.114 284.384C332.642 285.071 332.642 273.614 325.114 272.927C307.235 271.323 290.061 275.218 272.888 279.572C274.77 282.78 276.652 285.988 278.534 289.196C283.239 283.467 290.297 282.322 297.119 280.03C305.588 277.28 313.822 274.989 322.997 274.301C330.76 273.385 330.76 261.927 323.232 262.615Z" fill="#56CCF2"/>
<path d="M328.878 317.839C311.705 317.61 295.002 320.589 278.769 326.547C271.712 329.067 274.299 338.921 281.828 337.546C298.766 334.338 315.704 334.567 332.642 338.233C339.935 339.837 343.229 328.838 335.701 327.234C316.645 323.339 297.825 323.11 278.534 326.547C279.475 330.213 280.651 333.88 281.592 337.546C296.884 331.817 312.175 329.067 328.643 329.297C336.406 329.297 336.406 317.839 328.878 317.839Z" fill="#56CCF2"/>
<path d="M297.589 53.8607C302.53 53.4024 308.411 54.319 312.175 58.6728C317.116 64.4014 325.349 56.1522 320.409 50.6527C314.998 44.4657 305.588 41.716 297.354 42.4034C290.061 42.8617 290.061 54.319 297.589 53.8607Z" fill="#56CCF2"/>
<path d="M401.593 410.744C409.827 338.562 418.061 266.38 426.295 194.199C427.471 183.887 428.647 173.575 429.824 163.264C430.529 157.077 420.413 157.077 419.708 163.264C411.474 235.445 403.24 307.627 395.006 379.809C393.83 390.12 392.653 400.432 391.477 410.744C390.771 416.931 400.887 416.931 401.593 410.744Z" fill="#56CCF2"/>
<path d="M455.466 410.973C447.938 338.791 440.41 266.38 433.117 194.199C431.941 183.887 431 173.575 429.824 163.264C429.118 157.077 419.002 157.077 419.708 163.264C427.236 235.445 434.764 307.856 442.057 380.038C443.233 390.349 444.174 400.661 445.35 410.973C446.056 417.16 455.937 417.16 455.466 410.973Z" fill="#56CCF2"/>
<path d="M432.646 213.676C435.234 215.738 437.822 217.801 440.41 219.634C441.586 220.321 443.233 219.863 443.939 218.717C444.644 217.572 444.174 216.197 442.998 215.28C440.645 213.676 438.528 211.843 436.175 210.01C433.823 208.176 430.294 211.614 432.646 213.676Z" fill="#56CCF2"/>
<path d="M438.998 217.114C438.998 248.965 438.998 280.817 438.998 312.897C438.998 316.105 443.938 316.105 443.938 312.897C443.938 281.046 443.938 249.194 443.938 217.114C443.938 213.906 438.998 213.906 438.998 217.114Z" fill="#56CCF2"/>
<path d="M413.355 210.01C410.767 211.614 407.944 213.218 405.357 214.822C402.534 216.426 405.121 220.78 407.944 218.946C410.532 217.342 413.355 215.738 415.943 214.134C418.531 212.53 415.943 208.177 413.355 210.01Z" fill="#56CCF2"/>
<path d="M404.416 217.342C404.416 245.298 404.416 273.255 404.416 301.211C404.416 304.419 409.356 304.419 409.356 301.211C409.356 273.255 409.356 245.298 409.356 217.342C409.356 214.363 404.416 214.363 404.416 217.342Z" fill="#56CCF2"/>
<path d="M391.477 412.118C389.83 416.014 388.418 419.91 387.242 423.805C385.36 429.763 395.006 432.513 396.888 426.326C398.064 422.43 399.475 418.306 401.122 414.639C402.063 412.118 399.946 409.369 397.593 408.681C394.77 407.994 392.418 409.598 391.477 412.118Z" fill="#56CCF2"/>
<path d="M442.527 414.639C442.527 418.306 442.997 422.201 444.174 425.868C446.056 431.825 455.701 429.305 453.819 423.347C452.878 420.597 452.643 417.847 452.643 414.868C452.643 408.223 442.527 408.223 442.527 414.639Z" fill="#56CCF2"/>
<path d="M455.937 429.762C457.819 428.158 459.936 426.554 461.818 424.721C463.465 423.346 463.7 420.367 462.524 418.763C459.936 415.097 457.583 411.202 454.996 407.306C451.702 401.807 442.998 406.848 446.291 412.347C448.644 416.243 451.231 419.909 453.819 423.805C454.055 421.742 454.29 419.909 454.525 417.847C452.643 419.451 450.526 421.055 448.644 422.888C443.939 427.013 450.996 433.887 455.937 429.762Z" fill="#56CCF2"/>
<path d="M393.124 432.513C411.709 432.513 430.529 432.513 449.114 432.513C455.701 432.513 455.701 422.659 449.114 422.659C430.529 422.659 411.709 422.659 393.124 422.659C386.772 422.659 386.772 432.513 393.124 432.513Z" fill="#56CCF2"/>
<path d="M414.532 264.089C418.766 264.089 423.001 264.089 427 264.089C430.294 264.089 430.294 259.277 427 259.277C422.766 259.277 418.531 259.277 414.532 259.277C411.238 259.047 411.238 264.089 414.532 264.089Z" fill="#56CCF2"/>
<path d="M414.061 275.546C419.942 275.546 426.059 275.546 431.94 275.546C435.234 275.546 435.234 270.734 431.94 270.734C426.059 270.734 419.942 270.734 414.061 270.734C411.003 270.734 411.003 275.546 414.061 275.546Z" fill="#56CCF2"/>
<path d="M419.472 285.629C424.883 285.629 430.059 285.629 435.47 285.629C438.763 285.629 438.763 280.817 435.47 280.817C430.059 280.817 424.883 280.817 419.472 280.817C416.414 280.588 416.414 285.629 419.472 285.629Z" fill="#56CCF2"/>
<path d="M410.297 298.461C416.649 298.461 423 298.461 429.352 298.461C432.646 298.461 432.646 293.649 429.352 293.649C423 293.649 416.649 293.649 410.297 293.649C407.238 293.42 407.238 298.461 410.297 298.461Z" fill="#56CCF2"/>
<path d="M416.179 308.315C423.236 308.315 430.294 308.315 437.116 308.315C440.41 308.315 440.41 303.502 437.116 303.502C430.059 303.502 423.001 303.502 416.179 303.502C412.885 303.502 412.885 308.315 416.179 308.315Z" fill="#56CCF2"/>
<path d="M409.356 320.459C416.649 320.459 423.707 320.459 431 320.459C434.293 320.459 434.293 315.647 431 315.647C423.707 315.647 416.649 315.647 409.356 315.647C406.063 315.647 406.063 320.459 409.356 320.459Z" fill="#56CCF2"/>
<path d="M416.179 330.771C424.648 330.771 432.882 330.771 441.351 330.771C444.644 330.771 444.644 325.958 441.351 325.958C432.882 325.958 424.648 325.958 416.179 325.958C412.885 325.958 412.885 330.771 416.179 330.771Z" fill="#56CCF2"/>
<path d="M407.709 340.395C415.238 340.395 422.766 340.395 430.529 340.395C433.823 340.395 433.823 335.583 430.529 335.583C423.001 335.583 415.473 335.583 407.709 335.583C404.416 335.354 404.416 340.395 407.709 340.395Z" fill="#56CCF2"/>
<path d="M415.473 348.186C424.177 348.186 432.881 348.186 441.586 348.186C444.879 348.186 444.879 343.374 441.586 343.374C432.881 343.374 424.177 343.374 415.473 343.374C412.179 343.374 412.179 348.186 415.473 348.186Z" fill="#56CCF2"/>
<path d="M405.357 356.436C415.002 356.436 424.648 356.436 434.293 356.436C437.587 356.436 437.587 351.624 434.293 351.624C424.648 351.624 415.002 351.624 405.357 351.624C402.063 351.624 402.063 356.436 405.357 356.436Z" fill="#56CCF2"/>
<path d="M410.768 366.518C421.824 366.518 432.881 366.518 443.938 366.518C447.232 366.518 447.232 361.706 443.938 361.706C432.881 361.706 421.824 361.706 410.768 361.706C407.474 361.477 407.474 366.518 410.768 366.518Z" fill="#56CCF2"/>
<path d="M401.828 375.913C412.65 375.913 423.471 375.913 434.293 375.913C437.587 375.913 437.587 371.101 434.293 371.101C423.471 371.101 412.65 371.101 401.828 371.101C398.77 371.101 398.77 375.913 401.828 375.913Z" fill="#56CCF2"/>
<path d="M409.356 385.995C421.354 385.995 433.352 385.995 445.35 385.995C448.644 385.995 448.644 381.183 445.35 381.183C433.352 381.183 421.354 381.183 409.356 381.183C406.063 380.954 406.063 385.995 409.356 385.995Z" fill="#56CCF2"/>
<path d="M401.828 394.932C413.355 394.932 424.648 394.932 436.175 394.932C439.469 394.932 439.469 390.12 436.175 390.12C424.648 390.12 413.355 390.12 401.828 390.12C398.77 389.891 398.77 394.932 401.828 394.932Z" fill="#56CCF2"/>
<path d="M407.004 406.389C420.413 406.389 433.588 406.389 446.997 406.389C450.291 406.389 450.291 401.578 446.997 401.578C433.588 401.578 420.413 401.578 407.004 401.578C403.71 401.578 403.71 406.389 407.004 406.389Z" fill="#56CCF2"/>
<path d="M403.709 415.555C418.06 415.555 432.41 415.555 446.761 415.555C450.054 415.555 450.054 410.744 446.761 410.744C432.41 410.744 418.06 410.744 403.709 410.744C400.416 410.744 400.416 415.555 403.709 415.555Z" fill="#56CCF2"/>
<path d="M405.357 413.493C403.475 416.243 401.828 419.222 400.652 422.43C399.711 425.409 404.416 426.784 405.592 423.805C406.533 421.055 407.945 418.535 409.592 416.014C411.474 413.493 407.004 410.973 405.357 413.493Z" fill="#56CCF2"/>
<path d="M406.298 415.097C406.533 417.847 407.239 420.139 408.415 422.659C408.886 423.805 410.768 424.034 411.944 423.576C413.355 422.889 413.355 421.514 412.885 420.139C412.179 418.535 411.709 416.701 411.473 415.097C411.238 413.722 410.532 412.577 408.886 412.577C407.709 412.806 406.298 413.722 406.298 415.097Z" fill="#56CCF2"/>
<path d="M414.296 423.805C415.708 421.055 417.355 418.764 419.472 416.472C418.06 416.243 416.884 416.243 415.473 416.014C417.355 418.764 419.001 421.514 420.413 424.492C421.824 427.242 426.294 424.722 424.647 421.972C423.001 418.993 421.354 416.243 419.707 413.494C419.001 412.348 416.884 411.66 415.708 413.035C413.355 415.556 411.473 418.306 409.826 421.284C408.415 424.034 412.649 426.555 414.296 423.805Z" fill="#56CCF2"/>
<path d="M425.354 413.722C423.472 416.701 422.295 420.139 421.119 423.347C420.178 426.326 425.118 427.7 426.059 424.721C427 421.743 428.177 418.993 429.823 416.243C431.235 413.493 426.765 410.973 425.354 413.722Z" fill="#56CCF2"/>
<path d="M426.53 416.014C427.235 418.535 428.412 420.826 429.353 423.347C429.823 424.493 431.705 424.951 432.882 424.263C434.058 423.576 434.293 422.201 433.823 420.826C432.882 418.764 432.176 416.701 431.47 414.639C430.529 411.66 425.589 413.035 426.53 416.014Z" fill="#56CCF2"/>
<path d="M434.057 413.264C433.587 414.869 432.646 416.243 431.94 417.847C431.234 419.451 430.529 421.056 430.058 422.66C429.117 425.639 434.057 427.013 434.998 424.034C435.939 420.826 438.292 417.847 438.998 414.639C439.703 411.431 434.763 410.286 434.057 413.264Z" fill="#56CCF2"/>
<path d="M435.94 415.785C437.351 417.618 438.763 419.68 440.175 421.743C441.821 424.493 446.291 421.972 444.409 419.222C442.998 416.701 441.351 414.639 439.469 412.348C438.528 411.202 436.881 411.431 435.94 412.348C434.764 413.264 434.999 414.868 435.94 415.785Z" fill="#56CCF2"/>
<path d="M734.032 435.011C730.268 380.473 727.915 325.707 729.797 270.94C731.679 216.861 729.562 162.095 741.09 108.932C742.266 103.891 734.267 101.829 733.326 106.87C721.799 159.345 723.681 213.195 721.799 266.587C719.681 322.728 722.034 379.098 725.798 435.011C726.504 440.052 734.503 440.052 734.032 435.011Z" fill="#56CCF2"/>
<path d="M741.325 108.245C741.325 104.808 749.088 104.579 751.676 104.349C758.499 103.891 765.086 104.808 771.438 107.099C776.378 108.932 778.495 101.37 773.555 99.5372C764.145 96.0999 733.797 91.746 733.326 108.474C733.091 113.516 741.09 113.516 741.325 108.245Z" fill="#56CCF2"/>
<path d="M795.198 437.531C794.257 326.165 801.315 214.341 777.083 104.349C775.907 99.3082 768.144 101.6 769.32 106.412C793.551 215.486 786.258 326.623 787.199 437.531C787.199 442.572 795.198 442.572 795.198 437.531Z" fill="#56CCF2"/>
<path d="M728.386 441.197C746.971 451.738 774.496 454.717 792.845 442.114C797.08 439.135 793.081 432.49 788.846 435.24C773.084 446.009 748.382 443.26 732.385 434.323C727.915 432.032 723.681 438.677 728.386 441.197Z" fill="#56CCF2"/>
<path d="M734.738 139.868C749.089 132.993 764.615 132.305 779.436 137.805C781.789 138.722 782.965 134.826 780.613 133.91C764.615 127.952 748.148 129.097 732.856 136.43C730.268 137.576 732.385 141.013 734.738 139.868Z" fill="#56CCF2"/>
<path d="M739.443 170.115C740.384 170.115 741.56 170.115 742.501 170.115C745.089 170.115 745.089 166.22 742.501 166.22C741.56 166.22 740.384 166.22 739.443 166.22C736.855 166.22 736.855 170.115 739.443 170.115Z" fill="#56CCF2"/>
<path d="M744.383 185.468C746.736 185.468 748.853 185.468 751.206 185.468C753.793 185.468 753.793 181.573 751.206 181.573C748.853 181.573 746.736 181.573 744.383 181.573C741.795 181.573 741.795 185.468 744.383 185.468Z" fill="#56CCF2"/>
<path d="M754.97 208.612C756.617 208.612 758.264 208.612 759.91 208.612C762.498 208.612 762.498 204.717 759.91 204.717C758.264 204.717 756.617 204.717 754.97 204.717C752.382 204.717 752.382 208.612 754.97 208.612Z" fill="#56CCF2"/>
<path d="M746.265 234.506C747.206 234.506 748.382 234.506 749.323 234.506C751.911 234.506 751.911 230.61 749.323 230.61C748.382 230.61 747.206 230.61 746.265 230.61C743.677 230.61 743.677 234.506 746.265 234.506Z" fill="#56CCF2"/>
<path d="M761.792 253.067C762.498 253.067 762.969 253.067 763.674 253.067C766.262 253.067 766.262 249.171 763.674 249.171C762.969 249.171 762.498 249.171 761.792 249.171C759.205 249.171 759.205 253.067 761.792 253.067Z" fill="#56CCF2"/>
<path d="M769.79 282.398C770.731 282.398 771.437 282.398 772.378 282.398C774.966 282.398 774.966 278.502 772.378 278.502C771.437 278.502 770.731 278.502 769.79 278.502C767.203 278.502 767.203 282.398 769.79 282.398Z" fill="#56CCF2"/>
<path d="M754.97 306.229C756.382 306.229 757.793 306.229 759.205 306.229C761.792 306.229 761.792 302.333 759.205 302.333C757.793 302.333 756.382 302.333 754.97 302.333C752.382 302.333 752.382 306.229 754.97 306.229Z" fill="#56CCF2"/>
<path d="M737.09 327.54C738.737 327.54 740.384 327.54 742.031 327.54C744.618 327.54 744.618 323.644 742.031 323.644C740.384 323.644 738.737 323.644 737.09 323.644C734.502 323.644 734.502 327.54 737.09 327.54Z" fill="#56CCF2"/>
<path d="M750.03 350.684C751.206 350.684 752.618 350.684 753.794 350.684C756.382 350.684 756.382 346.788 753.794 346.788C752.618 346.788 751.206 346.788 750.03 346.788C747.442 346.788 747.442 350.684 750.03 350.684Z" fill="#56CCF2"/>
<path d="M758.733 369.932C760.145 369.932 761.556 369.932 762.968 369.932C765.556 369.932 765.556 366.037 762.968 366.037C761.556 366.037 760.145 366.037 758.733 366.037C756.146 366.037 756.146 369.932 758.733 369.932Z" fill="#56CCF2"/>
<path d="M770.496 403.159C771.672 403.159 773.084 403.159 774.26 403.159C776.848 403.159 776.848 399.263 774.26 399.263C773.084 399.263 771.672 399.263 770.496 399.263C767.908 399.263 767.908 403.159 770.496 403.159Z" fill="#56CCF2"/>
<path d="M765.556 435.01C766.497 435.01 767.673 435.01 768.614 435.01C771.202 435.01 771.202 431.115 768.614 431.115C767.673 431.115 766.497 431.115 765.556 431.115C762.968 431.115 762.968 435.01 765.556 435.01Z" fill="#56CCF2"/>
<path d="M762.028 124.285C764.616 124.285 766.968 124.285 769.556 124.285C772.144 124.285 772.144 120.39 769.556 120.39C766.968 120.39 764.616 120.39 762.028 120.39C759.44 120.161 759.44 124.285 762.028 124.285Z" fill="#56CCF2"/>
<path d="M752.382 116.036C753.088 116.036 753.794 116.036 754.5 116.036C757.087 116.036 757.087 112.14 754.5 112.14C753.794 112.14 753.088 112.14 752.382 112.14C749.794 112.14 749.794 116.036 752.382 116.036Z" fill="#56CCF2"/>
<path d="M888.932 80.693C888.932 93.5253 888.932 106.358 888.932 119.19C888.932 125.835 899.519 125.835 899.519 119.19C899.519 106.358 899.519 93.5253 899.519 80.693C899.519 74.0477 888.932 74.0477 888.932 80.693Z" fill="#56CCF2"/>
<path d="M892.932 85.5047C892.932 176.706 892.932 267.907 892.932 359.337C892.932 374.232 892.932 389.126 892.932 404.021C892.932 410.666 903.518 410.666 903.518 404.021C903.518 312.82 903.518 221.619 903.518 130.189C903.518 115.294 903.518 100.399 903.518 85.5047C903.518 78.8594 892.932 78.8594 892.932 85.5047Z" fill="#56CCF2"/>
<path d="M886.815 123.314C886.815 216.807 886.815 310.299 886.815 403.792C886.815 410.437 897.401 410.437 897.401 403.792C897.401 310.299 897.401 216.807 897.401 123.314C897.401 116.669 886.815 116.669 886.815 123.314Z" fill="#56CCF2"/>
<path d="M877.405 203.745C877.405 224.598 877.405 245.45 877.405 266.303C877.405 272.948 887.991 272.948 887.991 266.303C887.991 245.45 887.991 224.598 887.991 203.745C888.226 197.1 877.405 197.1 877.405 203.745Z" fill="#56CCF2"/>
<path d="M870.347 271.802C870.347 291.738 870.347 311.674 870.347 331.839C870.347 338.485 880.934 338.485 880.934 331.839C880.934 311.903 880.934 291.967 880.934 271.802C880.934 265.157 870.347 265.157 870.347 271.802Z" fill="#56CCF2"/>
<path d="M903.753 151.27C903.753 174.873 903.753 198.704 903.753 222.306C903.753 228.951 914.339 228.951 914.339 222.306C914.339 198.704 914.339 174.873 914.339 151.27C914.339 144.396 903.753 144.396 903.753 151.27Z" fill="#56CCF2"/>
<path d="M909.164 228.493C909.164 248.429 909.164 268.136 909.164 288.072C909.164 294.717 919.75 294.717 919.75 288.072C919.75 268.136 919.75 248.429 919.75 228.493C919.986 221.848 909.164 221.848 909.164 228.493Z" fill="#56CCF2"/>
<path d="M916.457 293.342C916.457 311.903 916.457 330.464 916.457 349.025C916.457 355.67 927.044 355.67 927.044 349.025C927.044 330.464 927.044 311.903 927.044 293.342C927.044 286.697 916.457 286.697 916.457 293.342Z" fill="#56CCF2"/>
<path d="M862.349 338.255C862.349 359.108 862.349 379.96 862.349 400.813C862.349 407.458 872.935 407.458 872.935 400.813C872.935 379.96 872.935 359.108 872.935 338.255C873.17 331.61 862.349 331.61 862.349 338.255Z" fill="#56CCF2"/>
<path d="M921.868 351.316C921.868 369.648 921.868 387.98 921.868 406.083C921.868 412.728 932.454 412.728 932.454 406.083C932.454 387.751 932.454 369.419 932.454 351.316C932.689 344.671 921.868 344.671 921.868 351.316Z" fill="#56CCF2"/>
<path d="M891.284 423.956C891.284 418.915 891.284 413.645 891.284 408.604C889.402 410.437 887.756 412.041 885.874 413.874C891.52 413.645 898.812 412.728 904.223 414.332C903.047 413.645 902.106 412.728 900.93 412.041C900.224 410.895 900.694 410.666 900.694 412.27C900.694 413.416 900.694 414.791 900.694 415.936C900.694 418.228 900.694 420.29 900.694 422.582C900.694 429.227 911.281 429.227 911.281 422.582C911.281 417.54 913.398 407.229 907.517 404.479C904.459 403.104 900.694 403.333 897.401 403.333C893.402 403.104 889.638 403.333 885.638 403.333C882.815 403.333 880.228 405.625 880.228 408.604C880.228 413.645 880.228 418.915 880.228 423.956C880.698 430.602 891.284 430.602 891.284 423.956Z" fill="#56CCF2"/>
<path d="M886.109 431.289C892.931 431.289 899.518 431.289 906.341 431.289C913.163 431.289 913.163 420.978 906.341 420.978C899.518 420.978 892.931 420.978 886.109 420.978C879.051 420.978 879.051 431.289 886.109 431.289Z" fill="#56CCF2"/>
<path d="M867.289 398.292C862.819 398.292 858.349 398.292 853.879 398.292C851.056 398.292 848.468 400.584 848.468 403.563C848.468 405.854 849.174 409.291 848.704 411.583C849.88 410.437 851.291 409.062 852.468 407.916C849.174 408.833 844.94 408.375 841.411 408.375C838.588 408.375 836 410.666 836 413.645C836 417.999 836 422.353 836 426.707C836 429.686 838.353 431.748 841.411 431.977C855.526 432.435 869.406 433.123 883.521 433.581C890.344 433.81 890.344 423.499 883.521 423.269C869.406 422.811 855.526 422.124 841.411 421.665C843.293 423.499 844.94 425.103 846.822 426.936C846.822 422.582 846.822 418.228 846.822 413.874C844.94 415.708 843.293 417.312 841.411 419.145C845.881 418.916 850.821 419.374 855.291 418.228C857.173 417.77 858.584 416.395 859.055 414.562C859.996 411.125 859.29 407.458 859.29 403.792C857.408 405.625 855.761 407.229 853.879 409.062C858.349 409.062 862.819 409.062 867.289 409.062C874.111 408.604 874.111 398.292 867.289 398.292Z" fill="#56CCF2"/>
<path d="M925.867 410.895C928.69 410.895 933.16 410.208 935.983 410.895C934.807 409.75 933.395 408.375 932.219 407.229C932.454 409.52 932.454 411.812 932.454 414.103C932.454 416.853 934.807 419.374 937.865 419.374C940.453 419.145 943.041 419.374 945.628 419.832C944.452 418.686 943.041 417.311 941.864 416.166C942.805 418.457 944.217 423.957 943.982 426.477C945.158 425.332 946.569 423.957 947.746 422.811C941.629 424.644 931.984 423.269 925.867 423.269C918.339 423.498 910.576 423.498 903.047 423.728C896.225 423.957 896.225 434.268 903.047 434.039C911.752 433.81 920.692 433.581 929.396 433.352C935.983 433.123 944.452 434.497 950.804 432.664C952.451 432.206 954.333 430.831 954.568 428.998C955.274 424.644 954.568 417.311 952.451 413.187C949.863 407.916 943.511 408.604 938.336 408.604C940.218 410.437 941.864 412.041 943.746 413.874C943.746 410.666 944.217 407.458 943.276 404.25C942.805 402.417 941.394 401.042 939.512 400.584C935.513 399.667 930.807 400.125 926.573 400.125C919.045 400.584 919.045 410.895 925.867 410.895Z" fill="#56CCF2"/>
<path d="M902.341 85.7338C902.341 69.9226 902.341 53.8823 902.341 38.0711C902.341 31.4258 891.755 31.4258 891.755 38.0711C891.755 53.8823 891.755 69.9226 891.755 85.7338C891.52 92.3791 902.341 92.3791 902.341 85.7338Z" fill="#56CCF2"/>
<path d="M996.434 220.472C1019.96 272.03 1029.37 328.172 1024.43 384.313C1024.19 387.292 1029.13 387.292 1029.37 384.313C1034.31 327.255 1024.43 270.426 1000.67 218.181C999.257 215.431 995.258 217.722 996.434 220.472Z" fill="#56CCF2"/>
<path d="M998.551 219.556C1022.31 236.283 1039.25 259.657 1047.72 286.925C1056.19 314.194 1059.72 345.816 1051.72 373.543C1050.78 376.522 1055.48 377.668 1056.42 374.918C1064.89 345.358 1061.13 310.986 1051.25 282.113C1042.07 255.074 1024.66 232.388 1001.14 215.66C998.551 213.598 996.199 217.722 998.551 219.556Z" fill="#56CCF2"/>
<path d="M1003.96 220.014C1003.96 209.702 1003.96 199.391 1003.96 189.079C1003.96 186.1 999.021 186.1 999.021 189.079C999.021 199.391 999.021 209.702 999.021 220.014C999.021 222.993 1003.96 222.993 1003.96 220.014Z" fill="#56CCF2"/>
<path d="M998.081 223.909C998.081 274.322 998.081 324.734 998.081 375.147C998.081 378.126 1003.02 378.126 1003.02 375.147C1003.02 324.734 1003.02 274.322 1003.02 223.909C1003.02 220.93 998.081 220.93 998.081 223.909Z" fill="#56CCF2"/>
<path d="M1002.32 263.552C1006.31 263.552 1010.31 263.323 1014.08 262.864C1017.14 262.406 1017.14 257.823 1014.08 258.052C1010.08 258.511 1006.31 258.74 1002.32 258.74C999.257 258.74 999.257 263.552 1002.32 263.552Z" fill="#56CCF2"/>
<path d="M1014.31 262.406C1022.31 262.406 1030.31 262.635 1038.31 262.635C1041.37 262.635 1041.37 257.823 1038.31 257.823C1030.31 257.823 1022.31 257.594 1014.31 257.594C1011.02 257.594 1011.02 262.406 1014.31 262.406Z" fill="#56CCF2"/>
<path d="M1025.84 261.948C1040.9 301.132 1044.43 342.15 1040.19 383.397C1039.96 386.376 1044.66 386.376 1045.13 383.397C1049.37 341.692 1045.84 299.987 1030.55 260.573C1029.37 257.823 1024.66 259.198 1025.84 261.948Z" fill="#56CCF2"/>
<path d="M1000.9 273.176C1006.08 273.864 1011.26 274.78 1016.2 275.468C1019.25 275.926 1020.67 271.343 1017.61 270.885C1012.43 270.197 1007.26 269.281 1002.32 268.593C999.022 267.906 997.846 272.489 1000.9 273.176Z" fill="#56CCF2"/>
<path d="M1015.02 275.009C1009.84 284.175 1004.2 293.112 998.081 301.591C996.199 304.111 1000.43 306.403 1002.32 303.882C1008.43 295.404 1014.08 286.467 1019.25 277.301C1020.9 274.78 1016.67 272.26 1015.02 275.009Z" fill="#56CCF2"/>
<path d="M999.962 307.548C1007.73 308.923 1015.25 310.986 1022.55 313.277C1025.6 314.194 1026.78 309.611 1023.96 308.694C1016.43 306.403 1008.9 304.34 1001.37 302.966C998.315 302.507 996.904 307.09 999.962 307.548Z" fill="#56CCF2"/>
<path d="M1023.49 313.048C1015.02 322.214 1007.02 331.609 999.021 341.004C997.139 343.296 1000.43 346.733 1002.55 344.441C1010.31 334.817 1018.55 325.422 1027.02 316.485C1029.13 313.965 1025.61 310.757 1023.49 313.048Z" fill="#56CCF2"/>
<path d="M999.728 346.504C1009.37 346.045 1018.08 351.316 1027.49 352.232C1030.55 352.462 1030.55 347.879 1027.49 347.42C1017.84 346.274 1009.61 341.004 999.728 341.691C996.434 341.921 996.434 346.733 999.728 346.504Z" fill="#56CCF2"/>
<path d="M1025.61 350.628C1016.9 357.274 1008.43 364.377 1000.43 371.481C998.081 373.543 1001.61 376.98 1003.96 374.918C1012.2 367.585 1020.43 360.711 1029.13 354.066C1031.49 352.232 1027.96 348.795 1025.61 350.628Z" fill="#56CCF2"/>
<path d="M986.788 270.656C991.493 271.343 996.434 272.031 1001.14 270.426C1003.96 269.281 1002.79 264.697 999.727 265.843C995.963 267.218 991.964 266.76 987.965 266.072C984.906 265.614 983.73 270.197 986.788 270.656Z" fill="#56CCF2"/>
<path d="M989.141 269.739C993.376 268.822 997.14 267.218 1000.9 265.156C1003.73 263.781 1001.14 259.657 998.551 261.031C995.258 262.864 991.729 264.239 987.965 265.156C984.671 265.843 986.083 270.655 989.141 269.739Z" fill="#56CCF2"/>
<path d="M1041.37 262.177C1042.31 262.177 1043.25 262.177 1044.19 262.177C1047.25 262.177 1047.25 257.365 1044.19 257.365C1043.25 257.365 1042.31 257.365 1041.37 257.365C1038.31 257.365 1038.31 262.177 1041.37 262.177Z" fill="#56CCF2"/>
<path d="M999.727 379.042C1008.43 380.646 1015.96 385.459 1024.43 387.75C1027.49 388.667 1028.66 384.084 1025.84 383.167C1017.37 380.876 1009.84 376.063 1001.14 374.459C997.845 374.001 996.669 378.584 999.727 379.042Z" fill="#56CCF2"/>
<path d="M1026.55 387.75C1037.6 388.438 1048.19 384.313 1055.72 376.064C1057.84 373.772 1054.31 370.335 1052.19 372.626C1045.6 379.959 1036.43 383.625 1026.55 382.938C1023.49 382.709 1023.49 387.521 1026.55 387.75Z" fill="#56CCF2"/>
<path d="M1023.25 270.426C1024.9 270.426 1026.78 270.426 1028.43 270.426C1031.49 270.426 1031.49 265.614 1028.43 265.614C1026.78 265.614 1024.9 265.614 1023.25 265.614C1019.96 265.843 1019.96 270.426 1023.25 270.426Z" fill="#56CCF2"/>
<path d="M1024.43 278.446C1026.55 278.446 1028.9 278.446 1031.02 278.446C1034.07 278.446 1034.07 273.635 1031.02 273.635C1028.9 273.635 1026.55 273.635 1024.43 273.635C1021.14 273.635 1021.14 278.446 1024.43 278.446Z" fill="#56CCF2"/>
<path d="M1026.31 286.925C1028.9 286.925 1031.25 286.925 1033.84 286.925C1036.9 286.925 1036.9 282.113 1033.84 282.113C1031.25 282.113 1028.9 282.113 1026.31 282.113C1023.25 282.342 1023.25 286.925 1026.31 286.925Z" fill="#56CCF2"/>
<path d="M1027.96 297.007C1030.08 297.237 1031.96 297.237 1034.07 297.237C1035.49 297.237 1036.43 296.091 1036.43 294.945C1036.43 293.8 1035.25 292.425 1034.07 292.654C1031.96 292.883 1030.08 292.654 1027.96 292.425C1026.55 292.196 1025.61 293.57 1025.61 294.716C1025.61 295.862 1026.78 296.778 1027.96 297.007Z" fill="#56CCF2"/>
<path d="M1029.37 304.799C1031.49 304.799 1033.84 304.799 1035.96 304.799C1039.01 304.799 1039.01 299.986 1035.96 299.986C1033.84 299.986 1031.49 299.986 1029.37 299.986C1026.31 300.215 1026.31 304.799 1029.37 304.799Z" fill="#56CCF2"/>
<path d="M1030.55 315.568C1032.9 315.568 1035.25 315.568 1037.6 315.568C1040.66 315.568 1040.66 310.757 1037.6 310.757C1035.25 310.757 1032.9 310.757 1030.55 310.757C1027.49 310.757 1027.49 315.568 1030.55 315.568Z" fill="#56CCF2"/>
<path d="M1033.13 324.735C1035.72 324.735 1038.31 324.735 1040.9 324.735C1043.96 324.735 1043.96 319.923 1040.9 319.923C1038.31 319.923 1035.72 319.923 1033.13 319.923C1030.08 319.923 1030.08 324.735 1033.13 324.735Z" fill="#56CCF2"/>
<path d="M1034.31 333.9C1037.6 333.9 1040.9 333.9 1043.96 333.9C1047.01 333.9 1047.01 329.088 1043.96 329.088C1040.66 329.088 1037.37 329.088 1034.31 329.088C1031.25 329.088 1031.25 333.9 1034.31 333.9Z" fill="#56CCF2"/>
<path d="M1034.31 341.233C1037.6 341.233 1040.9 341.233 1043.96 341.233C1047.01 341.233 1047.01 336.421 1043.96 336.421C1040.66 336.421 1037.37 336.421 1034.31 336.421C1031.25 336.421 1031.25 341.233 1034.31 341.233Z" fill="#56CCF2"/>
<path d="M1033.6 352.003C1036.66 352.003 1039.72 352.003 1042.78 352.003C1045.84 352.003 1045.84 347.191 1042.78 347.191C1039.72 347.191 1036.66 347.191 1033.6 347.191C1030.31 347.421 1030.31 352.003 1033.6 352.003Z" fill="#56CCF2"/>
<path d="M1032.66 362.086C1035.72 362.086 1038.54 362.086 1041.6 362.086C1044.66 362.086 1044.66 357.273 1041.6 357.273C1038.54 357.273 1035.72 357.273 1032.66 357.273C1029.37 357.273 1029.37 362.086 1032.66 362.086Z" fill="#56CCF2"/>
<path d="M1033.13 371.939C1036.19 371.939 1039.25 371.939 1042.31 371.939C1045.37 371.939 1045.37 367.127 1042.31 367.127C1039.25 367.127 1036.19 367.127 1033.13 367.127C1030.08 367.127 1030.08 371.939 1033.13 371.939Z" fill="#56CCF2"/>
<path d="M1031.72 383.167C1034.54 383.167 1037.37 383.167 1040.43 383.167C1043.48 383.167 1043.48 378.355 1040.43 378.355C1037.6 378.355 1034.78 378.355 1031.72 378.355C1028.66 378.355 1028.66 383.167 1031.72 383.167Z" fill="#56CCF2"/>
<path d="M1022.08 299.987C1017.37 299.528 1012.67 298.841 1007.96 297.466C1004.9 296.549 1003.73 301.132 1006.55 302.049C1011.73 303.424 1016.67 304.34 1022.08 304.569C1025.37 305.028 1025.37 300.216 1022.08 299.987Z" fill="#56CCF2"/>
<path d="M1001.37 316.027C1004.2 316.027 1007.02 316.256 1009.84 317.172C1012.9 318.089 1014.08 313.506 1011.26 312.589C1008.2 311.673 1004.9 311.215 1001.61 311.215C998.316 311.444 998.316 316.256 1001.37 316.027Z" fill="#56CCF2"/>
<path d="M1005.84 325.193C1008.67 325.193 1011.49 325.651 1014.08 326.797C1016.9 328.172 1019.49 324.047 1016.43 322.672C1013.14 321.068 1009.61 320.38 1005.84 320.38C1002.79 320.61 1002.79 325.193 1005.84 325.193Z" fill="#56CCF2"/>
<path d="M1013.61 338.483C1017.61 339.171 1021.37 340.317 1025.13 341.691C1027.96 342.837 1029.37 338.254 1026.55 337.109C1022.78 335.505 1019.02 334.588 1015.02 333.901C1011.73 333.442 1010.55 338.025 1013.61 338.483Z" fill="#56CCF2"/>
<path d="M1020.43 330.005C1022.31 330.234 1023.96 330.693 1025.6 331.609C1028.43 332.984 1030.78 329.088 1027.96 327.484C1025.6 326.109 1023.02 325.422 1020.43 325.193C1019.02 324.964 1018.08 326.339 1018.08 327.484C1018.08 329.088 1019.25 330.005 1020.43 330.005Z" fill="#56CCF2"/>
<path d="M1014.55 294.716C1016.43 294.487 1018.08 294.716 1019.72 295.174C1022.78 296.091 1023.96 291.508 1021.14 290.591C1019.02 290.133 1016.9 289.904 1014.78 289.904C1013.37 289.904 1012.43 290.821 1012.43 292.196C1011.96 293.57 1013.14 294.716 1014.55 294.716Z" fill="#56CCF2"/>
<path d="M1002.32 281.426C1003.49 281.196 1004.9 281.426 1006.08 281.884C1009.14 282.8 1010.31 278.218 1007.49 277.301C1005.37 276.613 1003.26 276.613 1001.14 276.843C999.728 277.072 999.022 278.676 999.492 279.822C999.728 281.196 1001.14 281.655 1002.32 281.426Z" fill="#56CCF2"/>
<path d="M1013.37 375.834C1016.9 377.209 1020.43 378.584 1023.72 379.959C1026.55 381.105 1027.96 376.522 1025.13 375.376C1021.61 374.001 1018.08 372.627 1014.78 371.252C1011.73 370.106 1010.55 374.689 1013.37 375.834Z" fill="#56CCF2"/>
<path d="M1020.43 369.648C1023.02 369.648 1025.37 370.335 1027.96 371.252C1031.02 372.397 1032.19 367.815 1029.37 366.669C1026.55 365.752 1023.72 365.065 1020.67 365.065C1017.37 364.836 1017.37 369.419 1020.43 369.648Z" fill="#56CCF2"/>
<path d="M1001.84 354.982C1004.9 354.753 1007.49 355.898 1010.31 357.044C1011.49 357.502 1012.9 357.502 1013.61 356.127C1014.31 355.211 1013.84 353.378 1012.67 352.919C1009.14 351.545 1005.61 350.17 1001.84 350.17C998.551 350.399 998.551 355.211 1001.84 354.982Z" fill="#56CCF2"/>
<path d="M1001.37 363.002C1002.32 363.231 1003.26 363.231 1004.2 363.461C1005.61 363.69 1006.79 363.231 1007.26 361.857C1007.49 360.711 1006.79 359.107 1005.61 358.878C1004.67 358.648 1003.73 358.648 1002.79 358.419C1001.37 358.19 1000.2 358.648 999.728 360.023C999.492 361.169 1000.2 362.773 1001.37 363.002Z" fill="#56CCF2"/>
<path d="M527.705 357.637C527.705 377.801 527.705 397.737 527.705 417.902C527.705 421.11 532.881 421.11 532.881 417.902C532.881 397.737 532.881 377.801 532.881 357.637C532.881 354.199 527.705 354.199 527.705 357.637Z" fill="#56CCF2"/>
<path d="M526.293 358.553C575.697 358.553 625.335 358.553 674.739 358.553C678.032 358.553 678.032 353.512 674.739 353.512C625.335 353.512 575.697 353.512 526.293 353.512C523 353.283 523 358.553 526.293 358.553Z" fill="#56CCF2"/>
<path d="M523.47 345.491C573.579 345.491 623.453 345.491 673.562 345.491C676.856 345.491 676.856 340.45 673.562 340.45C623.453 340.45 573.579 340.45 523.47 340.45C520.177 340.45 520.177 345.491 523.47 345.491Z" fill="#56CCF2"/>
<path d="M532.174 342.971C532.174 325.097 532.174 306.994 532.174 289.121C532.174 285.913 526.999 285.913 526.999 289.121C526.999 306.994 526.999 325.097 526.999 342.971C526.999 346.179 532.174 346.179 532.174 342.971Z" fill="#56CCF2"/>
<path d="M526.293 291.184C543.702 291.184 560.876 291.184 578.285 291.184C581.578 291.184 581.578 286.142 578.285 286.142C560.876 286.142 543.702 286.142 526.293 286.142C523 285.913 523 291.184 526.293 291.184Z" fill="#56CCF2"/>
<path d="M622.277 292.1C638.509 292.1 654.742 292.1 670.739 292.1C674.033 292.1 674.033 287.059 670.739 287.059C654.507 287.059 638.274 287.059 622.277 287.059C618.983 287.059 618.983 292.1 622.277 292.1Z" fill="#56CCF2"/>
<path d="M531.233 287.517C531.233 273.539 531.233 259.561 531.233 245.583C531.233 242.375 526.058 242.375 526.058 245.583C526.058 259.561 526.058 273.539 526.058 287.517C526.058 290.725 531.233 290.725 531.233 287.517Z" fill="#56CCF2"/>
<path d="M525.822 246.041C542.29 246.041 558.523 246.041 574.99 246.041C578.284 246.041 578.284 241 574.99 241C558.523 241 542.29 241 525.822 241C522.294 241 522.294 246.041 525.822 246.041Z" fill="#56CCF2"/>
<path d="M571.697 245.125C571.697 259.103 571.697 273.081 571.697 287.059C571.697 290.267 576.872 290.267 576.872 287.059C576.872 273.081 576.872 259.103 576.872 245.125C576.872 241.917 571.697 241.688 571.697 245.125Z" fill="#56CCF2"/>
<path d="M629.335 289.579C629.335 276.289 629.335 262.769 629.335 249.478C629.335 246.27 624.159 246.27 624.159 249.478C624.159 262.769 624.159 276.289 624.159 289.579C624.159 293.017 629.335 293.017 629.335 289.579Z" fill="#56CCF2"/>
<path d="M623.924 249.708C640.156 249.708 656.389 249.708 672.386 249.708C675.68 249.708 675.68 244.667 672.386 244.667C656.154 244.667 639.921 244.667 623.924 244.667C620.63 244.667 620.63 249.708 623.924 249.708Z" fill="#56CCF2"/>
<path d="M666.975 248.791C666.975 262.082 666.975 275.601 666.975 288.892C666.975 292.1 672.15 292.1 672.15 288.892C672.15 275.601 672.15 262.082 672.15 248.791C672.386 245.583 666.975 245.583 666.975 248.791Z" fill="#56CCF2"/>
<path d="M666.505 291.871C666.505 308.37 666.505 324.868 666.505 341.367C666.505 344.575 671.681 344.575 671.681 341.367C671.681 324.868 671.681 308.37 671.681 291.871C671.681 288.434 666.505 288.434 666.505 291.871Z" fill="#56CCF2"/>
<path d="M667.681 359.24C667.681 377.343 667.681 395.446 667.681 413.549C667.681 416.757 672.857 416.757 672.857 413.549C672.857 395.446 672.857 377.343 672.857 359.24C672.857 356.032 667.681 356.032 667.681 359.24Z" fill="#56CCF2"/>
<path d="M529.116 282.705C543.702 282.705 558.288 282.705 572.874 282.705C576.167 282.705 576.167 277.664 572.874 277.664C558.288 277.664 543.702 277.664 529.116 277.664C525.588 277.435 525.588 282.705 529.116 282.705Z" fill="#56CCF2"/>
<path d="M626.982 283.622C641.332 283.622 655.918 283.622 670.269 283.622C673.562 283.622 673.562 278.58 670.269 278.58C655.918 278.58 641.332 278.58 626.982 278.58C623.688 278.58 623.688 283.622 626.982 283.622Z" fill="#56CCF2"/>
<path d="M571.697 289.58C571.697 306.766 571.697 324.181 571.697 341.367C571.697 344.575 576.872 344.575 576.872 341.367C576.872 324.181 576.872 306.766 576.872 289.58C577.108 286.142 571.697 286.142 571.697 289.58Z" fill="#56CCF2"/>
<path d="M624.159 290.725C624.159 307.453 624.159 323.952 624.159 340.679C624.159 343.887 629.335 343.887 629.335 340.679C629.335 323.952 629.335 307.453 629.335 290.725C629.335 287.517 624.159 287.517 624.159 290.725Z" fill="#56CCF2"/>
<path d="M526.058 344.804C526.058 347.096 526.058 349.616 526.058 351.908C526.058 355.116 531.233 355.116 531.233 351.908C531.233 349.616 531.233 347.096 531.233 344.804C531.468 341.596 526.058 341.596 526.058 344.804Z" fill="#56CCF2"/>
<path d="M534.056 344.575C534.056 348.471 534.056 352.366 534.056 356.262C534.056 359.47 539.232 359.47 539.232 356.262C539.232 352.366 539.232 348.471 539.232 344.575C539.232 341.367 534.056 341.367 534.056 344.575Z" fill="#56CCF2"/>
<path d="M542.525 343.887C542.525 347.324 542.525 350.762 542.525 353.97C542.525 357.178 547.701 357.178 547.701 353.97C547.701 350.532 547.701 347.095 547.701 343.887C547.701 340.45 542.525 340.45 542.525 343.887Z" fill="#56CCF2"/>
<path d="M550.054 344.804C550.054 348.012 550.054 351.22 550.054 354.428C550.054 357.636 555.23 357.636 555.23 354.428C555.23 351.22 555.23 348.012 555.23 344.804C555.465 341.596 550.054 341.596 550.054 344.804Z" fill="#56CCF2"/>
<path d="M557.582 345.492C557.582 349.158 557.582 352.824 557.582 356.491C557.582 359.699 562.757 359.699 562.757 356.491C562.757 352.824 562.757 349.158 562.757 345.492C562.992 342.283 557.582 342.283 557.582 345.492Z" fill="#56CCF2"/>
<path d="M565.581 345.033C565.581 348.929 565.581 352.595 565.581 356.491C565.581 359.699 570.757 359.699 570.757 356.491C570.757 352.595 570.757 348.929 570.757 345.033C570.757 341.825 565.581 341.825 565.581 345.033Z" fill="#56CCF2"/>
<path d="M572.168 345.492C572.168 348.241 572.168 350.991 572.168 353.512C572.168 356.72 577.343 356.72 577.343 353.512C577.343 350.762 577.343 348.012 577.343 345.492C577.579 342.283 572.168 342.283 572.168 345.492Z" fill="#56CCF2"/>
<path d="M579.696 345.033C579.696 348.7 579.696 352.366 579.696 356.262C579.696 359.47 584.872 359.47 584.872 356.262C584.872 352.595 584.872 348.929 584.872 345.033C584.872 341.825 579.696 341.825 579.696 345.033Z" fill="#56CCF2"/>
<path d="M587.93 345.034C587.93 348.7 587.93 352.366 587.93 356.033C587.93 359.241 593.106 359.241 593.106 356.033C593.106 352.366 593.106 348.7 593.106 345.034C593.106 341.825 587.93 341.825 587.93 345.034Z" fill="#56CCF2"/>
<path d="M596.634 345.492C596.634 348.929 596.634 352.366 596.634 355.803C596.634 359.012 601.809 359.012 601.809 355.803C601.809 352.366 601.809 348.929 601.809 345.492C601.809 342.283 596.634 342.283 596.634 345.492Z" fill="#56CCF2"/>
<path d="M604.868 344.575C604.868 348.471 604.868 352.595 604.868 356.491C604.868 359.699 610.044 359.699 610.044 356.491C610.044 352.595 610.044 348.471 610.044 344.575C610.044 341.367 604.868 341.367 604.868 344.575Z" fill="#56CCF2"/>
<path d="M614.278 344.575C614.278 347.783 614.278 350.762 614.278 353.97C614.278 357.178 619.454 357.178 619.454 353.97C619.454 350.762 619.454 347.783 619.454 344.575C619.454 341.367 614.278 341.367 614.278 344.575Z" fill="#56CCF2"/>
<path d="M622.748 345.033C622.748 348.7 622.748 352.366 622.748 356.262C622.748 359.47 627.923 359.47 627.923 356.262C627.923 352.595 627.923 348.929 627.923 345.033C628.158 341.825 622.748 341.825 622.748 345.033Z" fill="#56CCF2"/>
<path d="M630.981 344.804C630.981 348.241 630.981 351.679 630.981 354.887C630.981 358.095 636.157 358.095 636.157 354.887C636.157 351.449 636.157 348.012 636.157 344.804C636.157 341.596 630.981 341.596 630.981 344.804Z" fill="#56CCF2"/>
<path d="M637.333 344.804C637.333 348.471 637.333 352.137 637.333 356.033C637.333 359.241 642.509 359.241 642.509 356.033C642.509 352.366 642.509 348.7 642.509 344.804C642.744 341.596 637.333 341.596 637.333 344.804Z" fill="#56CCF2"/>
<path d="M643.92 344.575C643.92 348.471 643.92 352.595 643.92 356.491C643.92 359.699 649.096 359.699 649.096 356.491C649.096 352.595 649.096 348.471 649.096 344.575C649.096 341.367 643.92 341.367 643.92 344.575Z" fill="#56CCF2"/>
<path d="M651.213 345.262C651.213 348.241 651.213 351.22 651.213 354.199C651.213 357.407 656.389 357.407 656.389 354.199C656.389 351.22 656.389 348.241 656.389 345.262C656.389 342.054 651.213 342.054 651.213 345.262Z" fill="#56CCF2"/>
<path d="M657.8 345.262C657.8 348.012 657.8 350.762 657.8 353.282C657.8 356.49 662.976 356.49 662.976 353.282C662.976 350.533 662.976 347.783 662.976 345.262C662.976 342.054 657.8 342.054 657.8 345.262Z" fill="#56CCF2"/>
<path d="M665.093 344.575C665.093 348.471 665.093 352.366 665.093 356.262C665.093 359.47 670.269 359.47 670.269 356.262C670.269 352.366 670.269 348.471 670.269 344.575C670.269 341.367 665.093 341.367 665.093 344.575Z" fill="#56CCF2"/>
<path d="M538.761 290.038C538.761 306.766 538.761 323.723 538.761 340.45C538.761 343.658 543.937 343.658 543.937 340.45C543.937 323.723 543.937 306.766 543.937 290.038C544.172 286.83 538.761 286.83 538.761 290.038Z" fill="#56CCF2"/>
<path d="M562.287 290.038C562.287 307.224 562.287 324.181 562.287 341.367C562.287 344.575 567.462 344.575 567.462 341.367C567.462 324.181 567.462 307.224 567.462 290.038C567.462 286.83 562.287 286.83 562.287 290.038Z" fill="#56CCF2"/>
<path d="M530.057 308.828C533.586 308.828 537.115 308.828 540.879 308.828C544.172 308.828 544.172 303.786 540.879 303.786C537.35 303.786 533.821 303.786 530.057 303.786C526.764 303.786 526.764 308.828 530.057 308.828Z" fill="#56CCF2"/>
<path d="M530.292 329.451C534.056 329.451 537.585 329.451 541.349 329.451C544.643 329.451 544.643 324.41 541.349 324.41C537.585 324.41 534.056 324.41 530.292 324.41C526.999 324.41 526.999 329.451 530.292 329.451Z" fill="#56CCF2"/>
<path d="M565.11 308.828C568.404 308.828 571.462 308.828 574.756 308.828C578.049 308.828 578.049 303.786 574.756 303.786C571.462 303.786 568.404 303.786 565.11 303.786C561.817 303.786 561.817 308.828 565.11 308.828Z" fill="#56CCF2"/>
<path d="M564.404 329.451C568.169 329.451 571.933 329.451 575.697 329.451C578.99 329.451 578.99 324.41 575.697 324.41C571.933 324.41 568.169 324.41 564.404 324.41C560.876 324.41 560.876 329.451 564.404 329.451Z" fill="#56CCF2"/>
<path d="M542.526 306.536C549.819 306.536 557.112 306.536 564.169 306.536C567.463 306.536 567.463 301.495 564.169 301.495C556.876 301.495 549.583 301.495 542.526 301.495C539.232 301.495 539.232 306.536 542.526 306.536Z" fill="#56CCF2"/>
<path d="M544.408 325.327C544.408 322.577 546.996 319.827 548.878 317.765C549.348 317.077 550.054 316.39 550.524 315.931C551.701 314.786 551.701 314.556 553.112 315.244C556.641 317.077 559.229 321.889 560.405 325.556C561.346 328.764 566.522 327.389 565.346 324.181C564.169 320.744 562.522 317.765 560.17 315.015C558.288 312.952 554.994 309.515 552.171 309.286C548.878 309.057 546.29 312.494 544.408 314.786C541.82 317.994 538.997 321.202 538.997 325.327C539.232 328.535 544.408 328.535 544.408 325.327Z" fill="#56CCF2"/>
<path d="M553.347 341.367C553.583 337.013 552.171 331.055 554.288 327.16C553.818 327.618 553.347 327.847 552.642 328.305C551.701 328.764 552.406 333.347 552.406 334.492C552.406 337.013 552.406 339.304 552.406 341.825C552.406 345.033 557.582 345.033 557.582 341.825C557.582 337.471 557.817 333.117 557.347 328.764C557.111 326.243 555.935 323.264 552.877 323.264C545.584 322.806 548.172 337.7 547.937 341.596C547.937 344.804 553.112 344.804 553.347 341.367Z" fill="#56CCF2"/>
<path d="M633.569 291.412C633.569 307.453 633.569 323.264 633.569 339.305C633.569 342.513 638.745 342.513 638.745 339.305C638.745 323.264 638.745 307.453 638.745 291.412C638.98 288.204 633.569 288.204 633.569 291.412Z" fill="#56CCF2"/>
<path d="M654.742 291.183C654.742 307.911 654.742 324.639 654.742 341.596C654.742 344.804 659.918 344.804 659.918 341.596C659.918 324.868 659.918 308.14 659.918 291.183C659.918 287.975 654.742 287.975 654.742 291.183Z" fill="#56CCF2"/>
<path d="M626.982 309.973C630.275 309.973 633.569 309.973 636.862 309.973C640.156 309.973 640.156 304.932 636.862 304.932C633.569 304.932 630.275 304.932 626.982 304.932C623.453 304.932 623.453 309.973 626.982 309.973Z" fill="#56CCF2"/>
<path d="M627.453 330.368C630.276 330.368 633.099 330.368 636.157 330.368C639.45 330.368 639.45 325.326 636.157 325.326C633.334 325.326 630.511 325.326 627.453 325.326C624.159 325.326 624.159 330.368 627.453 330.368Z" fill="#56CCF2"/>
<path d="M657.565 310.432C661.564 310.432 665.564 310.432 669.563 310.432C672.856 310.432 672.856 305.391 669.563 305.391C665.564 305.391 661.564 305.391 657.565 305.391C654.271 305.391 654.271 310.432 657.565 310.432Z" fill="#56CCF2"/>
<path d="M658.27 330.597C661.564 330.597 664.622 330.597 667.916 330.597C671.209 330.597 671.209 325.555 667.916 325.555C664.622 325.555 661.564 325.555 658.27 325.555C654.977 325.555 654.977 330.597 658.27 330.597Z" fill="#56CCF2"/>
<path d="M638.275 307.224C644.391 307.224 650.272 307.224 656.389 307.224C659.683 307.224 659.683 302.183 656.389 302.183C650.272 302.183 644.391 302.183 638.275 302.183C634.746 301.953 634.746 307.224 638.275 307.224Z" fill="#56CCF2"/>
<path d="M638.509 327.16C639.686 323.952 643.45 315.015 647.684 316.848C651.448 318.452 654.271 323.722 654.977 327.389C655.683 330.597 660.623 329.222 659.917 326.014C659.212 322.577 657.565 319.598 655.212 316.848C653.33 314.786 650.037 311.348 647.214 310.89C640.391 309.744 634.981 321.202 633.334 326.014C632.393 328.993 637.333 330.368 638.509 327.16Z" fill="#56CCF2"/>
<path d="M647.684 341.596C647.684 339.534 647.684 337.242 647.684 335.18C647.684 334.263 647.684 333.347 647.684 332.201C647.684 331.972 648.154 328.305 646.508 330.139C646.037 330.597 646.743 334.721 646.743 335.409C646.743 337.7 646.743 339.763 646.743 342.054C646.743 345.262 651.918 345.262 651.918 342.054C651.918 338.159 652.154 334.263 651.683 330.368C651.448 327.847 650.036 325.097 646.978 324.639C644.155 324.181 642.508 326.701 642.273 329.222C641.803 333.347 642.273 337.471 642.273 341.596C642.508 344.804 647.684 344.804 647.684 341.596Z" fill="#56CCF2"/>
<path d="M545.349 278.81C545.349 275.372 545.349 272.164 545.113 268.727C545.113 267.352 545.113 265.977 545.113 264.602C545.113 262.769 545.819 260.707 544.172 260.249C542.055 259.561 543.467 262.311 543.467 263.686C543.467 265.29 543.467 266.894 543.467 268.498C543.467 271.706 543.467 275.143 543.467 278.351C543.467 281.559 548.642 281.559 548.642 278.351C548.642 273.081 548.878 267.581 548.642 262.311C548.407 259.332 547.937 254.978 543.937 254.749C539.938 254.52 539.703 258.644 539.938 261.394C539.938 267.352 540.173 273.081 540.173 279.039C540.173 282.247 545.349 282.247 545.349 278.81Z" fill="#56CCF2"/>
<path d="M560.405 279.039C559.7 275.143 559.229 271.477 558.994 267.581C558.994 266.894 559.229 257.499 557.818 257.728C558.288 257.728 558.053 277.435 557.818 279.039C557.582 282.247 562.758 282.247 562.993 279.039C563.699 272.164 563.934 264.832 562.993 257.957C562.523 255.436 561.347 252.228 558.053 252.687C554.054 253.145 553.818 257.957 553.583 260.936C553.348 267.352 554.054 273.997 555.23 280.414C555.936 283.622 560.876 282.247 560.405 279.039Z" fill="#56CCF2"/>
<path d="M534.292 244.208C534.292 257.269 534.292 270.331 534.292 283.163C534.292 286.371 539.468 286.371 539.468 283.163C539.468 270.102 539.468 257.04 539.468 244.208C539.468 240.771 534.292 240.771 534.292 244.208Z" fill="#56CCF2"/>
<path d="M563.229 245.125C563.229 256.353 563.229 267.81 563.229 279.038C563.229 282.246 568.404 282.246 568.404 279.038C568.404 267.81 568.404 256.353 568.404 245.125C568.404 241.917 563.229 241.917 563.229 245.125Z" fill="#56CCF2"/>
<path d="M643.214 280.872C643.214 277.435 643.214 273.768 643.214 270.331C643.214 268.956 643.92 262.082 642.744 261.623C641.803 261.165 642.508 263.915 642.508 264.602C642.508 266.206 642.273 267.81 642.273 269.644C642.038 273.31 641.803 277.206 641.567 280.872C641.332 284.08 646.743 284.08 646.743 280.872C646.978 274.456 647.919 268.04 647.449 261.623C647.214 258.644 646.272 254.978 642.508 254.978C638.744 254.978 638.039 258.874 637.803 261.853C637.333 268.269 637.803 274.685 637.803 280.872C637.803 284.08 643.214 284.08 643.214 280.872Z" fill="#56CCF2"/>
<path d="M654.272 280.185C654.272 276.747 654.272 273.081 654.272 269.644C654.272 268.269 654.977 261.394 653.801 260.936C652.86 260.478 653.566 263.228 653.566 263.915C653.566 265.519 653.331 267.123 653.331 268.956C653.096 272.623 652.86 276.518 652.625 280.185C652.39 283.393 657.801 283.393 657.801 280.185C658.036 273.768 658.977 267.352 658.506 260.936C658.271 257.957 657.33 254.291 653.566 254.291C649.802 254.291 649.096 258.186 648.861 261.165C648.39 267.581 648.861 273.998 648.861 280.185C648.861 283.622 654.272 283.622 654.272 280.185Z" fill="#56CCF2"/>
<path d="M631.922 248.562C631.922 259.103 631.922 269.643 631.922 279.955C631.922 283.163 637.098 283.163 637.098 279.955C637.098 269.414 637.098 258.873 637.098 248.562C637.333 245.354 631.922 245.354 631.922 248.562Z" fill="#56CCF2"/>
<path d="M658.271 249.707C658.271 259.561 658.271 269.414 658.271 279.268C658.271 282.476 663.447 282.476 663.447 279.268C663.447 269.414 663.447 259.561 663.447 249.707C663.447 246.499 658.271 246.499 658.271 249.707Z" fill="#56CCF2"/>
<path d="M577.343 292.1C592.164 292.1 607.22 292.1 622.041 292.1C625.335 292.1 625.335 287.059 622.041 287.059C607.22 287.059 592.164 287.059 577.343 287.059C574.05 286.83 574.05 292.1 577.343 292.1Z" fill="#56CCF2"/>
<path d="M577.579 306.995C592.87 306.995 608.397 306.995 623.688 306.995C626.982 306.995 626.982 301.954 623.688 301.954C608.397 301.954 592.87 301.954 577.579 301.954C574.285 301.954 574.285 306.995 577.579 306.995Z" fill="#56CCF2"/>
<path d="M600.869 327.618C599.222 328.535 597.105 329.222 597.81 326.701C598.281 324.868 596.634 322.806 594.517 323.493C593.576 322.348 593.576 320.973 594.752 319.827C596.634 320.744 598.516 319.598 598.751 317.535C599.692 317.077 600.633 316.39 601.574 315.931C602.516 317.306 604.397 317.765 605.574 316.39C608.162 315.931 608.867 316.619 607.926 318.223C607.456 319.369 608.162 320.514 609.103 321.202C609.808 321.431 610.514 321.889 610.749 322.577C608.632 323.035 608.397 325.556 609.573 326.931C609.338 326.931 609.338 326.931 609.103 326.931C607.691 326.472 606.28 327.389 605.809 328.764C605.574 328.764 605.103 328.535 604.868 328.535C604.162 325.327 599.222 326.701 599.928 329.909C601.104 336.096 609.103 335.867 610.985 330.139C609.808 330.826 608.867 331.284 607.691 331.972C613.572 333.805 616.866 327.618 613.102 323.264C612.631 324.639 612.396 326.014 611.926 327.618C614.278 327.16 615.925 325.327 615.925 322.806C615.925 320.056 613.572 318.223 611.455 316.848C611.926 317.765 612.161 318.681 612.631 319.827C615.454 312.953 606.75 308.14 601.574 313.182C602.986 313.411 604.397 313.64 605.574 313.64C601.104 307.682 593.576 311.348 592.87 317.765C594.282 317.077 595.458 316.39 596.869 315.473C586.048 310.661 585.342 331.972 595.458 328.535C594.282 327.389 593.341 326.472 592.164 325.327C590.518 332.888 596.634 335.638 602.986 331.972C606.28 330.368 603.692 326.014 600.869 327.618Z" fill="#56CCF2"/>
<path d="M606.044 307.224C615.925 309.515 620.395 316.848 618.278 326.472C616.396 334.722 609.808 339.992 601.104 339.076C592.635 338.388 586.048 331.285 585.577 323.264C584.636 311.12 594.987 305.62 606.044 307.224C609.338 307.682 610.749 302.641 607.456 302.412C594.752 300.808 582.519 305.162 580.402 318.681C578.52 330.368 586.989 342.284 598.987 344.117C610.279 345.95 620.16 339.534 622.983 328.993C626.276 316.39 620.63 305.62 607.456 302.641C604.162 301.495 602.751 306.307 606.044 307.224Z" fill="#56CCF2"/>
<path d="M595.929 304.015C597.105 302.87 598.281 301.724 599.458 300.578C600.399 299.662 601.575 298.058 602.751 297.599C601.81 297.599 601.104 297.599 600.163 297.599C602.751 298.745 605.104 301.953 606.986 303.786C609.338 306.307 612.867 302.64 610.75 300.12C609.338 298.516 607.691 296.912 605.809 295.308C604.633 294.391 603.457 292.787 601.81 292.787C600.163 292.558 598.987 293.933 597.811 295.079C595.929 296.912 594.047 298.516 592.165 300.349C589.812 302.64 593.576 306.078 595.929 304.015Z" fill="#56CCF2"/>
<path d="M584.871 289.35C584.871 294.162 584.871 298.974 584.871 304.016C584.871 307.224 590.047 307.224 590.047 304.016C590.047 299.203 590.047 294.391 590.047 289.35C590.047 286.142 584.871 286.142 584.871 289.35Z" fill="#56CCF2"/>
<path d="M612.161 290.725C612.161 295.537 612.161 300.578 612.161 305.39C612.161 308.598 617.337 308.598 617.337 305.39C617.337 300.578 617.337 295.537 617.337 290.725C617.337 287.517 612.161 287.517 612.161 290.725Z" fill="#56CCF2"/>
<path d="M537.35 416.298C536.644 407.361 536.174 397.279 539.232 388.571C540.644 384.447 543.937 378.26 547.701 375.739C550.524 373.906 549.348 374.135 552.406 376.197C564.404 385.134 561.817 404.382 562.287 417.444C562.287 420.652 567.698 420.652 567.463 417.444C567.227 406.903 568.639 394.3 564.404 384.217C562.522 379.405 556.876 370.698 551.23 368.864C545.349 366.802 540.408 375.51 537.821 379.634C530.763 390.175 531.233 404.382 532.175 416.298C532.41 419.506 537.585 419.506 537.35 416.298Z" fill="#56CCF2"/>
<path d="M617.572 417.902C618.278 406.216 619.454 393.154 615.219 381.926C612.632 374.823 605.339 364.053 596.634 362.907C588.871 361.99 581.343 372.989 578.284 378.489C571.697 390.175 574.52 403.008 574.05 415.84C573.815 419.048 579.225 419.048 579.225 415.84C579.696 406.674 577.579 396.592 580.166 387.426C582.519 379.406 590.988 365.886 600.398 370.698C616.16 378.489 613.337 403.924 612.396 417.902C612.161 421.11 617.337 421.11 617.572 417.902Z" fill="#56CCF2"/>
<path d="M630.511 413.778C629.805 404.841 629.334 394.758 632.393 386.051C633.804 381.926 637.098 375.739 640.862 373.218C643.685 371.385 642.509 371.614 645.567 373.677C657.565 382.613 654.977 401.862 655.448 414.923C655.448 418.131 660.859 418.131 660.623 414.923C660.388 404.382 661.8 391.779 657.565 381.697C655.683 376.885 650.037 368.177 644.391 366.344C638.509 364.282 633.569 372.989 630.981 377.114C623.924 387.655 624.394 401.862 625.335 413.778C625.57 416.986 630.746 416.986 630.511 413.778Z" fill="#56CCF2"/>
<path d="M532.645 420.424C578.99 420.424 625.335 420.424 671.68 420.424C674.974 420.424 674.974 415.382 671.68 415.382C625.335 415.382 578.99 415.382 532.645 415.382C529.351 415.153 529.351 420.424 532.645 420.424Z" fill="#56CCF2"/>
<path d="M538.761 400.716C538.761 405.528 538.761 410.569 538.761 415.381C538.761 418.589 543.937 418.589 543.937 415.381C543.937 410.569 543.937 405.528 543.937 400.716C544.172 397.508 538.761 397.508 538.761 400.716Z" fill="#56CCF2"/>
<path d="M541.114 402.55C542.055 402.55 542.996 402.55 543.937 402.55C542.996 401.633 542.291 400.946 541.349 400.029C541.349 405.529 541.349 410.799 541.349 416.299C541.349 419.507 546.525 419.507 546.525 416.299C546.525 410.799 546.525 405.529 546.525 400.029C546.525 398.654 545.349 397.508 543.937 397.508C542.996 397.508 542.055 397.508 541.114 397.508C537.821 397.279 537.821 402.55 541.114 402.55Z" fill="#56CCF2"/>
<path d="M549.113 400.716C549.113 405.528 549.113 410.569 549.113 415.381C549.113 418.589 554.289 418.589 554.289 415.381C554.289 410.569 554.289 405.528 554.289 400.716C554.289 397.279 549.113 397.279 549.113 400.716Z" fill="#56CCF2"/>
<path d="M551.465 402.321C552.406 402.321 553.347 402.321 554.288 402.321C553.347 401.404 552.642 400.717 551.701 399.8C551.701 405.3 551.701 410.57 551.701 416.069C551.701 419.277 556.876 419.277 556.876 416.069C556.876 410.57 556.876 405.3 556.876 399.8C556.876 398.425 555.7 397.28 554.288 397.28C553.347 397.28 552.406 397.28 551.465 397.28C548.172 397.28 548.172 402.321 551.465 402.321Z" fill="#56CCF2"/>
<path d="M586.754 400.716C586.754 405.528 586.754 410.569 586.754 415.381C586.754 418.589 591.93 418.589 591.93 415.381C591.93 410.569 591.93 405.528 591.93 400.716C591.93 397.279 586.754 397.279 586.754 400.716Z" fill="#56CCF2"/>
<path d="M589.106 402.321C590.047 402.321 590.988 402.321 591.929 402.321C590.988 401.404 590.282 400.717 589.341 399.8C589.341 405.3 589.341 410.57 589.341 416.069C589.341 419.277 594.517 419.277 594.517 416.069C594.517 410.57 594.517 405.3 594.517 399.8C594.517 398.425 593.341 397.28 591.929 397.28C590.988 397.28 590.047 397.28 589.106 397.28C585.812 397.28 585.812 402.321 589.106 402.321Z" fill="#56CCF2"/>
<path d="M596.634 400.029C596.634 404.841 596.634 409.883 596.634 414.695C596.634 417.903 601.809 417.903 601.809 414.695C601.809 409.883 601.809 404.841 601.809 400.029C602.045 396.592 596.634 396.592 596.634 400.029Z" fill="#56CCF2"/>
<path d="M598.987 401.633C599.928 401.633 600.869 401.633 601.81 401.633C600.869 400.716 600.163 400.029 599.222 399.112C599.222 404.612 599.222 409.882 599.222 415.381C599.222 418.589 604.398 418.589 604.398 415.381C604.398 409.882 604.398 404.612 604.398 399.112C604.398 397.737 603.221 396.592 601.81 396.592C600.869 396.592 599.928 396.592 598.987 396.592C595.693 396.592 595.693 401.633 598.987 401.633Z" fill="#56CCF2"/>
<path d="M633.805 400.716C633.805 405.528 633.805 410.569 633.805 415.381C633.805 418.589 638.98 418.589 638.98 415.381C638.98 410.569 638.98 405.528 638.98 400.716C638.98 397.279 633.805 397.279 633.805 400.716Z" fill="#56CCF2"/>
<path d="M636.157 402.321C637.098 402.321 638.039 402.321 638.98 402.321C638.039 401.404 637.333 400.717 636.392 399.8C636.392 405.3 636.392 410.57 636.392 416.069C636.392 419.277 641.568 419.277 641.568 416.069C641.568 410.57 641.568 405.3 641.568 399.8C641.568 398.425 640.391 397.28 638.98 397.28C638.039 397.28 637.098 397.28 636.157 397.28C632.863 397.28 632.863 402.321 636.157 402.321Z" fill="#56CCF2"/>
<path d="M644.861 400.945C644.861 405.758 644.861 410.799 644.861 415.611C644.861 418.819 650.037 418.819 650.037 415.611C650.037 410.799 650.037 405.758 650.037 400.945C650.037 397.737 644.861 397.737 644.861 400.945Z" fill="#56CCF2"/>
<path d="M647.214 402.778C648.155 402.778 649.096 402.778 650.037 402.778C649.096 401.862 648.39 401.174 647.449 400.258C647.449 405.757 647.449 411.028 647.449 416.527C647.449 419.735 652.625 419.735 652.625 416.527C652.625 411.028 652.625 405.757 652.625 400.258C652.625 398.883 651.448 397.737 650.037 397.737C649.096 397.737 648.155 397.737 647.214 397.737C643.92 397.508 643.92 402.778 647.214 402.778Z" fill="#56CCF2"/>
<path d="M531.469 367.032C576.402 367.032 621.1 367.032 666.034 367.032C669.328 367.032 669.328 361.99 666.034 361.99C621.1 361.99 576.402 361.99 531.469 361.99C528.175 361.99 528.175 367.032 531.469 367.032Z" fill="#56CCF2"/>
<path d="M569.58 386.28C568.874 386.051 568.404 385.822 567.698 385.593C567.698 384.905 567.933 384.218 567.933 383.53C568.639 383.301 569.11 383.301 569.815 383.072C570.051 384.218 570.521 385.363 570.756 386.509C570.756 386.509 570.756 386.28 570.992 386.28C570.286 386.738 569.58 387.197 568.639 387.655H568.874C568.169 387.197 567.463 386.738 566.522 386.28C566.757 386.738 565.581 389.717 565.581 390.176C565.346 391.55 565.346 393.384 565.816 394.759C566.051 395.446 566.757 396.363 567.698 396.592C569.11 396.821 570.521 396.592 572.168 396.363C573.344 396.134 574.05 394.988 574.05 393.842C574.05 391.78 573.815 389.717 573.109 387.655C572.168 384.447 567.228 385.822 568.169 389.03C568.639 390.634 568.874 392.238 568.874 394.071C569.58 393.155 570.051 392.467 570.756 391.55C570.521 391.55 568.169 391.78 569.11 391.78C569.815 392.467 570.286 392.925 570.992 393.613C570.051 390.863 572.638 388.113 571.933 385.363C571.227 382.613 568.169 381.926 566.287 384.218C565.581 385.363 566.051 387.197 567.228 387.655C569.345 388.801 572.168 387.884 572.638 385.593C573.344 382.614 570.521 381.009 567.933 381.468C564.875 381.697 566.287 386.738 569.58 386.28Z" fill="#56CCF2"/>
<path d="M624.159 386.28C623.924 386.738 623.688 386.968 623.453 387.426C622.747 387.426 622.042 387.655 621.336 387.655C621.806 386.509 622.277 385.593 622.747 384.447C622.277 386.051 621.806 387.655 621.336 389.259C621.571 389.259 621.571 389.259 621.806 389.259C621.101 389.03 620.63 388.801 619.924 388.572C619.924 388.801 620.16 388.801 620.16 389.03C619.924 388.343 619.689 387.884 619.454 387.197C619.689 386.509 619.689 386.509 619.454 386.739C619.219 386.968 618.983 387.197 618.748 387.426C618.513 387.655 618.278 388.113 618.042 388.572C617.336 389.717 617.101 390.863 617.101 392.238C616.866 394.3 616.866 397.737 619.454 398.425C621.336 398.883 624.394 398.195 625.1 396.133C625.806 393.842 625.335 390.863 624.865 388.342C624.159 385.135 619.219 386.509 619.924 389.717C620.16 391.092 620.63 393.154 620.16 394.758C620.63 394.3 620.865 393.842 621.336 393.154C620.865 393.154 620.63 393.154 620.16 393.154C620.865 393.384 621.336 393.613 622.042 393.842C622.512 394.3 622.277 392.467 622.277 392.238C622.277 391.78 622.277 391.321 622.747 390.863C623.218 389.946 624.394 389.488 624.865 388.572C625.806 386.28 624.159 384.218 621.806 384.218C619.219 384.218 618.042 387.884 620.395 389.03C623.453 390.405 627.217 387.884 625.335 384.447C623.688 381.468 618.513 382.614 618.983 386.28C619.454 389.488 624.629 389.488 624.159 386.28Z" fill="#56CCF2"/>
<path d="M663.917 387.426C663.917 386.968 663.917 386.509 663.917 386.051C663.211 386.739 662.741 387.197 662.035 387.884C662.27 387.884 662.27 387.884 662.505 387.884C661.8 387.884 661.094 387.655 660.388 387.655C660.623 386.968 660.623 386.28 660.859 385.593C661.564 385.364 662.035 385.135 662.741 384.905C661.094 385.135 659.447 385.364 658.741 387.197C658.271 388.114 658.506 389.03 658.741 389.947C658.741 391.092 658.271 392.009 658.036 393.155C657.8 394.759 658.036 396.592 659.447 397.738C661.094 399.113 663.446 398.883 665.564 399.113C666.975 399.113 668.151 397.967 668.151 396.592C668.151 392.926 666.975 388.801 664.152 386.28C661.8 383.989 658.036 387.655 660.388 389.947C662.27 391.551 662.741 394.3 662.976 396.592C663.917 395.675 664.623 394.988 665.564 394.071C665.093 394.071 662.976 393.842 663.211 394.071C662.976 393.842 663.917 391.551 663.917 391.092C663.917 390.634 663.917 390.176 663.917 389.718C663.682 388.801 663.917 388.572 662.976 389.488C662.035 390.634 662.27 390.176 662.976 390.176C663.682 390.176 663.917 389.947 664.387 389.488C667.446 386.739 663.682 382.614 660.388 383.301C659.447 383.531 658.741 384.218 658.506 385.135C658.271 386.051 658.271 386.968 658.271 387.884C658.741 390.634 663.917 390.634 663.917 387.426Z" fill="#56CCF2"/>
<path d="M1128.82 329.589C1127.88 319.277 1134.23 311.486 1144.58 309.424C1158.22 306.674 1168.34 316.069 1168.81 329.36C1168.81 331.88 1173.05 331.88 1173.05 329.36C1172.57 314.465 1161.99 303.466 1146.23 305.299C1132.82 306.674 1123.64 316.757 1124.58 329.818C1124.82 332.11 1129.05 332.11 1128.82 329.589Z" fill="#56CCF2"/>
<path d="M1110.94 330.506C1116.82 321.11 1122.94 311.715 1129.29 302.549C1130.7 300.258 1127.17 298.425 1125.76 300.487C1119.41 309.653 1113.29 319.048 1107.41 328.443C1105.76 330.506 1109.53 332.568 1110.94 330.506Z" fill="#56CCF2"/>
<path d="M1166.93 302.32C1173.04 310.799 1178.93 319.506 1184.81 328.214C1186.22 330.505 1189.98 328.443 1188.34 326.152C1182.46 317.444 1176.57 308.736 1170.46 300.258C1169.05 297.966 1165.52 300.029 1166.93 302.32Z" fill="#56CCF2"/>
<path d="M1125.29 302.32C1140.11 302.32 1154.93 302.32 1169.75 302.32C1172.34 302.32 1172.34 298.196 1169.75 298.196C1154.93 298.196 1140.11 298.196 1125.29 298.196C1122.47 298.196 1122.47 302.32 1125.29 302.32Z" fill="#56CCF2"/>
<path d="M1124.35 295.675C1139.4 295.675 1154.22 295.675 1169.28 295.675C1171.87 295.675 1171.87 291.551 1169.28 291.551C1154.22 291.551 1139.4 291.551 1124.35 291.551C1121.76 291.78 1121.76 295.675 1124.35 295.675Z" fill="#56CCF2"/>
<path d="M1123.88 294.529C1123.88 296.821 1123.88 299.112 1123.88 301.404C1123.88 303.924 1128.11 303.924 1128.11 301.404C1128.11 299.112 1128.11 296.821 1128.11 294.529C1128.11 291.779 1123.88 291.779 1123.88 294.529Z" fill="#56CCF2"/>
<path d="M1166.69 294.529C1166.69 296.362 1166.69 298.425 1166.69 300.258C1166.69 302.779 1170.93 302.779 1170.93 300.258C1170.93 298.425 1170.93 296.362 1170.93 294.529C1170.93 291.779 1166.69 291.779 1166.69 294.529Z" fill="#56CCF2"/>
<path d="M1131.17 293.842C1132.58 289.488 1134.7 285.134 1135.88 280.78C1137.29 276.197 1138.23 271.614 1139.17 267.031C1139.64 264.511 1135.64 263.365 1135.17 265.886C1134.23 270.469 1133.29 275.052 1131.88 279.635C1130.46 283.988 1128.35 288.342 1127.17 292.696C1126.46 295.217 1130.46 296.362 1131.17 293.842Z" fill="#56CCF2"/>
<path d="M1142.7 266.344C1143.17 274.823 1140.34 283.989 1138.93 292.467C1138.46 294.988 1142.46 296.133 1142.93 293.613C1144.58 284.905 1147.4 275.281 1146.93 266.344C1146.7 263.824 1142.46 263.824 1142.7 266.344Z" fill="#56CCF2"/>
<path d="M1147.87 267.031C1149.52 275.968 1149.99 285.822 1154.46 293.842C1155.64 296.133 1159.4 294.071 1157.99 291.779C1153.75 284.218 1153.28 274.135 1151.87 265.886C1151.4 263.594 1147.4 264.511 1147.87 267.031Z" fill="#56CCF2"/>
<path d="M1154.93 265.886C1157.28 275.739 1160.81 285.134 1165.52 294.071C1166.69 296.362 1170.46 294.3 1169.05 292.008C1164.58 283.301 1161.05 274.364 1158.93 264.969C1158.46 262.219 1154.46 263.365 1154.93 265.886Z" fill="#56CCF2"/>
<path d="M1135.88 266.573C1143.87 266.573 1151.87 266.573 1159.87 266.573C1162.46 266.573 1162.46 262.449 1159.87 262.449C1151.87 262.449 1143.87 262.449 1135.88 262.449C1133.05 262.449 1133.05 266.573 1135.88 266.573Z" fill="#56CCF2"/>
<path d="M1135.17 274.823C1143.64 274.823 1152.11 274.823 1160.81 274.823C1163.4 274.823 1163.4 270.698 1160.81 270.698C1152.34 270.698 1143.87 270.698 1135.17 270.698C1132.58 270.927 1132.58 274.823 1135.17 274.823Z" fill="#56CCF2"/>
<path d="M1139.64 262.219C1142.93 235.18 1144.11 208.14 1146.93 181.101C1147.17 178.58 1142.93 178.58 1142.7 181.101C1139.87 208.14 1138.7 235.18 1135.4 262.219C1135.17 264.74 1139.4 264.74 1139.64 262.219Z" fill="#56CCF2"/>
<path d="M1130.93 315.611C1131.4 313.32 1133.52 311.028 1134.7 308.966C1136.11 306.904 1137.29 304.612 1138.7 302.55C1140.11 300.258 1136.58 298.196 1135.17 300.487C1133.76 303.008 1132.11 305.299 1130.7 307.82C1129.29 309.882 1127.64 312.174 1127.17 314.465C1126.23 317.215 1130.46 318.361 1130.93 315.611Z" fill="#56CCF2"/>
<path d="M1157.05 303.008C1159.64 307.132 1162.22 311.257 1164.81 315.153C1166.22 317.444 1169.75 315.382 1168.34 313.09C1165.75 308.966 1163.16 304.841 1160.58 300.946C1159.16 298.883 1155.64 300.716 1157.05 303.008Z" fill="#56CCF2"/>
<path d="M1147.4 264.74C1147.87 257.636 1148.34 250.304 1149.05 243.2C1147.64 243.2 1146.23 243.2 1144.81 243.2C1145.76 250.762 1145.99 258.324 1146.23 265.886C1146.23 268.407 1150.46 268.407 1150.46 265.886C1150.46 258.324 1149.99 250.762 1149.05 243.2C1148.81 240.679 1145.05 240.679 1144.81 243.2C1144.11 250.304 1143.64 257.636 1143.17 264.74C1143.17 267.261 1147.4 267.261 1147.4 264.74Z" fill="#56CCF2"/>
<path d="M1146.7 181.101C1149.52 208.14 1151.4 235.18 1153.75 262.448C1153.99 264.969 1158.22 264.969 1157.99 262.448C1155.64 235.409 1153.75 208.14 1150.93 181.101C1150.7 178.58 1146.46 178.58 1146.7 181.101Z" fill="#56CCF2"/>
<path d="M1142.46 182.247C1145.28 182.247 1148.11 182.247 1150.93 182.247C1153.52 182.247 1153.52 178.122 1150.93 178.122C1148.11 178.122 1145.28 178.122 1142.46 178.122C1139.64 178.351 1139.64 182.247 1142.46 182.247Z" fill="#56CCF2"/>
<path d="M1141.99 176.747C1144.58 176.747 1147.17 176.747 1149.99 176.747C1149.99 175.372 1149.99 173.997 1149.99 172.622C1149.75 172.622 1149.75 172.622 1149.52 172.622C1146.93 172.622 1146.93 176.747 1149.52 176.747C1149.75 176.747 1149.75 176.747 1149.99 176.747C1152.58 176.747 1152.58 172.622 1149.99 172.622C1147.4 172.622 1144.81 172.622 1141.99 172.622C1139.4 172.622 1139.4 176.747 1141.99 176.747Z" fill="#56CCF2"/>
<path d="M1141.29 175.143C1141.29 176.976 1141.29 178.58 1141.29 180.414C1141.29 182.934 1145.52 182.934 1145.52 180.414C1145.52 178.58 1145.52 176.976 1145.52 175.143C1145.52 172.623 1141.29 172.623 1141.29 175.143Z" fill="#56CCF2"/>
<path d="M1147.4 174.914C1147.4 176.289 1147.4 177.664 1147.4 179.038C1147.4 181.559 1151.64 181.559 1151.64 179.038C1151.64 177.664 1151.64 176.289 1151.64 174.914C1151.64 172.393 1147.4 172.393 1147.4 174.914Z" fill="#56CCF2"/>
<path d="M1144.11 158.874C1144.11 163.686 1144.11 168.498 1144.11 173.31C1144.11 175.831 1148.34 175.831 1148.34 173.31C1148.34 168.498 1148.34 163.686 1148.34 158.874C1148.34 156.124 1144.11 156.124 1144.11 158.874Z" fill="#56CCF2"/>
<path d="M1143.64 173.997C1145.29 173.997 1146.93 173.997 1148.58 173.997C1151.17 173.997 1151.17 169.873 1148.58 169.873C1146.93 169.873 1145.29 169.873 1143.64 169.873C1141.05 170.102 1141.05 173.997 1143.64 173.997Z" fill="#56CCF2"/>
<path d="M1109.29 332.11C1114.94 332.11 1120.35 332.11 1125.99 332.11C1128.58 332.11 1128.58 327.985 1125.99 327.985C1120.35 327.985 1114.94 327.985 1109.29 327.985C1106.7 327.985 1106.7 332.11 1109.29 332.11Z" fill="#56CCF2"/>
<path d="M1172.81 331.422C1177.51 331.422 1182.46 331.422 1187.16 331.422C1189.75 331.422 1189.75 327.297 1187.16 327.297C1182.46 327.297 1177.51 327.297 1172.81 327.297C1170.22 327.297 1170.22 331.422 1172.81 331.422Z" fill="#56CCF2"/>
<path d="M49.6973 29.6543C49.6973 36.0705 49.6973 42.4866 49.6973 48.9028C49.6973 52.34 55.1081 52.34 55.1081 48.9028C55.1081 42.4866 55.1081 36.0705 55.1081 29.6543C55.1081 26.4463 49.6973 26.4463 49.6973 29.6543Z" fill="#56CCF2"/>
<path d="M46.4038 51.8816C46.4038 59.6727 46.4038 67.4637 46.4038 75.4839C46.4038 78.9211 51.8146 78.9211 51.8146 75.4839C51.8146 67.6928 51.8146 59.9018 51.8146 51.8816C51.8146 48.4444 46.4038 48.4444 46.4038 51.8816Z" fill="#56CCF2"/>
<path d="M54.6377 50.9654C54.6377 59.2146 54.6377 67.4639 54.6377 75.9424C54.6377 79.3796 60.0485 79.3796 60.0485 75.9424C60.0485 67.6931 60.0485 59.4438 60.0485 50.9654C60.0485 47.5282 54.6377 47.5282 54.6377 50.9654Z" fill="#56CCF2"/>
<path d="M55.5789 74.5672C54.8732 77.7753 56.7552 80.296 58.6373 83.0458C60.5193 85.7956 62.8718 88.3162 65.2244 90.6078C67.5769 92.8993 71.5762 89.2329 68.9884 86.9413C67.3417 85.3373 65.6949 83.5041 64.0481 81.4417C63.1071 80.296 60.284 77.317 60.7545 75.9421C61.4603 72.5048 56.2847 71.1299 55.5789 74.5672Z" fill="#56CCF2"/>
<path d="M45.6979 74.7964C44.0511 79.6084 40.9928 83.9622 36.7582 86.9411C33.9352 89.0034 36.7582 93.5864 39.5813 91.5241C44.9921 87.6286 48.7562 82.3582 50.8735 76.1712C51.8145 72.9632 46.6389 71.5883 45.6979 74.7964Z" fill="#56CCF2"/>
<path d="M31.818 92.4409C45.4627 92.4409 58.8722 92.4409 72.5169 92.4409C76.0457 92.4409 76.0457 87.1702 72.5169 87.1702C58.8722 87.1702 45.4627 87.1702 31.818 87.1702C28.2892 87.3993 28.2892 92.4409 31.818 92.4409Z" fill="#56CCF2"/>
<path d="M28.2891 90.6075C28.2891 94.7322 28.2891 98.6277 28.2891 102.752C28.2891 106.19 33.6999 106.19 33.6999 102.752C33.6999 98.6277 33.6999 94.7322 33.6999 90.6075C33.6999 87.1702 28.2891 87.1702 28.2891 90.6075Z" fill="#56CCF2"/>
<path d="M71.1055 90.6075C71.1055 95.1905 71.1055 99.7736 71.1055 104.357C71.1055 107.794 76.5163 107.794 76.5163 104.357C76.5163 99.7736 76.5163 95.1905 76.5163 90.6075C76.5163 87.1702 71.1055 87.1702 71.1055 90.6075Z" fill="#56CCF2"/>
<path d="M22.8784 105.044C22.8784 113.293 22.8784 121.313 22.8784 129.563C22.8784 133 28.2893 133 28.2893 129.563C28.2893 121.313 28.2893 113.293 28.2893 105.044C28.2893 101.607 22.8784 101.607 22.8784 105.044Z" fill="#56CCF2"/>
<path d="M25.9366 107.335C31.3475 107.335 36.7583 107.335 42.1692 107.335C45.698 107.335 45.698 102.065 42.1692 102.065C41.9339 102.065 41.4634 102.065 41.2282 102.065C37.6994 102.065 37.6994 107.335 41.2282 107.335C41.4634 107.335 41.9339 107.335 42.1692 107.335C45.698 107.335 45.698 102.065 42.1692 102.065C36.7583 102.065 31.3475 102.065 25.9366 102.065C22.4078 102.065 22.4078 107.335 25.9366 107.335Z" fill="#56CCF2"/>
<path d="M38.4053 105.961C38.4053 113.523 38.4053 121.314 38.4053 128.875C38.4053 132.313 43.8161 132.313 43.8161 128.875C43.8161 121.314 43.8161 113.523 43.8161 105.961C43.8161 102.753 38.4053 102.753 38.4053 105.961Z" fill="#56CCF2"/>
<path d="M61.46 106.419C61.46 113.293 61.46 120.397 61.46 127.271C61.46 130.709 66.8708 130.709 66.8708 127.271C66.8708 120.397 66.8708 113.293 66.8708 106.419C66.8708 102.982 61.46 102.982 61.46 106.419Z" fill="#56CCF2"/>
<path d="M64.9889 108.023C69.4587 108.023 73.9285 108.023 78.3984 108.023C81.9272 108.023 81.9272 102.753 78.3984 102.753C73.9285 102.753 69.4587 102.753 64.9889 102.753C61.4601 102.753 61.4601 108.023 64.9889 108.023Z" fill="#56CCF2"/>
<path d="M77.457 105.502C77.457 112.606 77.457 119.939 77.457 127.042C77.457 130.479 82.8679 130.479 82.8679 127.042C82.8679 119.939 82.8679 112.606 82.8679 105.502C82.8679 102.065 77.457 102.065 77.457 105.502Z" fill="#56CCF2"/>
<path d="M24.0548 133.917C30.8772 133.917 37.4643 133.917 44.2867 133.917C47.8155 133.917 47.8155 128.646 44.2867 128.646C37.4643 128.646 30.8772 128.646 24.0548 128.646C20.526 128.646 20.526 133.917 24.0548 133.917Z" fill="#56CCF2"/>
<path d="M20.2905 132.313C20.2905 183.184 20.2905 233.825 20.2905 284.696C20.2905 288.133 25.7014 288.133 25.7014 284.696C25.7014 233.825 25.7014 183.184 25.7014 132.313C25.7014 128.876 20.2905 128.876 20.2905 132.313Z" fill="#56CCF2"/>
<path d="M62.8717 133.458C68.9883 133.458 75.3402 133.458 81.4568 133.458C84.9856 133.458 84.9856 128.188 81.4568 128.188C75.3402 128.188 68.9883 128.188 62.8717 128.188C59.3429 128.188 59.3429 133.458 62.8717 133.458Z" fill="#56CCF2"/>
<path d="M59.1074 132.771C59.1074 174.705 59.1074 216.639 59.1074 258.573C59.1074 262.01 64.5182 262.01 64.5182 258.573C64.5182 216.639 64.5182 174.705 64.5182 132.771C64.5182 129.334 59.1074 129.334 59.1074 132.771Z" fill="#56CCF2"/>
<path d="M41.4634 132.313C41.4634 175.164 41.4634 217.785 41.4634 260.636C41.4634 264.073 46.8742 264.073 46.8742 260.636C46.8742 217.785 46.8742 175.164 46.8742 132.313C46.8742 128.876 41.4634 128.876 41.4634 132.313Z" fill="#56CCF2"/>
<path d="M44.0512 263.615C49.9326 263.615 55.8139 263.615 61.6953 263.615C65.2241 263.615 65.2241 258.344 61.6953 258.344C55.8139 258.344 49.9326 258.344 44.0512 258.344C40.7577 258.344 40.7577 263.615 44.0512 263.615Z" fill="#56CCF2"/>
<path d="M79.8096 130.938C79.8096 181.58 79.8096 232.221 79.8096 282.863C79.8096 286.3 85.2204 286.3 85.2204 282.863C85.2204 232.221 85.2204 181.58 85.2204 130.938C85.2204 127.501 79.8096 127.501 79.8096 130.938Z" fill="#56CCF2"/>
<path d="M23.1137 287.446C28.2893 287.446 33.2296 287.446 38.4052 287.446C41.9341 287.446 41.9341 282.176 38.4052 282.176C33.2296 282.176 28.2893 282.176 23.1137 282.176C19.8202 282.176 19.8202 287.446 23.1137 287.446Z" fill="#56CCF2"/>
<path d="M42.4045 284.925C42.4045 280.113 42.4045 275.301 42.4045 270.26C42.4045 266.823 36.9937 266.823 36.9937 270.26C36.9937 275.072 36.9937 279.884 36.9937 284.925C36.9937 288.133 42.4045 288.133 42.4045 284.925Z" fill="#56CCF2"/>
<path d="M39.3463 273.01C48.5212 273.01 57.6961 273.01 66.6358 273.01C70.1646 273.01 70.1646 267.739 66.6358 267.739C57.4609 267.739 48.286 267.739 39.3463 267.739C35.8175 267.739 35.8175 273.01 39.3463 273.01Z" fill="#56CCF2"/>
<path d="M64.0479 270.26C64.0479 275.072 64.0479 279.884 64.0479 284.926C64.0479 288.363 69.4587 288.363 69.4587 284.926C69.4587 280.113 69.4587 275.301 69.4587 270.26C69.2234 266.823 64.0479 266.823 64.0479 270.26Z" fill="#56CCF2"/>
<path d="M67.1061 287.446C72.0464 287.446 76.9867 287.446 81.9271 287.446C85.4559 287.446 85.4559 282.176 81.9271 282.176C76.9867 282.176 72.0464 282.176 67.1061 282.176C63.5773 282.176 63.5773 287.446 67.1061 287.446Z" fill="#56CCF2"/>
<path d="M13.9389 274.155C16.5267 274.155 18.8792 274.155 21.467 274.155C24.9958 274.155 24.9958 268.885 21.467 268.885C18.8792 268.885 16.5267 268.885 13.9389 268.885C10.6454 268.885 10.6454 274.155 13.9389 274.155Z" fill="#56CCF2"/>
<path d="M10.4097 271.406C10.4097 280.113 10.4097 288.821 10.4097 297.529C10.4097 300.966 15.8205 300.966 15.8205 297.529C15.8205 288.821 15.8205 280.113 15.8205 271.406C15.8205 268.197 10.4097 268.197 10.4097 271.406Z" fill="#56CCF2"/>
<path d="M4.7638 302.341C7.58684 302.341 10.4099 302.341 13.2329 302.341C16.7618 302.341 16.7618 297.07 13.2329 297.07C10.4099 297.07 7.58684 297.07 4.7638 297.07C1.23498 297.07 1.23498 302.341 4.7638 302.341Z" fill="#56CCF2"/>
<path d="M0.764648 300.278C0.764648 313.34 0.764648 326.63 0.764648 339.692C0.764648 343.129 6.17551 343.129 6.17551 339.692C6.17551 326.63 6.17551 313.34 6.17551 300.278C6.17551 296.841 0.764648 296.841 0.764648 300.278Z" fill="#56CCF2"/>
<path d="M85.2207 274.155C87.1027 274.155 88.9847 274.155 90.8668 274.155C94.3956 274.155 94.3956 268.885 90.8668 268.885C88.9847 268.885 87.1027 268.885 85.2207 268.885C81.9271 268.885 81.9271 274.155 85.2207 274.155Z" fill="#56CCF2"/>
<path d="M88.2788 271.406C88.2788 281.488 88.2788 291.342 88.2788 301.424C88.2788 304.862 93.6896 304.862 93.6896 301.424C93.6896 291.342 93.6896 281.488 93.6896 271.406C93.6896 268.197 88.2788 268.197 88.2788 271.406Z" fill="#56CCF2"/>
<path d="M91.3374 304.403C94.8662 304.403 98.395 304.403 101.924 304.403C105.453 304.403 105.453 299.133 101.924 299.133C98.395 299.133 94.8662 299.133 91.3374 299.133C88.0438 299.362 88.0438 304.403 91.3374 304.403Z" fill="#56CCF2"/>
<path d="M99.3359 301.424C99.3359 314.944 99.3359 328.234 99.3359 341.754C99.3359 345.191 104.747 345.191 104.747 341.754C104.747 328.234 104.747 314.944 104.747 301.424C104.747 297.987 99.3359 297.987 99.3359 301.424Z" fill="#56CCF2"/>
<path d="M37.9347 292.717C37.9347 306.695 36.9937 320.673 36.9937 334.651C36.9937 338.088 42.4045 338.088 42.4045 334.651C42.4045 320.673 43.3455 306.695 43.3455 292.717C43.3455 289.28 37.9347 289.28 37.9347 292.717Z" fill="#56CCF2"/>
<path d="M64.2832 292.945C64.2832 306.923 64.2832 320.902 64.2832 334.88C64.2832 338.317 69.6941 338.317 69.6941 334.88C69.6941 320.902 69.6941 306.923 69.6941 292.945C69.6941 289.737 64.2832 289.737 64.2832 292.945Z" fill="#56CCF2"/>
<path d="M46.1685 281.259C46.1685 299.133 46.1685 316.777 46.1685 334.651C46.1685 338.088 51.5793 338.088 51.5793 334.651C51.5793 316.777 51.5793 299.133 51.5793 281.259C51.5793 277.822 46.1685 277.822 46.1685 281.259Z" fill="#56CCF2"/>
<path d="M55.5786 281.259C55.5786 299.133 54.6376 316.777 54.4023 334.651C54.4023 338.088 59.8132 338.088 59.8132 334.651C59.8132 316.777 60.7542 299.133 60.9894 281.259C60.9894 277.822 55.5786 277.822 55.5786 281.259Z" fill="#56CCF2"/>
<path d="M2.64661 345.191C35.3469 345.191 68.0472 345.191 100.983 345.191C104.512 345.191 104.512 339.921 100.983 339.921C68.2825 339.921 35.5822 339.921 2.64661 339.921C-0.882203 339.921 -0.882203 345.191 2.64661 345.191Z" fill="#56CCF2"/>
<path d="M26.6426 296.612C26.6426 309.444 26.6426 322.277 26.6426 334.88C26.6426 338.317 32.0534 338.317 32.0534 334.88C32.0534 322.047 32.0534 309.215 32.0534 296.612C32.0534 293.404 26.6426 293.404 26.6426 296.612Z" fill="#56CCF2"/>
<path d="M16.0562 308.299C16.0562 317.235 16.0562 326.172 16.0562 335.109C16.0562 338.546 21.467 338.546 21.467 335.109C21.467 326.172 21.467 317.235 21.467 308.299C21.2318 304.861 16.0562 304.861 16.0562 308.299Z" fill="#56CCF2"/>
<path d="M76.2808 297.987C76.2808 310.361 76.2808 322.735 76.2808 334.88C76.2808 338.317 81.6916 338.317 81.6916 334.88C81.6916 322.506 81.6916 310.132 81.6916 297.987C81.6916 294.779 76.2808 294.55 76.2808 297.987Z" fill="#56CCF2"/>
<path d="M85.9263 310.819C85.9263 318.839 85.9263 326.859 85.9263 334.88C85.9263 338.317 91.3371 338.317 91.3371 334.88C91.3371 326.859 91.3371 318.839 91.3371 310.819C91.3371 307.611 85.9263 307.611 85.9263 310.819Z" fill="#56CCF2"/>
</svg>
