<svg width="277" height="709" viewBox="0 0 277 709" fill="none" xmlns="http://www.w3.org/2000/svg">
<path d="M176.912 152.496C162.367 167.565 147.577 182.889 132.786 197.958C135.498 197.958 138.456 197.958 141.167 197.958C119.228 175.227 97.0419 152.241 75.3488 129.765C75.3488 132.574 75.3488 135.639 75.3488 138.449C85.9488 126.7 96.5488 115.207 106.902 103.714C104.191 103.714 101.233 103.714 98.5209 103.714C102.465 107.8 106.656 112.142 110.6 116.228C116.023 121.847 124.651 113.164 118.981 107.545C115.037 103.458 110.847 99.1162 106.902 95.0297C104.684 92.7311 100.493 92.7311 98.5209 95.0297C87.9209 106.778 77.3209 118.272 66.9675 129.765C64.7488 132.064 64.7488 136.15 66.9675 138.449C88.907 161.18 111.093 184.166 132.786 206.642C135.005 208.941 138.949 208.941 141.167 206.642C155.712 191.573 170.749 176.249 185.293 161.18C190.963 155.561 182.581 146.877 176.912 152.496Z" fill="white"/>
<path d="M197.865 148.409C201.563 144.323 204.767 139.981 208.219 135.895C210.437 133.341 210.437 129.765 208.219 127.211C198.605 115.973 189.484 103.714 178.884 93.4973C174.693 89.4108 171.488 89.6662 166.065 89.6662C153.74 89.6662 141.414 89.6662 129.088 89.6662C121.2 89.6662 121.2 102.181 129.088 102.181C140.428 102.181 151.521 102.181 163.107 102.181C163.6 102.181 173.214 101.67 173.214 102.181C173.214 101.926 167.051 97.8392 172.474 103.969C181.595 114.696 190.963 125.168 200.084 136.15C200.084 133.341 200.084 130.276 200.084 127.466C196.633 131.553 193.181 135.895 189.73 139.981C184.307 145.345 192.688 154.284 197.865 148.409Z" fill="white"/>
<path d="M167.791 92.4757C149.302 111.376 130.814 130.02 112.326 148.665C106.902 154.284 115.284 163.223 120.707 157.349C139.195 138.449 157.684 119.804 176.172 101.159C181.842 95.7959 173.46 86.8568 167.791 92.4757Z" fill="white"/>
<path d="M144.865 153.262C157.684 166.543 170.749 180.08 183.567 193.361C188.991 198.98 197.619 190.296 191.949 184.677C179.13 171.396 166.065 157.859 153.247 144.578C148.07 138.704 139.442 147.643 144.865 153.262Z" fill="white"/>
<path d="M207.479 197.958C207.233 197.703 206.986 197.703 206.986 197.447C204.767 195.149 200.577 195.149 198.605 197.447C196.633 199.746 196.386 203.832 198.605 206.131C198.851 206.386 199.098 206.642 199.344 206.897C201.563 209.196 205.753 209.196 207.726 206.897C209.698 204.343 209.944 200.512 207.479 197.958Z" fill="white"/>
<path d="M123.172 128.743C125.884 131.553 128.842 134.618 131.553 137.427C133.772 139.726 137.963 139.726 139.935 137.427C142.153 135.128 142.153 131.042 139.935 128.743C137.223 125.934 134.265 122.869 131.553 120.059C129.335 117.761 125.144 117.761 123.172 120.059C120.953 122.614 120.707 126.445 123.172 128.743Z" fill="white"/>
<circle cx="138.5" cy="138.5" r="138.5" fill="url(#paint0_linear)"/>
<path d="M140.5 275C140.5 318.482 110.564 325.814 110.564 360.682C110.564 387.345 171.747 388.576 172.987 419.751C174.227 450.927 87 451.736 87 482.512C87 512.047 154.797 493.588 158.931 527.224C162.036 552.483 140.742 553.478 121.725 570.706C74.2258 613.74 127 704 130 710" stroke="url(#paint1_linear)" stroke-width="2"/>
<path d="M136.392 276.924C138.38 273.742 143.035 273.802 144.94 277.035L154.013 292.428C155.992 295.786 153.539 300.017 149.641 299.966L131.101 299.727C127.204 299.677 124.86 295.384 126.925 292.078L136.392 276.924Z" fill="url(#paint2_linear)"/>
<defs>
<linearGradient id="paint0_linear" x1="86.7306" y1="9.7488" x2="226.911" y2="209.767" gradientUnits="userSpaceOnUse">
<stop stop-color="white"/>
<stop offset="1" stop-color="white" stop-opacity="0"/>
</linearGradient>
<linearGradient id="paint1_linear" x1="130" y1="277" x2="130" y2="709.5" gradientUnits="userSpaceOnUse">
<stop stop-color="white" stop-opacity="0"/>
<stop offset="1" stop-color="white"/>
</linearGradient>
<linearGradient id="paint2_linear" x1="140.757" y1="269.937" x2="140.243" y2="309.817" gradientUnits="userSpaceOnUse">
<stop offset="0.0276243" stop-color="#8391B8" stop-opacity="0"/>
<stop offset="1" stop-color="#8391B8"/>
</linearGradient>
</defs>
</svg>
