<svg width="79" height="65" viewBox="0 0 79 65" fill="none" xmlns="http://www.w3.org/2000/svg">
<mask id="mask0" mask-type="alpha" maskUnits="userSpaceOnUse" x="0" y="0" width="79" height="65">
<path d="M60.9838 34.3324C53.0367 42.5662 44.955 50.9395 36.8732 59.1734C38.3548 59.1734 39.9712 59.1734 41.4528 59.1734C29.4649 46.7529 17.3422 34.1928 5.48888 21.9119C5.48888 23.447 5.48888 25.1217 5.48888 26.6568C11.2808 20.2372 17.0728 13.9572 22.73 7.67715C21.2484 7.67715 19.632 7.67715 18.1504 7.67715C20.3055 9.91005 22.5953 12.2825 24.7505 14.5154C27.7138 17.5856 32.4282 12.8407 29.3302 9.77049C27.175 7.53759 24.8852 5.16514 22.73 2.93224C21.5178 1.67623 19.2279 1.67623 18.1504 2.93224C12.3584 9.35182 6.56645 15.6318 0.909201 21.9119C-0.303067 23.1679 -0.303067 25.4008 0.909201 26.6568C12.8972 39.0773 25.0199 51.6373 36.8732 63.9183C38.0854 65.1743 40.2406 65.1743 41.4528 63.9183C49.3999 55.6845 57.6164 47.3111 65.5635 39.0773C68.6615 36.007 64.0819 31.2621 60.9838 34.3324Z" fill="white"/>
<path d="M72.433 32.0996C74.4535 29.8667 76.2045 27.4943 78.0903 25.2614C79.3026 23.8658 79.3026 21.912 78.0903 20.5165C72.8371 14.376 67.8534 7.67731 62.0614 2.09507C59.7716 -0.137833 58.0205 0.00172292 55.0572 0.00172292C48.3224 0.00172292 41.5875 0.00172292 34.8527 0.00172292C30.5424 0.00172292 30.5424 6.83998 34.8527 6.83998C41.0488 6.83998 47.1101 6.83998 53.4408 6.83998C53.7102 6.83998 58.9634 6.56086 58.9634 6.83998C58.9634 6.70042 55.596 4.46752 58.5593 7.81687C63.5431 13.6782 68.6615 19.4 73.6453 25.4009C73.6453 23.8658 73.6453 22.1912 73.6453 20.656C71.7596 22.8889 69.8738 25.2614 67.9881 27.4943C65.0247 30.425 69.6044 35.3094 72.433 32.0996Z" fill="white"/>
<path d="M56.0001 1.53673C45.8978 11.8639 35.7956 22.0515 25.6934 32.2391C22.73 35.3093 27.3097 40.1938 30.273 36.984C40.3753 26.6568 50.4775 16.4692 60.5797 6.28164C63.6778 3.35096 59.0981 -1.5335 56.0001 1.53673Z" fill="white"/>
<path d="M43.4733 34.7512C50.4775 42.0082 57.6164 49.4046 64.6206 56.6616C67.584 59.7318 72.2983 54.9869 69.2003 51.9167C62.1961 44.6597 55.0572 37.2633 48.053 30.0063C45.2244 26.7965 40.51 31.681 43.4733 34.7512Z" fill="white"/>
<path d="M77.6862 59.1733C77.5515 59.0337 77.4168 59.0337 77.4168 58.8942C76.2045 57.6381 73.9147 57.6381 72.8371 58.8942C71.7596 60.1502 71.6249 62.3831 72.8371 63.6391C72.9718 63.7786 73.1065 63.9182 73.2412 64.0577C74.4535 65.3137 76.7433 65.3137 77.8209 64.0577C78.8985 62.6622 79.0332 60.5688 77.6862 59.1733Z" fill="white"/>
<path d="M31.62 21.3539C33.1017 22.889 34.718 24.5637 36.1997 26.0988C37.412 27.3548 39.7018 27.3548 40.7794 26.0988C41.9916 24.8428 41.9916 22.6099 40.7794 21.3539C39.2977 19.8188 37.6813 18.1441 36.1997 16.609C34.9874 15.353 32.6976 15.353 31.62 16.609C30.4077 18.0046 30.273 20.0979 31.62 21.3539Z" fill="white"/>
</mask>
<g mask="url(#mask0)">
<rect width="79.2295" height="65.0228" fill="url(#paint0_linear)"/>
</g>
<defs>
<linearGradient id="paint0_linear" x1="7.97797" y1="59.3714" x2="82.6523" y2="14.2371" gradientUnits="userSpaceOnUse">
<stop stop-color="#38307F"/>
<stop offset="0.664137" stop-color="#6EA4BF"/>
<stop offset="1" stop-color="#94C6D3" stop-opacity="0.899178"/>
</linearGradient>
</defs>
</svg>
