<svg width="1120" height="543" viewBox="0 0 1120 543" fill="none" xmlns="http://www.w3.org/2000/svg">
<path d="M974.472 14.0325C1005.42 26.5289 1027.73 55.0041 1028.78 87.9861C1029.2 103.35 1024.99 118.715 1015.1 130.801C1003.52 145.141 988.997 149.239 971.735 152.926C965.209 154.36 967.946 164.193 974.472 162.759C993.839 158.662 1010.05 153.336 1023.1 137.562C1034.47 123.631 1039.94 105.604 1039.31 87.9861C1038.05 50.0875 1012.57 18.3346 977.209 4.19938C970.893 1.53623 968.157 11.5743 974.472 14.0325Z" fill="white" fill-opacity="0.2"/>
<path d="M975.945 11.9839C1007.1 7.47704 1040.36 10.5499 1067.52 26.9385C1090.46 40.8689 1109.2 64.4275 1108.57 91.8785C1107.94 120.559 1086.25 140.635 1061.2 152.312C1035.73 164.193 1003.31 169.929 977.629 155.589C971.735 152.312 966.472 161.12 972.366 164.398C1013.63 187.342 1077.83 167.881 1105.2 131.826C1136.99 90.0347 1109.83 37.5911 1067.73 15.2616C1038.89 -0.1027 1005.21 -2.56099 973.208 2.15074C966.472 2.97017 969.419 12.8033 975.945 11.9839Z" fill="white" fill-opacity="0.2"/>
<path d="M704.679 113.416C693.733 95.184 682.997 72.8545 660.472 66.9136C653.946 65.0699 651.209 75.1079 657.735 76.7468C677.102 82.0731 686.365 103.173 695.627 118.743C699.206 124.274 708.258 119.152 704.679 113.416Z" fill="white" fill-opacity="0.2"/>
<path d="M729.94 64.8656C705.732 69.5773 698.574 93.9555 694.996 114.646C693.943 120.997 704.048 123.865 705.1 117.309C708.047 100.306 712.258 78.796 732.677 74.6988C739.413 73.4697 736.677 63.6365 729.94 64.8656Z" fill="white" fill-opacity="0.2"/>
<path d="M684.891 19.3873C692.89 42.946 704.468 66.2998 729.94 74.9039C736.255 77.1573 739.202 67.1193 732.677 65.0707C710.994 57.6958 701.521 36.3905 694.995 16.7241C692.89 10.3735 682.786 13.0367 684.891 19.3873Z" fill="white" fill-opacity="0.2"/>
<path d="M666.366 70.3966C683.838 61.7925 691.416 36.5949 694.995 19.3868C696.469 13.0362 686.154 10.1681 684.89 16.7236C681.733 31.2686 675.839 54.4176 661.103 61.5877C654.998 64.4557 660.261 73.2646 666.366 70.3966Z" fill="white" fill-opacity="0.2"/>
<path d="M303.978 155.022C303.557 131.873 298.294 107.29 274.085 97.662C267.77 95.2037 265.033 105.037 271.349 107.495C290.505 115.28 293.242 137.404 293.452 155.022C293.663 161.578 304.188 161.578 303.978 155.022Z" fill="white" fill-opacity="0.2"/>
<path d="M329.869 104.422C304.819 109.749 290.293 131.873 293.662 156.251C294.504 162.806 304.819 159.938 303.766 153.588C301.029 134.536 313.66 118.353 332.606 114.46C339.342 113.026 336.395 102.988 329.869 104.422Z" fill="white" fill-opacity="0.2"/>
<path d="M301.03 70.6204C302.082 88.8528 312.187 104.832 328.607 113.845C334.501 117.123 339.764 108.314 333.869 105.037C320.818 97.8665 312.397 85.3702 311.555 70.6204C311.134 64.065 300.609 64.065 301.03 70.6204Z" fill="white" fill-opacity="0.2"/>
<path d="M283.558 107.7C299.347 101.759 306.294 86.8043 311.346 72.0545C313.451 65.7039 303.346 63.0408 301.241 69.3914C297.452 80.044 292.61 93.3597 280.822 97.8666C274.506 100.12 277.243 109.953 283.558 107.7Z" fill="white" fill-opacity="0.2"/>
<path d="M861.494 314.077C855.179 295.23 847.811 275.769 829.707 264.911C824.023 261.429 818.761 270.238 824.444 273.72C840.022 283.144 845.916 300.762 851.39 316.74C853.495 323.091 863.599 320.428 861.494 314.077Z" fill="white" fill-opacity="0.2"/>
<path d="M864.021 265.117C864.231 265.526 864.442 265.936 864.652 266.346C864.652 264.707 864.652 262.863 864.652 261.224C863.179 264.707 858.969 267.165 856.653 270.443C854.337 273.926 852.443 278.228 851.18 282.325C848.233 293.182 849.496 304.654 850.969 315.512C851.811 321.862 862.337 322.067 861.495 315.512C859.811 302.811 857.495 288.266 864.863 276.794C868.442 271.262 877.073 267.37 872.862 259.995C869.915 254.259 860.863 259.381 864.021 265.117Z" fill="white" fill-opacity="0.2"/>
<path d="M839.601 241.763C842.549 247.908 845.496 254.259 850.338 259.176C855.179 264.092 860.442 266.141 867.178 267.37C873.704 268.599 876.651 258.766 869.915 257.537C864.442 256.513 860.442 255.079 856.863 250.981C853.285 246.884 850.969 241.558 848.653 236.641C845.917 230.7 836.865 235.822 839.601 241.763Z" fill="white" fill-opacity="0.2"/>
<path d="M847.601 259.79C846.759 253.235 847.18 246.884 849.285 240.533C851.39 234.183 841.075 231.519 839.18 237.87C836.865 245.04 836.233 252.415 837.075 259.79C837.496 262.658 839.18 264.912 842.338 264.912C844.864 264.912 847.811 262.453 847.601 259.79Z" fill="white" fill-opacity="0.2"/>
<path d="M577.84 184.333C573.63 180.646 571.946 175.524 568.578 171.222C564.999 166.92 559.947 163.642 554.052 164.052C547.316 164.462 547.316 174.705 554.052 174.295C558.473 173.885 560.999 177.982 562.894 181.465C564.999 185.153 567.104 188.84 570.472 191.503C575.524 196.01 582.892 188.635 577.84 184.333Z" fill="white" fill-opacity="0.2"/>
<path d="M587.524 158.111C574.051 156.677 572.156 177.983 568.999 186.382C566.683 192.528 576.998 195.191 579.103 189.045C580.366 185.562 583.103 167.74 587.313 168.149C594.26 169.174 594.26 158.931 587.524 158.111Z" fill="white" fill-opacity="0.2"/>
<path d="M563.946 152.58C568.787 160.569 576.787 166.305 586.049 168.149C592.575 169.378 595.522 159.545 588.786 158.316C582.049 156.882 576.576 153.194 572.998 147.458C569.629 141.927 560.577 147.049 563.946 152.58Z" fill="white" fill-opacity="0.2"/>
<path d="M562.894 170.812C569.21 165.281 572.578 158.111 573.841 150.122C574.262 147.458 571.104 145 568.578 145C565.421 145 563.736 147.458 563.315 150.122C562.684 155.448 559.526 160.16 555.526 163.642C550.474 167.944 557.842 175.114 562.894 170.812Z" fill="white" fill-opacity="0.2"/>
<path d="M40.839 307.846C32.8396 293.301 23.1561 279.371 5.05225 277.117C-1.68408 276.298 -1.68408 286.541 5.05225 287.36C18.7354 288.999 25.8928 302.52 31.5765 313.172C34.9447 318.704 43.9967 313.582 40.839 307.846Z" fill="white" fill-opacity="0.2"/>
<path d="M58.7331 274.659C42.5238 279.371 31.3668 293.916 31.1562 310.509C31.1562 317.065 41.6818 317.065 41.6818 310.509C41.8923 298.627 49.8917 287.975 61.6803 284.492C67.9956 282.444 65.2589 272.61 58.7331 274.659Z" fill="white" fill-opacity="0.2"/>
<path d="M22.735 251.305C29.8924 267.284 40.2074 284.083 60.2059 284.697C66.9422 284.902 66.9422 274.659 60.2059 274.454C44.6281 274.045 37.2603 258.066 31.9975 246.184C29.0504 240.038 19.9984 245.16 22.735 251.305Z" fill="white" fill-opacity="0.2"/>
<path d="M15.7877 289.409C22.524 286.746 24.4186 280.19 26.7342 273.84C29.6813 265.646 31.5759 257.246 32.6285 248.642C33.4705 242.087 22.945 242.087 22.103 248.642C21.4714 254.174 20.2084 259.705 18.7348 265.031C18.1033 267.284 15.3666 278.552 13.2615 279.576C6.73571 281.829 9.47235 291.867 15.7877 289.409Z" fill="white" fill-opacity="0.2"/>
<path d="M159.777 520.284C154.304 505.739 146.094 490.58 129.253 487.097C122.727 485.663 119.78 495.496 126.516 496.93C139.568 499.798 145.462 511.885 149.883 523.152C151.988 529.093 162.303 526.43 159.777 520.284Z" fill="white" fill-opacity="0.2"/>
<path d="M164.198 487.916C152.62 496.316 147.147 509.222 149.883 523.152C151.146 529.707 161.251 526.839 159.988 520.489C158.304 511.68 162.093 502.256 169.461 496.93C174.723 492.833 169.671 484.024 164.198 487.916Z" fill="white" fill-opacity="0.2"/>
<path d="M138.937 466.406C142.305 479.517 151.357 490.784 163.988 496.725C170.092 499.593 175.355 490.784 169.25 487.916C158.935 483.205 151.778 474.601 149.041 463.743C147.568 457.392 137.463 460.055 138.937 466.406Z" fill="white" fill-opacity="0.2"/>
<path d="M130.096 500.412C143.779 493.857 151.357 478.288 149.252 463.743C148.199 457.187 138.095 460.055 139.148 466.406C140.621 476.649 133.885 487.097 124.833 491.399C118.728 494.472 123.991 503.28 130.096 500.412Z" fill="white" fill-opacity="0.2"/>
<path d="M881.828 532.985C876.565 529.092 873.829 522.332 869.198 517.62C864.566 512.704 858.672 509.426 852.357 506.968C846.041 504.509 843.305 514.343 849.62 516.801C855.935 519.259 861.198 523.561 865.198 529.092C868.777 533.804 871.724 538.311 876.565 541.793C881.828 545.686 887.091 536.877 881.828 532.985Z" fill="white" fill-opacity="0.2"/>
<path d="M903.3 505.944C886.249 507.173 878.881 522.127 874.25 536.058C872.145 542.408 882.249 545.071 884.354 538.721C887.512 529.707 891.722 517.006 903.3 516.186C910.037 515.777 910.037 505.534 903.3 505.944Z" fill="white" fill-opacity="0.2"/>
<path d="M867.934 483.819C874.671 497.749 886.249 509.016 900.564 515.367C906.668 518.235 911.931 509.221 905.826 506.558C892.985 500.617 883.091 491.194 876.986 478.493C874.25 472.552 864.987 477.878 867.934 483.819Z" fill="white" fill-opacity="0.2"/>
<path d="M857.83 520.693C868.356 510.246 875.303 497.135 877.408 482.59C878.46 476.239 868.145 473.371 867.303 479.927C865.409 492.833 859.725 504.1 850.462 513.523C845.831 518.03 853.199 525.405 857.83 520.693Z" fill="white" fill-opacity="0.2"/>
</svg>
