<svg width="26" height="26" viewBox="0 0 26 26" fill="none" xmlns="http://www.w3.org/2000/svg">
<path d="M26 13C26 20.1825 20.1825 26 13 26C5.8175 26 0 20.1825 0 13C0 5.8175 5.8175 0 13 0C20.1825 0 26 5.8175 26 13ZM10.621 19.8575C16.3865 19.8575 19.539 15.08 19.539 10.9395C19.539 10.803 19.539 10.6665 19.5325 10.5365C20.1435 10.0945 20.6765 9.542 21.099 8.9115C20.54 9.1585 19.9355 9.3275 19.2985 9.4055C19.9485 9.0155 20.4425 8.4045 20.6765 7.67C20.072 8.0275 19.4025 8.2875 18.6875 8.4305C18.1155 7.8195 17.303 7.4425 16.3995 7.4425C14.6705 7.4425 13.2665 8.8465 13.2665 10.5755C13.2665 10.8225 13.2925 11.063 13.351 11.2905C10.7445 11.1605 8.437 9.9125 6.89 8.0145C6.6235 8.476 6.4675 9.0155 6.4675 9.5875C6.4675 10.673 7.02 11.635 7.865 12.194C7.3515 12.181 6.8705 12.038 6.448 11.804C6.448 11.817 6.448 11.83 6.448 11.843C6.448 13.364 7.527 14.625 8.9635 14.9175C8.7035 14.989 8.424 15.028 8.138 15.028C7.9365 15.028 7.7415 15.0085 7.5465 14.9695C7.943 16.2175 9.1 17.121 10.4715 17.147C9.399 17.9855 8.047 18.486 6.578 18.486C6.3245 18.486 6.0775 18.473 5.8305 18.4405C7.202 19.3375 8.853 19.8575 10.621 19.8575Z" fill="white"/>
</svg>
